{
	"asset":{
		"generator":"Khronos glTF Blender I/O v4.3.47",
		"version":"2.0"
	},
	"extensionsUsed":[
		"KHR_materials_sheen",
		"KHR_texture_transform",
		"KHR_materials_variants",
		"KHR_lights_punctual"
	],
	"extensionsRequired":[
		"KHR_texture_transform",
		"KHR_lights_punctual"
	],
	"extensions":{
		"KHR_materials_variants":{
			"variants":[
				{
					"name":"Mango Velvet"
				},
				{
					"name":"Peacock Velvet"
				}
			]
		},
		"KHR_lights_punctual":{
			"lights":[
				{
					"color":[
						1,
						1,
						1
					],
					"intensity":2049,
					"type":"directional",
					"name":"Sun"
				}
			]
		}
	},
	"scene":0,
	"scenes":[
		{
			"name":"Scene",
			"nodes":[
				0,
				1,
				2,
				3,
				4,
				5,
				6
			]
		}
	],
	"nodes":[
		{
			"mesh":0,
			"name":"Plane",
			"scale":[
				1.5535465478897095,
				1.5535465478897095,
				1.5535465478897095
			]
		},
		{
			"mesh":1,
			"name":"Sphere",
			"scale":[
				0.1322203278541565,
				0.1322203278541565,
				0.1322203278541565
			],
			"translation":[
				0,
				0.523322343826294,
				0
			]
		},
		{
			"mesh":2,
			"name":"SheenChair_fabric"
		},
		{
			"mesh":3,
			"name":"SheenChair_label",
			"rotation":[
				-0.04361938685178757,
				0,
				0,
				0.9990482330322266
			],
			"translation":[
				-0.000662992475554347,
				0.23622000217437744,
				0.059600744396448135
			]
		},
		{
			"mesh":4,
			"name":"SheenChair_metal"
		},
		{
			"mesh":5,
			"name":"SheenChair_wood"
		},
		{
			"extensions":{
				"KHR_lights_punctual":{
					"light":0
				}
			},
			"name":"Sun",
			"rotation":[
				-0.48860564827919006,
				0.11653755605220795,
				-0.20060963928699493,
				0.8410941362380981
			],
			"translation":[
				0.6279287338256836,
				1.7347862720489502,
				0.7396787405014038
			]
		}
	],
	"materials":[
		{
			"doubleSided":true,
			"name":"Floor",
			"pbrMetallicRoughness":{
				"baseColorFactor":[
					0.800000011920929,
					0.800000011920929,
					0.800000011920929,
					1
				],
				"metallicFactor":0,
				"roughnessFactor":0.5
			}
		},
		{
			"doubleSided":true,
			"name":"Sphere",
			"pbrMetallicRoughness":{
				"baseColorFactor":[
					0.800000011920929,
					0.800000011920929,
					0.800000011920929,
					1
				],
				"metallicFactor":0,
				"roughnessFactor":0.5
			}
		},
		{
			"extensions":{
				"KHR_materials_sheen":{
					"sheenColorFactor":[
						1.0,
						0.32899999618530273,
						0.10000000149011612
					],
					"sheenRoughnessFactor":0.800000011920929
				}
			},
			"name":"fabric Mystere Mango Velvet",
			"occlusionTexture":{
				"index":0,
				"texCoord":1
			},
			"pbrMetallicRoughness":{
				"baseColorTexture":{
					"index":1
				},
				"metallicFactor":0,
				"roughnessFactor":0.800000011920929
			}
		},
		{
			"extensions":{
				"KHR_materials_sheen":{
					"sheenColorFactor":[
						0.013000000268220901,
						0.2840000092983246,
						0.2980000078678131
					],
					"sheenRoughnessFactor":0.800000011920929
				}
			},
			"name":"fabric Mystere Peacock Velvet",
			"normalTexture":{
				"extensions":{
					"KHR_texture_transform":{
						"offset":[
							-0.5,
							0.5
						],
						"scale":[
							2,
							2
						]
					}
				},
				"index":2,
				"scale":0.6000000238418579
			},
			"occlusionTexture":{
				"index":3,
				"texCoord":1
			},
			"pbrMetallicRoughness":{
				"baseColorFactor":[
					0,
					0.09399999678134918,
					0.0989999994635582,
					1
				],
				"baseColorTexture":{
					"extensions":{
						"KHR_texture_transform":{
							"offset":[
								-3,
								3
							],
							"scale":[
								7,
								7
							]
						}
					},
					"index":4
				},
				"roughnessFactor":0.800000011920929
			}
		},
		{
			"name":"label",
			"occlusionTexture":{
				"index":5,
				"texCoord":1
			},
			"pbrMetallicRoughness":{
				"baseColorTexture":{
					"index":6
				},
				"metallicFactor":0
			}
		},
		{
			"name":"metal",
			"occlusionTexture":{
				"index":7,
				"texCoord":1
			},
			"pbrMetallicRoughness":{
				"baseColorFactor":[
					0.2800000011920929,
					0.25999999046325684,
					0.23000000417232513,
					1
				],
				"roughnessFactor":0.30000001192092896
			}
		},
		{
			"name":"wood Brown",
			"occlusionTexture":{
				"index":8,
				"texCoord":1
			},
			"pbrMetallicRoughness":{
				"baseColorTexture":{
					"extensions":{
						"KHR_texture_transform":{
							"offset":[
								-0.8635583765172254,
								1.125025697811076
							],
							"rotation":0.0872664675116539,
							"scale":[
								3,
								3
							]
						}
					},
					"index":9
				},
				"metallicRoughnessTexture":{
					"extensions":{
						"KHR_texture_transform":{
							"offset":[
								-0.8635583765172254,
								1.125025697811076
							],
							"rotation":0.0872664675116539,
							"scale":[
								3,
								3
							]
						}
					},
					"index":8
				}
			}
		},
		{
			"name":"wood Black",
			"occlusionTexture":{
				"index":10,
				"texCoord":1
			},
			"pbrMetallicRoughness":{
				"baseColorFactor":[
					0.035999998450279236,
					0.035999998450279236,
					0.035999998450279236,
					1
				],
				"baseColorTexture":{
					"extensions":{
						"KHR_texture_transform":{
							"offset":[
								-0.8635583765172254,
								1.125025697811076
							],
							"rotation":0.0872664675116539,
							"scale":[
								3,
								3
							]
						}
					},
					"index":11
				},
				"metallicRoughnessTexture":{
					"extensions":{
						"KHR_texture_transform":{
							"offset":[
								-0.8635583765172254,
								1.125025697811076
							],
							"rotation":0.0872664675116539,
							"scale":[
								3,
								3
							]
						}
					},
					"index":10
				}
			}
		}
	],
	"meshes":[
		{
			"name":"Plane",
			"primitives":[
				{
					"attributes":{
						"POSITION":0,
						"NORMAL":1,
						"TEXCOORD_0":2,
						"TEXCOORD_1":3
					},
					"indices":4,
					"material":0
				}
			]
		},
		{
			"name":"Sphere",
			"primitives":[
				{
					"attributes":{
						"POSITION":5,
						"NORMAL":6,
						"TEXCOORD_0":7,
						"TEXCOORD_1":8
					},
					"indices":9,
					"material":1
				}
			]
		},
		{
			"name":"SheenChair_fabric",
			"primitives":[
				{
					"attributes":{
						"POSITION":10,
						"NORMAL":11,
						"TEXCOORD_0":12,
						"TEXCOORD_1":13
					},
					"extensions":{
						"KHR_materials_variants":{
							"mappings":[
								{
									"material":2,
									"variants":[
										0
									]
								},
								{
									"material":3,
									"variants":[
										1
									]
								}
							]
						}
					},
					"indices":14,
					"material":2
				}
			]
		},
		{
			"name":"SheenChair_label",
			"primitives":[
				{
					"attributes":{
						"POSITION":15,
						"NORMAL":16,
						"TEXCOORD_0":17,
						"TEXCOORD_1":18
					},
					"indices":19,
					"material":4
				}
			]
		},
		{
			"name":"SheenChair_metal",
			"primitives":[
				{
					"attributes":{
						"POSITION":20,
						"NORMAL":21,
						"TEXCOORD_0":22,
						"TEXCOORD_1":23
					},
					"indices":24,
					"material":5
				}
			]
		},
		{
			"name":"SheenChair_wood",
			"primitives":[
				{
					"attributes":{
						"POSITION":25,
						"NORMAL":26,
						"TEXCOORD_0":27,
						"TEXCOORD_1":28
					},
					"extensions":{
						"KHR_materials_variants":{
							"mappings":[
								{
									"material":6,
									"variants":[
										0
									]
								},
								{
									"material":7,
									"variants":[
										1
									]
								}
							]
						}
					},
					"indices":29,
					"material":6
				}
			]
		}
	],
	"textures":[
		{
			"sampler":0,
			"source":0
		},
		{
			"sampler":0,
			"source":1
		},
		{
			"sampler":0,
			"source":2
		},
		{
			"sampler":0,
			"source":0
		},
		{
			"sampler":0,
			"source":3
		},
		{
			"sampler":0,
			"source":0
		},
		{
			"sampler":0,
			"source":4
		},
		{
			"sampler":0,
			"source":0
		},
		{
			"sampler":0,
			"source":5
		},
		{
			"sampler":0,
			"source":6
		},
		{
			"sampler":0,
			"source":7
		},
		{
			"sampler":0,
			"source":6
		}
	],
	"images":[
		{
			"mimeType":"image/jpeg",
			"name":"SheenChairOcclusion",
			"uri":"SheenChairOcclusion.jpg"
		},
		{
			"mimeType":"image/jpeg",
			"name":"SheenChairBaseColor",
			"uri":"SheenChairBaseColor.jpg"
		},
		{
			"mimeType":"image/jpeg",
			"name":"SheenChairFabricNormal",
			"uri":"SheenChairFabricNormal.jpg"
		},
		{
			"mimeType":"image/jpeg",
			"name":"SheenChairFabricOcclusion",
			"uri":"SheenChairFabricOcclusion.jpg"
		},
		{
			"mimeType":"image/jpeg",
			"name":"SheenChairLabelBaseColor",
			"uri":"SheenChairLabelBaseColor.jpg"
		},
		{
			"mimeType":"image/jpeg",
			"name":"SheenChairOcclusion-SheenChairWoodMetallicRoughness",
			"uri":"SheenChairOcclusion-SheenChairWoodMetallicRoughness.jpg"
		},
		{
			"mimeType":"image/jpeg",
			"name":"SheenChairWoodBaseColor",
			"uri":"SheenChairWoodBaseColor.jpg"
		},
		{
			"mimeType":"image/jpeg",
			"name":"SheenChairOcclusion-SheenChairBaseColor",
			"uri":"SheenChairOcclusion-SheenChairBaseColor.jpg"
		}
	],
	"accessors":[
		{
			"bufferView":0,
			"componentType":5126,
			"count":4,
			"max":[
				1,
				0,
				1
			],
			"min":[
				-1,
				0,
				-1
			],
			"type":"VEC3"
		},
		{
			"bufferView":1,
			"componentType":5126,
			"count":4,
			"type":"VEC3"
		},
		{
			"bufferView":2,
			"componentType":5126,
			"count":4,
			"type":"VEC2"
		},
		{
			"bufferView":3,
			"componentType":5126,
			"count":4,
			"type":"VEC2"
		},
		{
			"bufferView":4,
			"componentType":5123,
			"count":6,
			"type":"SCALAR"
		},
		{
			"bufferView":5,
			"componentType":5126,
			"count":559,
			"max":[
				0.9999997019767761,
				1,
				0.9999993443489075
			],
			"min":[
				-0.9999990463256836,
				-1,
				-1
			],
			"type":"VEC3"
		},
		{
			"bufferView":6,
			"componentType":5126,
			"count":559,
			"type":"VEC3"
		},
		{
			"bufferView":7,
			"componentType":5126,
			"count":559,
			"type":"VEC2"
		},
		{
			"bufferView":8,
			"componentType":5126,
			"count":559,
			"type":"VEC2"
		},
		{
			"bufferView":9,
			"componentType":5123,
			"count":2880,
			"type":"SCALAR"
		},
		{
			"bufferView":10,
			"componentType":5126,
			"count":14350,
			"max":[
				0.41253557801246643,
				0.6861773133277893,
				0.293540358543396
			],
			"min":[
				-0.41402238607406616,
				0.2265738844871521,
				-0.2767251133918762
			],
			"type":"VEC3"
		},
		{
			"bufferView":11,
			"componentType":5126,
			"count":14350,
			"type":"VEC3"
		},
		{
			"bufferView":12,
			"componentType":5126,
			"count":14350,
			"type":"VEC2"
		},
		{
			"bufferView":13,
			"componentType":5126,
			"count":14350,
			"type":"VEC2"
		},
		{
			"bufferView":14,
			"componentType":5123,
			"count":78528,
			"type":"SCALAR"
		},
		{
			"bufferView":15,
			"componentType":5126,
			"count":81,
			"max":[
				0.13618184626102448,
				0.010055896826088428,
				0.04677271470427513
			],
			"min":[
				-0.13588549196720123,
				0.005801851861178875,
				-0.11070986837148666
			],
			"type":"VEC3"
		},
		{
			"bufferView":16,
			"componentType":5126,
			"count":81,
			"type":"VEC3"
		},
		{
			"bufferView":17,
			"componentType":5126,
			"count":81,
			"type":"VEC2"
		},
		{
			"bufferView":18,
			"componentType":5126,
			"count":81,
			"type":"VEC2"
		},
		{
			"bufferView":19,
			"componentType":5123,
			"count":384,
			"type":"SCALAR"
		},
		{
			"bufferView":20,
			"componentType":5126,
			"count":2520,
			"max":[
				0.33995118737220764,
				0.5014813542366028,
				0.22082294523715973
			],
			"min":[
				-0.33995118737220764,
				-6.977785233175382e-05,
				-0.2393345683813095
			],
			"type":"VEC3"
		},
		{
			"bufferView":21,
			"componentType":5126,
			"count":2520,
			"type":"VEC3"
		},
		{
			"bufferView":22,
			"componentType":5126,
			"count":2520,
			"type":"VEC2"
		},
		{
			"bufferView":23,
			"componentType":5126,
			"count":2520,
			"type":"VEC2"
		},
		{
			"bufferView":24,
			"componentType":5123,
			"count":11520,
			"type":"SCALAR"
		},
		{
			"bufferView":25,
			"componentType":5126,
			"count":5514,
			"max":[
				0.3903724253177643,
				0.6404843330383301,
				0.2655284106731415
			],
			"min":[
				-0.3916984498500824,
				0.005148450843989849,
				-0.27543526887893677
			],
			"type":"VEC3"
		},
		{
			"bufferView":26,
			"componentType":5126,
			"count":5514,
			"type":"VEC3"
		},
		{
			"bufferView":27,
			"componentType":5126,
			"count":5514,
			"type":"VEC2"
		},
		{
			"bufferView":28,
			"componentType":5126,
			"count":5514,
			"type":"VEC2"
		},
		{
			"bufferView":29,
			"componentType":5123,
			"count":29376,
			"type":"SCALAR"
		}
	],
	"bufferViews":[
		{
			"buffer":0,
			"byteLength":48,
			"byteOffset":0,
			"target":34962
		},
		{
			"buffer":0,
			"byteLength":48,
			"byteOffset":48,
			"target":34962
		},
		{
			"buffer":0,
			"byteLength":32,
			"byteOffset":96,
			"target":34962
		},
		{
			"buffer":0,
			"byteLength":32,
			"byteOffset":128,
			"target":34962
		},
		{
			"buffer":0,
			"byteLength":12,
			"byteOffset":160,
			"target":34963
		},
		{
			"buffer":0,
			"byteLength":6708,
			"byteOffset":172,
			"target":34962
		},
		{
			"buffer":0,
			"byteLength":6708,
			"byteOffset":6880,
			"target":34962
		},
		{
			"buffer":0,
			"byteLength":4472,
			"byteOffset":13588,
			"target":34962
		},
		{
			"buffer":0,
			"byteLength":4472,
			"byteOffset":18060,
			"target":34962
		},
		{
			"buffer":0,
			"byteLength":5760,
			"byteOffset":22532,
			"target":34963
		},
		{
			"buffer":0,
			"byteLength":172200,
			"byteOffset":28292,
			"target":34962
		},
		{
			"buffer":0,
			"byteLength":172200,
			"byteOffset":200492,
			"target":34962
		},
		{
			"buffer":0,
			"byteLength":114800,
			"byteOffset":372692,
			"target":34962
		},
		{
			"buffer":0,
			"byteLength":114800,
			"byteOffset":487492,
			"target":34962
		},
		{
			"buffer":0,
			"byteLength":157056,
			"byteOffset":602292,
			"target":34963
		},
		{
			"buffer":0,
			"byteLength":972,
			"byteOffset":759348,
			"target":34962
		},
		{
			"buffer":0,
			"byteLength":972,
			"byteOffset":760320,
			"target":34962
		},
		{
			"buffer":0,
			"byteLength":648,
			"byteOffset":761292,
			"target":34962
		},
		{
			"buffer":0,
			"byteLength":648,
			"byteOffset":761940,
			"target":34962
		},
		{
			"buffer":0,
			"byteLength":768,
			"byteOffset":762588,
			"target":34963
		},
		{
			"buffer":0,
			"byteLength":30240,
			"byteOffset":763356,
			"target":34962
		},
		{
			"buffer":0,
			"byteLength":30240,
			"byteOffset":793596,
			"target":34962
		},
		{
			"buffer":0,
			"byteLength":20160,
			"byteOffset":823836,
			"target":34962
		},
		{
			"buffer":0,
			"byteLength":20160,
			"byteOffset":843996,
			"target":34962
		},
		{
			"buffer":0,
			"byteLength":23040,
			"byteOffset":864156,
			"target":34963
		},
		{
			"buffer":0,
			"byteLength":66168,
			"byteOffset":887196,
			"target":34962
		},
		{
			"buffer":0,
			"byteLength":66168,
			"byteOffset":953364,
			"target":34962
		},
		{
			"buffer":0,
			"byteLength":44112,
			"byteOffset":1019532,
			"target":34962
		},
		{
			"buffer":0,
			"byteLength":44112,
			"byteOffset":1063644,
			"target":34962
		},
		{
			"buffer":0,
			"byteLength":58752,
			"byteOffset":1107756,
			"target":34963
		}
	],
	"samplers":[
		{
			"magFilter":9729,
			"minFilter":9987
		}
	],
	"buffers":[
		{
			"byteLength":1166508,
			"uri":"MixedLightingExample.bin"
		}
	]
}
