<svg xmlns="http://www.w3.org/2000/svg" viewBox="0 0 200 200">
    <g fill="none">
        <path d="M27.014 90.57s.039.744-.287.736c-.322-.007-6.776-18.87-14.831-17.99 0 0 6.976-2.885 15.118 17.255zm1.385-1.186s-.216.713-.518.596c-.302-.117.043-20.052-7.828-21.964 0 0 7.541-.34 8.346 21.368zm10.784 16.609s.642.376.458.643c-.185.263-19.478-4.76-23.19 2.444 0 0 1.444-7.411 22.732-3.087zm-1.102 4.006s.728.157.637.466c-.092.31-19.987 1.621-21.239 9.625 0 0-.965-7.486 20.602-10.091z" stroke-width=".015" stroke="#000" fill="#FFF"/>
        <path d="M36.429 107.833s.697.259.562.553-20.01-1.31-22.415 6.423c0 0 .137-7.55 21.853-6.976zm-4.201-7.145s.514.541.263.745-17.413-9.94-22.965-4.037c0 0 3.43-6.728 22.702 3.292z" stroke-width=".015" stroke="#000" fill="#FFF"/>
        <path d="M29.27 102.332s.569.478.345.71c-.228.231-18.43-7.905-23.275-1.413 0 0 2.644-7.071 22.93.703z" stroke-width=".015" stroke="#000" fill="#FFF"/>
        <path d="M28.25 103.933s.627.392.435.655c-.192.259-19.332-5.32-23.248 1.77 0 0 1.656-7.365 22.813-2.425zm4.21.239s.44.6.164.773c-.274.169-15.996-12.092-22.258-6.949 0 0 4.265-6.232 22.094 6.176zm-7.761-11.359s.235.706-.079.785-11.535-16.401-19.069-13.42c0 0 5.964-4.63 19.148 12.635zm.274 2.738s.38.64.09.783c-.29.145-14.8-13.527-21.513-8.99 0 0 4.826-5.807 21.423 8.207z" stroke-width=".015" stroke="#000" fill="#FFF"/>
        <path d="M24.926 97.266s.44.6.165.773c-.275.169-15.997-12.092-22.259-6.95 0 0 4.265-6.23 22.094 6.177z" stroke-width=".015" stroke="#000" fill="#FFF"/>
        <path d="M24.06 97.937c.195 2.374.584 4.952 1.266 6.176 0 0-1.412 4.865 2.04 10.045 0 0-.156 2.825.472 4.08 0 0 1.57 3.296 3.452 3.61 1.523.255 4.947 1.46 8.816 2.009 0 0 6.722 5.524 5.467 10.547 0 0-.157 6.435-1.57 7.062 0 0 4.552-4.394.785 2.198l-1.727 7.376s10.045-8.475 3.924-1.256l-3.924 10.202s7.69-7.22 4.866-3.924l-1.256 3.453s16.95-10.672 4.866.942c0 0 3.138-1.413 4.865-.314 0 0 2.668-.47 2.354.157 0 0-8.161 4.08-9.574 11.3 0 0 3.296-3.924 2.04.314l.158 4.551s1.569-8.475 1.412 6.278c0 0 7.534-7.062 2.982 1.099v6.592s5.964-6.435 3.453-1.413c0 0 3.924-3.453 2.354 2.511 0 0-.314 4.08 1.413-.314 0 0 6.277-12.006 3.923-1.726 0 0-.314 7.533 1.57 1.726 0 0 .157 4.08 3.766 6.906 0 0-.47-19.932 4.552-5.807l1.57 6.435s1.098-3.61.941-5.65l3.139 3.139s5.964-8.946 4.708-3.767c0 0-2.982 6.278-2.354 8.161 0 0 6.592-13.654 7.063-14.282 0 0-.785 16.636 3.453 2.511 0 0 2.197 4.709 1.098 6.435 0 0 3.14-3.139 2.825-4.395 0 0 1.805-3.217 2.904 2.12 0 0 .706 3.687 1.334 2.432 0 0 1.57 9.417 2.04.47 0 0 .628-5.335-2.197-9.887 0 0 .314-1.255-.785-2.825 0 0 5.336 8.475 2.511-2.825 0 0 4.395 3.139 4.866 3.139 0 0-5.337-9.103-1.884-7.22 0 0-2.04-4.08 5.023.628 0 0-6.278-6.278.628-2.51 0 0 3.138 2.51.157-1.413 0 0-5.65-6.278 2.981.784 0 0 4.552 6.435 4.866 7.534 0 0-3.924-11.457-5.65-12.556 0 0 3.295-14.282 19.46-8.161 0 0 2.669 6.748 4.395-.471 0 0 5.023-2.511 9.417 8.318 0 0 1.57-5.336 1.256-6.435 0 0 2.668.471 2.354 0 0 0 5.18 1.727 5.65 1.413 0 0 2.668 2.668 2.825 1.255 0 0 3.61 1.099 2.825-.314 0 0 3.453 6.121 3.61 7.534l.941-5.493.785 1.098s.628-2.982.314-3.452 7.847 2.668 9.73 10.829l.786 3.296s2.354-5.807 1.726-7.377c0 0 2.04.314 2.197 2.04 0 0 1.57-9.102-.314-11.456 0 0 1.727-.314 2.198 1.098v-2.825s2.825.314 2.825-.628c0 0 1.726-1.57 2.51.314 0 0-4.865-13.811 2.355-6.278 0 0 2.825 4.238 1.412-3.139s-2.982-8.004-1.098-8.16c0 0 .314-1.413-.471-2.041s.47 0 .47 0 1.884 1.57-.156-7.063c0 0 2.511.628-2.197-10.829 0 0 1.098-.942-.471-4.238 0 0 3.139 1.727 4.237 1.1 0 0-.157-.629-1.412-2.198 0 0-8.475-21.502-.471-12.87 0 0 4.65 5.317 2.138-3.63 0 0-3.574-9.42-3.268-11.105l-168.54 9.03z" stroke="#000" fill="#FFF" stroke-width=".392"/>
        <path d="M192.6 88.985c.243.071 1.11.512 1.6 1.16 0 0 2.669 4.237.629-2.982 0 0-3.61-11.3-.157-6.906 0 0 2.354 2.825 1.098-2.51-1.514-6.446-2.51-8.947-2.51-8.947s4.55 1.883-5.965-13.654l3.453 1.412s-7.69-15.537-16.166-17.578l-3.138-2.354s15.066-14.91 10.044-29.349c0 0-2.668-2.04-6.435 1.57 0 0-2.51 1.883-4.865 1.255 0 0-12.085.471-12.87.471S142.88-4.023 117.14 2.883c0 0-2.04.784-3.766.314 0 0-7.22-6.278-26.368 2.668 0 0-3.923.784-4.551.784s-1.726 0-4.865 2.512-3.296 2.825-4.081 3.452c0 0-6.435 4.395-8.318 4.709 0 0-4.552 2.51-6.278 6.435l-1.413.47s-.627 2.825-.784 3.296c0 0-1.884 1.413-2.198 3.61 0 0-3.452 2.354-3.295 4.08 0 0-.628 2.04-.942 3.924 0 0-2.825 1.884-2.511 2.982 0 0-2.982 5.493-2.511 8.161 0 0-2.511-.156-3.61.785 0 0-.314 1.884-.942 2.04 0 0-1.098.471-.157 2.04 0 0-.628 1.1-.784 1.727 0 0 .313 1.099-1.413 3.296 0 0-2.511 7.377-1.726 9.417 0 0 .157 1.883-.942 2.511 0 0-1.413-.157 1.883 4.551 0 0 .314.471-.941 1.413 0 0-6.75 1.412-7.69 7.847 0 0-5.337 5.807-5.337 7.848 0 .904.106 2.139.38 3.947 0 0-.223 3.272 10.606 3.586S192.6 88.985 192.6 88.985z" stroke="#000" fill="#cc7226" stroke-width=".392"/>
        <path d="M29.642 97.757c-9.809-15.46-4.159 6.67-4.159 6.67 3.453 13.497 54.304-1.256 54.304-1.256s66.231-11.928 70.626-13.497 41.747.942 41.747.942l-2.197-6.592c-25.425-18.206-32.959-9.103-38.295-10.672s-4.394 2.197-5.65 2.51-16.636-9.416-19.147-9.102-12.454-9.005-6.592 3.453c6.278 13.34-22.914 15.38-29.506 10.986s2.825 7.22 2.825 7.22c7.22 7.847-6.278 1.255-6.278 1.255-13.497-5.022-22.914 5.022-24.17 5.336s-3.138 1.57-3.452-.941-3.26-9.065-15.695 1.255c-7.847 6.513-13.262-2.119-13.262-2.119l-1.099 4.552z" fill="#cc7226"/>
        <path d="M127.385 67.445c-2.511.314-12.466-9-6.592 3.453 6.513 13.811-22.914 15.38-29.506 10.986-6.592-4.395 2.825 7.22 2.825 7.22 7.22 7.848-6.278 1.255-6.278 1.255-13.497-5.022-22.914 5.022-24.17 5.336s-3.139 1.571-3.453-.941c-.314-2.512-3.209-8.999-15.694 1.255-8.333 6.805-13.627-1.612-13.627-1.612l-1.255 3.968c-9.81-15.618-3.897 7.263-3.897 7.263 3.457 13.497 54.563-1.77 54.563-1.77s66.231-11.93 70.626-13.499 41.406.913 41.406.913l-2.17-6.791c-25.425-18.206-32.645-8.875-37.98-10.444s-4.395 2.197-5.65 2.51-16.637-9.416-19.148-9.102z" fill="#e87f3a"/>
        <path d="M127.899 68.13c-2.511.313-12.218-9.115-6.592 3.452 6.356 14.204-22.915 15.382-29.506 10.987s2.825 7.22 2.825 7.22c7.22 7.846-6.278 1.255-6.278 1.255-13.497-5.022-22.915 5.022-24.17 5.336s-3.14 1.569-3.453-.941c-.314-2.511-3.158-8.933-15.695 1.255-8.817 7.097-13.99-1.105-13.99-1.105l-1.413 3.38c-9.339-15.301-3.63 7.855-3.63 7.855 3.453 13.498 54.818-2.283 54.818-2.283s66.231-11.927 70.626-13.497 41.06.885 41.06.885l-2.138-6.992c-25.425-18.205-32.33-8.646-37.667-10.216s-4.394 2.198-5.65 2.512c-1.255.314-16.636-9.417-19.147-9.103z" fill="#ea8c4d"/>
        <path d="M128.413 68.815c-2.511.314-12.215-9.116-6.592 3.452 6.592 14.736-23.124 15.242-29.507 10.987-6.591-4.395 2.825 7.22 2.825 7.22 7.22 7.848-6.277 1.255-6.277 1.255-13.498-5.022-22.915 5.023-24.17 5.337s-3.14 1.57-3.453-.943c-.314-2.51-3.106-8.866-15.695 1.257-9.303 7.388-14.356-.6-14.356-.6l-1.57 2.797c-8.553-14.44-3.366 8.444-3.366 8.444 3.453 13.497 55.077-2.794 55.077-2.794s66.231-11.929 70.626-13.498 40.72.856 40.72.856l-2.111-7.19c-25.426-18.207-32.018-8.42-37.354-9.989s-4.394 2.198-5.65 2.512-16.636-9.417-19.147-9.103z" fill="#ec9961"/>
        <path d="M128.927 69.5c-2.511.314-12.018-9.203-6.592 3.453 6.592 15.38-22.915 15.38-29.507 10.986s2.825 7.22 2.825 7.22c7.22 7.845-6.278 1.255-6.278 1.255-13.497-5.022-22.914 5.021-24.17 5.335s-3.139 1.57-3.452-.942c-.314-2.51-3.055-8.8-15.695 1.256-9.788 7.682-14.717-.09-14.717-.09l-1.726 2.209c-7.769-13.654-3.104 9.04-3.104 9.04 3.453 13.497 55.332-3.312 55.332-3.312s66.231-11.927 70.626-13.496 40.378.827 40.378.827l-2.083-7.39c-25.426-18.206-31.704-8.19-37.04-9.76s-4.394 2.198-5.65 2.512-16.636-9.417-19.147-9.103z" fill="#eea575"/>
        <path d="M129.44 70.184c-2.51.314-12.7-8.887-6.591 3.453 7.533 15.224-22.916 15.381-29.507 10.986s2.825 7.22 2.825 7.22c7.22 7.848-6.278 1.256-6.278 1.256-13.498-5.023-22.914 5.023-24.17 5.337s-3.139 1.569-3.453-.942c-.314-2.512-3.003-8.736-15.694 1.255-10.273 7.977-15.081.412-15.081.412l-1.884 1.629c-7.062-13.028-2.84 9.628-2.84 9.628 3.452 13.498 55.59-3.821 55.59-3.821s66.231-11.929 70.626-13.498 40.033.798 40.033.798l-2.052-7.59c-25.426-18.206-31.39-7.961-36.726-9.53s-4.394 2.196-5.65 2.51-16.636-9.416-19.147-9.103z" fill="#f1b288"/>
        <path d="M129.955 70.87c-2.511.313-12.85-8.813-6.592 3.452 8.004 15.695-22.916 15.381-29.508 10.987s2.825 7.22 2.825 7.22c7.22 7.845-6.278 1.255-6.278 1.255-13.497-5.023-22.914 5.02-24.17 5.334s-3.138 1.57-3.452-.941c-.314-2.51-2.952-8.669-15.695 1.255-10.758 8.271-15.445.922-15.445.922l-2.04 1.04c-6.279-11.848-2.575 10.225-2.575 10.225 3.453 13.497 55.842-4.34 55.842-4.34s66.231-11.926 70.626-13.495 39.692.77 39.692.77l-2.025-7.79c-25.425-18.206-31.075-7.733-36.412-9.303-5.336-1.57-4.394 2.197-5.65 2.511s-16.636-9.417-19.147-9.103z" fill="#f3bf9c"/>
        <path d="M130.465 71.554c-2.511.314-13.278-8.583-6.592 3.453 8.632 15.538-22.912 15.38-29.504 10.986s2.825 7.22 2.825 7.22c7.22 7.847-6.278 1.255-6.278 1.255-13.497-5.022-22.914 5.023-24.17 5.337s-3.139 1.57-3.453-.942c-.314-2.511-2.9-8.604-15.694 1.256-11.244 8.561-15.81 1.428-15.81 1.428l-2.198.455c-5.65-11.143-2.31 10.814-2.31 10.814 3.452 13.497 56.1-4.85 56.1-4.85s66.231-11.928 70.626-13.498 39.354.742 39.354.742l-2-7.99c-25.426-18.206-30.762-7.505-36.099-9.074s-4.394 2.197-5.65 2.511-16.636-9.417-19.147-9.103z" fill="#f5ccb0"/>
        <path d="M130.979 72.24c-2.511.313-13.278-8.584-6.592 3.452 8.632 15.538-22.912 15.38-29.504 10.986s2.825 7.22 2.825 7.22c7.22 7.845-6.278 1.255-6.278 1.255-13.498-5.022-22.915 5.02-24.17 5.335s-3.14 1.57-3.453-.942-2.848-8.536-15.695 1.256c-11.728 8.855-16.17 1.934-16.17 1.934l-2.354-.13c-5.34-10.356-2.049 11.41-2.049 11.41 3.453 13.498 56.356-5.367 56.356-5.367s66.231-11.926 70.626-13.496 39.009.714 39.009.714l-1.966-8.19c-25.43-18.206-30.451-7.277-35.788-8.846s-4.394 2.197-5.65 2.511-16.636-9.417-19.147-9.103z" fill="#f8d8c4"/>
        <path d="M131.493 72.924c-2.511.314-13.125-8.666-6.592 3.453 8.632 16.008-22.913 15.38-29.505 10.986s2.825 7.22 2.825 7.22c7.22 7.847-6.277 1.255-6.277 1.255-13.498-5.022-22.915 5.022-24.17 5.336-1.256.314-3.14 1.57-3.453-.941s-2.797-8.472-15.695 1.255c-12.213 9.146-16.535 2.44-16.535 2.44l-2.511-.713c-5.101-9.417-1.786 11.998-1.786 11.998 3.453 13.498 56.615-5.878 56.615-5.878s66.231-11.927 70.626-13.497 38.667.685 38.667.685l-1.942-8.39c-25.425-18.206-30.133-7.048-35.47-8.617s-4.394 2.197-5.65 2.51-16.636-9.416-19.147-9.102z" fill="#fae5d7"/>
        <path d="M132.007 73.609c-2.511.313-12.701-8.885-6.592 3.452 8.318 16.794-22.913 15.382-29.505 10.987s2.825 7.22 2.825 7.22c7.22 7.848-6.278 1.255-6.278 1.255-13.497-5.022-22.914 5.024-24.17 5.338s-3.139 1.57-3.452-.942-2.746-8.407-15.695 1.256c-12.699 9.436-16.9 2.943-16.9 2.943l-2.668-1.295c-5.022-9.105-1.519 12.59-1.519 12.59 3.453 13.498 56.87-6.39 56.87-6.39s66.231-11.929 70.626-13.5c4.394-1.57 38.322.657 38.322.657l-1.91-8.59c-25.426-18.206-29.82-6.82-35.157-8.39-5.336-1.57-4.394 2.198-5.65 2.512s-16.636-9.417-19.147-9.103z" fill="#fcf2eb"/>
        <path d="M29.564 104.427c-5.022-8.632-1.256 13.183-1.256 13.183 3.453 13.498 57.129-6.905 57.129-6.905s66.231-11.928 70.626-13.498 37.98.628 37.98.628l-1.883-8.789c-25.425-18.206-29.505-6.592-34.842-8.161s-4.394 2.197-5.65 2.511-16.636-9.417-19.147-9.103-12.407-9.027-6.592 3.453c8.722 18.719-23.84 14.764-29.506 10.986-6.592-4.394 2.825 7.22 2.825 7.22 7.22 7.847-6.278 1.255-6.278 1.255-13.497-5.022-22.914 5.023-24.17 5.337s-3.138 1.57-3.452-.942-2.694-8.34-15.695 1.256c-13.183 9.73-17.264 3.452-17.264 3.452l-2.825-1.883z" fill="#FFF"/>
        <path d="M45.886 116.198s-2.825 4.551 5.337 9.73c0 0 .549.55-6.514-1.098 0 0-2.432-.785-3.06-4.865 0 0-1.883-1.727-3.767-3.924s8.004.157 8.004.157z" fill="#000"/>
        <path d="M100.818 97.521s6.944 10.524 6.71 12.4c-.51 4.08-.59 7.846.666 9.416 1.256 1.57 4.709 14.596 4.709 14.596s-.157.47 4.708-14.44c0 0 4.551-6.277-3.296-13.497 0 0-13.811-11.3-13.497-8.475z" fill="#CCC"/>
        <path d="M53.734 126.713s4.394 2.825-1.256 15.067l2.511-.941s-.314 4.394-1.57 5.336l2.826-1.256s1.883 3.14.314 5.022c0 0 6.592 3.14 6.278 5.65 0 0 2.51-3.138.941-5.65s-4.394-.941-4.08-8.16l-3.453 1.255s2.197-3.453 2.197-5.964l-3.139.942s6.07-10.43 1.884-10.987c-2.355-.314-3.453-.314-3.453-.314z" fill="#000"/>
        <path d="M66.446 133.305s1.099-1.726 0-1.412-13.34 6.12-15.694 9.887c0 0 13.497-9.574 15.694-8.475zm4.081 3.139s1.099-1.726 0-1.412-13.34 6.12-15.695 9.887c0 0 13.498-9.574 15.695-8.475zm5.179-5.964s1.099-1.726 0-1.412-13.34 6.12-15.694 9.887c0 0 13.497-9.574 15.694-8.475zm-9.103 17.107s0-2.354-1.098-2.04-15.224 7.22-17.578 10.986c0 0 16.48-10.044 18.676-8.946zm.471-4.237s.471-1.884-.628-1.57c-.784 0-11.143 4.552-13.497 8.318 0 0 11.614-8.475 14.125-6.748zm-5.65 18.676l-3.924 2.982s4.081-2.982 5.494-2.51c0 0-2.668 4.394-2.982 6.434 0 0 4.08-5.022 6.277-4.865 0 0 2.982.157 2.982 4.394 0 0 2.198-4.08 3.453-3.924 0 0 .471 2.512 0 5.18 0 0 1.57-2.982 3.14-2.355 0 0 2.51-.784 2.196 3.767 0 0 0 4.08-.313 5.18 0 0 2.197-10.359 3.138-10.516 0 0 3.14-.47 5.023 2.982 0 0-1.57-2.982.314-2.197 0 0 4.237.628 5.493 3.296 0 0-2.668-4.709-.471-3.453l3.139 2.51s3.296 8.32 4.08 8.947c0 0-2.981-8.475-2.354-8.475 0 0-.784-4.709 1.256 1.098 0 0-1.256-5.493.942-5.179s3.923 4.238 7.22 3.296c0 0 3.766 2.197 4.55-24.954l-48.652 18.362z" fill="#CCC"/>
        <path d="M63.307 125.615s5.808-2.354 21.502 0c0 0 2.825.157 5.493-3.296s13.184-6.278 15.695-5.493l3.767 2.51.314.472s4.865 4.08 5.022 7.062-5.65 21.816-9.417 28.094c-3.767 6.278-7.533 11.143-15.067 10.201 0 0-8.161-1.57-18.206 0 0 0-11.457-.628-12.555-3.766s4.394-9.103 4.394-9.103 1.727-3.296 1.256-8.946-.314-16.637-2.198-17.735z" fill="#000"/>
        <path d="M71.94 126.4c3.295 7.219-8.319 32.801-8.319 32.801-.784.628 4.968 3.002 8.946 2.04 4.295-1.035 20.09.628 20.09.628 9.26-6.12 14.282-23.542 14.282-23.542s4.08-9.416-2.825-10.672c-6.906-1.256-32.174-1.256-32.174-1.256z" fill="#e5668c"/>
        <path d="M71.143 138.524c1.305-5.019 1.926-9.649.797-12.125 0 0 24.483 2.512 28.878-5.65 1.664-3.088 7.455 8.946 7.298 12.713 0 0-24.72 5.65-30.526 1.256l-6.447 3.806z" fill="#b23259"/>
        <path d="M72.881 144.92s.785 2.824-.157 4.394c0 0-.628.314-1.098.47 0 0 .47 1.413 2.825 2.04 0 0 .784 1.727 1.726 1.884s2.825 2.354 4.395 1.884 5.964-2.04 5.964-2.04 2.197-1.256 5.65.156c0 0 .932-.314 1.098-1.883.196-1.844 1.413-3.296 2.198-4.08s4.551-5.808 4.08-5.965-26.68 3.14-26.68 3.14z" fill="#a5264c"/>
        <path d="M71.155 125.929s-1.099 8.789.157 12.085.941 4.08.628 5.65 1.412 5.493 3.61 7.847l4.708.628s5.964-1.413 9.573-.314c0 0 3.53.526 4.866-5.336 0 0 1.883-2.512 4.708-3.61s5.65-17.421 4.08-20.56-7.219-4.865-13.497 1.255-7.062-.47-18.833 2.355z" stroke="#000" fill="#ff727f" stroke-width=".392"/>
        <path d="M71.783 155.278s-.314-.785-2.04-.942c0 0-8.79-1.413-12.086-6.278 0 0-2.668-2.197-.941 2.354 0 0 4.08 8.005 6.748 9.103 0 0 6.435 1.57 8.319-4.237z" stroke-width=".044" stroke="#000" fill="#FFC"/>
        <path d="M103.15 130.178c.258-3.104 1.024-6.482.336-7.86-2.53-5.057-9.189-2.942-13.498 1.256-6.277 6.121-7.062-.47-18.833 2.355 0 0-.685 5.477-.355 9.409 0 0 14.637-4.544 14.95-2.347 0 0 .629-1.255 4.238-1.255s12.533-.46 13.161-1.558z" fill="#cc3f4c"/>
        <path d="M86.222 126.243s1.883 1.883.47 5.65c0 0-5.65 6.277-4.865 11.77" stroke-width=".174" stroke="#a51926"/>
        <path d="M67.388 159.515s-1.726-5.022 1.727-2.354l1.412 1.412c-.47.628-2.668 2.198-3.139.942z" stroke-width=".044" stroke="#000" fill="#FFC"/>
        <path d="M69.366 159.986s-1.382-4.018 1.38-1.883l1.13 1.13c-1.788.502 0 1.506-2.51.753z" stroke-width=".044" stroke="#000" fill="#FFC"/>
        <path d="M71.249 159.986s-1.381-4.018 1.381-1.883l1.13 1.13c-1.318.502 0 1.506-2.511.753z" stroke-width=".044" stroke="#000" fill="#FFC"/>
        <path d="M73.839 160.064s-1.382-4.017 1.38-1.883c0 0 1.72.914 1.131 1.13-1.162.424 0 1.507-2.511.753z" stroke-width=".044" stroke="#000" fill="#FFC"/>
        <path d="M76.381 160.033s-1.381-4.018 1.382-1.883l1.13 1.13c-.377.502 0 1.506-2.512.753z" stroke-width=".044" stroke="#000" fill="#FFC"/>
        <path d="M79.002 160.3s-1.883-4.865 1.727-2.354l1.412 1.412c-.47.628 0 1.884-3.139.942z" stroke-width=".044" stroke="#000" fill="#FFC"/>
        <path d="M67.859 153.551s5.18-1.098 7.533.157c0 0 2.355.471 2.825.314s1.727-.314 1.727-.314m1.256 3.296s4.708-5.336 9.416-3.61c2.753 1.009 2.354-.314 2.668-1.412s.393-2.747 2.354-3.924" stroke-width=".174" stroke="#a5264c"/>
        <path d="M87.948 150.726s-1.57-4.237-2.668.785-2.354 6.435-2.982 7.533c0 0 0 2.04 3.296 1.884 0 0 4.237-.157 4.394-1.256s-.47-5.65-2.04-8.946z" stroke-width=".044" stroke="#000" fill="#FFC"/>
        <path d="M93.441 153.551s1.413-.941 2.354-.47m.197-5.965s1.137-1.922 3.02-2.236" stroke-width=".174" stroke="#a5264c"/>
        <path d="M64.877 161.555s7.063 1.256 8.789.628l.157.785-8.161-.47s-4.552-2.198-.785-.943z" fill="#b2b2b2"/>
        <path d="M70.37 124.987l7.69.314s2.825 12.085 1.413 15.067c0 0-.47 1.098-1.57-1.099 0 0-7.219-12.87-8.475-13.654s.471-.628.942-.628zm-30.251-1.059s3.492.667 8.436 1.687c0 0 1.883 8.789 3.138 10.672s-.156 1.883-1.569.785-7.22-6.592-8.004-8.318-2.001-4.826-2.001-4.826z" stroke-width=".044" stroke="#000" fill="#FFC"/>
        <path d="M48.696 125.701s2.276.608 2.672 1.475c.395.871-.472 2.162-.472 2.162s-.392 1.299-.864.452c-.471-.852-1.598-3.857-1.336-4.089z" stroke-width=".044" stroke="#000" fill="#FFC"/>
        <path d="M48.711 125.615s1.413 2.04 2.826 2.04 1.562-.16 2.668.079c1.804.392 1.648-.393 4.237.078 1.036.188 2.04-.157 3.14.314s2.353.157 2.824-.628 2.354-2.433 2.354-2.433-5.022.707-6.12 1.02c0 0-8.79.471-11.929-.47z" fill="#000"/>
        <path d="M66.211 125.693s-2.53 1.373-2.688 2.315 2.06 2.394 2.06 2.394 1.08 1.804 1.315.863-.373-5.415-.687-5.572zm-14.708 2.143s2.75 4.39 2.835-.008c0 0 .218-.495-.472-.503-2.384-.027-1.787-1.64-2.363.51z" stroke-width=".044" stroke="#000" fill="#FFC"/>
        <path d="M54.32 127.934s3.107 4.39 2.858-.036c0 0 .003-.13-.685-.188-1.863-.165-1.727-1.938-2.173.224z" stroke-width=".044" stroke="#000" fill="#FFC"/>
        <path d="M57.15 127.938s3.123 4.17 2.86.376c0 0 .047-.482-.602-.6-1.527-.279-1.61-1.55-2.258.224z" stroke-width=".044" stroke="#000" fill="#FFC"/>
        <path d="M59.848 127.969s3.1 4.536 3.236.698c0 0 .645-.541-.04-.627-2.283-.29-1.97-2.037-3.196-.071z" stroke-width=".044" stroke="#000" fill="#FFC"/>
        <path d="M45.654 129.354l-3.005-.6c-1.02-1.962-1.844-4.375-1.844-4.375s2.492.392 7.396 1.49c0 0 .344 1.303.922 3.575l-3.469-.09zm25.531-1.828c-.654-.985-1.17-1.672-1.426-1.833-1.182-.737.444-.592.887-.592l7.24.298s.206.879.474 2.209c0 0-3.958-.789-7.175-.082z" fill="#e5e5b2"/>
        <path d="M92.217 73.32c10.877 1.554 20.89-12.43 21.58-16.228.69-3.798-3.28-8.46-3.28-8.46.518-1.208-1.38-6.732-3.452-10.358s-8.311-3.243-15.193-3.625c-6.215-.346-13.466 8.804-13.984 9.495s1.899 15.71 2.417 17.955-.518 12.603-.518 12.603c13.434-3.57 1.554-2.935 12.43-1.381z" fill="#cc7226"/>
        <path d="M78.173 44.398c-.508.678 1.865 15.425 2.373 17.629S80.038 74.4 80.038 74.4c12.82-3.484 1.525-2.881 12.204-1.356 10.68 1.526 20.51-12.204 21.188-15.933.678-3.73-3.22-8.306-3.22-8.306.508-1.186-1.356-6.61-3.39-10.17s-8.16-3.184-14.917-3.56c-6.102-.339-13.221 8.645-13.73 9.323z" fill="#ea8e51"/>
        <path d="M78.46 44.652c-.5.666 1.83 15.14 2.328 17.303s-.499 12.144-.499 12.144c12.322-3.594 1.497-2.828 11.978-1.33 10.482 1.496 20.13-11.979 20.796-15.64.665-3.66-3.16-8.151-3.16-8.151.498-1.165-1.332-6.488-3.328-9.982s-8.008-3.125-14.64-3.494c-5.99-.332-12.977 8.485-13.476 9.15z" fill="#efaa7c"/>
        <path d="M78.745 44.907c-.49.653 1.795 14.853 2.285 16.975s-.49 11.916-.49 11.916c11.55-3.547 1.47-2.775 11.752-1.306 10.284 1.469 19.75-11.752 20.404-15.343.653-3.591-3.101-7.999-3.101-7.999.49-1.142-1.306-6.365-3.265-9.793s-7.857-3.066-14.364-3.428c-5.876-.326-12.732 8.325-13.221 8.978z" fill="#f4c6a8"/>
        <path d="M79.03 45.16c-.48.641 1.761 14.569 2.242 16.65s-.48 11.686-.48 11.686c10.934-3.5 1.44-2.721 11.525-1.28 10.086 1.44 19.371-11.526 20.012-15.049.64-3.522-3.042-7.844-3.042-7.844.48-1.12-1.28-6.243-3.202-9.605s-7.706-3.008-14.088-3.362c-5.763-.32-12.486 8.165-12.967 8.805z" fill="#f9e2d3"/>
        <path d="M92.343 71.94c9.887 1.412 18.99-11.301 19.618-14.754s-2.982-7.69-2.982-7.69c.471-1.099-1.256-6.121-3.139-9.417s-7.555-2.948-13.811-3.296c-5.65-.314-12.242 8.004-12.713 8.632s1.726 14.282 2.197 16.323-.47 11.457-.47 11.457c10.005-3.375 1.412-2.668 11.3-1.256z" fill="#FFF"/>
        <path d="M110.549 58.599s-10.908 2.982-15.46 2.354c0 0-6.2-2.59-9.652 5.964 0 0-1.413 2.825-2.197 3.61s27.309-11.928 27.309-11.928z" fill="#CCC"/>
        <path d="M112.04 57.735s-11.38 4.787-15.303 4.63c0 0-6.435-1.805-9.73 3.924 0 0-3.296 3.61-4.552 4.238 0 0-.157.627 2.354-.942l4.08 2.04s5.808 3.767 9.574-2.511c0 0 1.57-4.394 1.57-5.18s8.318-2.981 8.946-3.138c.628-.157 3.218-1.805 3.06-3.06z" fill="#000"/>
        <path d="M93.441 71.827c-2.696 0-5.981-1.517-5.981-3.969 0-2.451 3.285-4.91 5.981-4.91 2.697 0 4.884 1.988 4.884 4.44 0 2.452-2.187 4.439-4.884 4.439z" fill="#99cc32"/>
        <path d="M92.02 65.28c-1.902.284-3.898.874-3.87.789.604-1.812 3.1-3.12 5.291-3.12 1.686 0 3.172.776 4.05 1.957 0 0-2.086-.13-5.471.375z" fill="#659900"/>
        <path d="M96.737 65.19s-1.726-1.255-1.726-.392c0 0 1.412 1.726 1.726.392z" fill="#FFF"/>
        <path d="M92.813 68.379a1.776 1.776 0 1 1 0-3.551 1.776 1.776 0 0 1 0 3.55z" fill="#000"/>
        <path d="M52.007 63.15s-1.255-8.318-.314-10.044c0 0 4.238-3.924 4.081-5.337 0 0-.157-7.062-.628-7.376s-3.453-2.668-5.807-.157c0 0-4.08 7.062-3.766 9.574v.784s-2.982-.157-3.61.628c0 0-.471 2.04-.942 2.197 0 0-1.099.942-.314 2.04 0 0-.785.942-.628 2.512l2.982 1.57s.785 5.65 5.023 7.69c1.897.913 3.139-1.727 3.923-4.08z" fill="#cc7226"/>
        <path d="M51.615 62.428s-1.13-7.486-.283-9.04c0 0 3.814-3.531 3.673-4.803 0 0-.141-6.356-.565-6.638s-3.108-2.402-5.226-.142c0 0-3.673 6.357-3.39 8.617v.706s-2.684-.141-3.25.565c0 0-.423 1.836-.847 1.978 0 0-.988.847-.282 1.836 0 0-.706.847-.565 2.26l2.684 1.412s.706 5.085 4.52 6.922c1.707.822 2.825-1.554 3.531-3.673z" fill="#FFF"/>
        <path d="M54.97 40.781c-.428-.337-3.367-2.601-5.662-.153 0 0-3.979 6.886-3.673 9.335v.765s-2.907-.153-3.52.612c0 0-.458 1.99-.917 2.142 0 0-1.071.918-.306 1.99 0 0-.765.918-.612 2.448l2.907 1.53s.765 5.509 4.897 7.498c1.85.89 3.06-1.683 3.825-3.978 0 0-1.224-8.11-.306-9.794 0 0 4.132-3.825 3.979-5.203 0 0-.153-6.886-.612-7.192z" fill="#eb955c"/>
        <path d="M54.793 41.17c-.384-.361-3.28-2.535-5.517-.15 0 0-3.876 6.71-3.578 9.096v.745s-2.833-.149-3.43.597c0 0-.446 1.938-.894 2.087 0 0-1.043.895-.298 1.938 0 0-.745.895-.596 2.386l2.833 1.49s.745 5.368 4.77 7.307c1.803.868 2.983-1.64 3.728-3.877 0 0-1.193-7.902-.298-9.542 0 0 4.026-3.728 3.877-5.07 0 0-.15-6.71-.597-7.007z" fill="#f2b892"/>
        <path d="M54.617 41.558c-.342-.384-3.194-2.468-5.372-.145 0 0-3.774 6.533-3.484 8.856v.726s-2.758-.146-3.34.58c0 0-.435 1.888-.87 2.033 0 0-1.016.87-.29 1.887 0 0-.726.871-.581 2.323l2.758 1.452s.726 5.226 4.646 7.113c1.755.845 2.903-1.597 3.63-3.774 0 0-1.162-7.695-.291-9.292 0 0 3.92-3.629 3.774-4.936 0 0-.145-6.532-.58-6.823z" fill="#f8dcc8"/>
        <path d="M51.615 62.389s-1.13-7.447-.283-9.001c0 0 3.814-3.531 3.673-4.803 0 0-.141-6.356-.565-6.638-.298-.408-3.108-2.402-5.226-.142 0 0-3.673 6.357-3.39 8.617v.706s-2.684-.141-3.25.565c0 0-.423 1.836-.847 1.978 0 0-.988.847-.282 1.836 0 0-.706.847-.565 2.26l2.684 1.412s.706 5.085 4.52 6.922c1.707.822 2.825-1.593 3.531-3.712z" fill="#FFF"/>
        <path d="M50.399 59.933s-8.475-4.002-8.829-4.316c0 0 3.57 3.217 3.885 3.217s4.944 1.099 4.944 1.099z" fill="#CCC"/>
        <path d="M43.69 57.5s7.219 1.413 7.219 3.139c0 1.142-.096 6.408-2.198 5.807-3.295-.942-1.883-6.592-5.022-8.946z" fill="#000"/>
        <path d="M46.985 58.991s3.523.578 3.924 1.648c.235.628.495 3.887-1.648 4.316-1.786.357-2.661-3.653-2.276-5.964z" fill="#99cc32"/>
        <path d="M80.727 75.686c-.195-.684.319-.632 1.022-.843.784-.236 5.571-1.727 5.885-2.747s5.493.706 5.493.706c.707.314 2.433 1.334 2.433 1.334 1.883.471 4.473.628 4.473.628.942.392 2.276 1.491 2.276 1.491 5.728 4.002 10.594 1.177 10.594 1.177 7.847-2.59 5.493-9.338 5.493-9.338-1.177-3.531.078-4.865.078-4.865.079-1.491 2.904 1.02 2.904 1.02 1.02 1.648 1.334 3.61 1.334 3.61 3.139 4.394 1.805-2.59 1.805-2.59.078-.393-1.02-1.805-1.02-2.276s-.707-1.805-.707-1.805c-1.177-1.334-.235-4.08-.235-4.08.706-5.415-.157-4.709-.157-4.709-.471-.706-4.08 3.218-4.08 3.218-.864 1.334-3.218 1.961-3.218 1.961-1.098.707-2.432.157-2.432.157-1.02-.157-3.218 2.59-3.218 2.59 1.099-.078 2.04 1.648 2.982 1.726s1.648-.941 2.275-1.177c.628-.235 1.727 2.04 1.727 2.04.157 1.02-2.04 2.904-2.04 2.904-.157 1.805-.785 1.177-.785 1.177-1.177-.235-1.648 1.256-2.04 3.06s-2.04 1.963-2.04 1.963c-.628 2.903-1.1 1.726-1.1 1.726-.078-2.197-2.432.078-2.432.078-.47.785-2.276-.078-2.276-.078-2.668-.785-1.726-1.57-1.726-1.57.706-.863 5.1 0 5.1 0 .864-.627-2.275-2.197-2.275-2.197-.236-.706.157-2.432.157-2.432.47-1.256 3.139-3.453 3.139-3.453 3.688-.471 2.59-1.099 2.59-1.099-2.433-2.04-4.71.942-4.71.942-.862 2.432-7.69 8.318-7.69 8.318-1.883 1.334-.863-1.334-2.432 0s-9.652-2.197-9.652-2.197c-4.537-.468-5.609 5.708-6.993 4.484 0 0 2.125 3.343 1.498 1.146zm76.434-65.27s-10.044 3.139-11.143 10.515c0 0-.941 8.946 7.063 15.852 0 0 .157 2.511.942 3.767 0 0-.628 1.883 6.748-1.099l10.673-3.296s2.51-.941 4.551-4.394 8.004-10.83 6.592-20.717c0 0 .47-4.395-1.884-4.552 0 0-3.295-.627-6.12 2.355 0 0-2.669 1.255-3.61 1.098l-13.812.471z" fill="#000"/>
        <path d="M178.592 10.028s.824-3.504-1.075-1.605c0 0-2.762 2.244-5.697 2.244 0 0-5.697.863-7.423 6.043 0 0-1.554 10.53 1.553 12.775 0 0 1.9 2.935 4.662.345s8.844-14.45 7.98-19.802z" fill="#000"/>
        <path d="M178.447 10.169s.82-3.433-1.043-1.566c0 0-2.716 2.202-5.596 2.202 0 0-5.595.847-7.29 5.932 0 0-1.526 10.34 1.527 12.544 0 0 1.863 2.882 4.575.339 2.715-2.542 8.675-14.197 7.827-19.451z" fill="#323232"/>
        <path d="M178.298 10.31s.816-3.359-1.012-1.53c0 0-2.66 2.162-5.49 2.162 0 0-5.492.832-7.156 5.823 0 0-1.495 10.15 1.499 12.312 0 0 1.828 2.828 4.492.333 2.66-2.496 8.499-13.944 7.667-19.1z" fill="#666"/>
        <path d="M178.153 10.447s.812-3.284-.985-1.487c0 0-2.61 2.123-5.387 2.123 0 0-5.383.816-7.016 5.713 0 0-1.47 9.955 1.468 12.077 0 0 1.797 2.775 4.406.326 2.613-2.448 8.33-13.69 7.514-18.752z" fill="#999"/>
        <path d="M178.008 10.589s.808-3.21-.954-1.452c0 0-2.562 2.083-5.285 2.083 0 0-5.281.8-6.882 5.603 0 0-1.44 9.765 1.44 11.846 0 0 1.762 2.721 4.324.32 2.558-2.401 8.157-13.437 7.357-18.4z" fill="#CCC"/>
        <path d="M177.859 10.73s.804-3.139-.922-1.413c0 0-2.511 2.04-5.18 2.04 0 0-5.179.785-6.748 5.494 0 0-1.413 9.574 1.412 11.614 0 0 1.727 2.668 4.238.314s7.984-13.184 7.2-18.049z" fill="#FFF"/>
        <path d="M94.854 90.459s-8.005-7.534-11.143-7.848c0 0-13.498-1.569-19.305 5.494 0 0 6.906-8.005 17.735-5.807 0 0-8.475-1.727-13.34-.471L58.442 87.32l-1.098 1.883s1.569-5.807 8.789-8.161c0 0 8.945-1.883 13.183 0 0 0-8.475-2.668-12.399-1.883 0 0-11.928-.942-16.95 9.416 0 0 1.57-5.65 7.377-8.475 0 0 5.336-3.453 13.34-2.354 0 0 5.65 1.256 7.69 2.197s1.57-.157-1.726-2.04c0 0-2.197-3.924-7.69-3.767 0 0-16.794 1.413-20.874 6.121 0 0 5.336-4.394 9.416-5.493 0 0 8.79-3.139 12.085-2.825 0 0 9.731.392 12.713-1.177 0 0-4.394 1.962-3.139 3.217s3.924 4.238 3.924 4.709 9.495 9.142 10.908 10.868l.863.903z" fill="#992600"/>
        <path d="M149.157 166.578s-6.081-14.322-10.986-18.05c0 0 10.201 6.279 11.575 13.341 0 0 0 3.924-.589 4.709zm18.441 2.942s-10.397-21.58-17.656-30.996c0 0 17.068 14.713 19.03 25.111l.196 2.158-1.177-.98s-.196 3.53-.393 4.707zm22.169-19.03s-24.523-23.345-25.111-24.326c0 0 23.738 25.896 24.915 28.839 0 0-.785-3.531.196-4.512zm-73.961 17.069s7.651-20.403 15.106-11.575c0 0 5.886 3.924 5.69 5.1 0 0-1.57-2.55-8.633-2.354 0 0-7.455-1.177-12.163 8.829zm74.746-50.027s-17.657-11.182-20.6-11.771c-4.633-.926 19.423 11.379 21.385 15.498 0 0 .784-.98-.785-3.727z" fill="#CCC"/>
        <path d="M131.422 159.358s8.004-.785 10.673-3.453l1.726 1.413 6.906-15.067 1.412 2.04s5.65-5.807 5.336-8.946 5.023 2.355 5.023 2.355-.314-4.552 2.51-1.884c0 0-.94-6.12 2.355-2.982 0 0-4.136-11.833 4.708-1.726 2.198 2.511.471-.157.471-.157s-10.201-18.834-1.726-13.184c0 0 .785-8.946.314-10.672s-1.256-10.515-3.14-12.556.158-2.668 2.355-.627c0 0-4.395-9.417.785-4.709 0 0-1.413-5.964-3.14-7.062 0 0-2.197-6.75 3.767-2.512 0 0-1.726-4.865-2.982-6.12 0 0-4.551-10.83-1.726-8.946l1.726 1.412s-2.668-5.493-.156-3.767 2.51 1.57 2.51 1.57-8.317-13.027-.313-6.121c0 0-3.202-5.461-4.552-8.161 0 0-7.376-8.005-1.726-5.493l1.883.627s-3.453-3.923-6.591-4.551.941-3.139 3.452-2.354 8.632 3.766 8.632 3.766 5.023 7.377 6.592 7.534c0 0-7.847-2.982-5.493.157 0 0 5.65 5.493 2.825 5.336 0 0-2.354 2.825-.47 6.278 0 0-7.244-7.216-1.413 2.825l2.668 6.435s-9.574-9.731-5.18-1.099c0 0 6.75 9.26 7.534 9.417s2.511 3.61 2.511 3.61l-1.726-.785 2.04 3.453s-4.394-4.709-2.04.47l2.197 5.65s-8.004-8.631-2.668 2.983c0 0-6.435-2.04-2.982 4.708 0 0-.628 6.278-.47 8.318s.627 13.184-1.1 16.323 2.355 10.672 3.14 12.241 2.197 5.807-1.256 2.198-1.727-1.413-.942 2.04 3.139 9.574 2.825 11.77c0 0-.47.472-1.726-.94 0 0-5.807-8.947-5.18-3.297 0 0-.47 3.14-1.726 6.592 0 0-1.255 4.238-1.255.785 0 0-1.256-6.592-2.355-3.61s-2.51 5.336-3.61 6.278-3.138-8.004-3.61-3.924c0 0-4.708-4.865-6.591 1.57l-4.551 6.435s-.157-4.866-.628-2.512c0 0-11.771 2.355-15.852.628zM117.925 19.362s-4.551-3.139-6.12-2.982 10.828-3.453 26.994 7.377c0 0 1.883 1.098 3.296.941 0 0 1.255.942.157 2.354 0 0-3.453 3.767.941 8.162 0 0 7.22 2.668 5.022-.785 0 0 4.238 1.57 5.18 3.139s.47 0 .47 0L149 32.702s-2.04-.784-3.139-4.08-2.04-7.22-.314-8.475c0 0-1.57 1.726-1.255.157s1.726-2.982 2.354-3.14 7.063-6.356 9.73-6.513c0 0-3.61.55-4.786.157s-11.614-4.865-13.968-5.336c0 0-6.592-2.59-1.884-1.805 0 0 14.047 1.491 21.188 6.67 0 0-2.825-3.295-10.045-6.042 0 0-8.71-4.944-22.521-2.982 0 0-6.984 1.256-10.045 1.962 0 0-1.02-.235-1.255-.392s-4.866-3.689-15.695-.942c0 0-6.67 1.805-10.045 3.688 0 0-5.964.471-7.376 1.727 0 0-7.298 5.728-8.083 6.042s-5.258 3.296-5.572 3.453c0 0 9.653-2.59 10.594-3.531s7.77-1.962 8.71-1.413 4.238.314.472.55c0 0 29.663 5.806 29.976 6.591s1.884.314 1.884.314z" fill="#000"/>
        <path d="M145.94 15.752s-4.002-2.903-4.787-2.903-5.65-4.002-7.298-3.845-6.435-3.767-17.186-.55c0 0-.235-.784 1.177-1.098 0 0 2.512-.864 2.668-1.099 0 0 7.926-1.648 10.751-.235 0 0 3.61 1.02 6.043 3.452 0 0 4.394 1.256 5.65.864 0 0 3.453.863 3.61 1.57 0 0 2.275 1.176 1.569 2.196 0 0 .157.628-2.197 1.648z" fill="#cc7226"/>
        <path d="M141.047 14.924c.318.248.718.287.953.605.095.121-.02.25-.145.29-.408.122-.824-.102-1.271.13-.157.082-.408.011-.628-.048-.64-.172-1.357-.184-2.02.087-.777-.444-1.703-.212-2.52-.608-.023-.008-.11.125-.14.117-1.194-.451-2.665-.341-3.618-1.236a26.965 26.965 0 0 1-2.83-.608c-.713-.2-1.267-.588-1.902-.914a7.799 7.799 0 0 0-1.715-.632c-.73-.176-1.448-.133-2.19-.337-.039-.008-.113.125-.145.117-.125-.043-.243-.27-.31-.25-.659.203-1.243-.177-1.895-.044-.463-.479-1.137-.384-1.746-.557-1.165-.333-2.4.165-3.59-.228 1.613-.722 3.453-.239 5.046-1.051.914-.463 1.958-.031 2.966-.33.193-.059.463-.137.62.126.055-.055.126-.145.15-.137.957.455 1.867.953 2.84 1.373.134.059.345-.035.443.047.597.475 1.358.435 1.903.914.667-.196 1.37-.047 2.049-.294.031-.008.121.125.133.118.447-.295.899-.189 1.248-.071.133.047.392.145.514.173.44.106.777.294 1.24.368.043.008.117-.125.145-.117.44.172.847.153 1.106.608.055-.055.118-.145.15-.137.403.133.659.431 1.09.525.188.04.432.287.655.357.938.287 1.664.887 2.523 1.236.298.122.644.216.891.408zm-30.069-5.583c-.988-.675-1.917-1.11-2.875-1.813-.07-.05-.212.016-.291-.031a17.43 17.43 0 0 1-1.13-.742c-.21-.149-.533-.145-.732-.247-.998-.506-2.03-.726-3.014-1.193.268-.25.708-.153.942-.47.077.11.17.22.309.145.658-.353 1.384-.412 2.041-.377.669.035 1.344.153 2.04.263.12.016.199.22.326.259.874.259 1.811.055 2.643.384.624.248 1.24.57 1.726 1.068.099.102-.029.223-.139.298.153-.043.26.039.303.16a.486.486 0 0 1 0 .307c-.044.121-.153.16-.3.18-.552.075.143-.467-.131-.29-.5.322-.207.87-.5 1.37-.11-.075-.2-.162-.156-.315.092.204-.145.318-.21.444-.152.282-.504.84-.852.6zm-12.751 2.884c-1.237-.31-2.434-.267-3.617-.77-.027-.007-.114.126-.14.119-.535-.236-.895-.613-1.318-1.025-.358-.349-1.008-.196-1.508-.388-.127-.047-.207-.247-.325-.263-.478-.063-.842-.435-1.252-.659.916-.314 1.862-.298 2.828-.451.045-.008.102.121.154.121.053 0 .104-.09.157-.14.076.109.195.238.296.136.215-.211.433-.137.645-.121.056.004.105.125.157.125.054 0 .105-.125.157-.125.054 0 .105.125.157.125.054 0 .105-.09.157-.14.272.305.619.09.942.16.407.086.512.538.933.655 1.85.51 3.473 1.354 5.185 2.174.12.055.203.153.16.306.105 0 .227-.035.302.016.415.29.823.502 1.097.934.085.133-.044.294-.136.274-1.738-.392-3.31-.632-5.03-1.063zM92.79 29.572c-.626-.479-.855-1.275-1.297-1.979-.084-.133.023-.256.148-.291.22-.062.432.125.593.204.685.339 1.287.826 2.07.88.781.877 2.453 1.028 2.455 2.355 0 .337-.56-.024-.728.314-.962-.394-1.9-.354-2.833-.93-.242-.149-.113-.326-.409-.553zM81.984 8.94c.053 0 2.812.095 2.805.138-.018.122-3.05.534-3.193.467-.065-.031-3.012.922-3.065.871.105-.055 3.349-1.475 3.453-1.475z" fill="#cc7226"/>
        <path d="M88.027 12.77s-5.807.707-7.534 1.177-9.024 3.453-10.201 4.238c0 0-5.258 2.119-11.928 9.966 0 0 2.982-1.334 3.845-2.433 0 0 5.336-4.943 5.258-3.923 0 0 4.786-3.375 4.551-2.511 0 0 9.574-4.395 8.789-3.14 0 0 8.475-1.804 8.083-1.02 0 0 7.376 1.727 6.278 1.805 0 0-2.276.471.235 1.884 0 0-1.334 1.726-3.453.157s-.941-.707-2.903-.314c0 0-1.02.314-2.825-1.256 0 0-2.198-1.805-5.65-.392 0 0-12.007 4.944-12.792 5.18 0 0-1.412 1.098-2.354 2.51 0 0-2.275 1.727-3.453 2.276 0 0-5.022 4.551-5.493 5.1 0 0-1.334 2.041-1.648 2.198 0 0 2.512-1.491 3.296-2.276 0 0 5.493-3.923 7.612-4.237 0 0 1.727-1.177 2.04-1.727 0 0 5.65-3.61 7.298-3.61 0 0 3.61 2.04 4.552-.706 0 0 2.276-.706 4.473-.235 0 0 1.255-1.02.942-1.884 0 0 .627-.706 1.02.785 0 0 1.334 1.413 3.217.628 0 0 1.57-.079.785.863 0 0-1.727 1.491-6.356 1.57 0 0-4.866.235-11.3 3.217 0 0-11.693 4.08-15.303 8.161 0 0-2.511 3.453-4.63 3.924 0 0-2.276.314-4.63 3.217 0 0 3.845-2.275 7.377-2.275 0 0 1.57-.942.078.47 0 0-1.412 2.982-.785 5.101 0 0-.235 2.04-.549 2.668 0 0-3.06 5.023-3.06 5.964s.47 4.787.628 5.023-.393-.628 1.098.313 2.59 1.57 2.904 2.668-.785-2.118-.864-2.825-1.726-3.53-1.412-4.473c0 0 .392.393.706.942 0 0-.235-.235 0-1.648 0 0 .314-2.04.863-3.296s1.334-2.746 1.491-3.06.157-2.59.707-1.57l1.334 1.02s-1.099-1.02-.236-1.883c0 0-.392-2.197.314-3.217 0 0 2.747-3.296 3.375-3.688s.078-.236.078-.236 2.354-1.648.078-1.02c0 0-1.569.628-2.746.628 0 0-2.982.785-1.413-.863s5.493-3.767 6.984-3.689l.314.628 4.395-.942-.471.314s-.078-.078 1.57-.235 3.923.392 4.472-.314 1.884-1.099 1.727-.55-.236 1.335-.236 1.335 1.962-2.276 1.727-1.413-3.453 2.904-4.002 5.336l4.08-3.217 1.413-1.177s1.412.863 1.49.235 1.884-2.903 2.355-2.825 1.256-1.02 1.177 0 2.904 3.14 2.904 3.14 1.255-.707 1.805-.158 2.197-7.769 2.197-7.769l9.809-4.159 17.107-1.334-6.67-2.668-23.934-4.473z" fill="#000"/>
        <path d="M95.168 90.851s-5.886-6.592-9.182-7.612c0 0-5.257-2.668-14.91.393" stroke-width=".174" stroke="#4c0000"/>
        <path d="M84.73 82.69s-9.887-3.139-15.93-1.491c0 0-7.219.785-10.515 6.2" stroke-width=".174" stroke="#4c0000"/>
        <path d="M83.318 82.22s-6.67-2.826-12.477-3.69c0 0-6.513-1.02-13.027 1.806 0 0-4.786 2.354-6.905 6.356" stroke-width=".174" stroke="#4c0000"/>
        <path d="M83.71 82.376s-6.042-4.316-6.434-4.865c0 0-2.747-4.316-7.848-4.473 0 0-8.396.314-15.145 3.453" stroke-width=".174" stroke="#4c0000"/>
        <path d="M83.198 78.847c.606.574 11.185 11.926 11.185 11.926 13.811 14.36 2.825.941 2.825.941-2.982-1.883-6.592-9.26-6.592-9.26-.47-1.098 5.493 2.826 5.493 2.826 1.57.313 6.906 7.847 6.906 7.847-2.668-.942-.785 1.883-.785 1.883 1.099.785 9.103 6.906 9.103 6.906 1.413 1.57 2.982 2.197 2.982 2.197 5.493-2.04 2.982 3.139 2.982 3.139.942 2.668 3.139-1.883 3.139-1.883 4.394-6.592-2.04-5.65-2.04-5.65-11.771 1.098-14.44-5.18-14.44-5.18-.941-.941 2.512 0 2.512 0 3.296.785-2.825-4.865-2.825-4.865.941 0 4.551 2.668 4.551 2.668 4.081 3.61 4.866 2.825 4.866 2.825 7.062-3.453 11.143-.47 11.143-.47.784.627-1.413 3.295-.785 5.335s2.511 6.906 2.511 6.906c-.942.628-.785 4.865-.785 4.865 6.592 9.103 2.825 8.319 2.825 8.319-6.12-.157-.313 2.825-.313 2.825 1.255.784 4.708 3.61 4.708 3.61-1.099-.471-1.727 1.569-1.727 1.569 1.884 1.57.785 3.453.785 3.453-2.354.47-2.825 2.04-2.825 2.04 2.668 3.139-1.255 3.296-1.255 3.296 1.412 1.726-.471 6.435-.471 6.435-1.884 0-4.395 2.197-4.395 2.197.942 1.883-3.139 4.08-3.139 4.08-3.296.628-2.197 3.296-2.197 3.296-3.138 2.355-4.08 8.632-4.08 8.632-.314 4.081-1.256 5.337.785 4.552 2.04-.785 1.726-5.65 1.726-5.65-1.883-6.121 14.91-12.399 14.91-12.399 1.569-.628 1.883-2.668 1.883-2.668.785.157 4.237 3.139 4.237 3.139 2.982 4.394 3.14.785 3.14.785.47-1.413-.158-3.767-.158-3.767 2.355-8.475-3.138-10.986-3.138-10.986-3.924-13.184 1.569-9.888 1.569-9.888 1.099 2.197 5.336 4.238 5.336 4.238l1.413-.942c-.628-1.883 2.668-4.238 2.668-4.238 1.098 2.512 3.453-.627 3.453-.627 1.412-9.574 6.277-3.924 6.277-3.924 1.57.47 2.04-2.197 2.04-2.197 1.413-4.08 0-9.417 0-9.417 1.413-.157 5.18 2.197 5.18 2.197 1.099-1.412-2.511-8.004-.942-7.062s3.296 1.569 3.296 1.569c.314-.785-3.61-5.65-3.61-5.65-1.726-1.099-3.766-9.103-3.766-9.103 2.825 1.413-1.099-4.551-1.099-4.551 0-1.256 2.354-5.65 2.354-5.65-.314-2.669 0-2.512 0-2.512 1.099.471 4.238 1.099 1.57-1.412s.314-4.395.314-4.395c1.726-1.098-3.61-.941-3.61-.941-2.04-1.727-1.884-3.296-1.884-3.296 3.14.785-2.51-4.866-3.452-6.278s2.825-3.453 2.825-3.453c5.179-1.412.627-2.668.627-2.668-7.69.157-3.452-4.08-3.452-4.08 2.354.156 1.726-.785 1.726-.785-2.04-.471-5.807-2.982-5.807-2.982-1.57-1.413-.157-1.099-.157-1.099 6.592.471-4.708-3.924-4.708-3.924 3.139 0-3.924-4.08-3.924-4.08-.785-.628-2.04-3.61-2.04-3.61-2.354-2.04-4.238-4.708-4.238-4.708-.157-1.727-2.04-3.61-2.04-3.61-4.552-5.336-6.749-5.18-6.749-5.18-5.807-1.412-7.847-1.098-7.847-1.098L97.05 20.931c-10.358 5.023-7.298 13.262-7.298 13.262 2.511 3.296 6.12 1.805 6.12 1.805 1.806-2.432 6.357-1.57 6.357-1.57 8.005 1.256 6.985-.156 6.985-.156-.942-1.805-7.299-4.238-7.377-4.473s-3.531-1.57-3.531-1.57c-1.178-.47-2.904-4.08-2.904-4.08-1.256-1.334 4.944.942 4.944.942-.471.392 2.433 1.961 2.433 1.961 6.827-.392 10.986 3.846 10.986 3.846 4.237 6.513 4.316 3.295 4.316 3.295 1.098-3.688-3.532-12.006-3.532-12.006.157-.785 3.375 1.805 3.375 1.805.55-.785.863 1.49.863 1.49.079.943 1.57 4.082 1.57 4.082 1.098 5.1 2.51 2.197 2.51 2.197l1.806 3.688c.549 1.02-1.805 4.002-1.805 4.002-.079 1.099.235 1.02-1.962 4.002s-.863 4.709-.863 4.709c-.55 2.59 2.903 2.432 2.903 2.432 1.02.864 2.354.864 2.354.864.707.784 1.648.549 1.648.549.628-1.491 3.06-.706 3.06-.706.55-.942 3.767-1.099 3.767-1.099.393-1.02.55-1.648 1.884-1.883s-8.318-17.108-8.318-17.108c2.51-.313-.707-5.179-.707-5.179-.863-2.59 3.61 3.14 4.473 3.688s1.256 1.413.628 1.335-1.334.784-.785.863 5.65 5.964 6.985 9.966 3.688 5.571 6.12 7.926 2.12 11.85 2.12 11.85c-.158 3.452 2.196 7.611 2.196 7.611.785 1.491-.863 8.632-.863 8.632-.784.863-.235 1.177-.235 1.177.392.471 3.06 5.65 3.06 5.65-.706-.078.707 1.334.707 1.334 2.04 2.354-.471 1.177-.471 1.177-2.355-.627.392 3.218.392 3.218.47.706-3.06-1.099-3.06-1.099-3.61-.235.941 2.59.941 2.59 3.375 2.825-1.098 1.098-1.098 1.098-1.805-.706-.55 1.962-.55 1.962 1.256.628 8.005 3.375 8.005 3.375.157 1.49-1.02 3.452-1.02 3.452.156 1.57-.707 2.904-.707 2.904-.47 3.217-.706 3.531-.706 3.531-1.648.079-4.552 5.493-4.552 5.493-.706 1.02-4.708 5.729-4.708 5.729-.785 2.746-7.847-.079-7.847-.079-2.59 1.334-1.805 0-1.805 0-.157-.863 1.726-3.217 1.726-3.217 2.747-1.02 1.727-5.258 1.727-5.258 1.57-.55-2.825-1.648-2.747-2.119s2.354-1.02 2.354-1.02c3.14-.784 1.413-1.726 1.413-1.726-.236-1.57.942-3.767.942-3.767 4.551-.314 0-6.67 0-6.67-4.238-2.982-4.63-5.258-4.63-5.258 4.943-3.217 1.726-8.082 1.805-9.495l.549-9.888c-.785-2.432-1.962-7.768-1.962-7.768.863-2.04 3.767-6.985 3.767-6.985 1.098-1.648 4.551-3.53 3.688-4.708s-3.924-.47-3.924-.47c-3.06-.55-2.825 1.49-2.825 1.49-.628.393-.941 2.354-.941 2.354-.283 3.113-3.767 5.572-3.767 5.572-4.395 2.433-.785 4.002-.785 4.002 2.354 2.59-1.49 2.668-1.49 2.668-4.317-.706-1.1 3.296-1.1 3.296 4.238 5.022 3.061 6.121 3.061 6.121-4.002.392.942 4.002.942 4.002s-.314-.785-.236-.078 1.256 2.354 1.57 3.139-1.256.863-1.256.863c.236 3.766-5.807 2.119-5.807 2.119l-.628.078c-.627.079-5.022-.235-7.298-1.099s-4.943-.863-4.943-.863-1.57.706-4.552.628c-2.982-.078-6.12 1.02-6.12 1.02-1.727-.157 1.647-1.883 1.726-1.805s2.275-2.119-.864-1.883c-8.552.641-12.79-3.374-12.79-3.374-.786-.55-1.806-1.648-1.806-1.648-3.923-.785.55 4.865.55 4.865.47.55-.079.942-.079.942-.314-.628-3.374-2.747-3.374-2.747-1.103-.382-1.638-.905-2.553-1.88z" fill="#000"/>
        <path d="M73.823 74.293s4.551 2.198 5.571 3.296 6.514 5.572 6.514 5.572-2.119-.785-3.14-1.491-5.257-3.924-5.257-3.924-1.49-2.354-3.688-3.453z" fill="#4c0000"/>
        <path d="M51.062 62.053c.132-.058-.073-1.123-.153-1.336-.401-1.07-3.924-1.648-3.924-1.648a8.083 8.083 0 0 0-.069 1.805s1.91 2.165 4.146 1.179z" fill="#99cc32"/>
        <path d="M51.062 61.974c-.176.062-.006-1.073-.075-1.257-.4-1.07-4.002-1.687-4.002-1.687a8.083 8.083 0 0 0-.069 1.805s1.675 2.008 4.146 1.14z" fill="#659900"/>
        <path d="M49.34 62.03c-.246 0-.445-.447-.445-.999 0-.551.199-.998.444-.998s.444.447.444.998c0 .552-.199 1-.444 1zm-17.893 38.473s-2.197 3.924 7.534 1.57c0 0 5.493-.471 6.435-1.413.47.314 3.753 1.464 4.865 1.727 2.668.627 5.964-3.296 5.964-3.296s1.805-4.12 2.903-4.12-.157.628-.157.628-2.59 3.963-2.432 4.59c0 0-2.04 7.848-8.318 8.162 0 0-6.337.372-5.807 2.668 0 0 3.452-.942 4.394 0 0 0 4.238-.157 1.099 2.354l-2.668 4.551s.055 1.538-3.924.157c-3.845-1.334-7.887-6.395-7.887-6.395s-6.258-5.71-2-11.183z" fill="#000"/>
        <path d="M30.977 102.073s-.785 3.766 13.654-.314l2.668.314c.942.314 5.65 1.412 6.435.941 0 0-2.825 5.337-7.377 4.709 0 0-5.179.628-5.022 2.511 0 0 1.57 2.825 3.453 3.767 0 0 1.098.941.941 2.197s-1.255 1.883-2.04 2.197-2.04-.941-2.668-.941-3.924-2.512-5.65-4.395-5.022-6.592-4.865-7.69l.47-3.296z" fill="#e59999"/>
        <path d="M32.232 108.92c1.02 1.55 2.276 3.197 3.139 4.139 1.726 1.883 5.022 4.395 5.65 4.395s1.883 1.255 2.668.941 1.884-.941 2.04-2.197-.941-2.197-.941-2.197c-1.203-.6-2.278-1.97-2.898-2.884 0 0 .073 1-1.968.686s-4.08-1.412-4.708-2.668-1.57-2.197-.942-.784 1.57 2.825 2.198 2.982.47.627-.471.47-2.04-.313-3.767-2.354z" fill="#b26565"/>
        <path d="M31.212 100.66s.706-5.336 1.177-6.905c0 0-.314-2.668.628-4.316s1.726-4.081 2.903-6.2 1.256-3.688 2.825-4.316 3.924-4.002 5.023-4.394 1.02-.079 1.02-.079 2.668-5.807 8.004-4.237c0 0-6.356-1.099-.157-4.787 0 0-1.883.431-.588-2.315.863-1.832.667.824-3.65 5.454 0 0-1.961 3.374-4.002 4.551s-6.748 3.924-7.22 5.415-1.725 3.767-2.51 4.394-1.884 2.276-2.04 3.61c0 0-.471 1.57-1.02 2.04s-.628 1.727-.628 2.512-.785 1.883-.707 2.825c0 0 .314 7.455.157 8.24l.785-1.492z" fill="#992600"/>
        <path d="M27.838 102.465s-.785-.55-2.512 1.805c0 0 2.865 12.948 2.865 13.497 0 0 .431-.824-.079-3.649s-.863-7.808-.863-7.808l.589-3.845z" fill="#FFF"/>
        <path d="M36.313 78.688s-6.906 1.255-6.749 12.712l-.314 9.731s-.47-10.044-.942-10.672 1.1-5.023-.157-2.668c0 0-5.493 5.493-2.354 13.81 0 0 .589 1.296-.588-.51 0 0-1.805-4.943-1.374-7.454 0 0 .079-.863.824-1.962 0 0 3.375-4.59 4.434-5.493 0 0 .706-5.65 6.749-7.69 0 0 2.236-.903.47.196z" fill="#992600"/>
        <path d="M91.009 52.713c.258-.139.255-.52.483-.587.45-.135.515-.554.718-.861.342-.518.418-1.12.647-1.705.106-.274.117-.649-.006-.908-.46-.973-.736-1.934-1.302-2.886-.105-.177-.208-.488-.287-.723-.181-.543-.674-.932-1.012-1.45-.113-.173.093-.536-.188-.569-.352-.04-.92-.268-1.012.134-.23 1.015.166 2.005.546 2.963-.307.272-.176.633-.116.934.278 1.415-.192 2.73-.49 4.093-.01.041.125.119.114.143a15.03 15.03 0 0 1-1.763 2.948c-.297.389-.64.748-.834 1.165-.145.31-.305.688-.207 1.076-1.348 1.09-2.23 2.6-3.255 4.108-.181.267-.067.741.15.847.318.156.693-.246.878-.578.152-.273.29-.528.483-.78.053-.07-.018-.234.035-.281 1.033-.921 1.688-2.073 2.65-3.002.766-.13 1.369-.52 2.055-.918.12-.07.326.027.44-.05.688-.461.687-1.26.729-2.01.02-.346.096-.863.544-1.103z" fill="#000"/>
        <path d="M87.54 50.96c.048-.03-.013-.195.03-.28.064-.127.222-.201.285-.328.043-.085-.02-.234.033-.29.915-.96 1.016-2.146.61-3.313.401-.243.425-.738.258-1.07-.334-.668-.41-1.423-.793-2.029-.314-.498-.933-.986-1.471-.474-.166.156-.292.465-.182.745.025.064.136.12.126.153-.042.127-.256.215-.259.322-.011.587-.386 1.18-.139 1.701.303.64.625 1.368.89 2.065-.484.83-.079 1.79-.767 2.527-.053.058-.05.209-.002.288.115.191.274.35.465.465.08.047.216.048.294 0 .227-.143.383-.334.622-.481zm24.645-4.045c.545.703.659 1.8-.145 2.345.216 1.299 1.53.522 2.354.314-.044-.152.047-.287.156-.289.416-.006.683-.41 1.1-.339.172-.61.811-.886 1.066-1.427.675-1.45.444-3.127-.569-4.4-.078-.1.004-.303-.043-.445-.298-.867-1.106-.991-1.867-1.261-.462-1.52-.721-3.102-1.413-4.551-.633-.099-.907-.78-1.431-1.063-.523-.282-.746.337-.73.747.003.08.18.169.113.312-.03.064-.132.108-.132.16 0 .053.088.105.14.157-.36.322-.918.51-1.034.959-.374 1.455.635 2.681 1.29 3.937.231.446-.057.944-.355 1.418-.172.273-.13.715-.022 1.051.295.915.92 1.597 1.522 2.375zm-14.58 7.215c-.584.725-1.923 1.733-.778 2.49.076.05.221.052.29 0 .792-.615 1.578-.969 2.534-1.197.048-.012.156.172.3.108.634-.275 1.422-.253 1.887-.778 1.478.088 2.877-.35 4.207-.863.456-.176.954-.395 1.425-.592.54-.226 1.013-.59 1.449-1.038.052-.053.19-.018.296-.018-.016-.338.361-.388.458-.632.036-.091-.022-.247.03-.287.839-.64 1.2-1.431.741-2.364-.112-.226-.21-.469-.432-.656-.425-.357-.858-.022-1.269-.141-.062.246-.348.179-.5.256-.336.173-.86-.057-1.197.115-.534.273-1.02.339-1.579.487-.122.032-.427-.006-.49.24-.053-.052-.11-.144-.152-.135-.75.155-1.243.239-1.754.903-.04.052-.214-.018-.276.035-.376.317-.535.8-.967 1.065-.078.048-.217-.018-.293.033-.253.169-.397.42-.649.596-.13.09-.286-.038-.274-.139.097-.764.353-1.465.127-2.2.815-.99 1.803-1.754 2.511-2.826.006-.85.278-1.692.233-2.507-.004-.075-.117-.363-.166-.5-.122-.334.233-.752-.098-1.036-.55-.473-1.058-.129-1.381.433-.721.153-1.532.425-2.151-.059-.395-.309-.622-.664-.936-1.078-.386-.511-.255-1.075-.227-1.688.002-.05-.121-.104-.121-.157 0-.052.086-.104.139-.156-.277-.246-.385-.661-.785-.785.12-.429-.145-.776-.487-.894-.783-.271-1.44.48-2.183.508-.202.007-.385-.4-.64-.528-.17-.084-.445-.097-.588.007-.27.198-.5.243-.798.323-.634.171-1.136.6-1.717.936-.582.336-.957.9-1.38 1.418-.37.452-.423 1.399.134 1.595.723.255 1.235-.805 2.006-.677.122.02.203.142.16.294.153.043.238-.047.314-.157.337.4.793.532 1.161.874.381.355 1.066.191 1.464.582.6.59.38 1.642 1.142 2.154-.23.515-.468 1.016-.6 1.576-.11.473.28.943.755.907.493-.037.596-.335.786-.757.105.105.29.221.273.306-.18.937-.582 1.719-.762 2.672-.023.125-.143.204-.295.16-.184 1.629-1.774 2.568-2.772 3.81-.159.197-.16.687 0 .845.55.544 1.32-.062 1.987-.26.083-.473.42-.842.943-.82.1.004.193-.21.32-.26.136-.054.333.034.446-.044.678-.469 1.23-.903 1.912-1.37.076-.05.21.012.296-.03.127-.064.2-.216.327-.289.137-.078.232.035.307.145-.253.137-.255.513-.483.592-.304.105-.524.306-.789.482-.114.076-.373-.022-.414.049-.234.403-.699.575-.977.921zM75.863 34.743s-3.624-1.127-8.004 8.946c0 0-.942 2.04-1.883 2.825s-5.337 2.197-6.121 3.766l-4.08 6.278s5.806-6.278 7.062-7.22c0 0 3.139-3.295 1.883-.627 0 0-5.493 4.238-5.022 7.847 0 0-2.198 5.65-2.511 6.435 0 0 6.277-12.556 7.22-13.026s1.412-.471.94.941-.627 7.848-1.726 8.632c0 0 3.14-8.004 2.825-9.26 0 0 1.256-1.412 2.198.628l-.471 6.278 1.726 4.708s-.941-4.394-.314-10.515c0 0-.784-4.08.785-1.883s5.336 4.551 5.336 6.435c0 0-2.04-6.906-5.65-8.79l-1.57 2.355-.47-.785s-1.413-.314.314-2.982 1.57-2.982 1.57-2.982 2.51 2.825 3.138 2.825c0 0 5.18-2.982 5.65 6.592 0 0 2.668-5.65-.941-8.318 0 0-5.807-.785-5.337-2.825l2.825-4.866c1.413-2.04.785-.941.785-.941z" fill="#000"/>
        <path d="M68.016 41.178l-6.278 2.04-2.825 3.767s6.749-3.924 8.318-4.395.785-1.412.785-1.412zm-15.695 2.511s-.784.47-.941 1.57-1.1 1.255-.785 2.353 1.098 2.04 1.098.471.628-2.354.942-2.825.942-2.197-.314-1.57zm-3.453 24.013s-3.295-1.57-4.551-2.982-1.078.614-2.982.47c-2.294-.173-1.883-6.434-1.883-6.434l-1.57 2.982s-.47 5.65 2.668 4.708c1.533-.46 2.04.157 1.413.47s2.197.472 1.098 1.1 4.552-1.413 3.61 2.667l2.197-2.981zm-4.943 5.65s-6.043 1.726-7.455-2.04c0 0-1.884.941-1.02 2.118s1.334 1.334 1.334 1.334 2.118.47 1.883.785-1.177 1.648-1.177 1.648 4.002-2.354 6.435-3.845z" fill="#000"/>
        <path d="M133.541 104.035c-.169.84-.824 1.153-1.57 1.412-.753-.377-1.769-1.593-2.51-.785-.185-.188-.491-.211-.628-.47-.18-.354-.075-.762-.208-1.076-.216-.502-.49-1.035-.42-1.593.71-.278.942-1.028.757-1.718-.027-.102-.196-.177-.118-.314.075-.13.197-.216.303-.322-.051.055-.11.145-.154.138-.239-.044-.192-.295-.14-.444.23-.686 1.02-.788 1.55-.322.101-.22.301-.145.47-.156-.02-.228.141-.436.22-.6.204-.428.84.003 1.153-.236.424-.326.84-.597 1.264-.361.71.396 1.38.87 1.852 1.558.223.325.317.827.294 1.204-.016.255-.557.114-.69.479-.256.686.466.89.76 1.416.079.138-.023.255-.149.294-.16.051-.467-.023-.416.154.385 1.251-.698 1.518-1.62 1.742zm-3.767 7.69c-.004-.683-.631-1.37-.157-2.04.055.055.106.14.157.14.055 0 .106-.085.157-.14.589.87 2.02 1.232 1.966 2.35-.012.177-.436.537-.082.789-.71.53-.734 1.46-1.099 2.197a6.638 6.638 0 0 1-1.413-.471c.138-.58.095-1.244.416-1.762.17-.274.055-.698.055-1.063z" fill="#FFF"/>
        <path d="M64.563 108.194s-6.614 3.978-1.099-2.04c3.453-3.767 7.377-5.965 7.377-5.965s4.08-1.726 5.493-2.197 7.377-2.511 8.632-2.668 5.022-1.726 7.69-.157 5.807 3.296 5.807 3.296-6.434-3.296-7.847-2.354-4.237.785-6.592 2.04c0 0-5.807 1.727-7.062 2.511s-5.336 5.336-5.964 5.023.157-.471.628-1.57-.314-1.726-3.453.785-3.61 3.296-3.61 3.296z" fill="#CCC"/>
        <path d="M67.469 105.851s.553-5.116 3.88-4.46c0 0 3.227-1.637 4.295-2.41 0 0 3.193-.667 3.707-.91 7.25-3.413 13.026-1.64 13.24-2.08.215-.439 7.915 2.354 9.331 3.955.154.177-4.014-2.193-7.82-2.935-3.245-.634-11.721.094-16 2.268-1.167.593-4.677 2.86-5.67 2.817s-4.963 3.755-4.963 3.755z" fill="#000"/>
        <path d="M65.976 115.884s-5.964-.942.627-1.57c0 0 7.063-.784 8.632-2.824 0 0 5.337-3.61 6.435-3.767s12.87-2.982 13.027-3.924 2.354-.941 2.982-.628.314.785-.785 1.099-13.34 6.749-15.852 7.22-7.062 3.452-8.946 3.923-6.12.471-6.12.471z" fill="#CCC"/>
        <path d="M73.635 112.98s-3.368-.325.007-.643c0 0 3.46-1.346 4.263-2.39 0 0 2.732-1.847 3.294-1.93.563-.078 6.04-1.526 6.12-2.009s13.448-5.418 15.182-4.167c1.142.824-2.743.169-6.523 1.9-.531.243-13.814 5.963-15.1 6.207-1.286.239-3.616 1.765-4.58 2.008-.964.24-2.663 1.025-2.663 1.025zm-3.108.864s2.04-.157 1.57.47-1.413.314-1.413.314l-.157-.784zm-2.825.628s2.04-.157 1.57.47-1.413.314-1.413.314l-.157-.784zm-4.081.628s2.04-.158 1.57.47-1.413.314-1.413.314l-.157-.785zm-2.981.313s2.04-.157 1.569.471-1.413.314-1.413.314l-.157-.785zm15.066-15.537l1.256.627c-.471.628-1.727.471-1.727.471l.471-1.098zm-3.923 2.197s2.552-.84 1.57.47c-.472.628-1.413.315-1.413.315l-.157-.785zm-4.395 1.883s2.04-.157 1.57.471-1.413.314-1.413.314l-.157-.785zm-2.982 2.354s2.04-.157 1.57.471-1.413.314-1.413.314l-.157-.785zm-2.668 1.884s2.04-.157 1.57.47-1.413.314-1.413.314l-.157-.784z" fill="#000"/>
        <path d="M77.072 110.705s2.716-.208 2.09.628c-.627.831-1.88.416-1.88.416l-.21-1.044zm4.081-1.884s2.716-.207 2.089.628c-.627.832-1.88.416-1.88.416l-.209-1.044zm4.237-1.726s2.716-.208 2.09.628c-.627.832-1.88.416-1.88.416l-.21-1.044zm4.081-1.883s2.716-.208 2.09.627c-.627.832-1.881.416-1.881.416l-.209-1.043zM78.642 98.15s2.716-.209 2.089.627c-.627.832-2.194.73-2.194.73l.105-1.358zm3.924-1.256s2.715-.21 2.089.627c-.627.832-2.351.73-2.351.73l.262-1.357zm-8.9 15.694s2.04-.157 1.57.471-1.413.314-1.413.314l-.157-.785z" fill="#000"/>
        <path d="M44.945 73.665s-1.727 3.453-1.884 4.709c0 0 .314-3.453.785-4.238s1.099-.47 1.099-.47zm-7.22 5.494s-1.255 5.65-1.098 6.748c0 0-.471-4.551-.314-5.022s1.412-1.726 1.412-1.726z" fill="#992600"/>
        <path d="M45.886 49.888l-.078 1.256-.863.078s5.571 4.944 5.807 7.926c0 0 .314-3.217-4.866-9.26z" fill="#CCC"/>
        <path d="M47.45 50.384c-.17-.163-.084-.455-.244-.557-.317-.203.51-.225.42-.506-.15-.473-.077-.481-.125-.982-.022-.235.209-.839.36-1.011.567-.649.048-1.8.691-2.408.12-.113.267-.33.379-.494.258-.377.723-.569 1.096-.894.124-.108.046-.433.269-.397.28.046.767-.005.75.325-.045.831-.567 1.506-1.069 2.16.177.277-.002.526-.114.745-.524 1.028-.45 2.142-.518 3.257-.002.033-.122.064-.12.084.14.917.369 1.78.713 2.654.144.365.329.716.388 1.08.043.269.084.596-.076.872.798 1.134.284 2.175.743 3.56.081.245.745.996.564.933-.986-.342-1.03-.498-1.1-.793-.057-.245-.187-.785-.28-1.021-.025-.065-.092-.804-.122-.852-.594-.934-.061-.865-.599-1.79-.56-.267-.94-.7-1.38-1.156-.077-.08.371-.365.3-.448-.428-.506-.88-.807-.749-1.393.06-.27.115-.685-.177-.968zm-1.407.681s.157 2.668 1.099 3.296.47.314-.785-.157-.784-.785-.784-.785-1.1.157-.157.942 2.354 1.726 1.726 1.726-3.61-1.569-3.61-2.668-.392-2.707-.392-2.707.431-.314 2.315-.275c0 0 .55.275.588.628z" fill="#000"/>
        <path d="M45.73 58.363s-3.343-1.095-10.594.236c0 0 3.543-.816 10.907.078 4.042.49-.314-.314-.314-.314z" stroke-width=".039" stroke="#000" fill="#FFF"/>
        <path d="M46.553 58.335s-3.236-1.38-10.575-.681c0 0 3.601-.506 10.86 1.021 3.984.838-.285-.34-.285-.34z" stroke-width=".039" stroke="#000" fill="#FFF"/>
        <path d="M47.254 58.372s-3.124-1.617-10.494-1.466c0 0 3.628-.237 10.754 1.826 3.91 1.132-.26-.36-.26-.36z" stroke-width=".039" stroke="#000" fill="#FFF"/>
        <path d="M47.753 58.46s-2.678-1.69-9.299-2.121c0 0 3.272.066 9.503 2.463 3.42 1.316-.204-.343-.204-.343zm45.233 4.125s-.365.253-.28-.21c.083-.464 11.151-5.631 12.57-5.533 0 0-11.869 5.182-12.29 5.743z" stroke-width=".039" stroke="#000" fill="#FFF"/>
        <path d="M91.654 62.836s-.343.28-.296-.188 10.676-6.49 12.097-6.502c0 0-11.425 6.097-11.8 6.69z" stroke-width=".039" stroke="#000" fill="#FFF"/>
        <path d="M90.365 63.376s-.325.303-.308-.168c.016-.47 7.792-6.551 11.642-7.286 0 0-7.075 3.188-11.334 7.454z" stroke-width=".039" stroke="#000" fill="#FFF"/>
        <path d="M89.237 64.107s-.293.272-.278-.151c.015-.424 7.013-5.896 10.478-6.558 0 0-6.367 2.87-10.2 6.709z" stroke-width=".039" stroke="#000" fill="#FFF"/>
        <path d="M76.805 122.162s-5.964-.942.628-1.57c0 0 7.062-.784 8.632-2.825 0 0 5.336-3.61 6.435-3.766s7.533-1.57 7.69-2.511 2.511-1.884 3.139-1.57.628 3.924-.471 4.238-8.475 3.139-10.986 3.61-7.063 3.452-8.946 3.923-6.121.47-6.121.47z" fill="#CCC"/>
        <path d="M105.448 107.487s-1.177.628-1.648 1.648c0 0-2.511 4.16-8.083 5.415 0 0-9.024 3.531-12.085 4.316 0 0-5.258 1.962-8.161 1.648 0 0-2.747.078-.314.706 0 0 7.926-.784 9.26-1.49 0 0 6.12-2.041 7.298-3.061s8.318-2.982 9.181-3.767 4.709-4.08 4.552-5.415z" fill="#000"/>
        <path d="M82.409 119.85s2.051-.09 1.599.519-1.413.267-1.413.267l-.186-.785zm-2.826.53s2.051-.086 1.6.522c-.453.609-1.414.263-1.414.263l-.186-.784zm-4.093.491s2.053-.09 1.6.518-1.413.267-1.413.267l-.186-.785zm-2.994.216s2.051-.09 1.599.518-1.413.263-1.413.263l-.186-.781zm16.4-4.14s2.73-.117 2.128.69c-.602.813-1.88.354-1.88.354l-.248-1.044zm4.047-1.734s2.338-1.295 2.128.69c-.105 1.001-1.88.354-1.88.354l-.248-1.044zm3.583-1.106s2.809-1.452 2.129.694c-.306.958-1.881.353-1.881.353l-.248-1.047zm3.733-1.892s1.71-1.922 2.129.691c.159.997-1.881.353-1.881.353l-.248-1.044zm-14.73 6.495s2.051-.091 1.599.517c-.452.608-1.413.267-1.413.267l-.186-.785z" fill="#000"/>
        <path d="M99.497 71.077s-.285.261-.285-.16c0-.42 6.86-5.623 10.33-6.166 0 0-6.317 2.64-10.045 6.326z" stroke-width=".039" stroke="#000" fill="#FFF"/>
        <path d="M100.66 96.109s8.633 8.789 12.243 10.201c0 0 3.61 4.395 2.04 14.596 0 0-1.255 2.982-2.51-5.179 0 0 1.255-9.888-3.14-3.61 0 0-3.296-3.884-.785-3.766 0 0 1.256.784 1.413.157s-2.982-5.964-9.731-11.614.47-.785.47-.785z" fill="#000"/>
        <path d="M77.747 111.333s-.079-.707.627-.393 37.667 2.747 50.066 12.164c0 0-17.734-9.103-50.693-11.771z" stroke-width=".039" stroke="#000" fill="#FFF"/>
        <path d="M81.827 109.606s-.078-.706.628-.392 54.303-.079 63.563 12.634c0 0-8.632-9.888-64.19-12.242z" stroke-width=".039" stroke="#000" fill="#FFF"/>
        <path d="M86.379 108.037s-.079-.707.627-.393 68.743-4.786 78.003 7.926c0 0-3.767-10.044-78.63-7.533zm3.923-1.884s-.078-.706.628-.392 48.653-14.831 57.913-2.119c0 0-5.257-9.652-58.54 2.511zM67.545 115.1s-.078-.707.628-.393 7.69 1.177 8.475 16.4c0 0-2.825-16.479-9.103-16.008z" stroke-width=".039" stroke="#000" fill="#FFF"/>
        <path d="M64.092 115.727s-.078-.706.628-.392 6.278-1.491 5.18 13.733c0 0 .47-13.812-5.808-13.34z" stroke-width=".039" stroke="#000" fill="#FFF"/>
        <path d="M60.953 115.884s-.078-.706.628-.392 6.749.549 1.883 9.338c0 0 3.767-9.417-2.51-8.946zm18.569-17.397s-.174.784.434.31c6.305-4.955 19.034-28.066 40.885-30.277 0 0-15.033-4.752-41.317 29.967zm4.395-.707s-.535-.467.198-.71c.733-.247 44.851-28.694 60.267-25.568 0 0-10.637-2.947-60.463 26.278z" stroke-width=".039" stroke="#000" fill="#FFF"/>
        <path d="M75.74 100.178s-.2.627.471.243c3.522-2.009 4.94-24.457 22.038-24.95 0 0-12.717-5.772-22.51 24.707z" stroke-width=".039" stroke="#000" fill="#FFF"/>
        <path d="M67.923 104.502s-.423.506.343.404c4.02-.522 12.419-16.714 29.855-14.722 0 0-12.542-5.628-30.198 14.318z" stroke-width=".039" stroke="#000" fill="#FFF"/>
        <path d="M72.332 102.1s-.318.577.415.33c3.845-1.283 8.979-18.789 26.473-20.18 0 0-13.39-3.117-26.888 19.85z" stroke-width=".039" stroke="#000" fill="#FFF"/>
        <path d="M65.16 106.51s-.342.408.278.33c3.257-.424 10.06-13.54 24.183-11.926 0 0-10.16-4.56-24.46 11.596z" stroke-width=".039" stroke="#000" fill="#FFF"/>
        <path d="M62.179 108.83s-.395.411.23.364c1.635-.121 13.656-13.1 20.902-7.02 0 0-4.714-7.345-21.132 6.655zM89.46 96.304s-.47-.531.287-.683c.759-.15 48.116-22.795 63.01-17.747 0 0-10.177-4.266-63.296 18.43zm-13.126 25.23s-.078-.706.628-.392 6.749.55 1.883 9.338c0 0 3.767-9.417-2.511-8.946zm4.081-.628s-.079-.706.627-.392 7.69 1.177 8.476 16.4c0 0-2.825-16.478-9.103-16.008z" stroke-width=".039" stroke="#000" fill="#FFF"/>
        <path d="M83.083 120.279s-.079-.707.628-.393 10.358 1.648 19.618 14.36c0 0-13.968-14.438-20.246-13.967z" stroke-width=".039" stroke="#000" fill="#FFF"/>
        <path d="M86.075 119.482s-.172-.69.57-.47c.741.215 8.759-.53 23.707 12.88 0 0-18.118-13.709-24.277-12.41zm4.08-1.726s-.171-.69.57-.471c.742.216 14.41 1.981 34.694 15.706 0 0-29.104-16.534-35.264-15.235z" stroke-width=".039" stroke="#000" fill="#FFF"/>
        <path d="M74.294 113.216s-.079-.706.628-.392 21.658 1.334 33.586 11.85c0 0-13.694-9.72-34.214-11.458zm-3.924 1.569s-.078-.706.628-.392 10.358 1.648 19.618 14.36c0 0-13.968-14.438-20.246-13.968zm24.053 1.162s-.221-.675.534-.51c.756.16 14.516.918 35.751 13.12 0 0-30.472-13.497-36.285-12.61z" stroke-width=".039" stroke="#000" fill="#FFF"/>
        <path d="M97.72 115.005s-.223-.675.533-.51c.756.161 14.516.918 35.751 13.12 0 0-30.237-13.654-36.285-12.61zm3.766-1.962s-.222-.675.534-.51c.756.161 17.655 1.86 52.86 15.318 0 0-47.343-15.851-53.394-14.808z" stroke-width=".039" stroke="#000" fill="#FFF"/>
        <path d="M57.814 115.727s2.04-.157 1.57.471-1.413.314-1.413.314l-.157-.785zM69.9 121.22s2.04-.157 1.569.471-1.413.314-1.413.314l-.157-.785zm-3.454-.157s2.04-.157 1.57.471-1.413.314-1.413.314l-.157-.785zm-37.42-4.637s1.982.517 1.33.957-1.44-.165-1.44-.165l.11-.792zm.785-3.767s1.982.518 1.33.957-1.44-.165-1.44-.165l.11-.792zm-2.825-1.727s1.982.518 1.33.958-1.44-.165-1.44-.165l.11-.793z" fill="#000"/>
        <path d="M58.285 140.368l-2.197.784c-.785 0-5.18 1.413-7.377 5.337 0 0 4.866-3.767 9.574-6.121zm34.417 36.352c.055.099.077.263.191.271.259.016.742.134.693-.114-.332-1.69-.675-3.629-2.297-4.335-.25-.11-.816.05-.845.4-.05.596-.096 1.126.025 1.699.118.561.964.561 1.324.02.368.655.537 1.38.909 2.06zm-4.347 1.856c.294.554.244 1.283.8 1.507.29.114 1.015-.267.851-.69-.314-.809-.466-1.688-1.011-2.398-.079-.102.015-.31-.048-.44-.233-.478-.682-.768-1.234-.639-.438.863.013 1.699.61 2.37.053.059-.012.208.032.29zm-15.538-2.036c-.042-.15-.057-.33.007-.455.209-.404.52-.844.388-1.248-.137-.412-.575-.341-.83-.118-.445.389-.464 1.107-.736 1.64-.076.15-.056.377-.23.53-.185.165-.358.761-.32.985.02.126-.051 4.01.036 3.908.243-.286 1.44-4.108 1.466-4.457.023-.287.31-.467.219-.785zm-10.06-2.664c1.034-.981 2.129-2.143 1.955-3.598-.045-.385-.742-.177-.815.153-.315 1.424-1.115 2.468-2.122 3.406-.862.804-1.593 3.291-1.685 3.492 1.45-2.064 2.336-3.14 2.667-3.453zm-5.326-2.339c.206-.149.087-.341.172-.47.374-.573.885-1.06.892-1.743 0-.11-.147-.231-.279-.14-.109.07-.243.12-.285.172-.797.961-1.346 2.009-1.912 3.111-.072.141-.52 1.903-.398 1.946.094.036.769-1.604.851-1.652.496-.266.5-.902.96-1.224zm6.566 7.667c.174-.341.792-.812.748-1.161-.046-.365.137-.93-.22-.66-.494.37-1.847.899-1.953 3.179-.01.223 1.157-.832 1.425-1.358zm5.667-6.741c.157-.263.435-.074.615-.18.254-.145.494-.365.608-.62.38-.84 1.075-1.554 1.131-2.496-.585-.549-.851.251-1.099.628-.519-.647-.91.09-1.42.294-.028.012-.112-.125-.141-.113-.462.172-.729.596-1.12.902-.068.051-.226-.02-.284.035-.256.236-.638.365-.748.632-.435 1.06-1.667 1.883-2.408 4.842.15.357 1.77-2.605 1.962-2.88.328-.47.374.651.875.392.02-.011.093.083.145.134.077-.11.162-.2.314-.157 0-.157-.052-.377.027-.436.485-.384.452-.804.758-1.29.18.31.596.027.785.313zm23.463 21.345s2.904-8.004 1.177-12.399c0 0 4.473 8.475 2.668 12.87 0 0-.156-4.08-1.726-6.043 0 0-1.57 5.023-2.119 5.572zm-5.807-1.02s2.12-3.453-1.02-10.673c0 0-.314 8.005-2.982 12.32 0 0 5.572-7.925 4.002-1.647zm-3.923-.785s-.079-7.847.078-9.024c0 0-1.49 6.513-5.493 10.28 0 0 5.65-4.709 5.415-1.256zm-3.767-12.556s2.354 5.337-1.57 12.556c0 0 2.512-4.787.628-7.533 0 0 1.02-1.334.942-5.023zm-7.534 12.399s-.392-6.12.314-6.984c0 0 .079-2.511-.078-2.904 0 0 1.57-2.432 1.648.471 0 0 .55 3.06 1.648 4.866 0 0 1.412 2.118 1.334 4.63 0 0-3.924-11.85-4.866-.079zm-1.412-10.829s-2.59 4.237-3.296 11.692c0 0-.55-2.432.942-8.082 0 0 1.648-6.043 2.354-3.61zm-8.554 7.769s1.962-2.12 2.512-4.08c0 0 1.412-6.2-1.1-2.826 0 0 .08 3.139-3.138 6.042 0 0 1.883-.941 1.726.864zm-2.275-1.962s1.334-6.827 1.648-7.141c0 0 .706-1.334-.393-.079 0 0-3.453 7.534-5.022 10.123 0 0 3.139-3.61 3.767-2.903zm-2.276-6.514s4.551-8.788-4.002 1.335c0 0 4.316-3.846 4.002-1.334zm-6.042-5.728s1.883-7.376 2.903-7.298l.628.628s-2.354 3.767-2.119 7.612c0 0-.235-3.767-1.412-.942zm129.598-4.473s-4.708-3.924-5.69-5.297c0 0 5.298 7.259 5.298 10.005 0 0 .98-2.942.392-4.708zm2.158-8.632s-8.24-5.886-9.613-8.828c0 0 10.398 11.575 10.398 13.34 0 0 .196-3.531-.785-4.512zm6.67-60.424s-4.708-3.14-5.297-2.355c0 0 4.12 2.55 5.101 5.886 0 0-.588-3.531.196-3.531zm3.335 31.585l-6.866-4.708s7.455 6.67 7.651 8.24l-.785-3.532z" fill="#CCC"/>
        <path d="M39.981 123.81l8.632 1.864m11.085 61.699s-.196-1.373-3.728 2.747m5.886-.785s.784-2.55-1.766-.785m22.954 4.12s.588-4.316-3.924.785" stroke="#000" stroke-width=".392"/>
    </g>
</svg>
