<svg xmlns="http://www.w3.org/2000/svg" width="297mm" height="210mm" viewBox="0 0 297 210">
    <path d="M20.832 55.653a96.674 96.674 0 0 0-13.22 48.674 96.66 96.66 0 0 0 12.872 48.205l18.274-10.551a82.636 82.636 0 0 1-9.019-37.55 82.655 82.655 0 0 1 10.279-39.816l-19.186-8.962z" fill="#8b5fb6"/>
    <path d="M34.84 75.956a82.633 82.633 0 0 0-5.1 28.474 82.626 82.626 0 0 0 5.156 28.743l21.286-8.13a67.918 67.918 0 0 1-3.187-20.568 67.922 67.922 0 0 1 3.193-20.494L34.84 75.956z" fill="#ffe142"/>
    <path d="M57.06 81.417a67.916 67.916 0 0 0-4.065 23.058A67.912 67.912 0 0 0 57.1 127.74l22.096-9.533a52.632 52.632 0 0 1-1.792-13.618c.007-4.7.64-9.31 1.84-13.727L57.06 81.417z" fill="#8b5fb6"/>
    <g fill="none" stroke="#99a2d1" stroke-width="2">
        <path d="M29.739 104.43a82.713 82.713 0 0 1 41.01-71.313L55.574 20.923a96.736 96.736 0 0 0-47.963 83.404 96.736 96.736 0 0 0 50.259 84.832l14.842-12.194a82.713 82.713 0 0 1-42.973-72.535z"/>
        <path d="M72.712 176.965a82.713 82.713 0 0 1-42.973-72.535 82.713 82.713 0 0 1 41.01-71.313L86.7 45.862a67.982 67.982 0 0 0-33.707 58.613 67.983 67.983 0 0 0 35.32 59.617z"/>
        <path d="M88.314 164.092a67.983 67.983 0 0 1-35.32-59.617 67.982 67.982 0 0 1 33.707-58.613l16.82 13.313a52.672 52.672 0 0 0-26.116 45.413 52.671 52.671 0 0 0 27.365 46.19z"/>
    </g>
    <path d="M276.596 56.56a96.674 96.674 0 0 1 13.22 48.675 96.66 96.66 0 0 1-12.872 48.204l-18.274-10.55a82.636 82.636 0 0 0 9.019-37.551 82.656 82.656 0 0 0-10.279-39.815z" fill="#c9324d"/>
    <path d="M262.589 76.864a82.633 82.633 0 0 1 5.1 28.474 82.628 82.628 0 0 1-5.156 28.743l-21.287-8.13a67.918 67.918 0 0 0 3.187-20.568 67.922 67.922 0 0 0-3.193-20.494z" fill="#42a2ff"/>
    <path d="M240.369 82.325a67.916 67.916 0 0 1 4.064 23.058 67.91 67.91 0 0 1-4.106 23.264l-22.096-9.533a52.632 52.632 0 0 0 1.792-13.618c-.007-4.7-.64-9.31-1.84-13.728z" fill="#d1515d"/>
    <g fill="none" stroke="#99a2d1" stroke-width="2">
        <path d="M267.995 104.394a82.713 82.713 0 0 0-41.01-71.314l15.174-12.194a96.736 96.736 0 0 1 47.963 83.404 96.736 96.736 0 0 1-50.258 84.832l-14.842-12.194a82.713 82.713 0 0 0 42.973-72.534z"/>
        <path d="M225.022 176.928a82.713 82.713 0 0 0 42.973-72.534 82.713 82.713 0 0 0-41.01-71.314l-15.952 12.746a67.982 67.982 0 0 1 33.706 58.613 67.983 67.983 0 0 1-35.32 59.617z"/>
        <path d="M209.42 164.056a67.983 67.983 0 0 0 35.32-59.617 67.982 67.982 0 0 0-33.707-58.613l-16.82 13.313a52.672 52.672 0 0 1 26.116 45.412 52.671 52.671 0 0 1-27.366 46.19z"/>
    </g>
    <path fill="#8b5fb6" d="M118.753 76.193h11.481v7.69h-11.48zm-3.861 12.275h15.223v7.69h-15.223zm-2.94 12.144h18.163v7.69h-18.163zm13.898 11.885h4.265v7.69h-4.265zm-5.88 12.404h10.145v7.69H119.97z"/>
    <path fill="none" stroke="#99a2d1" stroke-width=".758" d="M97.775 174.077h32.748v7.424H97.775zm0 12.136h32.748v7.424H97.775zm0 12.136h32.748v7.424H97.775zm0 12.136h32.748v7.424H97.775zm0-48.544h32.748v7.424H97.775z" transform="matrix(.89734 0 0 1.0007 12.992 -85.733)"/>
    <path fill="#c9324d" d="M166.433 76.323h15.49v7.69h-15.49zm0 12.145h5.869v7.69h-5.869zm0 11.884h8.274v7.69h-8.274zm0 12.145h2.929v7.69h-2.929zm0 12.404h9.343v7.69h-9.343z"/>
    <path d="M116.3 116.612v-4.541h69.422v4.541m0 27.598v4.431H116.3v-4.43" fill="none" stroke="#c6c6c6" stroke-width=".482" transform="matrix(.89734 0 0 1.0007 12.992 -85.733)"/>
    <g style="line-height:100%;-inkscape-font-specification:'Helvetica Neue'">
        <path d="M137.026 37.803v-.491h-3.293q.05-.296.254-.542.203-.254.465-.466.271-.211.56-.38.287-.178.499-.322.296-.187.558-.398.271-.22.475-.474.211-.254.33-.56.127-.304.127-.677 0-.414-.144-.728-.136-.313-.39-.516-.245-.212-.584-.313-.33-.11-.72-.11-.482 0-.846.16-.356.153-.593.432-.237.28-.355.67-.11.38-.102.837h.533q-.008-.33.06-.626.076-.297.237-.525.16-.229.415-.364.262-.136.626-.136.271 0 .508.085.246.076.424.237.186.152.287.381.11.22.11.508 0 .356-.127.618-.118.254-.364.5-.245.245-.558.465-.305.212-.618.424-.314.203-.61.431-.296.22-.533.491-.238.271-.381.61-.144.339-.153.779zm2.859-5.977q-.644 0-1.05.287-.406.28-.635.72-.22.44-.305.982-.076.542-.076 1.067 0 .516.076 1.058.085.542.305.982.229.44.635.72.406.28 1.05.28.652 0 1.05-.28.406-.28.626-.72.229-.44.305-.982.085-.542.085-1.066 0-.517-.085-1.059-.076-.542-.305-.982-.22-.44-.626-.72-.398-.287-1.05-.287zm0 .448q.508 0 .813.263.305.262.457.652.16.39.212.846.05.458.05.839 0 .389-.05.846-.051.449-.212.847-.152.39-.457.652-.305.262-.813.262t-.813-.262q-.305-.263-.466-.652-.152-.398-.203-.847-.05-.457-.05-.846 0-.381.05-.839.051-.457.203-.846.161-.39.466-.652.305-.263.813-.263zm3.18.746v.38h1.567v4.403h.533v-5.927h-.432q-.059.407-.203.635-.135.22-.347.33-.203.11-.491.144-.28.026-.627.034zm6.245 1.388q-.236.008-.465-.05-.229-.06-.406-.196-.178-.135-.288-.347-.11-.211-.11-.508 0-.254.101-.449.11-.194.288-.321t.407-.195q.228-.068.474-.068.27 0 .5.068.228.068.397.195.17.127.263.321.101.195.101.45 0 .287-.11.499-.101.211-.28.347-.169.135-.397.203-.229.06-.474.05zm1.796-1.1q0-.382-.161-.661-.153-.28-.415-.457-.254-.187-.576-.271-.322-.093-.652-.093t-.652.093q-.321.084-.575.27-.254.178-.415.458-.153.28-.153.66 0 .491.246.83.254.33.72.474v.017q-.56.102-.873.516-.313.415-.33 1 0 .448.161.787.161.33.44.55.28.22.652.33.373.11.788.11.423 0 .787-.11.373-.11.652-.33.28-.22.44-.55.161-.339.161-.787 0-.61-.313-1-.313-.397-.898-.516v-.017q.458-.135.712-.474.254-.347.254-.83zm-1.795 4.173q-.314 0-.593-.084-.27-.085-.474-.246-.203-.17-.322-.423-.118-.254-.118-.585 0-.321.118-.567.127-.245.33-.406.204-.17.474-.246.28-.076.585-.067.296-.008.567.076.28.076.483.245.211.161.33.407.127.237.127.559 0 .338-.119.592-.118.254-.322.424-.203.16-.482.245-.271.076-.584.076zm2.867-1.761h2.117v-.49h-2.117zm3.439-2.7v.38h1.566v4.403h.533v-5.927h-.432q-.059.407-.203.635-.135.22-.347.33-.203.11-.491.144-.28.026-.627.034zm4.856 3.36h-.533q.093.788.559 1.169.465.373 1.261.373.483 0 .83-.17t.576-.432q.237-.27.372-.6.144-.34.22-.661.077-.33.093-.618.026-.288.026-.466 0-.863-.127-1.465-.119-.6-.373-.973-.254-.381-.643-.542-.39-.17-.931-.17-.44 0-.813.153-.364.152-.635.423-.263.263-.415.635-.144.364-.144.796 0 .432.135.796.144.364.398.627.254.262.618.414.364.144.805.144.508 0 .931-.27.432-.272.644-.712h.016q0 .407-.059.872-.06.457-.237.855-.178.398-.5.66-.313.263-.838.263-.516 0-.846-.305-.322-.304-.39-.795zm1.287-1.015q-.338 0-.61-.119-.262-.127-.448-.339-.178-.211-.28-.5-.093-.287-.093-.609 0-.305.102-.584.102-.28.288-.483.195-.211.457-.33.263-.127.576-.127.39 0 .669.119.28.118.457.33.186.203.27.483.086.27.086.592 0 .33-.102.618-.093.28-.288.491-.186.212-.466.34-.27.118-.618.118z" style="-inkscape-font-specification:'Helvetica Neue Light'" aria-label="2018-19" font-weight="300" font-size="8.467" font-family="Helvetica Neue" letter-spacing="0" word-spacing="0" stroke-width=".265" fill="#fff"/>
    </g>
    <g style="line-height:100%;-inkscape-font-specification:'Helvetica Neue'">
        <path d="M144.717 56.825l4.013-12.09h-2.743l-2.727 8.5h-.034l-2.692-8.5h-2.726l3.911 12.09zm6.873-4.013h-2.575q-.017 1.118.407 1.93.423.813 1.134 1.338.728.525 1.66.762.948.254 1.947.254 1.236 0 2.167-.288.949-.288 1.575-.796.644-.524.965-1.236.322-.71.322-1.54 0-1.017-.44-1.66-.423-.66-1.016-1.05t-1.202-.559q-.593-.186-.932-.254-1.134-.288-1.845-.474-.695-.186-1.101-.372-.39-.187-.525-.407-.135-.22-.135-.576 0-.389.169-.643.17-.254.423-.423.271-.17.593-.237.322-.068.643-.068.491 0 .898.085.423.084.745.288.322.203.508.558.203.356.237.898h2.574q0-1.05-.407-1.778-.39-.745-1.066-1.22-.678-.474-1.558-.677-.864-.22-1.812-.22-.813 0-1.626.22t-1.456.678q-.643.457-1.05 1.151-.39.677-.39 1.609 0 .83.305 1.422.322.576.83.965.508.39 1.152.644.643.237 1.32.406.66.186 1.304.339.644.152 1.152.355.508.204.813.508.321.305.321.796 0 .458-.237.762-.237.288-.592.458-.356.169-.762.237-.407.05-.762.05-.525 0-1.016-.118-.491-.136-.864-.39-.356-.27-.576-.694-.22-.423-.22-1.033z" style="-inkscape-font-specification:'Helvetica Neue Bold'" aria-label="VS" font-weight="700" font-size="16.933" font-family="Helvetica Neue" letter-spacing="0" word-spacing="0" stroke-width=".265" fill="#fff"/>
    </g>
    <g style="line-height:100%">
        <path d="M126.687 168.728v-3.09h2.476q.751 0 1.217.38.466.382.466 1.165t-.466 1.164q-.466.381-1.217.381zm-.72-3.704v7.556h.72v-3.238h2.635q.508 0 .92-.138.413-.148.71-.423.296-.286.455-.688.158-.402.158-.91t-.158-.91q-.159-.402-.455-.678-.297-.285-.71-.423-.412-.148-.92-.148zm10.476 4.445h-3.535q.042-.37.17-.72.137-.36.36-.624.222-.275.539-.434.318-.17.73-.17.402 0 .72.17.317.159.54.434.222.264.338.614.127.349.138.73zm-3.535.56h4.202q.02-.57-.106-1.121-.127-.561-.423-.984-.286-.434-.752-.699-.466-.264-1.122-.264-.645 0-1.122.254-.465.243-.762.656-.296.402-.444.92-.138.52-.138 1.059 0 .582.138 1.111.148.519.444.92.297.392.762.625.477.223 1.122.223 1.037 0 1.598-.508.572-.508.784-1.44h-.667q-.159.635-.572 1.016-.412.381-1.143.381-.476 0-.815-.2-.338-.202-.56-.509-.223-.307-.329-.688-.095-.391-.095-.751zm5.107-2.909v5.46h.667v-2.91q0-.434.148-.794.148-.37.413-.635.275-.264.645-.402.37-.148.826-.127v-.667q-.741-.031-1.281.328-.53.36-.783 1.027h-.021v-1.28zm12.845 5.46v-3.841h-3.206v.613h2.572q.01.604-.159 1.112-.17.508-.508.878-.339.37-.836.582-.487.201-1.111.201-.752 0-1.291-.285-.54-.286-.89-.752-.338-.476-.507-1.069-.16-.603-.16-1.217 0-.624.16-1.217.169-.593.508-1.058.349-.477.889-.762.54-.286 1.29-.286.54 0 .974.18.434.17.741.444.318.276.498.614.19.328.222.656h.72q-.106-.624-.392-1.09-.286-.465-.698-.783-.413-.317-.942-.476-.53-.159-1.122-.159-.89 0-1.567.328-.666.318-1.11.868-.445.54-.668 1.249-.222.709-.222 1.492t.222 1.492q.223.71.667 1.25.445.539 1.111.867.678.318 1.567.318.413 0 .794-.085.391-.085.73-.265.338-.19.614-.476.285-.296.476-.699h.021l.095 1.376zm1.189-3.788h.666q.022-.667.424-.964.402-.306 1.037-.306.296 0 .55.052.265.043.455.17.201.127.307.349.117.212.117.55 0 .223-.064.36-.053.138-.159.222-.105.075-.264.106-.159.032-.37.053-.54.064-1.07.138-.518.063-.941.233-.413.169-.667.497-.254.317-.254.889 0 .413.137.72.149.296.392.497.254.19.582.275.339.096.72.096.402 0 .688-.075.296-.074.518-.211.233-.138.413-.339.19-.212.37-.476h.022q0 .212.02.391.033.17.117.297.085.127.233.2.159.064.413.064.137 0 .222-.01.095-.01.212-.032v-.56q-.095.041-.212.041-.391 0-.391-.402v-2.9q0-.55-.18-.889-.18-.349-.466-.54-.286-.19-.646-.253-.36-.074-.72-.074-.476 0-.867.105-.392.106-.688.328-.286.223-.455.572-.17.35-.201.825zm3.556.804v.868q0 .402-.159.72-.148.317-.413.54-.254.221-.603.338-.35.116-.73.116-.233 0-.455-.074-.223-.074-.392-.212-.17-.148-.275-.338-.095-.201-.095-.455 0-.402.232-.614.244-.222.614-.339.37-.116.815-.17.455-.063.879-.137.137-.02.317-.074.18-.053.244-.17zm2.005-2.476v5.46h.667v-3.048q0-.434.096-.793.095-.37.285-.635.201-.276.508-.424.318-.158.741-.158.318 0 .54.105.222.106.35.297.137.18.19.434.063.243.063.518v3.704h.667v-3.09q0-.381.063-.73.074-.36.244-.635.17-.275.455-.434.286-.17.72-.17.72 0 1.005.36.286.35.286 1.027v3.672h.666v-3.704q0-1.915-1.81-1.915-.54 0-1.015.264-.477.265-.72.805-.148-.54-.593-.805-.434-.264-.973-.264-.667 0-1.101.285-.423.286-.688.794h-.032v-.92zm12.753 2.349h-3.535q.043-.37.17-.72.137-.36.36-.624.222-.275.54-.434.317-.17.73-.17.402 0 .72.17.317.159.54.434.221.264.338.614.127.349.137.73zm-3.535.56h4.202q.021-.57-.106-1.121-.127-.561-.423-.984-.286-.434-.752-.699-.465-.264-1.121-.264-.646 0-1.122.254-.466.243-.762.656-.297.402-.445.92-.137.52-.137 1.059 0 .582.137 1.111.148.519.445.92.296.392.762.625.476.223 1.122.223 1.037 0 1.598-.508.571-.508.783-1.44h-.667q-.159.635-.571 1.016-.413.381-1.143.381-.477 0-.815-.2-.339-.202-.561-.509-.222-.307-.328-.688-.096-.391-.096-.751z" style="-inkscape-font-specification:'Helvetica Neue Light'" aria-label="Per Game" font-weight="300" font-size="10.583" font-family="Helvetica Neue" letter-spacing="0" word-spacing="0" stroke-width=".265" fill="#fff"/>
    </g>
    <g style="line-height:185.39999723%">
        <path d="M134.315 77.833v4.534h.603V80.43h1.474q.222 0 .355.07.133.063.216.178.083.107.12.26.039.146.064.311.032.165.038.337l.013.323q.006.146.025.267.026.12.09.19h.672q-.095-.114-.146-.26-.044-.152-.07-.317-.025-.165-.031-.337-.006-.171-.02-.336-.018-.165-.057-.318-.031-.152-.108-.273-.07-.127-.196-.216-.121-.089-.318-.127v-.012q.413-.115.597-.426.19-.311.19-.724 0-.552-.368-.87-.362-.317-1.01-.317zm1.86 2.089h-1.257V78.34h1.499q.425 0 .616.216.19.215.19.558 0 .248-.089.407-.082.152-.228.247-.14.09-.33.121-.19.032-.4.032zm4.684.488h-1.886q.013-.19.083-.355.07-.171.19-.298.12-.127.286-.197.171-.076.38-.076.204 0 .37.076.17.07.291.197.127.12.197.292.076.171.089.362zm.52.915h-.533q-.07.324-.292.483-.216.159-.559.159-.266 0-.463-.09-.197-.088-.324-.234-.127-.153-.184-.343-.057-.197-.05-.413h2.457q.012-.298-.058-.629-.063-.33-.241-.61-.171-.279-.464-.456-.285-.185-.723-.185-.337 0-.623.127-.28.127-.489.356-.203.229-.317.54-.114.31-.114.686.012.374.107.692.102.317.299.546.197.228.483.355.292.127.685.127.56 0 .927-.279.369-.28.477-.832zm.631-3.492v4.534h.539v-.439h.013q.088.146.215.248.134.095.28.152.146.058.292.083.152.025.273.025.375 0 .654-.133.286-.133.47-.362.19-.235.28-.546.095-.311.095-.66 0-.35-.096-.66-.095-.312-.285-.547-.185-.241-.47-.38-.28-.14-.66-.14-.344 0-.63.126-.285.121-.418.394h-.013v-1.695zm2.54 2.864q0 .24-.052.47-.05.228-.165.406-.114.178-.305.286-.184.108-.463.108-.28 0-.476-.102-.197-.108-.324-.28-.12-.17-.178-.393-.057-.229-.057-.47 0-.229.05-.45.058-.223.178-.395.121-.177.312-.285.19-.108.463-.108.26 0 .451.101.197.102.317.273.127.172.185.394.063.216.063.445zm1.604.031q0-.298.076-.527.083-.235.222-.393.14-.16.324-.242.19-.082.4-.082.21 0 .394.082.19.083.33.242.14.158.216.393.083.229.083.527 0 .299-.083.534-.076.228-.216.387-.14.152-.33.235-.184.082-.394.082-.21 0-.4-.082-.184-.083-.324-.235-.14-.159-.222-.387-.076-.235-.076-.534zm-.571 0q0 .362.101.673.102.312.305.546.203.23.502.362.298.127.685.127.394 0 .686-.127.299-.133.502-.362.203-.234.305-.546.101-.31.101-.673 0-.362-.101-.673-.102-.317-.305-.546-.203-.235-.502-.368-.292-.134-.686-.134-.387 0-.685.134-.299.133-.502.368-.203.229-.305.546-.101.311-.101.673zm6.541 1.639v-3.283h-.54v1.854q0 .222-.063.413-.057.184-.178.323-.12.14-.304.216-.178.077-.426.077-.311 0-.489-.178t-.178-.483v-2.222h-.54v2.159q0 .266.051.489.058.215.19.374.134.159.35.248.216.082.54.082.362 0 .629-.14.266-.145.438-.45h.012v.52zm.817-3.283v3.283h.54v-1.855q0-.222.057-.406.064-.19.184-.33t.299-.216q.184-.076.432-.076.31 0 .488.177.178.178.178.483v2.223h.54v-2.16q0-.266-.057-.482-.05-.222-.184-.381t-.35-.248q-.215-.089-.54-.089-.73 0-1.066.597h-.013v-.52zm3.929 1.67q0-.242.05-.47.051-.229.166-.407.114-.177.304-.285.19-.108.464-.108.28 0 .476.108.197.101.318.273.127.171.184.4.057.222.057.463 0 .229-.057.451-.051.222-.172.4-.12.172-.31.28-.191.108-.464.108-.26 0-.458-.102-.19-.102-.317-.273-.12-.172-.184-.387-.057-.223-.057-.451zm2.54 1.613v-4.534h-.54v1.689h-.013q-.089-.146-.222-.242-.127-.101-.273-.158-.146-.064-.292-.09-.146-.025-.273-.025-.375 0-.66.14-.28.133-.47.368-.185.229-.28.54-.089.311-.089.66 0 .35.095.661.096.311.28.546.19.235.47.375.285.14.666.14.343 0 .63-.121.285-.12.418-.394h.013v.445zm1.166-1.035h-.54q.013.304.128.52.114.21.305.343.19.127.438.184.247.057.52.057.248 0 .496-.05.254-.045.45-.165.204-.121.324-.318.127-.197.127-.495 0-.235-.095-.394-.089-.159-.241-.26-.146-.108-.343-.172-.19-.063-.394-.108-.19-.044-.38-.082-.191-.045-.344-.102-.152-.063-.254-.152-.095-.095-.095-.235 0-.127.064-.203.063-.083.165-.127.101-.051.222-.07.127-.02.248-.02.133 0 .26.032.133.026.241.09.108.063.178.17.07.102.083.261h.54q-.02-.298-.128-.495-.108-.203-.292-.318-.178-.12-.413-.165-.235-.05-.514-.05-.216 0-.438.057-.216.05-.394.165-.171.108-.286.286-.107.177-.107.425 0 .317.158.495.159.178.394.28.241.095.52.152.28.05.515.12.241.064.4.172.159.108.159.318 0 .152-.076.254-.077.095-.197.146-.115.05-.254.07-.14.019-.267.019-.165 0-.324-.032-.152-.032-.28-.102-.12-.076-.196-.197-.076-.127-.083-.304zM139.58 92.63l.768-2.114h.013l.755 2.115zm.45-2.66l-1.765 4.534h.616l.508-1.365h1.918l.495 1.365h.667l-1.772-4.534zm3.127 3.499h-.54q.013.305.128.52.114.21.304.344.19.127.439.184.247.057.52.057.248 0 .496-.05.254-.045.45-.166.204-.12.324-.318.127-.196.127-.495 0-.235-.095-.394-.089-.158-.241-.26-.146-.108-.343-.171-.19-.064-.394-.108-.19-.045-.38-.083-.191-.044-.344-.101-.152-.064-.254-.153-.095-.095-.095-.235 0-.127.064-.203.063-.082.165-.127.101-.05.222-.07.127-.019.248-.019.133 0 .26.032.133.025.241.089.108.063.178.171.07.102.083.26h.54q-.02-.298-.128-.495-.108-.203-.292-.317-.178-.12-.413-.165-.235-.051-.514-.051-.216 0-.438.057-.216.05-.394.165-.171.108-.286.286-.107.178-.107.425 0 .318.158.496.159.177.394.28.241.094.52.151.28.051.515.121.241.064.4.172.159.108.159.317 0 .152-.076.254-.077.095-.197.146-.115.05-.254.07-.14.02-.267.02-.165 0-.324-.033-.152-.031-.28-.101-.12-.076-.196-.197-.076-.127-.083-.305zm3.175 0h-.54q.013.305.128.52.114.21.304.344.19.127.439.184.247.057.52.057.248 0 .496-.05.254-.045.45-.166.204-.12.324-.318.127-.196.127-.495 0-.235-.095-.394-.089-.158-.241-.26-.146-.108-.343-.171-.19-.064-.394-.108-.19-.045-.38-.083-.191-.044-.344-.101-.152-.064-.254-.153-.095-.095-.095-.235 0-.127.063-.203.064-.082.166-.127.101-.05.222-.07.127-.019.247-.019.134 0 .26.032.134.025.242.089.108.063.178.171.07.102.082.26h.54q-.019-.298-.127-.495-.108-.203-.292-.317-.178-.12-.413-.165-.235-.051-.514-.051-.216 0-.438.057-.216.05-.394.165-.171.108-.286.286-.108.178-.108.425 0 .318.16.496.158.177.393.28.241.094.52.151.28.051.515.121.241.064.4.172.159.108.159.317 0 .152-.076.254-.077.095-.197.146-.115.05-.254.07-.14.02-.267.02-.165 0-.324-.033-.152-.031-.28-.101-.12-.076-.196-.197-.076-.127-.083-.305zm3.417-2.839v-.66h-.54v.66zm-.54.591v3.283h.54v-3.283zm1.712 2.248h-.54q.013.305.127.52.115.21.305.344.19.127.438.184.248.057.521.057.248 0 .495-.05.254-.045.451-.166.204-.12.324-.318.127-.196.127-.495 0-.235-.095-.394-.089-.158-.241-.26-.146-.108-.343-.171-.19-.064-.394-.108-.19-.045-.38-.083-.191-.044-.344-.101-.152-.064-.254-.153-.095-.095-.095-.235 0-.127.063-.203.064-.082.166-.127.101-.05.222-.07.127-.019.247-.019.134 0 .26.032.134.025.242.089.108.063.178.171.07.102.082.26h.54q-.019-.298-.127-.495-.108-.203-.292-.317-.178-.12-.413-.165-.235-.051-.514-.051-.216 0-.438.057-.216.05-.394.165-.171.108-.286.286-.108.178-.108.425 0 .318.16.496.158.177.393.28.241.094.52.151.28.051.515.121.241.064.4.172.159.108.159.317 0 .152-.077.254-.076.095-.196.146-.115.05-.254.07-.14.02-.267.02-.165 0-.324-.033-.152-.031-.28-.101-.12-.076-.196-.197-.076-.127-.083-.305zm3.594-2.248v-.984h-.54v.984h-.558v.476h.559v2.09q0 .228.044.368.045.14.133.216.096.076.242.108.152.025.362.025h.412v-.476h-.247q-.127 0-.21-.006-.076-.013-.12-.045-.045-.031-.064-.089-.013-.057-.013-.152v-2.038h.654v-.477zm1.578 2.248h-.54q.013.305.127.52.115.21.305.344.19.127.438.184.248.057.52.057.249 0 .496-.05.254-.045.451-.166.203-.12.324-.318.127-.196.127-.495 0-.235-.095-.394-.09-.158-.242-.26-.146-.108-.343-.171-.19-.064-.393-.108-.19-.045-.381-.083-.19-.044-.343-.101-.153-.064-.254-.153-.095-.095-.095-.235 0-.127.063-.203.064-.082.165-.127.102-.05.222-.07.127-.019.248-.019.133 0 .26.032.134.025.242.089.108.063.177.171.07.102.083.26h.54q-.02-.298-.127-.495-.108-.203-.292-.317-.178-.12-.413-.165-.235-.051-.514-.051-.216 0-.439.057-.216.05-.393.165-.172.108-.286.286-.108.178-.108.425 0 .318.159.496.158.177.393.28.242.094.521.151.28.051.514.121.242.064.4.172.16.108.16.317 0 .152-.077.254-.076.095-.197.146-.114.05-.254.07-.14.02-.266.02-.166 0-.324-.033-.153-.031-.28-.101-.12-.076-.197-.197-.076-.127-.082-.305zm-12.793 9.966h.572q-.013-.375-.147-.642-.127-.273-.355-.45-.222-.178-.52-.26-.3-.084-.649-.084-.31 0-.61.083-.291.076-.526.241-.229.16-.368.413-.14.248-.14.59 0 .312.12.521.127.204.33.337.21.127.47.21.26.076.528.14.273.056.533.113.26.058.464.153.21.089.33.235.127.146.127.38 0 .248-.102.407-.101.159-.267.254-.165.09-.374.127-.203.038-.407.038-.254 0-.495-.063-.241-.064-.425-.197-.178-.133-.292-.337-.108-.21-.108-.495h-.572q0 .413.146.718.153.298.407.495.26.19.596.286.343.095.724.095.312 0 .623-.076.317-.07.571-.229.254-.165.413-.419.165-.26.165-.622 0-.337-.127-.559-.12-.222-.33-.368-.203-.146-.464-.229-.26-.089-.533-.152-.267-.064-.527-.115-.26-.057-.47-.14-.203-.082-.33-.209-.12-.133-.12-.343 0-.222.082-.368.089-.152.228-.241.146-.09.33-.127.185-.038.375-.038.47 0 .768.222.305.216.356.705zm1.406-1.328v4.534h.54v-1.854q0-.222.057-.406.064-.19.184-.33t.299-.216q.184-.077.431-.077.312 0 .49.178.177.178.177.483v2.222h.54v-2.159q0-.266-.057-.482-.051-.222-.184-.381-.134-.159-.35-.248-.216-.089-.54-.089-.145 0-.304.032-.153.032-.299.102-.14.063-.254.171-.114.102-.177.254h-.013v-1.733zm3.929 2.896q0-.298.076-.527.082-.235.222-.394.14-.158.324-.241.19-.082.4-.082.21 0 .394.082.19.083.33.241.14.16.216.394.082.229.082.527 0 .299-.082.533-.077.23-.216.388-.14.152-.33.235-.185.082-.394.082-.21 0-.4-.082-.184-.083-.324-.235-.14-.159-.222-.388-.077-.234-.077-.533zm-.572 0q0 .362.102.673.101.311.304.546.204.229.502.362.299.127.686.127.394 0 .686-.127.298-.133.501-.362.204-.235.305-.546.102-.311.102-.673 0-.362-.102-.673-.101-.318-.305-.546-.203-.235-.501-.368-.292-.134-.686-.134-.387 0-.686.134-.298.133-.502.368-.203.228-.304.546-.102.311-.102.673zm4.573-1.645v-.984h-.54v.984h-.558v.477h.559v2.089q0 .228.044.368.045.14.133.216.096.076.242.108.152.025.362.025h.412v-.476h-.247q-.127 0-.21-.006-.076-.013-.12-.044-.045-.032-.064-.09-.013-.056-.013-.152v-2.038h.654v-.476zm1.578 2.248h-.54q.013.305.127.521.115.21.305.343.19.127.438.184.248.057.521.057.248 0 .495-.05.254-.045.451-.166.203-.12.324-.317.127-.197.127-.495 0-.235-.095-.394-.09-.159-.242-.26-.146-.108-.343-.172-.19-.063-.393-.108-.19-.044-.381-.082-.19-.045-.343-.102-.153-.063-.254-.152-.095-.096-.095-.235 0-.127.063-.204.064-.082.165-.127.102-.05.223-.07.127-.018.247-.018.134 0 .26.031.134.026.242.09.108.063.178.17.07.102.082.261h.54q-.02-.298-.127-.495-.108-.204-.292-.318-.178-.12-.413-.165-.235-.05-.514-.05-.216 0-.438.056-.216.051-.394.166-.172.108-.286.285-.108.178-.108.426 0 .317.159.495t.394.28q.24.095.52.152.28.05.515.12.24.064.4.172.158.108.158.317 0 .153-.076.254-.076.096-.197.147-.114.05-.254.07-.14.018-.266.018-.165 0-.324-.031-.153-.032-.28-.102-.12-.076-.196-.197-.077-.127-.083-.305zm-14.347 10.588v-1.441h1.206q.197 0 .369.025.177.02.31.096.134.076.21.215.077.14.077.381 0 .362-.23.547-.221.177-.736.177zm-.603-1.95v4.535h2.19q.337 0 .59-.108.261-.114.433-.292.177-.184.266-.42.09-.234.09-.482 0-.42-.223-.711-.222-.292-.641-.381v-.013q.324-.127.495-.387.178-.267.178-.629 0-.343-.159-.578-.152-.235-.375-.368-.101-.064-.247-.095-.14-.032-.305-.045-.165-.019-.337-.019-.165-.006-.31-.006zm.603 4.027v-1.569h1.378q.19 0 .368.038.178.032.311.121.14.083.222.229.083.146.083.368 0 .381-.229.597-.222.216-.622.216zm3.693-4.026v4.534h.54v-4.534zm1.775 2.895q0-.298.077-.527.082-.235.222-.393.14-.159.324-.242.19-.082.4-.082.21 0 .394.082.19.083.33.242.14.158.216.393.082.229.082.527 0 .299-.082.534-.077.228-.216.387-.14.153-.33.235-.185.083-.394.083-.21 0-.4-.083-.184-.082-.324-.235-.14-.159-.222-.387-.077-.235-.077-.534zm-.571 0q0 .362.102.674.101.31.304.546.204.228.502.362.298.127.686.127.394 0 .686-.127.298-.134.501-.362.203-.235.305-.546.102-.312.102-.674 0-.361-.102-.673-.102-.317-.305-.546-.203-.235-.501-.368-.292-.133-.686-.133-.388 0-.686.133-.298.133-.502.368-.203.229-.304.546-.102.312-.102.673zm6.053-.59h.559q-.032-.292-.153-.502-.12-.216-.31-.355-.185-.14-.433-.204-.24-.07-.52-.07-.388 0-.68.14-.292.134-.489.375-.19.235-.285.559-.096.317-.096.686 0 .368.096.679.101.305.292.527.196.222.482.343.292.12.667.12.629 0 .99-.33.369-.33.458-.94h-.553q-.05.382-.28.591-.221.21-.621.21-.254 0-.439-.102-.184-.102-.298-.267-.114-.171-.171-.387-.051-.216-.051-.444 0-.248.05-.477.051-.235.166-.412.12-.178.317-.286.197-.108.49-.108.342 0 .545.171.203.172.267.483zm1.213-2.305v4.534h.54v-1.245l.508-.47 1.124 1.715h.686l-1.397-2.09 1.302-1.193h-.724l-1.499 1.435v-2.686zm3.598 3.499h-.54q.013.305.127.52.114.21.305.343.19.127.438.184.248.058.52.058.248 0 .496-.051.254-.045.451-.165.203-.12.324-.318.127-.197.127-.495 0-.235-.095-.394-.09-.158-.242-.26-.146-.108-.343-.172-.19-.063-.393-.107-.19-.045-.381-.083-.19-.044-.343-.102-.153-.063-.254-.152-.096-.095-.096-.235 0-.127.064-.203.063-.083.165-.127.102-.05.222-.07.127-.019.248-.019.133 0 .26.032.134.025.242.089.108.063.177.171.07.102.083.26h.54q-.02-.298-.127-.495-.108-.203-.292-.317-.178-.121-.413-.166-.235-.05-.515-.05-.215 0-.438.057-.216.05-.393.165-.172.108-.286.286-.108.178-.108.425 0 .318.159.495.158.178.393.28.242.095.521.152.28.051.514.12.242.064.4.172.16.108.16.318 0 .152-.077.254-.076.095-.197.146-.114.05-.254.07-.14.019-.267.019-.165 0-.323-.032-.153-.032-.28-.101-.12-.077-.197-.197-.076-.127-.082-.305zm-15.054 10.81v-1.664h1.18q.515 0 .75.216.241.21.241.616 0 .407-.24.622-.236.216-.75.21zm-.603-2.172v4.534h.603v-1.854h1.384q.686.006 1.035-.35.356-.355.356-.99t-.356-.984q-.35-.356-1.035-.356zm4.422 2.896q0-.299.076-.527.083-.235.222-.394.14-.159.324-.241.19-.083.4-.083.21 0 .394.083.19.082.33.241.14.159.216.394.083.228.083.527 0 .298-.083.533-.076.229-.216.388-.14.152-.33.235-.184.082-.394.082-.21 0-.4-.082-.184-.083-.324-.235-.14-.16-.222-.388-.076-.235-.076-.533zm-.572 0q0 .362.102.673.102.311.305.546.203.229.501.362.299.127.686.127.394 0 .686-.127.299-.133.502-.362.203-.235.305-.546.101-.311.101-.673 0-.362-.101-.673-.102-.318-.305-.546-.203-.235-.502-.369-.292-.133-.686-.133-.387 0-.686.133-.298.134-.501.369-.203.228-.305.546-.102.31-.102.673zm4.396-2.235v-.66h-.54v.66zm-.54.59v3.283h.54v-3.283zm1.383 0v3.283h.54v-1.854q0-.222.056-.406.064-.19.184-.33.121-.14.299-.217.184-.076.432-.076.31 0 .489.178.177.178.177.483v2.222h.54v-2.159q0-.267-.057-.482-.05-.223-.184-.381-.133-.16-.35-.248-.215-.089-.54-.089-.73 0-1.066.597h-.013v-.52zm4.283 0v-.984h-.54v.984h-.558v.476h.559v2.09q0 .228.044.368.044.14.133.216.096.076.242.108.152.025.362.025h.412v-.476h-.247q-.127 0-.21-.006-.076-.013-.12-.045-.045-.031-.064-.088-.013-.058-.013-.153v-2.038h.654v-.476zm1.578 2.248h-.54q.013.305.127.52.115.21.305.344.19.127.438.184.248.057.52.057.249 0 .496-.05.254-.045.451-.166.203-.12.324-.317.127-.197.127-.496 0-.235-.095-.393-.09-.16-.242-.26-.146-.109-.343-.172-.19-.064-.393-.108-.19-.044-.381-.083-.19-.044-.343-.101-.153-.064-.254-.153-.095-.095-.095-.235 0-.127.063-.203.064-.082.165-.127.102-.05.222-.07.127-.019.248-.019.133 0 .26.032.134.025.242.089.108.063.178.171.07.102.082.26h.54q-.02-.298-.127-.495-.108-.203-.292-.317-.178-.12-.413-.165-.235-.05-.514-.05-.216 0-.439.056-.215.051-.393.165-.172.108-.286.286-.108.178-.108.426 0 .317.159.495t.393.28q.242.094.521.152.28.05.515.12.24.064.4.172.158.108.158.317 0 .153-.076.254-.076.095-.197.146-.114.051-.254.07-.14.02-.266.02-.165 0-.324-.032-.153-.032-.28-.102-.12-.076-.196-.197-.077-.127-.083-.305z" style="-inkscape-font-specification:'Helvetica Neue';text-align:center" aria-label="Rebounds Assists Shots Blocks Points" font-weight="400" font-size="6.35" font-family="Helvetica Neue" letter-spacing="0" word-spacing="0" stroke-width=".265" text-anchor="middle" fill="#fff"/>
    </g>
    <path d="M97.775 161.941h32.748v7.424H97.775zm0 12.136h32.748v7.424H97.775zm0 12.136h32.748v7.424H97.775zm0 12.136h32.748v7.424H97.775zm0 12.136h32.748v7.424H97.775z" transform="matrix(.89734 0 0 1.0007 78.696 -85.733)" fill="none" stroke="#99a2d1" stroke-width=".758"/>
    <g style="line-height:185.39999723%">
        <path d="M201.314 80.82h-1.511l1.498-2.203h.013zm.508 0v-2.97h-.432l-2.05 2.927v.52h1.974v1.055h.508v-1.054h.61v-.477zm1.401.826v.705h.705v-.705zm3.387-.826h-1.511l1.498-2.203h.013zm.508 0v-2.97h-.432l-2.05 2.927v.52h1.974v1.055h.508v-1.054h.61v-.477zm-5.696 13.668v-4.502h-.413q-.044.254-.165.419-.12.165-.298.26-.172.096-.387.134-.216.031-.445.031v.432h1.168v3.226zm1.801-.705v.705h.705v-.705zm4.467-3.257v-.464h-2.915v.508h2.362q-.356.375-.667.82-.304.444-.54.945-.234.496-.387 1.042-.146.54-.184 1.111h.603q.032-.527.178-1.086t.375-1.086q.235-.527.533-.99.299-.464.642-.8zM200 104.41v-.363q.006-.203.031-.4.032-.203.083-.393.057-.19.159-.33.108-.147.266-.236.16-.088.388-.088t.387.088q.159.09.26.235.108.14.16.33.056.191.082.394.031.197.031.4.006.197.006.362 0 .254-.019.572-.012.311-.101.59-.083.273-.273.464-.19.19-.534.19-.343 0-.533-.19t-.28-.464q-.082-.279-.101-.59-.013-.318-.013-.572zm-.572.005q0 .248.013.515.013.266.063.52.051.254.147.483.095.222.26.394.165.171.413.273.254.095.603.095.355 0 .603-.095.248-.102.413-.273.165-.172.26-.394.095-.229.146-.483.051-.254.064-.52.012-.267.012-.515 0-.247-.012-.514-.013-.267-.064-.52-.05-.255-.146-.483-.095-.229-.26-.4-.165-.172-.42-.273-.247-.102-.596-.102-.35 0-.603.102-.248.101-.413.273-.165.171-.26.4-.096.228-.147.482-.05.254-.063.521-.013.267-.013.514zm3.795 1.505v.705h.705v-.704zm2.219-2.628q0-.172.063-.299.064-.127.165-.216.108-.089.254-.133.146-.044.305-.044.33 0 .54.177.216.172.216.515t-.21.533q-.21.19-.533.19-.165 0-.311-.044-.147-.044-.254-.133-.108-.089-.172-.222-.063-.14-.063-.324zm-.572-.02q0 .306.172.566.171.254.457.368-.381.134-.584.432-.204.292-.204.692 0 .343.115.603.12.254.323.426.21.171.49.254.279.082.603.082.31 0 .584-.089.273-.088.47-.26.203-.178.317-.432.12-.254.12-.584 0-.419-.196-.705-.197-.292-.603-.419.286-.127.45-.375.172-.254.172-.558 0-.216-.076-.42-.076-.209-.241-.368-.16-.165-.42-.26-.26-.102-.628-.102-.26 0-.502.077-.235.076-.419.222-.184.146-.292.362-.108.21-.108.489zm.413 2.084q0-.197.07-.356.076-.159.203-.273.133-.114.305-.172.178-.063.374-.063.19 0 .356.07.171.063.298.178.127.114.197.273.077.152.077.336 0 .19-.07.35-.064.158-.19.279-.122.114-.293.184-.165.063-.368.063-.42 0-.692-.228-.267-.235-.267-.642zM200 116.547v-.362q.006-.203.031-.4.032-.203.083-.394.057-.19.159-.33.108-.146.266-.235.16-.089.388-.089t.387.089q.159.089.26.235.108.14.16.33.056.19.082.394.031.197.031.4.006.197.006.362 0 .254-.019.571-.012.311-.101.59-.083.274-.273.464t-.534.19q-.343 0-.533-.19t-.28-.463q-.082-.28-.101-.59-.013-.318-.013-.572zm-.572.006q0 .247.013.514t.063.52q.051.255.147.483.095.223.26.394.165.172.413.273.254.095.603.095.355 0 .603-.095.248-.101.413-.273.165-.171.26-.394.095-.228.146-.482.051-.254.064-.52.012-.268.012-.515 0-.248-.012-.515-.013-.266-.064-.52-.05-.254-.146-.483-.095-.228-.26-.4-.165-.171-.42-.273-.247-.102-.596-.102-.35 0-.603.102-.248.102-.413.273-.165.172-.26.4-.096.229-.147.483-.05.254-.063.52-.013.267-.013.515zm3.795 1.505v.705h.705v-.705zm3.387-.825h-1.511l1.498-2.204h.013zm.508 0v-2.972h-.432l-2.05 2.927v.52h1.974v1.055h.508v-1.054h.61v-.476zm-7.106 12.581h-.54q.051.585.426.87.375.286.94.286.82 0 1.187-.622.375-.629.375-1.797 0-.642-.127-1.054-.12-.42-.33-.66-.21-.242-.49-.337-.278-.102-.596-.102-.324 0-.597.108-.273.108-.47.305-.197.19-.305.463-.108.267-.108.591 0 .33.09.61.095.279.272.476.185.197.451.311.267.108.61.108.33 0 .61-.165.279-.172.431-.457l.013.012q-.025.883-.273 1.315-.248.425-.743.425-.324 0-.559-.178-.235-.177-.267-.508zm1.747-1.91q0 .196-.064.38-.063.178-.184.318-.12.133-.292.215-.171.077-.381.077-.197 0-.362-.077-.159-.082-.28-.215-.114-.134-.184-.305-.063-.172-.063-.356 0-.21.044-.4.051-.19.153-.336.108-.153.273-.242.171-.089.413-.089.228 0 .4.083.171.082.285.229.121.14.178.323.064.184.064.394zm1.464 2.291v.705h.705v-.705zm2.073-1.511v-.362q.006-.203.031-.4.032-.203.083-.394.057-.19.159-.33.108-.146.266-.235.159-.089.388-.089.228 0 .387.09.159.088.26.234.108.14.16.33.056.19.082.394.031.197.031.4.006.197.006.362 0 .254-.019.572-.012.31-.101.59-.083.273-.273.464-.19.19-.534.19-.343 0-.533-.19t-.28-.464q-.082-.28-.101-.59-.013-.318-.013-.572zm-.572.006q0 .248.013.514.012.267.063.521.051.254.146.483.096.222.26.393.166.172.413.274.254.095.604.095.355 0 .603-.095.248-.102.413-.274.165-.171.26-.393.095-.229.146-.483.05-.254.064-.52.012-.267.012-.515t-.012-.514q-.013-.267-.064-.52-.05-.255-.146-.484-.095-.228-.26-.4-.165-.171-.42-.273-.247-.101-.596-.101-.35 0-.604.101-.247.102-.412.273-.165.172-.26.4-.096.23-.147.483-.05.254-.063.52-.013.267-.013.515z" style="-inkscape-font-specification:'Helvetica Neue';text-align:center" aria-label="4.4 1.7 0.8 0.4 9.0" font-weight="400" font-size="6.35" font-family="Helvetica Neue" letter-spacing="0" word-spacing="0" stroke-width=".265" text-anchor="middle" fill="#fff"/>
    </g>
    <g style="line-height:185.39999723%">
        <path d="M90.218 79.779v.457q.153-.019.324-.019.203 0 .375.057.177.051.304.165.127.108.204.273.076.16.076.369 0 .203-.083.368-.076.159-.21.273-.133.108-.31.171-.178.058-.375.058-.464 0-.705-.273-.241-.28-.254-.718h-.54q-.006.35.096.622.108.273.304.464.197.184.477.28.279.094.622.094.317 0 .597-.082.286-.089.495-.26.21-.172.33-.426.127-.26.127-.597 0-.406-.203-.705-.197-.298-.61-.387v-.013q.267-.12.445-.355t.178-.54q0-.311-.108-.54-.102-.228-.286-.374t-.438-.216q-.248-.077-.54-.077-.336 0-.597.108-.254.108-.425.299-.172.19-.267.457-.089.267-.101.59h.54q0-.196.05-.374t.153-.311q.107-.134.266-.21.165-.082.381-.082.343 0 .572.184.228.178.228.54 0 .177-.07.317t-.19.235q-.114.089-.273.14-.152.044-.324.044h-.178q-.025 0-.057-.006zm2.678 1.867v.705h.704v-.705zm2.618-1.867v.457q.152-.019.324-.019.203 0 .374.057.178.051.305.165.127.108.203.273.077.16.077.369 0 .203-.083.368-.076.159-.21.273-.133.108-.31.171-.178.058-.375.058-.464 0-.705-.273-.241-.28-.254-.718h-.54q-.006.35.095.622.108.273.305.464.197.184.476.28.28.094.623.094.317 0 .597-.082.285-.089.495-.26.21-.172.33-.426.127-.26.127-.597 0-.406-.203-.705-.197-.298-.61-.387v-.013q.267-.12.445-.355t.178-.54q0-.311-.108-.54-.102-.228-.286-.374t-.438-.216q-.248-.077-.54-.077-.337 0-.597.108-.254.108-.425.299-.172.19-.267.457-.089.267-.102.59h.54q0-.196.05-.374.052-.178.153-.311.108-.134.267-.21.165-.082.381-.082.343 0 .572.184.228.178.228.54 0 .177-.07.317t-.19.235q-.115.089-.273.14-.153.044-.324.044h-.178q-.025 0-.057-.006zm-3.696 10.759v-.476h-2.222l-.42 2.337.464.025q.159-.19.362-.304.21-.121.476-.121.23 0 .413.076.19.076.324.216.133.133.203.324.076.184.076.406 0 .267-.076.47-.076.197-.21.33-.126.134-.304.204-.172.063-.362.063-.203 0-.375-.057-.165-.064-.292-.172-.12-.114-.197-.26-.07-.152-.082-.324h-.54q.006.305.12.546.115.242.312.407.197.158.45.247.261.083.553.083.394 0 .686-.12.298-.128.495-.337.197-.21.292-.477.102-.273.102-.558 0-.388-.114-.674-.115-.292-.311-.482-.197-.197-.464-.292-.267-.095-.565-.095-.229 0-.464.082-.228.076-.374.241l-.013-.012.241-1.296zm1.078 3.245v.705h.704v-.705zm3.386-.825h-1.511l1.499-2.204h.012zm.508 0v-2.972h-.432l-2.05 2.927v.521h1.974v1.054h.508v-1.054h.61v-.476zm-5.696 13.667v-4.502h-.412q-.045.254-.165.42-.121.165-.299.26-.171.095-.387.133-.216.032-.445.032v.432h1.169v3.226zm1.802-.705v.705h.704v-.704zm2.072-1.51v-.363q.006-.203.032-.4.031-.203.082-.393.057-.19.159-.33.108-.147.267-.236.158-.088.387-.088t.387.088q.159.09.26.235.109.14.16.33.057.191.082.394.032.197.032.4.006.197.006.362 0 .254-.02.572-.012.311-.1.59-.083.273-.274.464-.19.19-.533.19t-.534-.19q-.19-.19-.279-.464-.082-.279-.102-.59-.012-.318-.012-.572zm-.572.005q0 .248.013.515.013.266.064.52.05.254.146.483.095.222.26.394.165.171.413.273.254.095.603.095.356 0 .603-.095.248-.102.413-.273.165-.172.26-.394.096-.229.146-.483.051-.254.064-.52.013-.267.013-.515 0-.247-.013-.514t-.064-.52q-.05-.255-.146-.483-.095-.229-.26-.4-.165-.172-.42-.273-.247-.102-.596-.102-.35 0-.603.102-.248.101-.413.273-.165.171-.26.4-.096.228-.146.482-.051.254-.064.521-.013.267-.013.514zm-4.724 12.132v-.362q.006-.203.032-.4.032-.203.082-.394.057-.19.16-.33.107-.146.266-.235.159-.089.387-.089.229 0 .387.089.16.089.26.235.109.14.16.33.057.19.082.394.032.197.032.4.006.197.006.362 0 .254-.019.571-.013.311-.101.59-.083.274-.274.464-.19.19-.533.19t-.533-.19q-.19-.19-.28-.463-.082-.28-.101-.59-.013-.318-.013-.572zm-.571.006q0 .247.012.514.013.267.064.52.05.255.146.483.095.223.26.394.165.172.413.273.254.095.603.095.356 0 .603-.095.248-.101.413-.273.165-.171.26-.394.096-.228.147-.482.05-.254.063-.52.013-.268.013-.515 0-.248-.013-.515-.013-.266-.063-.52-.051-.254-.147-.483-.095-.228-.26-.4-.165-.171-.419-.273-.248-.102-.597-.102-.35 0-.603.102-.248.102-.413.273-.165.172-.26.4-.095.229-.146.483-.051.254-.064.52-.012.267-.012.515zm3.795 1.505v.705h.704v-.705zm3.386-.825h-1.511l1.499-2.204h.012zm.508 0v-2.972h-.432l-2.05 2.927v.52h1.974v1.055h.508v-1.054h.61v-.476zm-7.105 12.581h-.54q.05.585.425.87.375.286.94.286.82 0 1.188-.622.374-.629.374-1.797 0-.642-.127-1.054-.12-.42-.33-.66-.21-.242-.489-.337-.28-.102-.597-.102-.324 0-.597.108-.273.108-.47.305-.196.19-.304.463-.108.267-.108.591 0 .33.089.61.095.279.273.476.184.197.45.311.267.108.61.108.33 0 .61-.165.28-.172.432-.457l.012.012q-.025.883-.273 1.315-.247.425-.743.425-.324 0-.559-.178-.235-.177-.266-.508zm1.746-1.91q0 .196-.064.38-.063.178-.184.318-.12.133-.292.215-.171.077-.38.077-.198 0-.363-.077-.158-.082-.28-.215-.113-.134-.183-.305-.064-.172-.064-.356 0-.21.045-.4.05-.19.152-.336.108-.153.273-.242.172-.089.413-.089.228 0 .4.083.171.082.286.229.12.14.177.323.064.184.064.394zm1.465 2.291v.705h.704v-.705zm2.084-.381h-.54q.052.585.426.87.375.286.94.286.82 0 1.187-.622.375-.629.375-1.797 0-.642-.127-1.054-.12-.42-.33-.66-.21-.242-.489-.337-.28-.102-.597-.102-.324 0-.597.108-.273.108-.47.305-.197.19-.305.463-.107.267-.107.591 0 .33.088.61.096.279.273.476.185.197.451.311.267.108.61.108.33 0 .61-.165.279-.172.431-.457l.013.012q-.025.883-.273 1.315-.248.425-.743.425-.324 0-.559-.178-.235-.177-.266-.508zm1.747-1.91q0 .196-.064.38-.063.178-.184.318-.12.133-.292.215-.171.077-.381.077-.197 0-.362-.077-.159-.082-.28-.215-.114-.134-.183-.305-.064-.172-.064-.356 0-.21.044-.4.051-.19.153-.336.108-.153.273-.242.171-.089.413-.089.228 0 .4.083.171.082.285.229.121.14.178.323.064.184.064.394z" style="-inkscape-font-specification:'Helvetica Neue';text-align:center" aria-label="3.3 5.4 1.0 0.4 9.9" font-weight="400" font-size="6.35" font-family="Helvetica Neue" letter-spacing="0" word-spacing="0" stroke-width=".265" text-anchor="middle" fill="#fff"/>
    </g>
    <g style="line-height:100%">
        <path d="M13.788 94.468v7.053h.938v-3.23h3.24v-.79h-3.24v-2.243h3.695v-.79zm7.272.79v6.263h.938v-6.263h2.351v-.79h-5.64v.79z" style="-inkscape-font-specification:'Helvetica Neue';text-align:center" aria-label="FT" font-weight="400" font-size="9.878" font-family="Helvetica Neue" letter-spacing="0" word-spacing="0" stroke-width=".265" text-anchor="middle" fill="#fff"/>
    </g>
    <g style="line-height:100%">
        <path d="M37.929 97.412v.71q.237-.029.504-.029.316 0 .582.09.277.078.475.256.197.168.316.425.118.247.118.573 0 .316-.128.573-.119.247-.326.424-.208.168-.484.267-.277.089-.583.089-.721 0-1.096-.425-.376-.434-.395-1.116h-.84q-.01.543.148.968.168.425.474.721.306.287.741.435.435.148.968.148.494 0 .929-.129.444-.138.77-.405.326-.266.514-.661.197-.405.197-.929 0-.632-.316-1.096-.306-.465-.948-.603v-.02q.415-.187.691-.553.277-.365.277-.84 0-.483-.168-.839-.158-.356-.445-.583-.286-.227-.681-.336-.385-.118-.84-.118-.523 0-.928.168-.395.168-.662.464-.267.296-.415.711-.138.415-.158.919h.84q0-.306.079-.583.079-.276.237-.484.168-.207.415-.326.256-.128.592-.128.534 0 .89.286.355.277.355.84 0 .276-.109.494-.108.217-.296.365-.178.138-.425.218-.237.069-.504.069h-.277q-.039 0-.088-.01zm5.054.326V95.15h1.837q.8 0 1.166.336.375.325.375.958 0 .632-.375.968-.366.336-1.166.326zm-.939-3.379v7.053h.939v-2.884h2.153q1.067.01 1.61-.543.553-.554.553-1.541 0-.988-.553-1.531-.543-.554-1.61-.554z" style="-inkscape-font-specification:'Helvetica Neue';text-align:center" aria-label="3P" font-weight="400" font-size="9.878" font-family="Helvetica Neue" letter-spacing="0" word-spacing="0" stroke-width=".265" text-anchor="middle" fill="#fff"/>
    </g>
    <g style="line-height:100%">
        <path d="M60.219 94.31v7.053h.938v-3.23h3.24v-.79h-3.24V95.1h3.694v-.79zm10.946 6.174l.247.879h.593v-3.714h-3.092v.79h2.252q.02.484-.128.909-.148.415-.445.73-.286.307-.71.485-.425.177-.979.177-.592 0-1.047-.227-.444-.237-.75-.622-.307-.395-.465-.899-.158-.514-.158-1.067 0-.563.139-1.096.138-.543.424-.958.297-.425.751-.682.464-.257 1.106-.257.396 0 .741.1.356.088.632.276.277.187.465.484.187.286.256.691h.939q-.099-.622-.375-1.057-.267-.444-.672-.73-.395-.287-.909-.416-.504-.138-1.077-.138-.84 0-1.471.316-.623.306-1.047.83-.415.523-.633 1.225-.207.691-.207 1.462 0 .691.227 1.333t.662 1.136q.435.494 1.057.79.622.287 1.412.287.623 0 1.235-.237.613-.247 1.027-.8z" style="-inkscape-font-specification:'Helvetica Neue';text-align:center" aria-label="FG" font-weight="400" font-size="9.878" font-family="Helvetica Neue" letter-spacing="0" word-spacing="0" stroke-width=".265" text-anchor="middle" fill="#fff"/>
    </g>
    <g style="line-height:100%">
        <path d="M225.353 94.31v7.053h.938v-3.23h3.24v-.79h-3.24V95.1h3.694v-.79zm10.947 6.174l.246.879h.593v-3.714h-3.092v.79h2.252q.02.484-.128.909-.148.415-.445.73-.286.307-.71.485-.425.177-.979.177-.592 0-1.047-.227-.444-.237-.75-.622-.307-.395-.465-.899-.158-.514-.158-1.067 0-.563.139-1.096.138-.543.424-.958.297-.425.751-.682.464-.257 1.106-.257.395 0 .741.1.356.088.632.276.277.187.465.484.187.286.256.691h.939q-.099-.622-.376-1.057-.266-.444-.671-.73-.395-.287-.909-.416-.504-.138-1.077-.138-.84 0-1.471.316-.623.306-1.047.83-.415.523-.633 1.225-.207.691-.207 1.462 0 .691.227 1.333t.662 1.136q.435.494 1.057.79.622.287 1.412.287.623 0 1.235-.237.613-.247 1.027-.8z" style="-inkscape-font-specification:'Helvetica Neue';text-align:center" aria-label="FG" font-weight="400" font-size="9.878" font-family="Helvetica Neue" letter-spacing="0" word-spacing="0" stroke-width=".265" text-anchor="middle" fill="#fff"/>
    </g>
    <g style="line-height:100%">
        <path d="M251.755 97.412v.71q.238-.029.504-.029.316 0 .583.09.277.078.474.256.198.168.316.425.119.247.119.573 0 .316-.129.573-.118.247-.326.424-.207.168-.484.267-.276.089-.582.089-.721 0-1.097-.425-.375-.434-.395-1.116h-.84q-.01.543.149.968.168.425.474.721.306.287.74.435.435.148.969.148.493 0 .928-.129.445-.138.77-.405.327-.266.514-.661.198-.405.198-.929 0-.632-.316-1.096-.307-.465-.949-.603v-.02q.415-.187.692-.553.276-.365.276-.84 0-.483-.167-.839-.159-.356-.445-.583-.286-.227-.682-.336-.385-.118-.84-.118-.523 0-.928.168-.395.168-.661.464-.267.296-.415.711-.139.415-.158.919h.84q0-.306.078-.583.08-.276.237-.484.168-.207.415-.326.257-.128.593-.128.533 0 .889.286.355.277.355.84 0 .276-.108.494-.109.217-.297.365-.177.138-.424.218-.237.069-.504.069h-.277q-.04 0-.089-.01zm5.055.326V95.15h1.837q.8 0 1.165.336.376.325.376.958 0 .632-.376.968-.365.336-1.165.326zm-.939-3.379v7.053h.938v-2.884h2.154q1.067.01 1.61-.543.553-.554.553-1.541 0-.988-.553-1.531-.543-.554-1.61-.554z" style="-inkscape-font-specification:'Helvetica Neue';text-align:center" aria-label="3P" font-weight="400" font-size="9.878" font-family="Helvetica Neue" letter-spacing="0" word-spacing="0" stroke-width=".265" text-anchor="middle" fill="#fff"/>
    </g>
    <g style="line-height:100%">
        <path d="M273.288 94.468v7.053h.938v-3.23h3.24v-.79h-3.24v-2.243h3.694v-.79zm7.272.79v6.263h.938v-6.263h2.351v-.79h-5.64v.79z" style="-inkscape-font-specification:'Helvetica Neue';text-align:center" aria-label="FT" font-weight="400" font-size="9.878" font-family="Helvetica Neue" letter-spacing="0" word-spacing="0" stroke-width=".265" text-anchor="middle" fill="#fff"/>
    </g>
    <g style="line-height:100%">
        <path d="M12.95 108.476h-1.343l1.332-1.959h.011zm.452 0v-2.642h-.384l-1.823 2.603v.462h1.755v.937h.452v-.937h.542v-.423zm2.786 1.36v-4.002h-.367q-.04.226-.146.373-.108.147-.266.231-.152.085-.344.119-.192.028-.395.028v.384h1.038v2.867zm1.602-.626v.626h.626v-.626zm3.97-2.896v-.412h-2.592v.452h2.1q-.316.333-.593.728-.27.395-.48.84-.208.441-.344.927-.13.48-.163.987h.536q.028-.468.158-.965.13-.497.333-.965.209-.469.474-.88.265-.413.57-.712zm1.21.655q0-.13.018-.271.017-.147.067-.265.057-.124.153-.203.096-.085.254-.085.164 0 .254.085.096.079.147.203.05.118.062.265.017.141.017.265 0 .13-.017.277-.017.147-.074.27-.05.12-.146.198-.096.08-.26.08-.158 0-.254-.08-.09-.084-.141-.203-.051-.124-.068-.265-.011-.147-.011-.271zm-.423.011q0 .232.046.435.05.203.158.355.107.153.282.243.175.085.429.085.248 0 .418-.096.169-.096.276-.248.113-.159.158-.362.05-.209.05-.429 0-.231-.044-.434-.04-.21-.147-.362-.102-.152-.277-.242-.169-.09-.434-.09-.26 0-.435.095-.175.09-.282.249-.107.158-.152.367-.046.203-.046.434zm3.212 1.795q0-.13.017-.27.017-.148.068-.266.056-.124.152-.203.096-.085.254-.085.164 0 .254.085.096.079.147.203.05.118.062.265.017.141.017.266 0 .13-.017.276-.017.147-.073.271-.051.119-.147.198-.096.079-.26.079-.158 0-.254-.08-.09-.084-.14-.203-.052-.124-.069-.265-.01-.147-.01-.27zm-.423.011q0 .232.045.435.05.203.158.356.107.146.282.237.175.084.43.084.248 0 .417-.09.17-.096.276-.248.113-.158.158-.361.051-.21.051-.43 0-.23-.045-.434-.04-.209-.147-.361-.101-.153-.276-.243-.17-.09-.435-.09-.26 0-.434.096-.175.09-.283.248-.107.158-.152.367-.045.203-.045.435zm.79-3.025l-3.037 4.194h.486l3.03-4.194z" style="-inkscape-font-specification:'Helvetica Neue'" aria-label="41.7%" font-weight="400" font-size="5.644" font-family="Helvetica Neue" letter-spacing="0" word-spacing="0" stroke-width=".265" fill="#fff"/>
    </g>
    <g style="line-height:100%">
        <path d="M34.67 107.55v.407q.136-.017.289-.017.18 0 .333.05.158.046.27.147.113.096.181.243.068.141.068.327 0 .181-.074.328-.067.141-.186.243-.118.095-.276.152-.158.05-.333.05-.412 0-.627-.242-.214-.248-.226-.638h-.48q-.005.31.085.553.096.243.271.412.175.164.423.249.249.084.554.084.282 0 .53-.073.254-.079.44-.231.187-.153.294-.379.113-.231.113-.53 0-.361-.18-.627-.176-.265-.543-.344v-.011q.237-.108.395-.316.159-.21.159-.48 0-.277-.096-.48-.09-.203-.254-.333t-.39-.192q-.22-.068-.48-.068-.299 0-.53.096-.226.096-.378.266-.153.17-.238.406-.079.237-.09.525h.48q0-.175.045-.333.045-.158.136-.277.096-.118.237-.186.146-.073.338-.073.305 0 .508.164.204.158.204.48 0 .157-.063.282-.062.124-.169.208-.102.08-.243.125-.135.039-.287.039h-.159q-.022 0-.05-.006zm2.668 1.321h-.48q.046.52.379.773.333.254.835.254.728 0 1.056-.553.333-.559.333-1.597 0-.57-.113-.937-.107-.373-.294-.587-.186-.215-.434-.3-.249-.09-.53-.09-.289 0-.531.096-.243.096-.418.271-.175.17-.271.412-.096.237-.096.525 0 .294.079.542.085.249.243.424.163.175.4.276.238.096.542.096.294 0 .542-.147.249-.152.384-.406l.011.011q-.022.785-.242 1.169-.22.378-.66.378-.289 0-.497-.158-.21-.158-.238-.452zm1.553-1.699q0 .175-.057.339-.056.158-.163.282-.108.119-.26.192-.153.068-.339.068-.175 0-.322-.068-.14-.073-.248-.192-.101-.119-.164-.27-.056-.153-.056-.317 0-.186.04-.356.045-.169.135-.299.096-.135.243-.214.152-.08.367-.08.203 0 .355.074.153.074.254.203.107.125.158.288.057.164.057.35zm1.302 2.038v.626h.626v-.626zm3.749-2.885v-.423h-1.975l-.373 2.077.412.023q.141-.17.322-.271.186-.107.423-.107.204 0 .367.067.17.068.288.192.119.119.18.288.068.164.068.361 0 .238-.067.418-.068.175-.187.294-.112.118-.27.18-.153.057-.322.057-.18 0-.333-.051-.147-.057-.26-.153-.107-.101-.175-.231-.062-.135-.073-.288h-.48q.006.271.107.486.102.214.277.36.175.142.4.221.232.073.492.073.35 0 .61-.107.265-.113.44-.299t.26-.423q.09-.243.09-.497 0-.344-.102-.598-.102-.26-.277-.43-.175-.174-.412-.259-.237-.085-.502-.085-.203 0-.412.074-.203.067-.333.214l-.011-.011.214-1.152zm1.432.644q0-.13.017-.271.017-.147.068-.265.056-.124.152-.203.096-.085.254-.085.164 0 .254.085.096.079.147.203.05.118.062.265.017.141.017.265 0 .13-.017.277-.017.147-.073.27-.051.12-.147.198-.096.08-.26.08-.158 0-.254-.08-.09-.084-.141-.203-.05-.124-.068-.265-.011-.147-.011-.271zm-.423.011q0 .232.045.435.05.203.158.355.107.153.282.243.175.085.43.085.247 0 .417-.096.17-.096.276-.248.113-.159.158-.362.051-.209.051-.429 0-.231-.045-.434-.04-.21-.147-.362-.101-.152-.276-.242-.17-.09-.435-.09-.26 0-.435.095-.175.09-.282.249-.107.158-.152.367-.045.203-.045.434zm3.211 1.795q0-.13.017-.27.017-.148.068-.266.056-.124.152-.203.096-.085.254-.085.164 0 .254.085.096.079.147.203.051.118.062.265.017.141.017.266 0 .13-.017.276-.017.147-.073.271-.05.119-.147.198-.096.079-.26.079-.158 0-.253-.08-.09-.084-.142-.203-.05-.124-.067-.265-.012-.147-.012-.27zm-.423.011q0 .232.045.435.051.203.158.356.107.146.282.237.175.084.43.084.248 0 .417-.09.17-.096.277-.248.113-.158.158-.361.05-.21.05-.43 0-.23-.045-.434-.04-.209-.146-.361-.102-.153-.277-.243-.17-.09-.435-.09-.26 0-.434.096-.175.09-.282.248-.108.158-.153.367-.045.203-.045.435zm.79-3.025l-3.036 4.194h.485l3.031-4.194z" style="-inkscape-font-specification:'Helvetica Neue'" aria-label="39.5%" font-weight="400" font-size="5.644" font-family="Helvetica Neue" letter-spacing="0" word-spacing="0" stroke-width=".265" fill="#fff"/>
    </g>
    <g style="line-height:100%">
        <path d="M59.544 108.476h-1.343l1.332-1.959h.011zm.452 0v-2.642h-.384l-1.823 2.603v.462h1.755v.937h.452v-.937h.542v-.423zm1.522-.61v-.321q.005-.181.028-.356.028-.18.073-.35.051-.17.141-.293.096-.13.237-.21.142-.078.345-.078.203 0 .344.079.141.079.231.209.096.124.142.293.05.17.073.35.028.175.028.356.006.175.006.321 0 .226-.017.508-.011.277-.09.525-.074.243-.243.412-.17.17-.474.17-.305 0-.474-.17-.17-.169-.249-.412-.073-.248-.09-.525-.011-.282-.011-.508zm-.508.006q0 .22.01.458.012.237.057.462.046.226.13.43.085.197.232.35.146.152.366.242.226.085.537.085.316 0 .536-.085.22-.09.367-.243.147-.152.231-.35.085-.203.13-.429.045-.225.057-.462.01-.237.01-.458 0-.22-.01-.457-.012-.237-.057-.463-.045-.225-.13-.429-.084-.203-.231-.355-.147-.153-.373-.243-.22-.09-.53-.09-.31 0-.537.09-.22.09-.366.243-.147.152-.232.355-.084.204-.13.43-.045.225-.056.462-.011.237-.011.457zm3.373 1.338v.626h.627v-.626zm1.972-2.337q0-.152.056-.265.057-.113.147-.192.096-.08.226-.119.13-.04.27-.04.294 0 .48.159.192.152.192.457 0 .305-.186.474-.186.17-.474.17-.147 0-.277-.04-.13-.04-.225-.119-.096-.079-.153-.197-.056-.124-.056-.288zm-.508-.017q0 .271.152.502.153.226.407.328-.339.118-.52.384-.18.26-.18.615 0 .305.101.536.108.226.288.378.186.153.435.226.248.073.536.073.277 0 .52-.079.242-.079.417-.231.18-.158.282-.384.107-.226.107-.52 0-.372-.174-.626-.175-.26-.537-.372.254-.113.401-.333.152-.226.152-.497 0-.192-.067-.372-.068-.187-.215-.328-.14-.147-.372-.231-.232-.09-.56-.09-.23 0-.445.067-.209.068-.373.198-.163.13-.26.321-.095.187-.095.435zm.367 1.851q0-.175.062-.316.068-.14.18-.242.119-.102.271-.153.158-.056.333-.056.17 0 .316.062.153.056.266.158.113.102.175.243.067.135.067.299 0 .17-.062.31-.056.141-.169.249-.107.101-.26.163-.146.057-.327.057-.373 0-.615-.203-.237-.21-.237-.57zm3.35-1.738q0-.13.017-.271.017-.147.068-.265.057-.124.153-.203.096-.085.254-.085.163 0 .254.085.096.079.146.203.051.118.062.265.017.141.017.265 0 .13-.017.277-.017.147-.073.27-.05.12-.147.198-.096.08-.26.08-.157 0-.253-.08-.09-.084-.141-.203-.051-.124-.068-.265-.012-.147-.012-.271zm-.423.011q0 .232.045.435.051.203.158.355.108.153.283.243.175.085.429.085.248 0 .417-.096.17-.096.277-.248.113-.159.158-.362.05-.209.05-.429 0-.231-.044-.434-.04-.21-.147-.362-.102-.152-.277-.242-.17-.09-.434-.09-.26 0-.435.095-.175.09-.282.249-.108.158-.153.367-.045.203-.045.434zm3.212 1.795q0-.13.017-.27.017-.148.068-.266.056-.124.152-.203.096-.085.254-.085.164 0 .254.085.096.079.147.203.05.118.062.265.017.141.017.266 0 .13-.017.276-.017.147-.074.271-.05.119-.146.198-.096.079-.26.079-.158 0-.254-.08-.09-.084-.141-.203-.05-.124-.068-.265-.011-.147-.011-.27zm-.423.011q0 .232.045.435.05.203.158.356.107.146.282.237.175.084.429.084.248 0 .418-.09.169-.096.276-.248.113-.158.158-.361.051-.21.051-.43 0-.23-.045-.434-.04-.209-.147-.361-.101-.153-.276-.243-.17-.09-.435-.09-.26 0-.435.096-.175.09-.282.248-.107.158-.152.367-.045.203-.045.435zm.79-3.025l-3.037 4.194h.485l3.032-4.194z" style="-inkscape-font-specification:'Helvetica Neue'" aria-label="40.8%" font-weight="400" font-size="5.644" font-family="Helvetica Neue" letter-spacing="0" word-spacing="0" stroke-width=".265" fill="#fff"/>
    </g>
    <g style="line-height:100%">
        <path d="M224.72 108.476h-1.344l1.332-1.959h.012zm.451 0v-2.642h-.384l-1.823 2.603v.462h1.756v.937h.451v-.937h.542v-.423zm3.43-2.151v-.423h-1.976l-.372 2.077.412.023q.141-.17.322-.271.186-.107.423-.107.203 0 .367.067.17.068.288.192.118.119.18.288.068.164.068.361 0 .238-.068.418-.067.175-.186.294-.113.118-.27.18-.153.057-.322.057-.181 0-.334-.051-.146-.057-.26-.153-.106-.101-.174-.231-.062-.135-.074-.288h-.48q.007.271.108.486.102.214.277.36.174.142.4.221.232.073.491.073.35 0 .61-.107.265-.113.44-.299t.26-.423q.09-.243.09-.497 0-.344-.101-.598-.102-.26-.277-.43-.175-.174-.412-.259-.237-.085-.502-.085-.204 0-.412.074-.204.067-.333.214l-.012-.011.215-1.152zm.958 2.885v.626h.626v-.626zm1.345-1.959h.48q-.006-.18.034-.355.045-.181.14-.322.097-.141.243-.226.153-.09.362-.09.158 0 .299.05.14.051.243.147.107.096.169.232.062.13.062.293 0 .21-.068.367-.062.158-.192.294-.124.135-.316.27-.192.13-.446.288-.209.125-.4.266-.192.14-.345.327-.152.186-.254.44-.096.249-.124.604h2.613v-.423h-2.054q.034-.186.141-.327.113-.147.265-.271.158-.124.345-.232l.372-.226q.186-.118.361-.248t.31-.288q.136-.163.215-.367.085-.203.085-.468 0-.282-.102-.497-.096-.214-.265-.355-.17-.147-.4-.22-.226-.08-.486-.08-.316 0-.565.108-.248.107-.417.299-.164.186-.243.446-.079.26-.062.564zm3.836-.282q0-.13.017-.271.017-.147.068-.265.056-.124.152-.203.096-.085.254-.085.164 0 .254.085.096.079.147.203.05.118.062.265.017.141.017.265 0 .13-.017.277-.017.147-.073.27-.051.12-.147.198-.096.08-.26.08-.158 0-.254-.08-.09-.084-.141-.203-.05-.124-.068-.265-.011-.147-.011-.271zm-.423.011q0 .232.045.435.05.203.158.355.107.153.282.243.175.085.43.085.248 0 .417-.096.17-.096.276-.248.113-.159.158-.362.051-.209.051-.429 0-.231-.045-.434-.04-.21-.147-.362-.101-.152-.276-.242-.17-.09-.435-.09-.26 0-.434.095-.175.09-.283.249-.107.158-.152.367-.045.203-.045.434zm3.211 1.795q0-.13.017-.27.017-.148.068-.266.056-.124.152-.203.096-.085.254-.085.164 0 .254.085.096.079.147.203.051.118.062.265.017.141.017.266 0 .13-.017.276-.017.147-.073.271-.05.119-.147.198-.096.079-.26.079-.158 0-.254-.08-.09-.084-.14-.203-.051-.124-.068-.265-.012-.147-.012-.27zm-.423.011q0 .232.045.435.051.203.158.356.108.146.283.237.175.084.429.084.248 0 .417-.09.17-.096.277-.248.113-.158.158-.361.05-.21.05-.43 0-.23-.045-.434-.039-.209-.146-.361-.102-.153-.277-.243-.17-.09-.434-.09-.26 0-.435.096-.175.09-.282.248-.108.158-.153.367-.045.203-.045.435zm.79-3.025l-3.036 4.194h.485l3.031-4.194z" style="-inkscape-font-specification:'Helvetica Neue'" aria-label="45.2%" font-weight="400" font-size="5.644" font-family="Helvetica Neue" letter-spacing="0" word-spacing="0" stroke-width=".265" fill="#fff"/>
    </g>
    <g style="line-height:100%">
        <path d="M248.605 107.55v.407q.136-.017.288-.017.18 0 .333.05.158.046.271.147.113.096.18.243.068.141.068.327 0 .181-.073.328-.068.141-.186.243-.119.095-.277.152-.158.05-.333.05-.412 0-.626-.242-.215-.248-.226-.638h-.48q-.006.31.085.553.096.243.27.412.176.164.424.249.248.084.553.084.282 0 .53-.073.255-.079.44-.231.187-.153.294-.379.113-.231.113-.53 0-.361-.18-.627-.175-.265-.542-.344v-.011q.237-.108.395-.316.158-.21.158-.48 0-.277-.096-.48-.09-.203-.254-.333t-.39-.192q-.22-.068-.48-.068-.298 0-.53.096-.226.096-.378.266t-.237.406q-.079.237-.09.525h.48q0-.175.045-.333.045-.158.135-.277.096-.118.237-.186.147-.073.339-.073.305 0 .508.164.203.158.203.48 0 .157-.062.282-.062.124-.17.208-.101.08-.242.125-.136.039-.288.039h-.158q-.023 0-.05-.006zm3.825.926h-1.343l1.332-1.959h.011zm.452 0v-2.642h-.384l-1.823 2.603v.462h1.755v.937h.452v-.937h.542v-.423zm1.245.734v.626h.627v-.626zm1.853-.339h-.48q.046.52.379.773.333.254.835.254.728 0 1.056-.553.333-.559.333-1.597 0-.57-.113-.937-.107-.373-.294-.587-.186-.215-.434-.3-.249-.09-.53-.09-.289 0-.532.096-.242.096-.417.271-.175.17-.271.412-.096.237-.096.525 0 .294.079.542.085.249.243.424.163.175.4.276.237.096.542.096.294 0 .542-.147.248-.152.384-.406l.011.011q-.022.785-.243 1.169-.22.378-.66.378-.288 0-.497-.158-.208-.158-.237-.452zm1.553-1.699q0 .175-.057.339-.056.158-.164.282-.107.119-.26.192-.152.068-.338.068-.175 0-.322-.068-.14-.073-.248-.192-.102-.119-.164-.27-.056-.153-.056-.317 0-.186.04-.356.045-.169.135-.299.096-.135.243-.214.152-.08.367-.08.203 0 .355.074.153.074.254.203.107.125.158.288.057.164.057.35zm1.776-.203q0-.13.016-.271.017-.147.068-.265.057-.124.153-.203.096-.085.254-.085.163 0 .254.085.095.079.146.203.051.118.062.265.017.141.017.265 0 .13-.017.277-.016.147-.073.27-.05.12-.147.198-.096.08-.26.08-.157 0-.253-.08-.09-.084-.142-.203-.05-.124-.067-.265-.012-.147-.012-.271zm-.424.011q0 .232.045.435.051.203.158.355.108.153.283.243.175.085.429.085.248 0 .417-.096.17-.096.277-.248.113-.159.158-.362.05-.209.05-.429 0-.231-.045-.434-.039-.21-.146-.362-.102-.152-.277-.242-.17-.09-.434-.09-.26 0-.435.095-.175.09-.282.249-.108.158-.153.367-.045.203-.045.434zm3.212 1.795q0-.13.017-.27.017-.148.068-.266.056-.124.152-.203.096-.085.254-.085.164 0 .254.085.096.079.147.203.05.118.062.265.017.141.017.266 0 .13-.017.276-.017.147-.074.271-.05.119-.146.198-.096.079-.26.079-.158 0-.254-.08-.09-.084-.141-.203-.05-.124-.068-.265-.011-.147-.011-.27zm-.423.011q0 .232.045.435.05.203.158.356.107.146.282.237.175.084.429.084.248 0 .418-.09.169-.096.276-.248.113-.158.158-.361.051-.21.051-.43 0-.23-.045-.434-.04-.209-.147-.361-.101-.153-.276-.243-.17-.09-.435-.09-.26 0-.435.096-.175.09-.282.248-.107.158-.152.367-.045.203-.045.435zm.79-3.025l-3.037 4.194h.485l3.032-4.194z" style="-inkscape-font-specification:'Helvetica Neue'" aria-label="34.9%" font-weight="400" font-size="5.644" font-family="Helvetica Neue" letter-spacing="0" word-spacing="0" stroke-width=".265" fill="#fff"/>
    </g>
    <g style="line-height:100%">
        <path d="M273.531 106.314v-.412h-2.59v.452h2.099q-.316.333-.593.728-.27.395-.48.84-.208.441-.344.927-.13.48-.163.987h.536q.028-.468.158-.965.13-.497.333-.965.209-.469.474-.88.265-.413.57-.712zm2.606.542h.48q-.046-.497-.34-.756-.293-.266-.79-.266-.428 0-.71.181-.283.18-.452.48-.17.299-.243.688-.068.384-.068.796 0 .316.046.655.05.339.197.62.147.283.418.464.27.18.717.18.378 0 .632-.124.26-.13.412-.321.158-.198.226-.435.067-.237.067-.457 0-.277-.084-.514-.085-.237-.243-.412-.152-.175-.384-.27-.226-.103-.513-.103-.328 0-.582.125-.248.124-.417.4l-.012-.01q.006-.232.045-.498.04-.265.142-.49.107-.232.293-.379.186-.152.491-.152.288 0 .463.163.175.164.209.435zm-.723.83q.203 0 .356.073.152.074.254.198.101.118.147.288.05.163.05.35 0 .175-.056.338-.05.158-.152.282-.102.125-.254.198-.147.068-.345.068-.197 0-.355-.068-.153-.073-.26-.192-.102-.118-.158-.282-.056-.164-.056-.35 0-.186.05-.35.057-.17.164-.288.107-.124.26-.192.152-.073.355-.073zm1.996 1.524v.626h.627v-.626zm1.972-2.337q0-.152.057-.265.056-.113.146-.192.096-.08.226-.119.13-.04.271-.04.294 0 .48.159.192.152.192.457 0 .305-.186.474-.187.17-.475.17-.146 0-.276-.04-.13-.04-.226-.119-.096-.079-.152-.197-.057-.124-.057-.288zm-.508-.017q0 .271.153.502.152.226.406.328-.339.118-.52.384-.18.26-.18.615 0 .305.102.536.107.226.288.378.186.153.434.226.249.073.536.073.277 0 .52-.079.242-.079.417-.231.181-.158.283-.384.107-.226.107-.52 0-.372-.175-.626-.175-.26-.536-.372.254-.113.4-.333.153-.226.153-.497 0-.192-.068-.372-.068-.187-.214-.328-.141-.147-.373-.231-.231-.09-.559-.09-.231 0-.446.067-.208.068-.372.198t-.26.321q-.096.187-.096.435zm.367 1.851q0-.175.062-.316.068-.14.18-.242.12-.102.272-.153.158-.056.333-.056.17 0 .316.062.152.056.265.158.113.102.175.243.068.135.068.299 0 .17-.062.31-.057.141-.17.249-.107.101-.26.163-.146.057-.327.057-.372 0-.615-.203-.237-.21-.237-.57zm3.351-1.738q0-.13.017-.271.017-.147.067-.265.057-.124.153-.203.096-.085.254-.085.164 0 .254.085.096.079.147.203.05.118.062.265.017.141.017.265 0 .13-.017.277-.017.147-.074.27-.05.12-.146.198-.096.08-.26.08-.158 0-.254-.08-.09-.084-.141-.203-.051-.124-.068-.265-.011-.147-.011-.271zm-.423.011q0 .232.045.435.05.203.158.355.107.153.282.243.175.085.429.085.248 0 .418-.096.169-.096.276-.248.113-.159.158-.362.051-.209.051-.429 0-.231-.045-.434-.04-.21-.147-.362-.101-.152-.276-.242-.17-.09-.435-.09-.26 0-.435.095-.175.09-.282.249-.107.158-.152.367-.045.203-.045.434zm3.211 1.795q0-.13.017-.27.017-.148.068-.266.056-.124.152-.203.096-.085.254-.085.164 0 .254.085.096.079.147.203.05.118.062.265.017.141.017.266 0 .13-.017.276-.017.147-.073.271-.051.119-.147.198-.096.079-.26.079-.158 0-.254-.08-.09-.084-.14-.203-.052-.124-.069-.265-.01-.147-.01-.27zm-.423.011q0 .232.045.435.05.203.158.356.107.146.282.237.175.084.43.084.248 0 .417-.09.17-.096.277-.248.112-.158.158-.361.05-.21.05-.43 0-.23-.045-.434-.04-.209-.147-.361-.101-.153-.276-.243-.17-.09-.435-.09-.26 0-.434.096-.175.09-.283.248-.107.158-.152.367-.045.203-.045.435zm.79-3.025l-3.037 4.194h.486l3.03-4.194z" style="-inkscape-font-specification:'Helvetica Neue'" aria-label="76.8%" font-weight="400" font-size="5.644" font-family="Helvetica Neue" letter-spacing="0" word-spacing="0" stroke-width=".265" fill="#fff"/>
    </g>
</svg>
