{
    "asset" : {
        "generator" : "Khronos glTF Blender I/O v1.8.19",
        "version" : "2.0"
    },
    "scene" : 0,
    "scenes" : [
        {
            "name" : "Scene",
            "nodes" : [
                0,
                1,
                2,
                3,
                4,
                5,
                6
            ]
        }
    ],
    "nodes" : [
        {
            "mesh" : 0,
            "name" : "Cube",
            "scale" : [
                1.9999998807907104,
                1.9999998807907104,
                1.9999998807907104
            ]
        },
        {
            "mesh" : 1,
            "name" : "+x",
            "rotation" : [
                0.5,
                -0.5,
                0.5,
                0.4999999701976776
            ],
            "scale" : [
                0.4999999701976776,
                0.4999999701976776,
                0.4999999701976776
            ],
            "translation" : [
                1,
                0,
                0
            ]
        },
        {
            "mesh" : 2,
            "name" : "-x",
            "rotation" : [
                0.5,
                0.5,
                -0.5,
                0.4999999701976776
            ],
            "scale" : [
                0.4999999701976776,
                0.4999999701976776,
                0.4999999701976776
            ],
            "translation" : [
                -1,
                0,
                0
            ]
        },
        {
            "mesh" : 3,
            "name" : "+y",
            "rotation" : [
                1,
                0,
                0,
                -4.371138828673793e-08
            ],
            "scale" : [
                0.4999999701976776,
                0.4999999701976776,
                0.4999999701976776
            ],
            "translation" : [
                0,
                1,
                0
            ]
        },
        {
            "mesh" : 4,
            "name" : "-y",
            "scale" : [
                0.4999999701976776,
                0.4999999701976776,
                0.4999999701976776
            ],
            "translation" : [
                0,
                -1,
                0
            ]
        },
        {
            "mesh" : 5,
            "name" : "+z",
            "rotation" : [
                0.7071068286895752,
                0,
                0,
                0.7071068286895752
            ],
            "scale" : [
                0.4999999701976776,
                0.4999999701976776,
                0.4999999701976776
            ],
            "translation" : [
                0,
                0,
                -1
            ]
        },
        {
            "mesh" : 6,
            "name" : "-z",
            "rotation" : [
                0,
                0.7071068286895752,
                -0.7071068286895752,
                -3.090862321641907e-08
            ],
            "scale" : [
                0.4999999701976776,
                0.4999999701976776,
                0.4999999701976776
            ],
            "translation" : [
                0,
                0,
                1
            ]
        }
    ],
    "materials" : [
        {
            "doubleSided" : true,
            "name" : "Material",
            "pbrMetallicRoughness" : {
                "baseColorFactor" : [
                    1,
                    1,
                    1,
                    1
                ],
                "metallicFactor" : 0,
                "roughnessFactor" : 0.4000000059604645
            }
        },
        {
            "doubleSided" : true,
            "name" : "Material.001",
            "pbrMetallicRoughness" : {
                "baseColorFactor" : [
                    0.8000000715255737,
                    0,
                    0,
                    1
                ],
                "metallicFactor" : 0,
                "roughnessFactor" : 0.5
            }
        },
        {
            "doubleSided" : true,
            "name" : "Material.002",
            "pbrMetallicRoughness" : {
                "baseColorFactor" : [
                    0,
                    1,
                    0,
                    1
                ],
                "metallicFactor" : 0,
                "roughnessFactor" : 0.4000000059604645
            }
        },
        {
            "doubleSided" : true,
            "name" : "Material.003",
            "pbrMetallicRoughness" : {
                "baseColorFactor" : [
                    0,
                    0,
                    1,
                    1
                ],
                "metallicFactor" : 0,
                "roughnessFactor" : 0.4000000059604645
            }
        }
    ],
    "meshes" : [
        {
            "name" : "Cube",
            "primitives" : [
                {
                    "attributes" : {
                        "POSITION" : 0,
                        "NORMAL" : 1,
                        "TANGENT" : 2,
                        "TEXCOORD_0" : 3
                    },
                    "indices" : 4,
                    "material" : 0
                }
            ]
        },
        {
            "name" : "Text",
            "primitives" : [
                {
                    "attributes" : {
                        "POSITION" : 5,
                        "NORMAL" : 6,
                        "TANGENT" : 7,
                        "TEXCOORD_0" : 8
                    },
                    "indices" : 9,
                    "material" : 1
                }
            ]
        },
        {
            "name" : "Text.001",
            "primitives" : [
                {
                    "attributes" : {
                        "POSITION" : 10,
                        "NORMAL" : 11,
                        "TANGENT" : 12,
                        "TEXCOORD_0" : 13
                    },
                    "indices" : 14,
                    "material" : 1
                }
            ]
        },
        {
            "name" : "Text.002",
            "primitives" : [
                {
                    "attributes" : {
                        "POSITION" : 15,
                        "NORMAL" : 16,
                        "TANGENT" : 17,
                        "TEXCOORD_0" : 18
                    },
                    "indices" : 19,
                    "material" : 2
                }
            ]
        },
        {
            "name" : "Text.003",
            "primitives" : [
                {
                    "attributes" : {
                        "POSITION" : 20,
                        "NORMAL" : 21,
                        "TANGENT" : 22,
                        "TEXCOORD_0" : 23
                    },
                    "indices" : 24,
                    "material" : 2
                }
            ]
        },
        {
            "name" : "Text.004",
            "primitives" : [
                {
                    "attributes" : {
                        "POSITION" : 25,
                        "NORMAL" : 26,
                        "TANGENT" : 27,
                        "TEXCOORD_0" : 28
                    },
                    "indices" : 29,
                    "material" : 3
                }
            ]
        },
        {
            "name" : "Text.005",
            "primitives" : [
                {
                    "attributes" : {
                        "POSITION" : 30,
                        "NORMAL" : 31,
                        "TANGENT" : 32,
                        "TEXCOORD_0" : 33
                    },
                    "indices" : 34,
                    "material" : 3
                }
            ]
        }
    ],
    "accessors" : [
        {
            "bufferView" : 0,
            "componentType" : 5126,
            "count" : 24,
            "max" : [
                1,
                1,
                1
            ],
            "min" : [
                -1,
                -1,
                -1
            ],
            "type" : "VEC3"
        },
        {
            "bufferView" : 1,
            "componentType" : 5126,
            "count" : 24,
            "type" : "VEC3"
        },
        {
            "bufferView" : 2,
            "componentType" : 5126,
            "count" : 24,
            "type" : "VEC4"
        },
        {
            "bufferView" : 3,
            "componentType" : 5126,
            "count" : 24,
            "type" : "VEC2"
        },
        {
            "bufferView" : 4,
            "componentType" : 5123,
            "count" : 36,
            "type" : "SCALAR"
        },
        {
            "bufferView" : 5,
            "componentType" : 5126,
            "count" : 24,
            "max" : [
                0.5419999957084656,
                0,
                0.30000001192092896
            ],
            "min" : [
                -0.48600006103515625,
                0,
                -0.2890000343322754
            ],
            "type" : "VEC3"
        },
        {
            "bufferView" : 6,
            "componentType" : 5126,
            "count" : 24,
            "type" : "VEC3"
        },
        {
            "bufferView" : 7,
            "componentType" : 5126,
            "count" : 24,
            "type" : "VEC4"
        },
        {
            "bufferView" : 8,
            "componentType" : 5126,
            "count" : 24,
            "type" : "VEC2"
        },
        {
            "bufferView" : 9,
            "componentType" : 5123,
            "count" : 60,
            "type" : "SCALAR"
        },
        {
            "bufferView" : 10,
            "componentType" : 5126,
            "count" : 16,
            "max" : [
                0.4115000069141388,
                0,
                0.30000001192092896
            ],
            "min" : [
                -0.37150001525878906,
                0,
                -0.14900001883506775
            ],
            "type" : "VEC3"
        },
        {
            "bufferView" : 11,
            "componentType" : 5126,
            "count" : 16,
            "type" : "VEC3"
        },
        {
            "bufferView" : 12,
            "componentType" : 5126,
            "count" : 16,
            "type" : "VEC4"
        },
        {
            "bufferView" : 13,
            "componentType" : 5126,
            "count" : 16,
            "type" : "VEC2"
        },
        {
            "bufferView" : 14,
            "componentType" : 5123,
            "count" : 36,
            "type" : "SCALAR"
        },
        {
            "bufferView" : 15,
            "componentType" : 5126,
            "count" : 20,
            "max" : [
                0.5110000371932983,
                0,
                0.5300000309944153
            ],
            "min" : [
                -0.45500004291534424,
                0,
                -0.2890000343322754
            ],
            "type" : "VEC3"
        },
        {
            "bufferView" : 16,
            "componentType" : 5126,
            "count" : 20,
            "type" : "VEC3"
        },
        {
            "bufferView" : 17,
            "componentType" : 5126,
            "count" : 20,
            "type" : "VEC4"
        },
        {
            "bufferView" : 18,
            "componentType" : 5126,
            "count" : 20,
            "type" : "VEC2"
        },
        {
            "bufferView" : 19,
            "componentType" : 5123,
            "count" : 48,
            "type" : "SCALAR"
        },
        {
            "bufferView" : 20,
            "componentType" : 5126,
            "count" : 12,
            "max" : [
                0.38050001859664917,
                0,
                0.5300000309944153
            ],
            "min" : [
                -0.34050002694129944,
                0,
                -0.14900001883506775
            ],
            "type" : "VEC3"
        },
        {
            "bufferView" : 21,
            "componentType" : 5126,
            "count" : 12,
            "type" : "VEC3"
        },
        {
            "bufferView" : 22,
            "componentType" : 5126,
            "count" : 12,
            "type" : "VEC4"
        },
        {
            "bufferView" : 23,
            "componentType" : 5126,
            "count" : 12,
            "type" : "VEC2"
        },
        {
            "bufferView" : 24,
            "componentType" : 5123,
            "count" : 24,
            "type" : "SCALAR"
        },
        {
            "bufferView" : 25,
            "componentType" : 5126,
            "count" : 20,
            "max" : [
                0.48850005865097046,
                0,
                0.30000001192092896
            ],
            "min" : [
                -0.44450002908706665,
                0,
                -0.2890000343322754
            ],
            "type" : "VEC3"
        },
        {
            "bufferView" : 26,
            "componentType" : 5126,
            "count" : 20,
            "type" : "VEC3"
        },
        {
            "bufferView" : 27,
            "componentType" : 5126,
            "count" : 20,
            "type" : "VEC4"
        },
        {
            "bufferView" : 28,
            "componentType" : 5126,
            "count" : 20,
            "type" : "VEC2"
        },
        {
            "bufferView" : 29,
            "componentType" : 5123,
            "count" : 48,
            "type" : "SCALAR"
        },
        {
            "bufferView" : 30,
            "componentType" : 5126,
            "count" : 12,
            "max" : [
                0.3580000400543213,
                0,
                0.30000001192092896
            ],
            "min" : [
                -0.33000001311302185,
                0,
                -0.14900001883506775
            ],
            "type" : "VEC3"
        },
        {
            "bufferView" : 31,
            "componentType" : 5126,
            "count" : 12,
            "type" : "VEC3"
        },
        {
            "bufferView" : 32,
            "componentType" : 5126,
            "count" : 12,
            "type" : "VEC4"
        },
        {
            "bufferView" : 33,
            "componentType" : 5126,
            "count" : 12,
            "type" : "VEC2"
        },
        {
            "bufferView" : 34,
            "componentType" : 5123,
            "count" : 24,
            "type" : "SCALAR"
        }
    ],
    "bufferViews" : [
        {
            "buffer" : 0,
            "byteLength" : 288,
            "byteOffset" : 0
        },
        {
            "buffer" : 0,
            "byteLength" : 288,
            "byteOffset" : 288
        },
        {
            "buffer" : 0,
            "byteLength" : 384,
            "byteOffset" : 576
        },
        {
            "buffer" : 0,
            "byteLength" : 192,
            "byteOffset" : 960
        },
        {
            "buffer" : 0,
            "byteLength" : 72,
            "byteOffset" : 1152
        },
        {
            "buffer" : 0,
            "byteLength" : 288,
            "byteOffset" : 1224
        },
        {
            "buffer" : 0,
            "byteLength" : 288,
            "byteOffset" : 1512
        },
        {
            "buffer" : 0,
            "byteLength" : 384,
            "byteOffset" : 1800
        },
        {
            "buffer" : 0,
            "byteLength" : 192,
            "byteOffset" : 2184
        },
        {
            "buffer" : 0,
            "byteLength" : 120,
            "byteOffset" : 2376
        },
        {
            "buffer" : 0,
            "byteLength" : 192,
            "byteOffset" : 2496
        },
        {
            "buffer" : 0,
            "byteLength" : 192,
            "byteOffset" : 2688
        },
        {
            "buffer" : 0,
            "byteLength" : 256,
            "byteOffset" : 2880
        },
        {
            "buffer" : 0,
            "byteLength" : 128,
            "byteOffset" : 3136
        },
        {
            "buffer" : 0,
            "byteLength" : 72,
            "byteOffset" : 3264
        },
        {
            "buffer" : 0,
            "byteLength" : 240,
            "byteOffset" : 3336
        },
        {
            "buffer" : 0,
            "byteLength" : 240,
            "byteOffset" : 3576
        },
        {
            "buffer" : 0,
            "byteLength" : 320,
            "byteOffset" : 3816
        },
        {
            "buffer" : 0,
            "byteLength" : 160,
            "byteOffset" : 4136
        },
        {
            "buffer" : 0,
            "byteLength" : 96,
            "byteOffset" : 4296
        },
        {
            "buffer" : 0,
            "byteLength" : 144,
            "byteOffset" : 4392
        },
        {
            "buffer" : 0,
            "byteLength" : 144,
            "byteOffset" : 4536
        },
        {
            "buffer" : 0,
            "byteLength" : 192,
            "byteOffset" : 4680
        },
        {
            "buffer" : 0,
            "byteLength" : 96,
            "byteOffset" : 4872
        },
        {
            "buffer" : 0,
            "byteLength" : 48,
            "byteOffset" : 4968
        },
        {
            "buffer" : 0,
            "byteLength" : 240,
            "byteOffset" : 5016
        },
        {
            "buffer" : 0,
            "byteLength" : 240,
            "byteOffset" : 5256
        },
        {
            "buffer" : 0,
            "byteLength" : 320,
            "byteOffset" : 5496
        },
        {
            "buffer" : 0,
            "byteLength" : 160,
            "byteOffset" : 5816
        },
        {
            "buffer" : 0,
            "byteLength" : 96,
            "byteOffset" : 5976
        },
        {
            "buffer" : 0,
            "byteLength" : 144,
            "byteOffset" : 6072
        },
        {
            "buffer" : 0,
            "byteLength" : 144,
            "byteOffset" : 6216
        },
        {
            "buffer" : 0,
            "byteLength" : 192,
            "byteOffset" : 6360
        },
        {
            "buffer" : 0,
            "byteLength" : 96,
            "byteOffset" : 6552
        },
        {
            "buffer" : 0,
            "byteLength" : 48,
            "byteOffset" : 6648
        }
    ],
    "buffers" : [
        {
            "byteLength" : 6696,
            "uri" : "data:application/octet-stream;base64,"
        }
    ]
}
