{
	"asset":{
		"generator":"Khronos glTF Blender I/O v3.6.27",
		"version":"2.0"
	},
	"scene":0,
	"scenes":[
		{
			"name":"Scene",
			"nodes":[
				0
			]
		}
	],
	"nodes":[
		{
			"mesh":0,
			"name":"Torus.001",
			"rotation":[
				0.7071068286895752,
				0,
				0,
				0.7071068286895752
			]
		}
	],
	"meshes":[
		{
			"name":"Torus.005",
			"primitives":[
				{
					"attributes":{
						"POSITION":0,
						"NORMAL":1,
						"TEXCOORD_0":2
					},
					"indices":3
				}
			]
		}
	],
	"accessors":[
		{
			"bufferView":0,
			"componentType":5126,
			"count":1666,
			"max":[
				1.25,
				1.25,
				1.25
			],
			"min":[
				-1.25,
				-1.25,
				-1.25
			],
			"type":"VEC3"
		},
		{
			"bufferView":1,
			"componentType":5126,
			"count":1666,
			"type":"VEC3"
		},
		{
			"bufferView":2,
			"componentType":5126,
			"count":1666,
			"type":"VEC2"
		},
		{
			"bufferView":3,
			"componentType":5123,
			"count":9216,
			"type":"SCALAR"
		}
	],
	"bufferViews":[
		{
			"buffer":0,
			"byteLength":19992,
			"byteOffset":0,
			"target":34962
		},
		{
			"buffer":0,
			"byteLength":19992,
			"byteOffset":19992,
			"target":34962
		},
		{
			"buffer":0,
			"byteLength":13328,
			"byteOffset":39984,
			"target":34962
		},
		{
			"buffer":0,
			"byteLength":18432,
			"byteOffset":53312,
			"target":34963
		}
	],
	"buffers":[
		{
			"byteLength":71744,
			"uri":"data:application/octet-stream;base64,"
		}
	]
}
