{
    "asset": {
        "generator": "Khronos glTF Blender I/O v1.7.33",
        "version": "2.0"
    },
    "scene": 0,
    "scenes": [
        {
            "name": "Scene",
            "nodes": [
                0,
                1,
                2,
                3
            ]
        }
    ],
    "nodes": [
        {
            "mesh": 0,
            "name": "Translated"
        },
        {
            "mesh": 1,
            "name": "Rotated",
            "translation": [
                0,
                0,
                -3
            ]
        },
        {
            "mesh": 2,
            "name": "Scaled",
            "translation": [
                0,
                0,
                -6
            ]
        },
        {
            "mesh": 3,
            "name": "All",
            "translation": [
                -3,
                0,
                0
            ]
        }
    ],
    "animations": [
        {
            "channels": [
                {
                    "sampler": 0,
                    "target": {
                        "node": 0,
                        "path": "translation"
                    }
                },
                {
                    "sampler": 1,
                    "target": {
                        "node": 1,
                        "path": "rotation"
                    }
                },
                {
                    "sampler": 2,
                    "target": {
                        "node": 2,
                        "path": "scale"
                    }
                },
                {
                    "sampler": 3,
                    "target": {
                        "node": 3,
                        "path": "translation"
                    }
                },
                {
                    "sampler": 4,
                    "target": {
                        "node": 3,
                        "path": "rotation"
                    }
                },
                {
                    "sampler": 5,
                    "target": {
                        "node": 3,
                        "path": "scale"
                    }
                }
            ],
            "name": "MoveThemAll",
            "samplers": [
                {
                    "input": 13,
                    "interpolation": "LINEAR",
                    "output": 14
                },
                {
                    "input": 13,
                    "interpolation": "LINEAR",
                    "output": 19
                },
                {
                    "input": 13,
                    "interpolation": "LINEAR",
                    "output": 23
                },
                {
                    "input": 13,
                    "interpolation": "LINEAR",
                    "output": 24
                },
                {
                    "input": 13,
                    "interpolation": "LINEAR",
                    "output": 25
                },
                {
                    "input": 13,
                    "interpolation": "LINEAR",
                    "output": 26
                }
            ]
        }
    ],
    "materials": [
        {
            "doubleSided": true,
            "name": "Material.002",
            "pbrMetallicRoughness": {
                "baseColorFactor": [
                    0.8000000715255737,
                    0.03291596472263336,
                    0.03291596472263336,
                    1
                ],
                "metallicFactor": 0,
                "roughnessFactor": 0.5
            }
        },
        {
            "doubleSided": true,
            "name": "Material.003",
            "pbrMetallicRoughness": {
                "baseColorFactor": [
                    0.04164114594459534,
                    0.8000000715255737,
                    0.03504977375268936,
                    1
                ],
                "metallicFactor": 0,
                "roughnessFactor": 0.5
            }
        },
        {
            "doubleSided": true,
            "name": "Material.004",
            "pbrMetallicRoughness": {
                "baseColorFactor": [
                    0.028427375480532646,
                    0.025394577533006668,
                    0.8000000715255737,
                    1
                ],
                "metallicFactor": 0,
                "roughnessFactor": 0.5
            }
        }
    ],
    "meshes": [
        {
            "name": "Cube.002",
            "primitives": [
                {
                    "attributes": {
                        "POSITION": 0,
                        "NORMAL": 1,
                        "TEXCOORD_0": 2
                    },
                    "indices": 3,
                    "material": 0
                }
            ]
        },
        {
            "name": "Cube.003",
            "primitives": [
                {
                    "attributes": {
                        "POSITION": 4,
                        "NORMAL": 5,
                        "TEXCOORD_0": 6
                    },
                    "indices": 3,
                    "material": 1
                }
            ]
        },
        {
            "name": "Cube.004",
            "primitives": [
                {
                    "attributes": {
                        "POSITION": 7,
                        "NORMAL": 8,
                        "TEXCOORD_0": 9
                    },
                    "indices": 3,
                    "material": 2
                }
            ]
        },
        {
            "name": "Cube.005",
            "primitives": [
                {
                    "attributes": {
                        "POSITION": 10,
                        "NORMAL": 11,
                        "TEXCOORD_0": 12
                    },
                    "indices": 3
                }
            ]
        }
    ],
    "accessors": [
        {
            "bufferView": 0,
            "componentType": 5126,
            "count": 24,
            "max": [
                1,
                1,
                1
            ],
            "min": [
                -1,
                -1,
                -1
            ],
            "type": "VEC3"
        },
        {
            "bufferView": 1,
            "componentType": 5126,
            "count": 24,
            "type": "VEC3"
        },
        {
            "bufferView": 2,
            "componentType": 5126,
            "count": 24,
            "type": "VEC2"
        },
        {
            "bufferView": 3,
            "componentType": 5123,
            "count": 36,
            "type": "SCALAR"
        },
        {
            "bufferView": 4,
            "componentType": 5126,
            "count": 24,
            "max": [
                1,
                1,
                1
            ],
            "min": [
                -1,
                -1,
                -1
            ],
            "type": "VEC3"
        },
        {
            "bufferView": 5,
            "componentType": 5126,
            "count": 24,
            "type": "VEC3"
        },
        {
            "bufferView": 6,
            "componentType": 5126,
            "count": 24,
            "type": "VEC2"
        },
        {
            "bufferView": 7,
            "componentType": 5126,
            "count": 24,
            "max": [
                1,
                1,
                1
            ],
            "min": [
                -1,
                -1,
                -1
            ],
            "type": "VEC3"
        },
        {
            "bufferView": 8,
            "componentType": 5126,
            "count": 24,
            "type": "VEC3"
        },
        {
            "bufferView": 9,
            "componentType": 5126,
            "count": 24,
            "type": "VEC2"
        },
        {
            "bufferView": 10,
            "componentType": 5126,
            "count": 24,
            "max": [
                1,
                1,
                1
            ],
            "min": [
                -1,
                -1,
                -1
            ],
            "type": "VEC3"
        },
        {
            "bufferView": 11,
            "componentType": 5126,
            "count": 24,
            "type": "VEC3"
        },
        {
            "bufferView": 12,
            "componentType": 5126,
            "count": 24,
            "type": "VEC2"
        },
        {
            "bufferView": 13,
            "componentType": 5126,
            "count": 501,
            "max": [
                20.833333333333332
            ],
            "min": [
                0
            ],
            "type": "SCALAR"
        },
        {
            "bufferView": 14,
            "componentType": 5126,
            "count": 501,
            "type": "VEC3"
        },
        {
            "bufferView": 15,
            "componentType": 5126,
            "count": 2,
            "max": [
                20.833333333333332
            ],
            "min": [
                0
            ],
            "type": "SCALAR"
        },
        {
            "bufferView": 16,
            "componentType": 5126,
            "count": 2,
            "type": "VEC4"
        },
        {
            "bufferView": 17,
            "componentType": 5126,
            "count": 2,
            "type": "VEC3"
        },
        {
            "bufferView": 18,
            "componentType": 5126,
            "count": 2,
            "type": "VEC3"
        },
        {
            "bufferView": 19,
            "componentType": 5126,
            "count": 501,
            "type": "VEC4"
        },
        {
            "bufferView": 20,
            "componentType": 5126,
            "count": 2,
            "type": "VEC3"
        },
        {
            "bufferView": 21,
            "componentType": 5126,
            "count": 2,
            "type": "VEC3"
        },
        {
            "bufferView": 22,
            "componentType": 5126,
            "count": 2,
            "type": "VEC4"
        },
        {
            "bufferView": 23,
            "componentType": 5126,
            "count": 501,
            "type": "VEC3"
        },
        {
            "bufferView": 24,
            "componentType": 5126,
            "count": 501,
            "type": "VEC3"
        },
        {
            "bufferView": 25,
            "componentType": 5126,
            "count": 501,
            "type": "VEC4"
        },
        {
            "bufferView": 26,
            "componentType": 5126,
            "count": 501,
            "type": "VEC3"
        }
    ],
    "bufferViews": [
        {
            "buffer": 0,
            "byteLength": 288,
            "byteOffset": 0
        },
        {
            "buffer": 0,
            "byteLength": 288,
            "byteOffset": 288
        },
        {
            "buffer": 0,
            "byteLength": 192,
            "byteOffset": 576
        },
        {
            "buffer": 0,
            "byteLength": 72,
            "byteOffset": 768
        },
        {
            "buffer": 0,
            "byteLength": 288,
            "byteOffset": 840
        },
        {
            "buffer": 0,
            "byteLength": 288,
            "byteOffset": 1128
        },
        {
            "buffer": 0,
            "byteLength": 192,
            "byteOffset": 1416
        },
        {
            "buffer": 0,
            "byteLength": 288,
            "byteOffset": 1608
        },
        {
            "buffer": 0,
            "byteLength": 288,
            "byteOffset": 1896
        },
        {
            "buffer": 0,
            "byteLength": 192,
            "byteOffset": 2184
        },
        {
            "buffer": 0,
            "byteLength": 288,
            "byteOffset": 2376
        },
        {
            "buffer": 0,
            "byteLength": 288,
            "byteOffset": 2664
        },
        {
            "buffer": 0,
            "byteLength": 192,
            "byteOffset": 2952
        },
        {
            "buffer": 0,
            "byteLength": 2004,
            "byteOffset": 3144
        },
        {
            "buffer": 0,
            "byteLength": 6012,
            "byteOffset": 5148
        },
        {
            "buffer": 0,
            "byteLength": 8,
            "byteOffset": 11160
        },
        {
            "buffer": 0,
            "byteLength": 32,
            "byteOffset": 11168
        },
        {
            "buffer": 0,
            "byteLength": 24,
            "byteOffset": 11200
        },
        {
            "buffer": 0,
            "byteLength": 24,
            "byteOffset": 11224
        },
        {
            "buffer": 0,
            "byteLength": 8016,
            "byteOffset": 11248
        },
        {
            "buffer": 0,
            "byteLength": 24,
            "byteOffset": 19264
        },
        {
            "buffer": 0,
            "byteLength": 24,
            "byteOffset": 19288
        },
        {
            "buffer": 0,
            "byteLength": 32,
            "byteOffset": 19312
        },
        {
            "buffer": 0,
            "byteLength": 6012,
            "byteOffset": 19344
        },
        {
            "buffer": 0,
            "byteLength": 6012,
            "byteOffset": 25356
        },
        {
            "buffer": 0,
            "byteLength": 8016,
            "byteOffset": 31368
        },
        {
            "buffer": 0,
            "byteLength": 6012,
            "byteOffset": 39384
        }
    ],
    "buffers": [
        {
            "byteLength": 45396,
            "uri": "data:application/octet-stream;base64,"
        }
    ]
}