{
  "scene" : 0,
  "scenes" : [
    {
      "nodes" : [ 0 ]
    }
  ],
  
  "nodes" : [
    {
      "mesh" : 0,
      "rotation" : [ 0.0, 0.0, 0.0, 1.0 ]
    }
  ],
  
  "meshes" : [
    {
      "primitives" : [ {
        "attributes" : {
          "POSITION" : 1
        },
        "indices" : 0
      } ]
    }
  ],
  
  "animations": [
    {
      "samplers" : [
        {
          "input" : 2,
          "interpolation" : "LINEAR",
          "output" : 3
        }
      ],
      "channels" : [ {
        "sampler" : 0,
        "target" : {
          "node" : 0,
          "path" : "rotation"
        }
      } ]
    }
  ],

  "buffers" : [
    {
      "uri" : "data:application/octet-stream;base64,",
      "byteLength" : 44
    },
    {
      "uri" : "data:application/octet-stream;base64,",
      "byteLength" : 100
    }
  ],
  "bufferViews" : [
    {
      "buffer" : 0,
      "byteOffset" : 0,
      "byteLength" : 6,
      "target" : 34963
    },
    {
      "buffer" : 0,
      "byteOffset" : 8,
      "byteLength" : 36,
      "target" : 34962
    },
    {
      "buffer" : 1,
      "byteOffset" : 0,
      "byteLength" : 100
    }
  ],
  "accessors" : [
    {
      "bufferView" : 0,
      "byteOffset" : 0,
      "componentType" : 5123,
      "count" : 3,
      "type" : "SCALAR",
      "max" : [ 2 ],
      "min" : [ 0 ]
    },
    {
      "bufferView" : 1,
      "byteOffset" : 0,
      "componentType" : 5126,
      "count" : 3,
      "type" : "VEC3",
      "max" : [ 1.0, 1.0, 0.0 ],
      "min" : [ 0.0, 0.0, 0.0 ]
    },
    {
      "bufferView" : 2,
      "byteOffset" : 0,
      "componentType" : 5126,
      "count" : 5,
      "type" : "SCALAR",
      "max" : [ 1.0 ],
      "min" : [ 0.0 ]
    },
    {
      "bufferView" : 2,
      "byteOffset" : 20,
      "componentType" : 5126,
      "count" : 5,
      "type" : "VEC4",
      "max" : [ 0.0, 0.0, 1.0, 1.0 ],
      "min" : [ 0.0, 0.0, 0.0, -0.707 ]
    }
  ],
  
  "asset" : {
    "version" : "2.0"
  }
  
}