{
    "asset": {
        "generator": "COLLADA2GLTF",
        "version": "2.0"
    },
    "scene": 0,
    "scenes": [
        {
            "nodes": [
                3,
                0
            ]
        }
    ],
    "nodes": [
        {
            "children": [
                1
            ],
            "rotation": [
                -0.0,
                -0.0,
                -0.0,
                -1.0
            ]
        },
        {
            "children": [
                2
            ]
        },
        {
            "mesh": 0,
            "rotation": [
                -0.0,
                -0.0,
                -0.0,
                -1.0
            ]
        },
        {
            "mesh": 1
        }
    ],
    "meshes": [
        {
            "primitives": [
                {
                    "attributes": {
                        "NORMAL": 1,
                        "POSITION": 2
                    },
                    "indices": 0,
                    "mode": 4,
                    "material": 0
                }
            ],
            "name": "inner_box"
        },
        {
            "primitives": [
                {
                    "attributes": {
                        "NORMAL": 4,
                        "POSITION": 5
                    },
                    "indices": 3,
                    "mode": 4,
                    "material": 1
                }
            ],
            "name": "outer_box"
        }
    ],
    "animations": [
        {
            "channels": [
                {
                    "sampler": 0,
                    "target": {
                        "node": 2,
                        "path": "rotation"
                    }
                },
                {
                    "sampler": 1,
                    "target": {
                        "node": 0,
                        "path": "translation"
                    }
                }
            ],
            "samplers": [
                {
                    "input": 6,
                    "interpolation": "LINEAR",
                    "output": 7
                },
                {
                    "input": 8,
                    "interpolation": "LINEAR",
                    "output": 9
                }
            ]
        }
    ],
    "accessors": [
        {
            "bufferView": 0,
            "byteOffset": 0,
            "componentType": 5123,
            "count": 186,
            "max": [
                95
            ],
            "min": [
                0
            ],
            "type": "SCALAR"
        },
        {
            "bufferView": 1,
            "byteOffset": 0,
            "componentType": 5126,
            "count": 96,
            "max": [
                1.0,
                1.0,
                1.0
            ],
            "min": [
                -1.0,
                -1.0,
                -1.0
            ],
            "type": "VEC3"
        },
        {
            "bufferView": 1,
            "byteOffset": 1152,
            "componentType": 5126,
            "count": 96,
            "max": [
                0.33504000306129458,
                0.5,
                0.33504000306129458
            ],
            "min": [
                -0.33504000306129458,
                -0.5,
                -0.33504000306129458
            ],
            "type": "VEC3"
        },
        {
            "bufferView": 0,
            "byteOffset": 372,
            "componentType": 5123,
            "count": 576,
            "max": [
                223
            ],
            "min": [
                0
            ],
            "type": "SCALAR"
        },
        {
            "bufferView": 1,
            "byteOffset": 2304,
            "componentType": 5126,
            "count": 224,
            "max": [
                1.0,
                1.0,
                1.0
            ],
            "min": [
                -1.0,
                -1.0,
                -1.0
            ],
            "type": "VEC3"
        },
        {
            "bufferView": 1,
            "byteOffset": 4992,
            "componentType": 5126,
            "count": 224,
            "max": [
                0.5,
                0.5,
                0.5
            ],
            "min": [
                -0.5,
                -0.5,
                -0.5
            ],
            "type": "VEC3"
        },
        {
            "bufferView": 2,
            "byteOffset": 0,
            "componentType": 5126,
            "count": 2,
            "max": [
                2.5
            ],
            "min": [
                1.25
            ],
            "type": "SCALAR"
        },
        {
            "bufferView": 3,
            "byteOffset": 0,
            "componentType": 5126,
            "count": 2,
            "max": [
                1.0,
                0.0,
                0.0,
                4.4896593387466768e-11
            ],
            "min": [
                -0.0,
                0.0,
                0.0,
                -1.0
            ],
            "type": "VEC4"
        },
        {
            "bufferView": 2,
            "byteOffset": 8,
            "componentType": 5126,
            "count": 4,
            "max": [
                3.708329916000366
            ],
            "min": [
                0.0
            ],
            "type": "SCALAR"
        },
        {
            "bufferView": 4,
            "byteOffset": 0,
            "componentType": 5126,
            "count": 4,
            "max": [
                0.0,
                2.5199999809265138,
                0.0
            ],
            "min": [
                0.0,
                0.0,
                0.0
            ],
            "type": "VEC3"
        }
    ],
    "materials": [
        {
            "pbrMetallicRoughness": {
                "baseColorFactor": [
                    0.800000011920929,
                    0.4159420132637024,
                    0.7952920198440552,
                    1.0
                ],
                "metallicFactor": 0.0
            },
            "name": "inner"
        },
        {
            "pbrMetallicRoughness": {
                "baseColorFactor": [
                    0.3016040027141571,
                    0.5335419774055481,
                    0.800000011920929,
                    1.0
                ],
                "metallicFactor": 0.0
            },
            "name": "outer"
        }
    ],
    "bufferViews": [
        {
            "buffer": 0,
            "byteOffset": 7784,
            "byteLength": 1524,
            "target": 34963
        },
        {
            "buffer": 0,
            "byteOffset": 80,
            "byteLength": 7680,
            "byteStride": 12,
            "target": 34962
        },
        {
            "buffer": 0,
            "byteOffset": 7760,
            "byteLength": 24
        },
        {
            "buffer": 0,
            "byteOffset": 0,
            "byteLength": 32
        },
        {
            "buffer": 0,
            "byteOffset": 32,
            "byteLength": 48
        }
    ],
    "buffers": [
        {
            "byteLength": 9308,
            "uri": "data:application/octet-stream;base64,"
        }
    ]
}