{
	"asset":{
		"generator":"Khronos glTF Blender I/O v3.6.11",
		"version":"2.0"
	},
	"scene":0,
	"scenes":[
		{
			"name":"Scene",
			"nodes":[
				0
			]
		}
	],
	"nodes":[
		{
			"mesh":0,
			"name":"Main"
		}
	],
	"animations":[
		{
			"channels":[
				{
					"sampler":0,
					"target":{
						"node":0,
						"path":"weights"
					}
				}
			],
			"name":"Individuals",
			"samplers":[
				{
					"input":42,
					"interpolation":"LINEAR",
					"output":43
				}
			]
		},
		{
			"channels":[
				{
					"sampler":0,
					"target":{
						"node":0,
						"path":"weights"
					}
				}
			],
			"name":"Pulse",
			"samplers":[
				{
					"input":44,
					"interpolation":"LINEAR",
					"output":45
				}
			]
		},
		{
			"channels":[
				{
					"sampler":0,
					"target":{
						"node":0,
						"path":"weights"
					}
				}
			],
			"name":"TheWave",
			"samplers":[
				{
					"input":46,
					"interpolation":"LINEAR",
					"output":47
				}
			]
		}
	],
	"materials":[
		{
			"doubleSided":true,
			"name":"Base",
			"occlusionTexture":{
				"index":0,
				"texCoord":1
			},
			"pbrMetallicRoughness":{
				"baseColorTexture":{
					"index":1
				},
				"metallicFactor":0,
				"roughnessFactor":0.4000000059604645
			}
		},
		{
			"doubleSided":true,
			"name":"TestMaterial",
			"pbrMetallicRoughness":{
				"baseColorTexture":{
					"index":2
				},
				"metallicFactor":0,
				"roughnessFactor":0.5
			}
		}
	],
	"meshes":[
		{
			"extras":{
				"targetNames":[
					"Key 1",
					"Key 2",
					"Key 3",
					"Key 4",
					"Key 5",
					"Key 6",
					"Key 7",
					"Key 8"
				]
			},
			"name":"Cube.001",
			"primitives":[
				{
					"attributes":{
						"POSITION":0,
						"NORMAL":1,
						"TEXCOORD_0":2,
						"TEXCOORD_1":3
					},
					"indices":4,
					"material":0,
					"targets":[
						{
							"POSITION":5,
							"NORMAL":6
						},
						{
							"POSITION":7,
							"NORMAL":8
						},
						{
							"POSITION":9,
							"NORMAL":10
						},
						{
							"POSITION":11,
							"NORMAL":12
						},
						{
							"POSITION":13,
							"NORMAL":14
						},
						{
							"POSITION":15,
							"NORMAL":16
						},
						{
							"POSITION":17,
							"NORMAL":18
						},
						{
							"POSITION":19,
							"NORMAL":20
						}
					]
				},
				{
					"attributes":{
						"POSITION":21,
						"NORMAL":22,
						"TEXCOORD_0":23,
						"TEXCOORD_1":24
					},
					"indices":25,
					"material":1,
					"targets":[
						{
							"POSITION":26,
							"NORMAL":27
						},
						{
							"POSITION":28,
							"NORMAL":29
						},
						{
							"POSITION":30,
							"NORMAL":31
						},
						{
							"POSITION":32,
							"NORMAL":33
						},
						{
							"POSITION":34,
							"NORMAL":35
						},
						{
							"POSITION":36,
							"NORMAL":37
						},
						{
							"POSITION":38,
							"NORMAL":39
						},
						{
							"POSITION":40,
							"NORMAL":41
						}
					]
				}
			],
			"weights":[
				0,
				0,
				0,
				0,
				0,
				0,
				0,
				0
			]
		}
	],
	"textures":[
		{
			"sampler":0,
			"source":0
		},
		{
			"sampler":0,
			"source":1
		},
		{
			"sampler":0,
			"source":2
		}
	],
	"images":[
		{
			"bufferView":5,
			"mimeType":"image/png",
			"name":"Base_AO"
		},
		{
			"bufferView":6,
			"mimeType":"image/png",
			"name":"TinyGrid"
		},
		{
			"bufferView":28,
			"mimeType":"image/png",
			"name":"ColorSwatches"
		}
	],
	"accessors":[
		{
			"bufferView":0,
			"componentType":5126,
			"count":24,
			"max":[
				2,
				0,
				0.5
			],
			"min":[
				-2,
				-0.10000002384185791,
				-0.5
			],
			"type":"VEC3"
		},
		{
			"bufferView":1,
			"componentType":5126,
			"count":24,
			"type":"VEC3"
		},
		{
			"bufferView":2,
			"componentType":5126,
			"count":24,
			"type":"VEC2"
		},
		{
			"bufferView":3,
			"componentType":5126,
			"count":24,
			"type":"VEC2"
		},
		{
			"bufferView":4,
			"componentType":5123,
			"count":36,
			"type":"SCALAR"
		},
		{
			"bufferView":7,
			"componentType":5126,
			"count":24,
			"max":[
				0,
				0,
				0
			],
			"min":[
				0,
				0,
				0
			],
			"type":"VEC3"
		},
		{
			"bufferView":8,
			"componentType":5126,
			"count":24,
			"type":"VEC3"
		},
		{
			"bufferView":9,
			"componentType":5126,
			"count":24,
			"max":[
				0,
				0,
				0
			],
			"min":[
				0,
				0,
				0
			],
			"type":"VEC3"
		},
		{
			"bufferView":10,
			"componentType":5126,
			"count":24,
			"type":"VEC3"
		},
		{
			"bufferView":11,
			"componentType":5126,
			"count":24,
			"max":[
				0,
				0,
				0
			],
			"min":[
				0,
				0,
				0
			],
			"type":"VEC3"
		},
		{
			"bufferView":12,
			"componentType":5126,
			"count":24,
			"type":"VEC3"
		},
		{
			"bufferView":13,
			"componentType":5126,
			"count":24,
			"max":[
				0,
				0,
				0
			],
			"min":[
				0,
				0,
				0
			],
			"type":"VEC3"
		},
		{
			"bufferView":14,
			"componentType":5126,
			"count":24,
			"type":"VEC3"
		},
		{
			"bufferView":15,
			"componentType":5126,
			"count":24,
			"max":[
				0,
				0,
				0
			],
			"min":[
				0,
				0,
				0
			],
			"type":"VEC3"
		},
		{
			"bufferView":16,
			"componentType":5126,
			"count":24,
			"type":"VEC3"
		},
		{
			"bufferView":17,
			"componentType":5126,
			"count":24,
			"max":[
				0,
				0,
				0
			],
			"min":[
				0,
				0,
				0
			],
			"type":"VEC3"
		},
		{
			"bufferView":18,
			"componentType":5126,
			"count":24,
			"type":"VEC3"
		},
		{
			"bufferView":19,
			"componentType":5126,
			"count":24,
			"max":[
				0,
				0,
				0
			],
			"min":[
				0,
				0,
				0
			],
			"type":"VEC3"
		},
		{
			"bufferView":20,
			"componentType":5126,
			"count":24,
			"type":"VEC3"
		},
		{
			"bufferView":21,
			"componentType":5126,
			"count":24,
			"max":[
				0,
				0,
				0
			],
			"min":[
				0,
				0,
				0
			],
			"type":"VEC3"
		},
		{
			"bufferView":22,
			"componentType":5126,
			"count":24,
			"type":"VEC3"
		},
		{
			"bufferView":23,
			"componentType":5126,
			"count":1504,
			"max":[
				1.875,
				0.5,
				0.25
			],
			"min":[
				-1.875,
				0,
				-0.25
			],
			"type":"VEC3"
		},
		{
			"bufferView":24,
			"componentType":5126,
			"count":1504,
			"type":"VEC3"
		},
		{
			"bufferView":25,
			"componentType":5126,
			"count":1504,
			"type":"VEC2"
		},
		{
			"bufferView":26,
			"componentType":5126,
			"count":1504,
			"type":"VEC2"
		},
		{
			"bufferView":27,
			"componentType":5123,
			"count":7200,
			"type":"SCALAR"
		},
		{
			"bufferView":29,
			"componentType":5126,
			"count":1504,
			"max":[
				0.04999995231628418,
				1,
				0
			],
			"min":[
				-0.04999995231628418,
				0,
				0
			],
			"type":"VEC3"
		},
		{
			"bufferView":30,
			"componentType":5126,
			"count":1504,
			"type":"VEC3"
		},
		{
			"bufferView":31,
			"componentType":5126,
			"count":1504,
			"max":[
				0.04999995231628418,
				1,
				0
			],
			"min":[
				-0.04999995231628418,
				0,
				0
			],
			"type":"VEC3"
		},
		{
			"bufferView":32,
			"componentType":5126,
			"count":1504,
			"type":"VEC3"
		},
		{
			"bufferView":33,
			"componentType":5126,
			"count":1504,
			"max":[
				0.050000011920928955,
				1,
				0
			],
			"min":[
				-0.050000011920928955,
				0,
				0
			],
			"type":"VEC3"
		},
		{
			"bufferView":34,
			"componentType":5126,
			"count":1504,
			"type":"VEC3"
		},
		{
			"bufferView":35,
			"componentType":5126,
			"count":1504,
			"max":[
				0.050000011920928955,
				1,
				0
			],
			"min":[
				-0.04999999701976776,
				0,
				0
			],
			"type":"VEC3"
		},
		{
			"bufferView":36,
			"componentType":5126,
			"count":1504,
			"type":"VEC3"
		},
		{
			"bufferView":37,
			"componentType":5126,
			"count":1504,
			"max":[
				0.04999999701976776,
				1,
				0
			],
			"min":[
				-0.050000011920928955,
				0,
				0
			],
			"type":"VEC3"
		},
		{
			"bufferView":38,
			"componentType":5126,
			"count":1504,
			"type":"VEC3"
		},
		{
			"bufferView":39,
			"componentType":5126,
			"count":1504,
			"max":[
				0.050000011920928955,
				1,
				0
			],
			"min":[
				-0.050000011920928955,
				0,
				0
			],
			"type":"VEC3"
		},
		{
			"bufferView":40,
			"componentType":5126,
			"count":1504,
			"type":"VEC3"
		},
		{
			"bufferView":41,
			"componentType":5126,
			"count":1504,
			"max":[
				0.04999995231628418,
				1,
				0
			],
			"min":[
				-0.04999995231628418,
				0,
				0
			],
			"type":"VEC3"
		},
		{
			"bufferView":42,
			"componentType":5126,
			"count":1504,
			"type":"VEC3"
		},
		{
			"bufferView":43,
			"componentType":5126,
			"count":1504,
			"max":[
				0.04999995231628418,
				1,
				0
			],
			"min":[
				-0.04999995231628418,
				0,
				0
			],
			"type":"VEC3"
		},
		{
			"bufferView":44,
			"componentType":5126,
			"count":1504,
			"type":"VEC3"
		},
		{
			"bufferView":45,
			"componentType":5126,
			"count":225,
			"max":[
				9.333333333333334
			],
			"min":[
				0
			],
			"type":"SCALAR"
		},
		{
			"bufferView":46,
			"componentType":5126,
			"count":1800,
			"type":"SCALAR"
		},
		{
			"bufferView":47,
			"componentType":5126,
			"count":153,
			"max":[
				6.333333333333333
			],
			"min":[
				0
			],
			"type":"SCALAR"
		},
		{
			"bufferView":48,
			"componentType":5126,
			"count":1224,
			"type":"SCALAR"
		},
		{
			"bufferView":49,
			"componentType":5126,
			"count":48,
			"max":[
				1.9583333333333333
			],
			"min":[
				0
			],
			"type":"SCALAR"
		},
		{
			"bufferView":50,
			"componentType":5126,
			"count":384,
			"type":"SCALAR"
		}
	],
	"bufferViews":[
		{
			"buffer":0,
			"byteLength":288,
			"byteOffset":0,
			"target":34962
		},
		{
			"buffer":0,
			"byteLength":288,
			"byteOffset":288,
			"target":34962
		},
		{
			"buffer":0,
			"byteLength":192,
			"byteOffset":576,
			"target":34962
		},
		{
			"buffer":0,
			"byteLength":192,
			"byteOffset":768,
			"target":34962
		},
		{
			"buffer":0,
			"byteLength":72,
			"byteOffset":960,
			"target":34963
		},
		{
			"buffer":0,
			"byteLength":178434,
			"byteOffset":1032
		},
		{
			"buffer":0,
			"byteLength":186,
			"byteOffset":179468
		},
		{
			"buffer":0,
			"byteLength":288,
			"byteOffset":179656,
			"target":34962
		},
		{
			"buffer":0,
			"byteLength":288,
			"byteOffset":179944,
			"target":34962
		},
		{
			"buffer":0,
			"byteLength":288,
			"byteOffset":180232,
			"target":34962
		},
		{
			"buffer":0,
			"byteLength":288,
			"byteOffset":180520,
			"target":34962
		},
		{
			"buffer":0,
			"byteLength":288,
			"byteOffset":180808,
			"target":34962
		},
		{
			"buffer":0,
			"byteLength":288,
			"byteOffset":181096,
			"target":34962
		},
		{
			"buffer":0,
			"byteLength":288,
			"byteOffset":181384,
			"target":34962
		},
		{
			"buffer":0,
			"byteLength":288,
			"byteOffset":181672,
			"target":34962
		},
		{
			"buffer":0,
			"byteLength":288,
			"byteOffset":181960,
			"target":34962
		},
		{
			"buffer":0,
			"byteLength":288,
			"byteOffset":182248,
			"target":34962
		},
		{
			"buffer":0,
			"byteLength":288,
			"byteOffset":182536,
			"target":34962
		},
		{
			"buffer":0,
			"byteLength":288,
			"byteOffset":182824,
			"target":34962
		},
		{
			"buffer":0,
			"byteLength":288,
			"byteOffset":183112,
			"target":34962
		},
		{
			"buffer":0,
			"byteLength":288,
			"byteOffset":183400,
			"target":34962
		},
		{
			"buffer":0,
			"byteLength":288,
			"byteOffset":183688,
			"target":34962
		},
		{
			"buffer":0,
			"byteLength":288,
			"byteOffset":183976,
			"target":34962
		},
		{
			"buffer":0,
			"byteLength":18048,
			"byteOffset":184264,
			"target":34962
		},
		{
			"buffer":0,
			"byteLength":18048,
			"byteOffset":202312,
			"target":34962
		},
		{
			"buffer":0,
			"byteLength":12032,
			"byteOffset":220360,
			"target":34962
		},
		{
			"buffer":0,
			"byteLength":12032,
			"byteOffset":232392,
			"target":34962
		},
		{
			"buffer":0,
			"byteLength":14400,
			"byteOffset":244424,
			"target":34963
		},
		{
			"buffer":0,
			"byteLength":208,
			"byteOffset":258824
		},
		{
			"buffer":0,
			"byteLength":18048,
			"byteOffset":259032,
			"target":34962
		},
		{
			"buffer":0,
			"byteLength":18048,
			"byteOffset":277080,
			"target":34962
		},
		{
			"buffer":0,
			"byteLength":18048,
			"byteOffset":295128,
			"target":34962
		},
		{
			"buffer":0,
			"byteLength":18048,
			"byteOffset":313176,
			"target":34962
		},
		{
			"buffer":0,
			"byteLength":18048,
			"byteOffset":331224,
			"target":34962
		},
		{
			"buffer":0,
			"byteLength":18048,
			"byteOffset":349272,
			"target":34962
		},
		{
			"buffer":0,
			"byteLength":18048,
			"byteOffset":367320,
			"target":34962
		},
		{
			"buffer":0,
			"byteLength":18048,
			"byteOffset":385368,
			"target":34962
		},
		{
			"buffer":0,
			"byteLength":18048,
			"byteOffset":403416,
			"target":34962
		},
		{
			"buffer":0,
			"byteLength":18048,
			"byteOffset":421464,
			"target":34962
		},
		{
			"buffer":0,
			"byteLength":18048,
			"byteOffset":439512,
			"target":34962
		},
		{
			"buffer":0,
			"byteLength":18048,
			"byteOffset":457560,
			"target":34962
		},
		{
			"buffer":0,
			"byteLength":18048,
			"byteOffset":475608,
			"target":34962
		},
		{
			"buffer":0,
			"byteLength":18048,
			"byteOffset":493656,
			"target":34962
		},
		{
			"buffer":0,
			"byteLength":18048,
			"byteOffset":511704,
			"target":34962
		},
		{
			"buffer":0,
			"byteLength":18048,
			"byteOffset":529752,
			"target":34962
		},
		{
			"buffer":0,
			"byteLength":900,
			"byteOffset":547800
		},
		{
			"buffer":0,
			"byteLength":7200,
			"byteOffset":548700
		},
		{
			"buffer":0,
			"byteLength":612,
			"byteOffset":555900
		},
		{
			"buffer":0,
			"byteLength":4896,
			"byteOffset":556512
		},
		{
			"buffer":0,
			"byteLength":192,
			"byteOffset":561408
		},
		{
			"buffer":0,
			"byteLength":1536,
			"byteOffset":561600
		}
	],
	"samplers":[
		{
			"magFilter":9729,
			"minFilter":9987
		}
	],
	"buffers":[
		{
			"byteLength":563136,
			"uri":"data:application/octet-stream;base64,"
		}
	]
}
