{
	"asset":{
		"generator":"Khronos glTF Blender I/O v3.6.11",
		"version":"2.0"
	},
	"scene":0,
	"scenes":[
		{
			"name":"Scene",
			"nodes":[
				0,
				1,
				2,
				4
			]
		}
	],
	"nodes":[
		{
			"mesh":0,
			"name":"AnimatedMorphSphere",
			"rotation":[
				0,
				0.7071066498756409,
				-0.70710688829422,
				0
			],
			"scale":[
				99.9999771118164,
				99.9999771118164,
				99.9999771118164
			],
			"translation":[
				1.5182734727859497,
				0,
				-1.8511587381362915
			]
		},
		{
			"mesh":1,
			"name":"AnimatedMorphCube",
			"rotation":[
				0,
				0.7071066498756409,
				-0.70710688829422,
				0
			],
			"scale":[
				99.9999771118164,
				99.9999771118164,
				99.9999771118164
			],
			"translation":[
				-2.6811769008636475,
				0,
				1.3515180349349976
			]
		},
		{
			"mesh":2,
			"name":"Main",
			"rotation":[
				0,
				-0.3908303380012512,
				0,
				0.9204627275466919
			],
			"scale":[
				1.913744330406189,
				1.9137442111968994,
				1.913744330406189
			],
			"translation":[
				-0.2832532227039337,
				-0.6049754619598389,
				-0.12415313720703125
			]
		},
		{
			"mesh":3,
			"name":"mesh"
		},
		{
			"children":[
				3
			],
			"name":"\u30eb\u30fc\u30c8\u30d1\u30fc\u30c8",
			"scale":[
				7.508663654327393,
				7.508663654327393,
				7.508663654327393
			],
			"translation":[
				0,
				-2.022470474243164,
				0
			]
		}
	],
	"animations":[
		{
			"channels":[
				{
					"sampler":0,
					"target":{
						"node":0,
						"path":"weights"
					}
				}
			],
			"name":"Globe",
			"samplers":[
				{
					"input":68,
					"interpolation":"LINEAR",
					"output":69
				}
			]
		},
		{
			"channels":[
				{
					"sampler":0,
					"target":{
						"node":1,
						"path":"weights"
					}
				}
			],
			"name":"Square",
			"samplers":[
				{
					"input":70,
					"interpolation":"LINEAR",
					"output":71
				}
			]
		},
		{
			"channels":[
				{
					"sampler":0,
					"target":{
						"node":2,
						"path":"weights"
					}
				}
			],
			"name":"Individuals",
			"samplers":[
				{
					"input":72,
					"interpolation":"LINEAR",
					"output":73
				}
			]
		},
		{
			"channels":[
				{
					"sampler":0,
					"target":{
						"node":2,
						"path":"weights"
					}
				}
			],
			"name":"Pulse",
			"samplers":[
				{
					"input":74,
					"interpolation":"LINEAR",
					"output":75
				}
			]
		},
		{
			"channels":[
				{
					"sampler":0,
					"target":{
						"node":2,
						"path":"weights"
					}
				}
			],
			"name":"TheWave",
			"samplers":[
				{
					"input":76,
					"interpolation":"LINEAR",
					"output":77
				}
			]
		}
	],
	"materials":[
		{
			"name":"No Name",
			"pbrMetallicRoughness":{
				"metallicFactor":0,
				"roughnessFactor":0.5
			}
		},
		{
			"name":"Material.001",
			"pbrMetallicRoughness":{
				"baseColorFactor":[
					0.6038274168968201,
					0.6038274168968201,
					0.6038274168968201,
					1
				],
				"metallicFactor":0,
				"roughnessFactor":0.5
			}
		},
		{
			"doubleSided":true,
			"name":"Base.001",
			"occlusionTexture":{
				"index":0,
				"texCoord":1
			},
			"pbrMetallicRoughness":{
				"baseColorTexture":{
					"index":1
				},
				"metallicFactor":0,
				"roughnessFactor":0.4000000059604645
			}
		},
		{
			"doubleSided":true,
			"name":"TestMaterial.001",
			"pbrMetallicRoughness":{
				"baseColorTexture":{
					"index":2
				},
				"metallicFactor":0,
				"roughnessFactor":0.5
			}
		},
		{
			"name":"red",
			"pbrMetallicRoughness":{
				"baseColorFactor":[
					1,
					0,
					0,
					1
				],
				"baseColorTexture":{
					"index":3
				},
				"metallicFactor":0
			}
		},
		{
			"name":"green",
			"pbrMetallicRoughness":{
				"baseColorFactor":[
					0,
					1,
					0,
					1
				],
				"baseColorTexture":{
					"index":4
				},
				"metallicFactor":0
			}
		}
	],
	"meshes":[
		{
			"extras":{
				"targetNames":[
					"Ship",
					"Blob"
				]
			},
			"name":"Sphere",
			"primitives":[
				{
					"attributes":{
						"POSITION":0,
						"NORMAL":1
					},
					"indices":2,
					"material":0,
					"targets":[
						{
							"POSITION":3,
							"NORMAL":4
						},
						{
							"POSITION":5,
							"NORMAL":6
						}
					]
				}
			],
			"weights":[
				0,
				0
			]
		},
		{
			"extras":{
				"targetNames":[
					"thin",
					"angle"
				]
			},
			"name":"Cube.002",
			"primitives":[
				{
					"attributes":{
						"POSITION":7,
						"NORMAL":8
					},
					"indices":9,
					"material":1,
					"targets":[
						{
							"POSITION":10,
							"NORMAL":11
						},
						{
							"POSITION":12,
							"NORMAL":13
						}
					]
				}
			],
			"weights":[
				0,
				0.0050643919967114925
			]
		},
		{
			"extras":{
				"targetNames":[
					"Key 1",
					"Key 2",
					"Key 3",
					"Key 4",
					"Key 5",
					"Key 6",
					"Key 7",
					"Key 8"
				]
			},
			"name":"Cube.003",
			"primitives":[
				{
					"attributes":{
						"POSITION":14,
						"NORMAL":15,
						"TEXCOORD_0":16,
						"TEXCOORD_1":17
					},
					"indices":18,
					"material":2,
					"targets":[
						{
							"POSITION":19,
							"NORMAL":20
						},
						{
							"POSITION":21,
							"NORMAL":22
						},
						{
							"POSITION":23,
							"NORMAL":24
						},
						{
							"POSITION":25,
							"NORMAL":26
						},
						{
							"POSITION":27,
							"NORMAL":28
						},
						{
							"POSITION":29,
							"NORMAL":30
						},
						{
							"POSITION":31,
							"NORMAL":32
						},
						{
							"POSITION":33,
							"NORMAL":34
						}
					]
				},
				{
					"attributes":{
						"POSITION":35,
						"NORMAL":36,
						"TEXCOORD_0":37,
						"TEXCOORD_1":38
					},
					"indices":39,
					"material":3,
					"targets":[
						{
							"POSITION":40,
							"NORMAL":41
						},
						{
							"POSITION":42,
							"NORMAL":43
						},
						{
							"POSITION":44,
							"NORMAL":45
						},
						{
							"POSITION":46,
							"NORMAL":47
						},
						{
							"POSITION":48,
							"NORMAL":49
						},
						{
							"POSITION":50,
							"NORMAL":51
						},
						{
							"POSITION":52,
							"NORMAL":53
						},
						{
							"POSITION":54,
							"NORMAL":55
						}
					]
				}
			],
			"weights":[
				0,
				0,
				0,
				0,
				0,
				0,
				0,
				0.0031852126121520996
			]
		},
		{
			"extras":{
				"targetNames":[
					"target_0"
				]
			},
			"name":"mesh",
			"primitives":[
				{
					"attributes":{
						"POSITION":56,
						"NORMAL":57,
						"TEXCOORD_0":58
					},
					"indices":59,
					"material":4,
					"targets":[
						{
							"POSITION":60,
							"NORMAL":61
						}
					]
				},
				{
					"attributes":{
						"POSITION":62,
						"NORMAL":63,
						"TEXCOORD_0":64
					},
					"indices":65,
					"material":5,
					"targets":[
						{
							"POSITION":66,
							"NORMAL":67
						}
					]
				}
			],
			"weights":[
				0.5
			]
		}
	],
	"textures":[
		{
			"sampler":0,
			"source":0
		},
		{
			"sampler":0,
			"source":1
		},
		{
			"sampler":0,
			"source":2
		},
		{
			"sampler":0,
			"source":3
		},
		{
			"sampler":0,
			"source":3
		}
	],
	"images":[
		{
			"bufferView":19,
			"mimeType":"image/png",
			"name":"Base_AO"
		},
		{
			"bufferView":20,
			"mimeType":"image/png",
			"name":"TinyGrid"
		},
		{
			"bufferView":42,
			"mimeType":"image/png",
			"name":"ColorSwatches"
		},
		{
			"bufferView":63,
			"mimeType":"image/png",
			"name":"uv_texture"
		}
	],
	"accessors":[
		{
			"bufferView":0,
			"componentType":5126,
			"count":2789,
			"max":[
				0.009999997913837433,
				0.00999999139457941,
				0.009999999776482582
			],
			"min":[
				-0.010000002570450306,
				-0.01000000350177288,
				-0.009999999776482582
			],
			"type":"VEC3"
		},
		{
			"bufferView":1,
			"componentType":5126,
			"count":2789,
			"type":"VEC3"
		},
		{
			"bufferView":2,
			"componentType":5123,
			"count":2880,
			"type":"SCALAR"
		},
		{
			"bufferView":3,
			"componentType":5126,
			"count":2789,
			"max":[
				0.03132651746273041,
				0.022624697536230087,
				0.008465131744742393
			],
			"min":[
				-0.03132651373744011,
				-0.022857652977108955,
				0
			],
			"type":"VEC3"
		},
		{
			"bufferView":4,
			"componentType":5126,
			"count":2789,
			"type":"VEC3"
		},
		{
			"bufferView":5,
			"componentType":5126,
			"count":2789,
			"max":[
				0.00878109224140644,
				0,
				0
			],
			"min":[
				-0.008781091310083866,
				-0.0007655842928215861,
				0
			],
			"type":"VEC3"
		},
		{
			"bufferView":6,
			"componentType":5126,
			"count":2789,
			"type":"VEC3"
		},
		{
			"bufferView":7,
			"componentType":5126,
			"count":26,
			"max":[
				0.01000000350177288,
				0.01000000350177288,
				0.009999999776482582
			],
			"min":[
				-0.010000004433095455,
				-0.01000000536441803,
				-0.009999999776482582
			],
			"type":"VEC3"
		},
		{
			"bufferView":8,
			"componentType":5126,
			"count":26,
			"type":"VEC3"
		},
		{
			"bufferView":9,
			"componentType":5123,
			"count":36,
			"type":"SCALAR"
		},
		{
			"bufferView":10,
			"componentType":5126,
			"count":26,
			"max":[
				0,
				0.018932530656456947,
				0
			],
			"min":[
				0,
				0,
				0
			],
			"type":"VEC3"
		},
		{
			"bufferView":11,
			"componentType":5126,
			"count":26,
			"type":"VEC3"
		},
		{
			"bufferView":12,
			"componentType":5126,
			"count":26,
			"max":[
				0,
				0.019890835508704185,
				0
			],
			"min":[
				0,
				0,
				0
			],
			"type":"VEC3"
		},
		{
			"bufferView":13,
			"componentType":5126,
			"count":26,
			"type":"VEC3"
		},
		{
			"bufferView":14,
			"componentType":5126,
			"count":24,
			"max":[
				2,
				0,
				0.5
			],
			"min":[
				-2,
				-0.10000002384185791,
				-0.5
			],
			"type":"VEC3"
		},
		{
			"bufferView":15,
			"componentType":5126,
			"count":24,
			"type":"VEC3"
		},
		{
			"bufferView":16,
			"componentType":5126,
			"count":24,
			"type":"VEC2"
		},
		{
			"bufferView":17,
			"componentType":5126,
			"count":24,
			"type":"VEC2"
		},
		{
			"bufferView":18,
			"componentType":5123,
			"count":36,
			"type":"SCALAR"
		},
		{
			"bufferView":21,
			"componentType":5126,
			"count":24,
			"max":[
				0,
				0,
				0
			],
			"min":[
				0,
				0,
				0
			],
			"type":"VEC3"
		},
		{
			"bufferView":22,
			"componentType":5126,
			"count":24,
			"type":"VEC3"
		},
		{
			"bufferView":23,
			"componentType":5126,
			"count":24,
			"max":[
				0,
				0,
				0
			],
			"min":[
				0,
				0,
				0
			],
			"type":"VEC3"
		},
		{
			"bufferView":24,
			"componentType":5126,
			"count":24,
			"type":"VEC3"
		},
		{
			"bufferView":25,
			"componentType":5126,
			"count":24,
			"max":[
				0,
				0,
				0
			],
			"min":[
				0,
				0,
				0
			],
			"type":"VEC3"
		},
		{
			"bufferView":26,
			"componentType":5126,
			"count":24,
			"type":"VEC3"
		},
		{
			"bufferView":27,
			"componentType":5126,
			"count":24,
			"max":[
				0,
				0,
				0
			],
			"min":[
				0,
				0,
				0
			],
			"type":"VEC3"
		},
		{
			"bufferView":28,
			"componentType":5126,
			"count":24,
			"type":"VEC3"
		},
		{
			"bufferView":29,
			"componentType":5126,
			"count":24,
			"max":[
				0,
				0,
				0
			],
			"min":[
				0,
				0,
				0
			],
			"type":"VEC3"
		},
		{
			"bufferView":30,
			"componentType":5126,
			"count":24,
			"type":"VEC3"
		},
		{
			"bufferView":31,
			"componentType":5126,
			"count":24,
			"max":[
				0,
				0,
				0
			],
			"min":[
				0,
				0,
				0
			],
			"type":"VEC3"
		},
		{
			"bufferView":32,
			"componentType":5126,
			"count":24,
			"type":"VEC3"
		},
		{
			"bufferView":33,
			"componentType":5126,
			"count":24,
			"max":[
				0,
				0,
				0
			],
			"min":[
				0,
				0,
				0
			],
			"type":"VEC3"
		},
		{
			"bufferView":34,
			"componentType":5126,
			"count":24,
			"type":"VEC3"
		},
		{
			"bufferView":35,
			"componentType":5126,
			"count":24,
			"max":[
				0,
				0,
				0
			],
			"min":[
				0,
				0,
				0
			],
			"type":"VEC3"
		},
		{
			"bufferView":36,
			"componentType":5126,
			"count":24,
			"type":"VEC3"
		},
		{
			"bufferView":37,
			"componentType":5126,
			"count":1504,
			"max":[
				1.875,
				0.5,
				0.25
			],
			"min":[
				-1.875,
				0,
				-0.25
			],
			"type":"VEC3"
		},
		{
			"bufferView":38,
			"componentType":5126,
			"count":1504,
			"type":"VEC3"
		},
		{
			"bufferView":39,
			"componentType":5126,
			"count":1504,
			"type":"VEC2"
		},
		{
			"bufferView":40,
			"componentType":5126,
			"count":1504,
			"type":"VEC2"
		},
		{
			"bufferView":41,
			"componentType":5123,
			"count":7200,
			"type":"SCALAR"
		},
		{
			"bufferView":43,
			"componentType":5126,
			"count":1504,
			"max":[
				0.04999995231628418,
				1,
				0
			],
			"min":[
				-0.04999995231628418,
				0,
				0
			],
			"type":"VEC3"
		},
		{
			"bufferView":44,
			"componentType":5126,
			"count":1504,
			"type":"VEC3"
		},
		{
			"bufferView":45,
			"componentType":5126,
			"count":1504,
			"max":[
				0.04999995231628418,
				1,
				0
			],
			"min":[
				-0.04999995231628418,
				0,
				0
			],
			"type":"VEC3"
		},
		{
			"bufferView":46,
			"componentType":5126,
			"count":1504,
			"type":"VEC3"
		},
		{
			"bufferView":47,
			"componentType":5126,
			"count":1504,
			"max":[
				0.050000011920928955,
				1,
				0
			],
			"min":[
				-0.050000011920928955,
				0,
				0
			],
			"type":"VEC3"
		},
		{
			"bufferView":48,
			"componentType":5126,
			"count":1504,
			"type":"VEC3"
		},
		{
			"bufferView":49,
			"componentType":5126,
			"count":1504,
			"max":[
				0.050000011920928955,
				1,
				0
			],
			"min":[
				-0.04999999701976776,
				0,
				0
			],
			"type":"VEC3"
		},
		{
			"bufferView":50,
			"componentType":5126,
			"count":1504,
			"type":"VEC3"
		},
		{
			"bufferView":51,
			"componentType":5126,
			"count":1504,
			"max":[
				0.04999999701976776,
				1,
				0
			],
			"min":[
				-0.050000011920928955,
				0,
				0
			],
			"type":"VEC3"
		},
		{
			"bufferView":52,
			"componentType":5126,
			"count":1504,
			"type":"VEC3"
		},
		{
			"bufferView":53,
			"componentType":5126,
			"count":1504,
			"max":[
				0.050000011920928955,
				1,
				0
			],
			"min":[
				-0.050000011920928955,
				0,
				0
			],
			"type":"VEC3"
		},
		{
			"bufferView":54,
			"componentType":5126,
			"count":1504,
			"type":"VEC3"
		},
		{
			"bufferView":55,
			"componentType":5126,
			"count":1504,
			"max":[
				0.04999995231628418,
				1,
				0
			],
			"min":[
				-0.04999995231628418,
				0,
				0
			],
			"type":"VEC3"
		},
		{
			"bufferView":56,
			"componentType":5126,
			"count":1504,
			"type":"VEC3"
		},
		{
			"bufferView":57,
			"componentType":5126,
			"count":1504,
			"max":[
				0.04999995231628418,
				1,
				0
			],
			"min":[
				-0.04999995231628418,
				0,
				0
			],
			"type":"VEC3"
		},
		{
			"bufferView":58,
			"componentType":5126,
			"count":1504,
			"type":"VEC3"
		},
		{
			"bufferView":59,
			"componentType":5126,
			"count":42,
			"max":[
				0.5,
				0,
				0.5
			],
			"min":[
				-0.5,
				0,
				-0.5
			],
			"type":"VEC3"
		},
		{
			"bufferView":60,
			"componentType":5126,
			"count":42,
			"type":"VEC3"
		},
		{
			"bufferView":61,
			"componentType":5126,
			"count":42,
			"type":"VEC2"
		},
		{
			"bufferView":62,
			"componentType":5123,
			"count":72,
			"type":"SCALAR"
		},
		{
			"bufferView":64,
			"componentType":5126,
			"count":42,
			"max":[
				0,
				0.20000000298023224,
				0
			],
			"min":[
				0,
				0,
				0
			],
			"type":"VEC3"
		},
		{
			"bufferView":65,
			"componentType":5126,
			"count":42,
			"type":"VEC3"
		},
		{
			"bufferView":66,
			"componentType":5126,
			"count":14,
			"max":[
				0.5,
				0,
				0
			],
			"min":[
				0,
				0,
				-0.5
			],
			"type":"VEC3"
		},
		{
			"bufferView":67,
			"componentType":5126,
			"count":14,
			"type":"VEC3"
		},
		{
			"bufferView":68,
			"componentType":5126,
			"count":14,
			"type":"VEC2"
		},
		{
			"bufferView":69,
			"componentType":5123,
			"count":24,
			"type":"SCALAR"
		},
		{
			"bufferView":70,
			"componentType":5126,
			"count":14,
			"max":[
				0,
				0.20000000298023224,
				0
			],
			"min":[
				0,
				0,
				0
			],
			"type":"VEC3"
		},
		{
			"bufferView":71,
			"componentType":5126,
			"count":14,
			"type":"VEC3"
		},
		{
			"bufferView":72,
			"componentType":5126,
			"count":173,
			"max":[
				7.166666666666667
			],
			"min":[
				0
			],
			"type":"SCALAR"
		},
		{
			"bufferView":73,
			"componentType":5126,
			"count":346,
			"type":"SCALAR"
		},
		{
			"bufferView":74,
			"componentType":5126,
			"count":101,
			"max":[
				4.166666666666667
			],
			"min":[
				0
			],
			"type":"SCALAR"
		},
		{
			"bufferView":75,
			"componentType":5126,
			"count":202,
			"type":"SCALAR"
		},
		{
			"bufferView":76,
			"componentType":5126,
			"count":225,
			"max":[
				9.333333333333334
			],
			"min":[
				0
			],
			"type":"SCALAR"
		},
		{
			"bufferView":77,
			"componentType":5126,
			"count":1800,
			"type":"SCALAR"
		},
		{
			"bufferView":78,
			"componentType":5126,
			"count":153,
			"max":[
				6.333333333333333
			],
			"min":[
				0
			],
			"type":"SCALAR"
		},
		{
			"bufferView":79,
			"componentType":5126,
			"count":1224,
			"type":"SCALAR"
		},
		{
			"bufferView":80,
			"componentType":5126,
			"count":48,
			"max":[
				1.9583333333333333
			],
			"min":[
				0
			],
			"type":"SCALAR"
		},
		{
			"bufferView":81,
			"componentType":5126,
			"count":384,
			"type":"SCALAR"
		}
	],
	"bufferViews":[
		{
			"buffer":0,
			"byteLength":33468,
			"byteOffset":0,
			"target":34962
		},
		{
			"buffer":0,
			"byteLength":33468,
			"byteOffset":33468,
			"target":34962
		},
		{
			"buffer":0,
			"byteLength":5760,
			"byteOffset":66936,
			"target":34963
		},
		{
			"buffer":0,
			"byteLength":33468,
			"byteOffset":72696,
			"target":34962
		},
		{
			"buffer":0,
			"byteLength":33468,
			"byteOffset":106164,
			"target":34962
		},
		{
			"buffer":0,
			"byteLength":33468,
			"byteOffset":139632,
			"target":34962
		},
		{
			"buffer":0,
			"byteLength":33468,
			"byteOffset":173100,
			"target":34962
		},
		{
			"buffer":0,
			"byteLength":312,
			"byteOffset":206568,
			"target":34962
		},
		{
			"buffer":0,
			"byteLength":312,
			"byteOffset":206880,
			"target":34962
		},
		{
			"buffer":0,
			"byteLength":72,
			"byteOffset":207192,
			"target":34963
		},
		{
			"buffer":0,
			"byteLength":312,
			"byteOffset":207264,
			"target":34962
		},
		{
			"buffer":0,
			"byteLength":312,
			"byteOffset":207576,
			"target":34962
		},
		{
			"buffer":0,
			"byteLength":312,
			"byteOffset":207888,
			"target":34962
		},
		{
			"buffer":0,
			"byteLength":312,
			"byteOffset":208200,
			"target":34962
		},
		{
			"buffer":0,
			"byteLength":288,
			"byteOffset":208512,
			"target":34962
		},
		{
			"buffer":0,
			"byteLength":288,
			"byteOffset":208800,
			"target":34962
		},
		{
			"buffer":0,
			"byteLength":192,
			"byteOffset":209088,
			"target":34962
		},
		{
			"buffer":0,
			"byteLength":192,
			"byteOffset":209280,
			"target":34962
		},
		{
			"buffer":0,
			"byteLength":72,
			"byteOffset":209472,
			"target":34963
		},
		{
			"buffer":0,
			"byteLength":1923,
			"byteOffset":209544
		},
		{
			"buffer":0,
			"byteLength":186,
			"byteOffset":211468
		},
		{
			"buffer":0,
			"byteLength":288,
			"byteOffset":211656,
			"target":34962
		},
		{
			"buffer":0,
			"byteLength":288,
			"byteOffset":211944,
			"target":34962
		},
		{
			"buffer":0,
			"byteLength":288,
			"byteOffset":212232,
			"target":34962
		},
		{
			"buffer":0,
			"byteLength":288,
			"byteOffset":212520,
			"target":34962
		},
		{
			"buffer":0,
			"byteLength":288,
			"byteOffset":212808,
			"target":34962
		},
		{
			"buffer":0,
			"byteLength":288,
			"byteOffset":213096,
			"target":34962
		},
		{
			"buffer":0,
			"byteLength":288,
			"byteOffset":213384,
			"target":34962
		},
		{
			"buffer":0,
			"byteLength":288,
			"byteOffset":213672,
			"target":34962
		},
		{
			"buffer":0,
			"byteLength":288,
			"byteOffset":213960,
			"target":34962
		},
		{
			"buffer":0,
			"byteLength":288,
			"byteOffset":214248,
			"target":34962
		},
		{
			"buffer":0,
			"byteLength":288,
			"byteOffset":214536,
			"target":34962
		},
		{
			"buffer":0,
			"byteLength":288,
			"byteOffset":214824,
			"target":34962
		},
		{
			"buffer":0,
			"byteLength":288,
			"byteOffset":215112,
			"target":34962
		},
		{
			"buffer":0,
			"byteLength":288,
			"byteOffset":215400,
			"target":34962
		},
		{
			"buffer":0,
			"byteLength":288,
			"byteOffset":215688,
			"target":34962
		},
		{
			"buffer":0,
			"byteLength":288,
			"byteOffset":215976,
			"target":34962
		},
		{
			"buffer":0,
			"byteLength":18048,
			"byteOffset":216264,
			"target":34962
		},
		{
			"buffer":0,
			"byteLength":18048,
			"byteOffset":234312,
			"target":34962
		},
		{
			"buffer":0,
			"byteLength":12032,
			"byteOffset":252360,
			"target":34962
		},
		{
			"buffer":0,
			"byteLength":12032,
			"byteOffset":264392,
			"target":34962
		},
		{
			"buffer":0,
			"byteLength":14400,
			"byteOffset":276424,
			"target":34963
		},
		{
			"buffer":0,
			"byteLength":208,
			"byteOffset":290824
		},
		{
			"buffer":0,
			"byteLength":18048,
			"byteOffset":291032,
			"target":34962
		},
		{
			"buffer":0,
			"byteLength":18048,
			"byteOffset":309080,
			"target":34962
		},
		{
			"buffer":0,
			"byteLength":18048,
			"byteOffset":327128,
			"target":34962
		},
		{
			"buffer":0,
			"byteLength":18048,
			"byteOffset":345176,
			"target":34962
		},
		{
			"buffer":0,
			"byteLength":18048,
			"byteOffset":363224,
			"target":34962
		},
		{
			"buffer":0,
			"byteLength":18048,
			"byteOffset":381272,
			"target":34962
		},
		{
			"buffer":0,
			"byteLength":18048,
			"byteOffset":399320,
			"target":34962
		},
		{
			"buffer":0,
			"byteLength":18048,
			"byteOffset":417368,
			"target":34962
		},
		{
			"buffer":0,
			"byteLength":18048,
			"byteOffset":435416,
			"target":34962
		},
		{
			"buffer":0,
			"byteLength":18048,
			"byteOffset":453464,
			"target":34962
		},
		{
			"buffer":0,
			"byteLength":18048,
			"byteOffset":471512,
			"target":34962
		},
		{
			"buffer":0,
			"byteLength":18048,
			"byteOffset":489560,
			"target":34962
		},
		{
			"buffer":0,
			"byteLength":18048,
			"byteOffset":507608,
			"target":34962
		},
		{
			"buffer":0,
			"byteLength":18048,
			"byteOffset":525656,
			"target":34962
		},
		{
			"buffer":0,
			"byteLength":18048,
			"byteOffset":543704,
			"target":34962
		},
		{
			"buffer":0,
			"byteLength":18048,
			"byteOffset":561752,
			"target":34962
		},
		{
			"buffer":0,
			"byteLength":504,
			"byteOffset":579800,
			"target":34962
		},
		{
			"buffer":0,
			"byteLength":504,
			"byteOffset":580304,
			"target":34962
		},
		{
			"buffer":0,
			"byteLength":336,
			"byteOffset":580808,
			"target":34962
		},
		{
			"buffer":0,
			"byteLength":144,
			"byteOffset":581144,
			"target":34963
		},
		{
			"buffer":0,
			"byteLength":5449,
			"byteOffset":581288
		},
		{
			"buffer":0,
			"byteLength":504,
			"byteOffset":586740,
			"target":34962
		},
		{
			"buffer":0,
			"byteLength":504,
			"byteOffset":587244,
			"target":34962
		},
		{
			"buffer":0,
			"byteLength":168,
			"byteOffset":587748,
			"target":34962
		},
		{
			"buffer":0,
			"byteLength":168,
			"byteOffset":587916,
			"target":34962
		},
		{
			"buffer":0,
			"byteLength":112,
			"byteOffset":588084,
			"target":34962
		},
		{
			"buffer":0,
			"byteLength":48,
			"byteOffset":588196,
			"target":34963
		},
		{
			"buffer":0,
			"byteLength":168,
			"byteOffset":588244,
			"target":34962
		},
		{
			"buffer":0,
			"byteLength":168,
			"byteOffset":588412,
			"target":34962
		},
		{
			"buffer":0,
			"byteLength":692,
			"byteOffset":588580
		},
		{
			"buffer":0,
			"byteLength":1384,
			"byteOffset":589272
		},
		{
			"buffer":0,
			"byteLength":404,
			"byteOffset":590656
		},
		{
			"buffer":0,
			"byteLength":808,
			"byteOffset":591060
		},
		{
			"buffer":0,
			"byteLength":900,
			"byteOffset":591868
		},
		{
			"buffer":0,
			"byteLength":7200,
			"byteOffset":592768
		},
		{
			"buffer":0,
			"byteLength":612,
			"byteOffset":599968
		},
		{
			"buffer":0,
			"byteLength":4896,
			"byteOffset":600580
		},
		{
			"buffer":0,
			"byteLength":192,
			"byteOffset":605476
		},
		{
			"buffer":0,
			"byteLength":1536,
			"byteOffset":605668
		}
	],
	"samplers":[
		{
			"magFilter":9729,
			"minFilter":9987
		}
	],
	"buffers":[
		{
			"byteLength":607204,
			"uri":"data:application/octet-stream;base64,"
		}
	]
}
