<svg viewBox="-0.04 -0.17926434 1.08 1.3585287" width="6em" xmlns="http://www.w3.org/2000/svg">
<title>BackInOut</title>
<path d="M0,0 L0,1 M1,0 L1,1 M0,0 m0.1,0 l0.1,0 m0.1,0 l0.1,0 m0.1,0 l0.1,0 m0.1,0 l0.1,0 m0.1,0 l0.1,0 M0,1 m0.1,0 l0.1,0 m0.1,0 l0.1,0 m0.1,0 l0.1,0 m0.1,0 l0.1,0 m0.1,0 l0.1,0" fill="none" stroke="var(--main-color)" stroke-width="0.02"/>
<polyline fill="none" points="0 1 0.01010101 1.000641 0.02020202 1.0024943 0.030303031 1.0054554 0.04040404 1.0094196 0.05050505 1.0142825 0.060606062 1.0199395 0.07070707 1.0262861 0.08080808 1.0332178 0.09090909 1.04063 0.1010101 1.048418 0.11111111 1.0564775 0.121212125 1.064704 0.13131313 1.0729926 0.14141414 1.0812391 0.15151516 1.0893388 0.16161616 1.0971872 0.17171717 1.1046797 0.18181819 1.1117119 0.1919192 1.1181791 0.2020202 1.1239768 0.21212122 1.1290005 0.22222222 1.1331457 0.23232323 1.1363077 0.24242425 1.1383821 0.25252524 1.1392643 0.26262626 1.1388497 0.27272728 1.1370339 0.28282827 1.1337123 0.2929293 1.1287804 0.3030303 1.1221334 0.3131313 1.113667 0.32323232 1.1032767 0.33333334 1.0908577 0.34343433 1.0763059 0.35353535 1.0595162 0.36363637 1.0403844 0.37373737 1.018806 0.3838384 0.99467623 0.3939394 0.96789074 0.4040404 0.9383449 0.41414142 0.9059341 0.42424244 0.8705539 0.43434343 0.83209985 0.44444445 0.79046714 0.45454547 0.7455514 0.46464646 0.6972482 0.47474748 0.6454528 0.4848485 0.5900605 0.4949495 0.53096724 0.5050505 0.46903276 0.5151515 0.40993953 0.5252525 0.3545472 0.53535354 0.30275178 0.54545456 0.25444847 0.5555556 0.20953274 0.56565654 0.16790026 0.57575756 0.12944609 0.5858586 0.094065905 0.5959596 0.061655104 0.6060606 0.0321092 0.61616164 0.0053236485 0.6262626 -0.018805861 0.6363636 -0.04038441 0.64646465 -0.05951619 0.65656567 -0.076305866 0.6666667 -0.09085786 0.67676765 -0.10327661 0.68686867 -0.11366701 0.6969697 -0.122133374 0.7070707 -0.12878036 0.7171717 -0.13371229 0.72727275 -0.13703394 0.7373737 -0.13884974 0.74747473 -0.13926435 0.75757575 -0.13838208 0.7676768 -0.13630772 0.7777778 -0.13314569 0.7878788 -0.12900054 0.7979798 -0.12397683 0.8080808 -0.11817908 0.8181818 -0.11171186 0.82828283 -0.1046797 0.83838385 -0.09718716 0.8484849 -0.08933878 0.85858583 -0.081239104 0.86868685 -0.07299256 0.8787879 -0.06470394 0.8888889 -0.056477547 0.8989899 -0.048418045 0.90909094 -0.040629864 0.9191919 -0.033217788 0.9292929 -0.026286125 0.93939394 -0.019939542 0.94949496 -0.014282465 0.959596 -0.00941956 0.969697 -0.0054552555 0.97979796 -0.0024943352 0.989899 -0.00064098835 1 0" stroke="red" stroke-width="0.04"/>
</svg>