<svg viewBox="-0.04 -0.13997176 1.08 1.1799718" width="6em" xmlns="http://www.w3.org/2000/svg">
<title>BackOut</title>
<path d="M0,0 L0,1 M1,0 L1,1 M0,0 m0.1,0 l0.1,0 m0.1,0 l0.1,0 m0.1,0 l0.1,0 m0.1,0 l0.1,0 m0.1,0 l0.1,0 M0,1 m0.1,0 l0.1,0 m0.1,0 l0.1,0 m0.1,0 l0.1,0 m0.1,0 l0.1,0 m0.1,0 l0.1,0" fill="none" stroke="var(--main-color)" stroke-width="0.02"/>
<polyline fill="none" points="0 1 0.01010101 0.9531597 0.02020202 0.90760946 0.030303031 0.86333275 0.04040404 0.82031214 0.05050505 0.77853143 0.060606062 0.7379738 0.07070707 0.69862235 0.08080808 0.66046095 0.09090909 0.6234726 0.1010101 0.5876404 0.11111111 0.55294764 0.121212125 0.5193778 0.13131313 0.4869144 0.14141414 0.45554018 0.15151516 0.42523885 0.16161616 0.39599347 0.17171717 0.36778748 0.18181819 0.3406042 0.1919192 0.31442666 0.2020202 0.28923845 0.21212122 0.26502264 0.22222222 0.241763 0.23232323 0.21944213 0.24242425 0.19804376 0.25252524 0.17755127 0.26262626 0.15794736 0.27272728 0.13921613 0.28282827 0.121340334 0.2929293 0.10430336 0.3030303 0.08808863 0.3131313 0.07267934 0.32323232 0.058058858 0.33333334 0.044210315 0.34343433 0.03111726 0.35353535 0.018762767 0.36363637 0.007130146 0.37373737 -0.0037970543 0.3838384 -0.01403594 0.3939394 -0.023602843 0.4040404 -0.03251469 0.41414142 -0.040788174 0.42424244 -0.04843998 0.43434343 -0.05548668 0.44444445 -0.0619452 0.45454547 -0.06783199 0.46464646 -0.073163986 0.47474748 -0.07795787 0.4848485 -0.08223021 0.4949495 -0.08599782 0.5050505 -0.08927727 0.5151515 -0.09208548 0.5252525 -0.09443903 0.53535354 -0.096354604 0.54545456 -0.09784901 0.5555556 -0.09893882 0.56565654 -0.099640846 0.57575756 -0.09997177 0.5858586 -0.09994817 0.5959596 -0.09958696 0.6060606 -0.09890485 0.61616164 -0.09791827 0.6262626 -0.09664416 0.6363636 -0.09509909 0.64646465 -0.093299985 0.65656567 -0.091263294 0.6666667 -0.08900595 0.67676765 -0.08654451 0.68686867 -0.08389568 0.6969697 -0.081076145 0.7070707 -0.07810271 0.7171717 -0.07499218 0.72727275 -0.07176089 0.7373737 -0.068425894 0.74747473 -0.06500375 0.75757575 -0.06151128 0.7676768 -0.05796492 0.7777778 -0.05438161 0.7878788 -0.05077815 0.7979798 -0.047170997 0.8080808 -0.043576956 0.8181818 -0.040012717 0.82828283 -0.03649497 0.83838385 -0.033040524 0.8484849 -0.029665947 0.85858583 -0.02638805 0.86868685 -0.02322352 0.8787879 -0.020189047 0.8888889 -0.017301321 0.8989899 -0.014577031 0.90909094 -0.0120328665 0.9191919 -0.009685636 0.9292929 -0.0075520277 0.93939394 -0.005648613 0.94949496 -0.003992319 0.959596 -0.002599597 0.969697 -0.0014873743 0.97979796 -0.000672102 0.989899 -0.00017082691 1 0" stroke="red" stroke-width="0.04"/>
</svg>