<svg viewBox="-0.04 -0.04 1.08 1.08" width="6em" xmlns="http://www.w3.org/2000/svg">
<title>BounceInOut</title>
<path d="M0,0 L0,1 M1,0 L1,1 M0,0 m0.1,0 l0.1,0 m0.1,0 l0.1,0 m0.1,0 l0.1,0 m0.1,0 l0.1,0 m0.1,0 l0.1,0 M0,1 m0.1,0 l0.1,0 m0.1,0 l0.1,0 m0.1,0 l0.1,0 m0.1,0 l0.1,0 m0.1,0 l0.1,0" fill="none" stroke="var(--main-color)" stroke-width="0.02"/>
<polyline fill="none" points="0 1 0.01010101 0.9912944 0.02020202 0.9869971 0.030303031 0.98710775 0.04040404 0.9916253 0.05050505 0.99895287 0.060606062 0.98060894 0.07070707 0.96718884 0.08080808 0.958694 0.09090909 0.9551244 0.1010101 0.95647836 0.11111111 0.9627571 0.121212125 0.97396064 0.13131313 0.9900892 0.14141414 0.98379636 0.15151516 0.95416665 0.16161616 0.928241 0.17171717 0.9060185 0.18181819 0.88750005 0.1919192 0.8726853 0.2020202 0.8615743 0.21212122 0.85416675 0.22222222 0.85046315 0.23232323 0.85046315 0.24242425 0.85416687 0.25252524 0.8615742 0.26262626 0.8726853 0.27272728 0.8875003 0.28282827 0.9060185 0.2929293 0.9282408 0.3030303 0.9541669 0.3131313 0.98379636 0.32323232 0.97260803 0.33333334 0.92013884 0.34343433 0.8707562 0.35353535 0.8244599 0.36363637 0.78124994 0.37373737 0.7411266 0.3838384 0.7040895 0.3939394 0.67013884 0.4040404 0.6392747 0.41414142 0.6114969 0.42424244 0.5868055 0.43434343 0.5652006 0.44444445 0.5466821 0.45454547 0.53125 0.46464646 0.5189043 0.47474748 0.50964504 0.4848485 0.5034722 0.4949495 0.50038576 0.5050505 0.49961418 0.5151515 0.4965278 0.5252525 0.49035496 0.53535354 0.48109567 0.54545456 0.46875 0.5555556 0.45331788 0.56565654 0.43479943 0.57575756 0.41319448 0.5858586 0.38850307 0.5959596 0.36072528 0.6060606 0.32986104 0.61616164 0.29591036 0.6262626 0.25887352 0.6363636 0.21875006 0.64646465 0.17554009 0.65656567 0.12924379 0.6666667 0.079861045 0.67676765 0.027392149 0.68686867 0.016203642 0.6969697 0.04583311 0.7070707 0.071759224 0.7171717 0.093981504 0.72727275 0.11250007 0.7373737 0.12731469 0.74747473 0.13842583 0.75757575 0.14583313 0.7676768 0.14953685 0.7777778 0.14953685 0.7878788 0.14583325 0.7979798 0.13842583 0.8080808 0.12731469 0.8181818 0.11249995 0.82828283 0.093981504 0.83838385 0.071758986 0.8484849 0.04583311 0.85858583 0.016203642 0.86868685 0.009910822 0.8787879 0.026039362 0.8888889 0.03724289 0.8989899 0.043521643 0.90909094 0.0448761 0.9191919 0.041305542 0.9292929 0.032811165 0.93939394 0.01939106 0.94949496 0.0010471344 0.959596 0.008375168 0.969697 0.012892723 0.97979796 0.013002396 0.989899 0.008705616 1 0" stroke="red" stroke-width="0.04"/>
</svg>