<svg viewBox="-0.04 -0.04 1.08 1.0800003" width="6em" xmlns="http://www.w3.org/2000/svg">
<title>BounceIn</title>
<path d="M0,0 L0,1 M1,0 L1,1 M0,0 m0.1,0 l0.1,0 m0.1,0 l0.1,0 m0.1,0 l0.1,0 m0.1,0 l0.1,0 m0.1,0 l0.1,0 M0,1 m0.1,0 l0.1,0 m0.1,0 l0.1,0 m0.1,0 l0.1,0 m0.1,0 l0.1,0 m0.1,0 l0.1,0" fill="none" stroke="var(--main-color)" stroke-width="0.02"/>
<polyline fill="none" points="0 1 0.01010101 0.99019337 0.02020202 0.98258877 0.030303031 0.977191 0.04040404 0.97399426 0.05050505 0.9730034 0.060606062 0.9742155 0.07070707 0.9776306 0.08080808 0.9832506 0.09090909 0.99107456 0.1010101 0.99790573 0.11111111 0.97832966 0.121212125 0.9612179 0.13131313 0.94656754 0.14141414 0.9343777 0.15151516 0.92465305 0.16161616 0.91738796 0.17171717 0.9125881 0.18181819 0.91024876 0.1919192 0.9103708 0.2020202 0.9129567 0.21212122 0.918005 0.22222222 0.9255142 0.23232323 0.9354873 0.24242425 0.9479213 0.25252524 0.9628186 0.26262626 0.98017836 0.27272728 0.99999905 0.28282827 0.9675927 0.2929293 0.93703747 0.3030303 0.9083333 0.3131313 0.88148165 0.32323232 0.856482 0.33333334 0.8333335 0.34343433 0.812037 0.35353535 0.792593 0.36363637 0.7750001 0.37373737 0.7592592 0.3838384 0.7453706 0.3939394 0.7333336 0.4040404 0.7231486 0.41414142 0.71481514 0.42424244 0.7083335 0.43434343 0.7037041 0.44444445 0.7009263 0.45454547 0.7000005 0.46464646 0.7009263 0.47474748 0.7037039 0.4848485 0.70833373 0.4949495 0.71481514 0.5050505 0.72314835 0.5151515 0.73333335 0.5252525 0.7453706 0.53535354 0.75925946 0.54545456 0.7750006 0.5555556 0.79259276 0.56565654 0.812037 0.57575756 0.83333373 0.5858586 0.85648155 0.5959596 0.88148165 0.6060606 0.9083338 0.61616164 0.93703747 0.6262626 0.9675927 0.6363636 1.0000002 0.64646465 0.94521606 0.65656567 0.8919752 0.6666667 0.8402777 0.67676765 0.79012364 0.68686867 0.7415124 0.6969697 0.6944445 0.7070707 0.64891976 0.7171717 0.6049382 0.72727275 0.5624999 0.7373737 0.521605 0.74747473 0.4822532 0.75757575 0.44444448 0.7676768 0.40817904 0.7777778 0.37345672 0.7878788 0.34027767 0.7979798 0.30864203 0.8080808 0.27854943 0.8181818 0.25 0.82828283 0.22299379 0.83838385 0.1975308 0.8484849 0.17361104 0.85858583 0.15123463 0.86868685 0.13040125 0.8787879 0.111111104 0.8888889 0.09336418 0.8989899 0.07716048 0.90909094 0.06249994 0.9191919 0.049382746 0.9292929 0.037808657 0.93939394 0.027777791 0.94949496 0.01929009 0.959596 0.012345672 0.969697 0.006944418 0.97979796 0.0030864477 0.989899 0.0007715821 1 0" stroke="red" stroke-width="0.04"/>
</svg>