<svg viewBox="-0.04 -0.040000238 1.08 1.0800003" width="6em" xmlns="http://www.w3.org/2000/svg">
<title>BounceOut</title>
<path d="M0,0 L0,1 M1,0 L1,1 M0,0 m0.1,0 l0.1,0 m0.1,0 l0.1,0 m0.1,0 l0.1,0 m0.1,0 l0.1,0 m0.1,0 l0.1,0 M0,1 m0.1,0 l0.1,0 m0.1,0 l0.1,0 m0.1,0 l0.1,0 m0.1,0 l0.1,0 m0.1,0 l0.1,0" fill="none" stroke="var(--main-color)" stroke-width="0.02"/>
<polyline fill="none" points="0 1 0.01010101 0.9992284 0.02020202 0.99691355 0.030303031 0.9930556 0.04040404 0.9876543 0.05050505 0.98070985 0.060606062 0.9722222 0.07070707 0.96219134 0.08080808 0.9506173 0.09090909 0.9375 0.1010101 0.9228395 0.11111111 0.9066358 0.121212125 0.8888889 0.13131313 0.86959875 0.14141414 0.84876543 0.15151516 0.8263889 0.16161616 0.80246913 0.17171717 0.7770062 0.18181819 0.75 0.1919192 0.72145057 0.2020202 0.69135803 0.21212122 0.6597222 0.22222222 0.62654316 0.23232323 0.59182096 0.24242425 0.5555555 0.25252524 0.5177469 0.26262626 0.4783951 0.27272728 0.4375 0.28282827 0.3950618 0.2929293 0.35108024 0.3030303 0.30555552 0.3131313 0.2584877 0.32323232 0.20987654 0.33333334 0.15972215 0.34343433 0.108024776 0.35353535 0.05478394 0.36363637 -0.00000023841858 0.37373737 0.032407284 0.3838384 0.06296277 0.3939394 0.09166622 0.4040404 0.11851835 0.41414142 0.14351845 0.42424244 0.16666627 0.43434343 0.18796253 0.44444445 0.20740747 0.45454547 0.2249999 0.46464646 0.24074054 0.47474748 0.25462937 0.4848485 0.26666665 0.4949495 0.27685142 0.5050505 0.28518486 0.5151515 0.29166627 0.5252525 0.29629612 0.53535354 0.2990737 0.54545456 0.29999995 0.5555556 0.2990737 0.56565654 0.29629588 0.57575756 0.2916665 0.5858586 0.28518486 0.5959596 0.27685142 0.6060606 0.2666664 0.61616164 0.25462914 0.6262626 0.2407403 0.6363636 0.2249999 0.64646465 0.207407 0.65656567 0.18796301 0.6666667 0.16666603 0.67676765 0.14351797 0.68686867 0.11851835 0.6969697 0.0916667 0.7070707 0.06296253 0.7171717 0.032407284 0.72727275 0.0000009536743 0.7373737 0.019821644 0.74747473 0.037181854 0.75757575 0.052078724 0.7676768 0.06451273 0.7777778 0.07448578 0.7878788 0.08199549 0.7979798 0.087043285 0.8080808 0.08962917 0.8181818 0.08975124 0.82828283 0.08741188 0.83838385 0.08261204 0.8484849 0.07534695 0.85858583 0.06562233 0.86868685 0.053432465 0.8787879 0.03878212 0.8888889 0.021670341 0.8989899 0.0020942688 0.90909094 0.008925438 0.9191919 0.016749382 0.9292929 0.022369385 0.93939394 0.025784492 0.94949496 0.026996613 0.959596 0.026005745 0.969697 0.022809029 0.97979796 0.017411232 0.989899 0.009806633 1 0" stroke="red" stroke-width="0.04"/>
</svg>