<svg viewBox="-0.04 -0.04 1.08 1.08" width="6em" xmlns="http://www.w3.org/2000/svg">
<title>CircularInOut</title>
<path d="M0,0 L0,1 M1,0 L1,1 M0,0 m0.1,0 l0.1,0 m0.1,0 l0.1,0 m0.1,0 l0.1,0 m0.1,0 l0.1,0 m0.1,0 l0.1,0 M0,1 m0.1,0 l0.1,0 m0.1,0 l0.1,0 m0.1,0 l0.1,0 m0.1,0 l0.1,0 m0.1,0 l0.1,0" fill="none" stroke="var(--main-color)" stroke-width="0.02"/>
<polyline fill="none" points="0 1 0.01010101 0.99989796 0.02020202 0.9995917 0.030303031 0.9990809 0.04040404 0.9983648 0.05050505 0.9974427 0.060606062 0.99631333 0.07070707 0.99497527 0.08080808 0.99342686 0.09090909 0.9916661 0.1010101 0.98969066 0.11111111 0.98749804 0.121212125 0.9850851 0.13131313 0.9824488 0.14141414 0.9795853 0.15151516 0.9764905 0.16161616 0.9731598 0.17171717 0.96958834 0.18181819 0.9657705 0.1919192 0.96170014 0.2020202 0.9573706 0.21212122 0.9527743 0.22222222 0.9479032 0.23232323 0.9427481 0.24242425 0.9372991 0.25252524 0.9315449 0.26262626 0.9254732 0.27272728 0.91907024 0.28282827 0.9123205 0.2929293 0.9052067 0.3030303 0.89770925 0.3131313 0.8898061 0.32323232 0.881472 0.33333334 0.872678 0.34343433 0.8633908 0.35353535 0.8535714 0.36363637 0.8431743 0.37373737 0.8321451 0.3838384 0.8204186 0.3939394 0.80791515 0.4040404 0.7945359 0.41414142 0.7801551 0.42424244 0.7646098 0.43434343 0.7476808 0.44444445 0.7290614 0.45454547 0.70829886 0.46464646 0.68467176 0.47474748 0.6568911 0.4848485 0.62215537 0.4949495 0.5708872 0.5050505 0.42911297 0.5151515 0.37784463 0.5252525 0.3431089 0.53535354 0.31532824 0.54545456 0.29170108 0.5555556 0.27093852 0.56565654 0.25231922 0.57575756 0.23539019 0.5858586 0.21984488 0.5959596 0.20546412 0.6060606 0.19208479 0.61616164 0.17958134 0.6262626 0.1678549 0.6363636 0.15682572 0.64646465 0.14642859 0.65656567 0.1366092 0.6666667 0.12732196 0.67676765 0.11852807 0.68686867 0.11019391 0.6969697 0.10229075 0.7070707 0.09479332 0.7171717 0.087679505 0.72727275 0.080929756 0.7373737 0.07452679 0.74747473 0.0684551 0.75757575 0.06270093 0.7676768 0.05725187 0.7777778 0.052096784 0.7878788 0.047225654 0.7979798 0.04262942 0.8080808 0.03829986 0.8181818 0.034229517 0.82828283 0.03041166 0.83838385 0.02684021 0.8484849 0.023509502 0.85858583 0.02041471 0.86868685 0.017551184 0.8787879 0.01491487 0.8888889 0.012501955 0.8989899 0.010309339 0.90909094 0.008333921 0.9191919 0.0065732 0.9292929 0.005024731 0.93939394 0.0036866665 0.94949496 0.0025572777 0.959596 0.0016351938 0.969697 0.0009191036 0.97979796 0.00040829182 0.989899 0.00010204315 1 0" stroke="red" stroke-width="0.04"/>
</svg>