<svg viewBox="-0.04 -0.04 1.08 1.08" width="6em" xmlns="http://www.w3.org/2000/svg">
<title>CircularIn</title>
<path d="M0,0 L0,1 M1,0 L1,1 M0,0 m0.1,0 l0.1,0 m0.1,0 l0.1,0 m0.1,0 l0.1,0 m0.1,0 l0.1,0 m0.1,0 l0.1,0 M0,1 m0.1,0 l0.1,0 m0.1,0 l0.1,0 m0.1,0 l0.1,0 m0.1,0 l0.1,0 m0.1,0 l0.1,0" fill="none" stroke="var(--main-color)" stroke-width="0.02"/>
<polyline fill="none" points="0 1 0.01010101 0.999949 0.02020202 0.9997959 0.030303031 0.99954075 0.04040404 0.9991834 0.05050505 0.9987238 0.060606062 0.9981618 0.07070707 0.9974971 0.08080808 0.9967297 0.09090909 0.9958592 0.1010101 0.9948854 0.11111111 0.993808 0.121212125 0.9926266 0.13131313 0.99134094 0.14141414 0.98995054 0.15151516 0.98845494 0.16161616 0.9868537 0.17171717 0.9851463 0.18181819 0.98333216 0.1919192 0.98141074 0.2020202 0.9793814 0.21212122 0.97724336 0.22222222 0.97499603 0.23232323 0.9726386 0.24242425 0.9701703 0.25252524 0.96759033 0.26262626 0.96489763 0.27272728 0.9620914 0.28282827 0.9591706 0.2929293 0.95613414 0.3030303 0.95298094 0.3131313 0.94970983 0.32323232 0.94631964 0.33333334 0.94280905 0.34343433 0.9391767 0.35353535 0.93542117 0.36363637 0.93154097 0.37373737 0.9275346 0.3838384 0.9234003 0.3939394 0.9191364 0.4040404 0.91474116 0.41414142 0.9102126 0.42424244 0.90554863 0.43434343 0.90074736 0.44444445 0.89580643 0.45454547 0.8907235 0.46464646 0.88549626 0.47474748 0.88012207 0.4848485 0.87459815 0.4949495 0.86892176 0.5050505 0.8630898 0.5151515 0.8570991 0.5252525 0.85094637 0.53535354 0.84462804 0.54545456 0.8381404 0.5555556 0.8314794 0.56565654 0.8246409 0.57575756 0.81762046 0.5858586 0.8104133 0.5959596 0.8030144 0.6060606 0.7954185 0.61616164 0.7876197 0.6262626 0.7796122 0.6363636 0.77138925 0.64646465 0.7629439 0.65656567 0.7542689 0.6666667 0.74535596 0.67676765 0.73619664 0.68686867 0.7267816 0.6969697 0.71710056 0.7070707 0.70714283 0.7171717 0.6968965 0.72727275 0.68634856 0.7373737 0.675485 0.74747473 0.66429025 0.75757575 0.6527473 0.7676768 0.64083725 0.7777778 0.6285394 0.7878788 0.6158303 0.7979798 0.6026842 0.8080808 0.5890717 0.8181818 0.5749596 0.82828283 0.56031024 0.83838385 0.5450803 0.8484849 0.5292196 0.85858583 0.51266986 0.86868685 0.49536163 0.8787879 0.4772126 0.8888889 0.45812285 0.8989899 0.43796933 0.90909094 0.41659772 0.9191919 0.3938099 0.9292929 0.36934352 0.93939394 0.34283972 0.94949496 0.31378222 0.959596 0.2813815 0.969697 0.24431074 0.97979796 0.19998991 0.989899 0.14177448 1 0" stroke="red" stroke-width="0.04"/>
</svg>