<svg viewBox="-0.04 -0.04 1.08 1.08" width="6em" xmlns="http://www.w3.org/2000/svg">
<title>CubicInOut</title>
<path d="M0,0 L0,1 M1,0 L1,1 M0,0 m0.1,0 l0.1,0 m0.1,0 l0.1,0 m0.1,0 l0.1,0 m0.1,0 l0.1,0 m0.1,0 l0.1,0 M0,1 m0.1,0 l0.1,0 m0.1,0 l0.1,0 m0.1,0 l0.1,0 m0.1,0 l0.1,0 m0.1,0 l0.1,0" fill="none" stroke="var(--main-color)" stroke-width="0.02"/>
<polyline fill="none" points="0 1 0.01010101 0.9999959 0.02020202 0.99996704 0.030303031 0.9998887 0.04040404 0.9997362 0.05050505 0.9994847 0.060606062 0.99910957 0.07070707 0.998586 0.08080808 0.99788934 0.09090909 0.99699473 0.1010101 0.99587756 0.11111111 0.99451303 0.121212125 0.9928764 0.13131313 0.990943 0.14141414 0.98868805 0.15151516 0.9860868 0.16161616 0.9831145 0.17171717 0.97974646 0.18181819 0.97595793 0.1919192 0.97172415 0.2020202 0.96702045 0.21212122 0.9618221 0.22222222 0.9561043 0.23232323 0.9498423 0.24242425 0.9430114 0.25252524 0.93558687 0.26262626 0.927544 0.27272728 0.918858 0.28282827 0.9095042 0.2929293 0.8994578 0.3030303 0.8886941 0.3131313 0.8771884 0.32323232 0.86491585 0.33333334 0.8518518 0.34343433 0.8379716 0.35353535 0.82325035 0.36363637 0.8076634 0.37373737 0.79118603 0.3838384 0.77379346 0.3939394 0.7554609 0.4040404 0.73616385 0.41414142 0.7158773 0.42424244 0.6945766 0.43434343 0.67223716 0.44444445 0.648834 0.45454547 0.62434256 0.46464646 0.59873813 0.47474748 0.57199585 0.4848485 0.544091 0.4949495 0.51499903 0.5050505 0.4850011 0.5151515 0.455909 0.5252525 0.42800415 0.53535354 0.40126187 0.54545456 0.37565738 0.5555556 0.3511659 0.56565654 0.32776296 0.57575756 0.30542338 0.5858586 0.2841227 0.5959596 0.26383615 0.6060606 0.24453902 0.61616164 0.22620654 0.6262626 0.20881402 0.6363636 0.19233662 0.64646465 0.17674965 0.65656567 0.16202837 0.6666667 0.14814812 0.67676765 0.13508415 0.68686867 0.122811675 0.6969697 0.11130589 0.7070707 0.10054219 0.7171717 0.090495825 0.72727275 0.08114195 0.7373737 0.07245606 0.74747473 0.06441313 0.75757575 0.056988597 0.7676768 0.050157726 0.7777778 0.04389572 0.7878788 0.038177907 0.7979798 0.032979548 0.8080808 0.028275847 0.8181818 0.02404207 0.82828283 0.02025354 0.83838385 0.016885519 0.8484849 0.013913214 0.85858583 0.011312008 0.86868685 0.009056985 0.8787879 0.0071235895 0.8888889 0.005486965 0.8989899 0.004122436 0.90909094 0.0030052662 0.9191919 0.0021107197 0.9292929 0.001414001 0.93939394 0.0008904338 0.94949496 0.00051528215 0.959596 0.00026381016 0.969697 0.00011128187 0.97979796 0.00003296137 0.989899 0.0000041127205 1 0" stroke="red" stroke-width="0.04"/>
</svg>