<svg viewBox="-0.04 -0.04 1.08 1.08" width="6em" xmlns="http://www.w3.org/2000/svg">
<title>CubicOut</title>
<path d="M0,0 L0,1 M1,0 L1,1 M0,0 m0.1,0 l0.1,0 m0.1,0 l0.1,0 m0.1,0 l0.1,0 m0.1,0 l0.1,0 m0.1,0 l0.1,0 M0,1 m0.1,0 l0.1,0 m0.1,0 l0.1,0 m0.1,0 l0.1,0 m0.1,0 l0.1,0 m0.1,0 l0.1,0" fill="none" stroke="var(--main-color)" stroke-width="0.02"/>
<polyline fill="none" points="0 1 0.01010101 0.970002 0.02020202 0.94061 0.030303031 0.91181797 0.04040404 0.8836194 0.05050505 0.85600835 0.060606062 0.8289785 0.07070707 0.80252373 0.08080808 0.77663785 0.09090909 0.75131476 0.1010101 0.72654825 0.11111111 0.70233196 0.121212125 0.67865986 0.13131313 0.65552574 0.14141414 0.6329234 0.15151516 0.6108468 0.16161616 0.5892895 0.17171717 0.5682455 0.18181819 0.5477085 0.1919192 0.52767235 0.2020202 0.508131 0.21212122 0.48907804 0.22222222 0.47050756 0.23232323 0.45241314 0.24242425 0.43478864 0.25252524 0.41762805 0.26262626 0.4009248 0.27272728 0.38467324 0.28282827 0.36886668 0.2929293 0.3534993 0.3030303 0.3385647 0.3131313 0.32405674 0.32323232 0.30996943 0.33333334 0.29629624 0.34343433 0.28303134 0.35353535 0.2701683 0.36363637 0.25770092 0.37373737 0.24562329 0.3838384 0.23392892 0.3939394 0.22261178 0.4040404 0.21166569 0.41414142 0.20108438 0.42424244 0.19086176 0.43434343 0.18099165 0.44444445 0.17146778 0.45454547 0.16228396 0.46464646 0.15343416 0.47474748 0.144912 0.4848485 0.13671148 0.4949495 0.12882626 0.5050505 0.12125027 0.5151515 0.11397725 0.5252525 0.107001066 0.53535354 0.10031545 0.54545456 0.09391433 0.5555556 0.0877915 0.56565654 0.08194071 0.57575756 0.076355875 0.5858586 0.07103068 0.5959596 0.06595904 0.6060606 0.061134756 0.61616164 0.056551635 0.6262626 0.052203536 0.6363636 0.04808414 0.64646465 0.044187427 0.65656567 0.04050708 0.6666667 0.037037015 0.67676765 0.033771038 0.68686867 0.030702889 0.6969697 0.027826488 0.7070707 0.025135577 0.7171717 0.022623956 0.72727275 0.020285487 0.7373737 0.01811403 0.74747473 0.016103268 0.75757575 0.014247179 0.7676768 0.012539446 0.7777778 0.01097393 0.7878788 0.009544492 0.7979798 0.008244872 0.8080808 0.007068932 0.8181818 0.0060105324 0.82828283 0.0050634146 0.83838385 0.0042213798 0.8484849 0.0034782887 0.85858583 0.002828002 0.86868685 0.0022642612 0.8787879 0.0017808676 0.8888889 0.0013717413 0.8989899 0.0010306239 0.90909094 0.00075131655 0.9191919 0.0005276799 0.9292929 0.00035351515 0.93939394 0.00022262335 0.94949496 0.00012880564 0.959596 0.00006598234 0.969697 0.00002783537 0.97979796 0.000008225441 0.989899 0.000001013279 1 0" stroke="red" stroke-width="0.04"/>
</svg>