<svg viewBox="-0.04 -0.04 1.08 1.08" width="6em" xmlns="http://www.w3.org/2000/svg">
<title>CubicIn</title>
<path d="M0,0 L0,1 M1,0 L1,1 M0,0 m0.1,0 l0.1,0 m0.1,0 l0.1,0 m0.1,0 l0.1,0 m0.1,0 l0.1,0 m0.1,0 l0.1,0 M0,1 m0.1,0 l0.1,0 m0.1,0 l0.1,0 m0.1,0 l0.1,0 m0.1,0 l0.1,0 m0.1,0 l0.1,0" fill="none" stroke="var(--main-color)" stroke-width="0.02"/>
<polyline fill="none" points="0 1 0.01010101 0.999999 0.02020202 0.9999918 0.030303031 0.99997216 0.04040404 0.999934 0.05050505 0.9998712 0.060606062 0.9997774 0.07070707 0.9996465 0.08080808 0.9994723 0.09090909 0.9992487 0.1010101 0.9989694 0.11111111 0.99862826 0.121212125 0.99821913 0.13131313 0.99773574 0.14141414 0.997172 0.15151516 0.9965217 0.16161616 0.9957786 0.17171717 0.9949366 0.18181819 0.99398947 0.1919192 0.99293107 0.2020202 0.9917551 0.21212122 0.9904555 0.22222222 0.98902607 0.23232323 0.98746055 0.24242425 0.9857528 0.25252524 0.98389673 0.26262626 0.98188597 0.27272728 0.9797145 0.28282827 0.97737604 0.2929293 0.9748644 0.3030303 0.9721735 0.3131313 0.9692971 0.32323232 0.96622896 0.33333334 0.962963 0.34343433 0.9594929 0.35353535 0.9558126 0.36363637 0.95191586 0.37373737 0.9477965 0.3838384 0.94344836 0.3939394 0.93886524 0.4040404 0.93404096 0.41414142 0.9289693 0.42424244 0.9236441 0.43434343 0.9180593 0.44444445 0.9122085 0.45454547 0.9060856 0.46464646 0.89968455 0.47474748 0.89299893 0.4848485 0.88602275 0.4949495 0.8787497 0.5050505 0.87117374 0.5151515 0.8632885 0.5252525 0.855088 0.53535354 0.84656584 0.54545456 0.837716 0.5555556 0.8285322 0.56565654 0.81900835 0.57575756 0.80913824 0.5858586 0.7989156 0.5959596 0.7883343 0.6060606 0.7773882 0.61616164 0.766071 0.6262626 0.75437677 0.6363636 0.7422991 0.64646465 0.7298317 0.65656567 0.71696866 0.6666667 0.70370364 0.67676765 0.69003063 0.68686867 0.67594326 0.6969697 0.6614353 0.7070707 0.6465007 0.7171717 0.6311333 0.72727275 0.61532676 0.7373737 0.5990752 0.74747473 0.58237207 0.75757575 0.56521136 0.7676768 0.54758686 0.7777778 0.52949244 0.7878788 0.51092184 0.7979798 0.49186903 0.8080808 0.47232765 0.8181818 0.4522915 0.82828283 0.43175453 0.83838385 0.4107105 0.8484849 0.38915318 0.85858583 0.36707658 0.86868685 0.34447426 0.8787879 0.32134014 0.8888889 0.29766804 0.8989899 0.27345175 0.90909094 0.24868512 0.9191919 0.22336215 0.9292929 0.19747627 0.93939394 0.17102152 0.94949496 0.14399165 0.959596 0.11638057 0.969697 0.08818203 0.97979796 0.05939001 0.989899 0.029998004 1 0" stroke="red" stroke-width="0.04"/>
</svg>