<svg viewBox="-0.04 -0.15834787 1.08 1.3166958" width="6em" xmlns="http://www.w3.org/2000/svg">
<title>ElasticInOut</title>
<path d="M0,0 L0,1 M1,0 L1,1 M0,0 m0.1,0 l0.1,0 m0.1,0 l0.1,0 m0.1,0 l0.1,0 m0.1,0 l0.1,0 m0.1,0 l0.1,0 M0,1 m0.1,0 l0.1,0 m0.1,0 l0.1,0 m0.1,0 l0.1,0 m0.1,0 l0.1,0 m0.1,0 l0.1,0" fill="none" stroke="var(--main-color)" stroke-width="0.02"/>
<polyline fill="none" points="0 0.9999152 0.01010101 0.99975234 0.02020202 0.99956495 0.030303031 0.9993664 0.04040404 0.9991756 0.05050505 0.9990167 0.060606062 0.998918 0.07070707 0.9989103 0.08080808 0.99902374 0.09090909 0.9992847 0.1010101 0.9997112 0.11111111 1.0003084 0.121212125 1.0010635 0.13131313 1.0019419 0.14141414 1.0028839 0.15151516 1.0038029 0.16161616 1.0045874 0.17171717 1.0051047 0.18181819 1.0052096 0.1919192 1.0047572 0.2020202 1.0036185 0.21212122 1.001701 0.22222222 0.9989708 0.23232323 0.99547493 0.24242425 0.9913628 0.25252524 0.98690206 0.26262626 0.9824863 0.27272728 0.9786314 0.28282827 0.9759561 0.2929293 0.9751454 0.3030303 0.976894 0.3131313 0.98183054 0.32323232 0.9904251 0.33333334 1.0028844 0.34343433 1.0190431 0.35353535 1.0382628 0.36363637 1.0593514 0.37373737 1.0805187 0.3838384 1.0993878 0.3939394 1.1130737 0.4040404 1.1183479 0.41414142 1.1118927 0.42424244 1.09065 0.43434343 1.0522518 0.44444445 0.9955114 0.45454547 0.92094195 0.46464646 0.83124506 0.47474748 0.7317127 0.4848485 0.6304644 0.4949495 0.538439 0.5050505 0.46156138 0.5151515 0.36953568 0.5252525 0.26828736 0.53535354 0.16875494 0.54545456 0.07905805 0.5555556 0.0044882894 0.56565654 -0.052251697 0.57575756 -0.09064996 0.5858586 -0.1118927 0.5959596 -0.11834788 0.6060606 -0.11307371 0.61616164 -0.099387765 0.6262626 -0.08051884 0.6363636 -0.059351444 0.64646465 -0.038262963 0.65656567 -0.019043088 0.6666667 -0.0028842688 0.67676765 0.00957489 0.68686867 0.018169403 0.6969697 0.023105979 0.7070707 0.0248546 0.7171717 0.024043918 0.72727275 0.021368623 0.7373737 0.017513692 0.74747473 0.013097942 0.75757575 0.00863719 0.7676768 0.0045250654 0.7777778 0.0010291934 0.7878788 -0.0017009974 0.7979798 -0.0036184788 0.8080808 -0.004757166 0.8181818 -0.005209565 0.82828283 -0.005104661 0.83838385 -0.004587412 0.8484849 -0.0038028955 0.85858583 -0.0028839111 0.86868685 -0.0019419193 0.8787879 -0.0010634661 0.8888889 -0.00030827522 0.8989899 0.0002887845 0.90909094 0.00071531534 0.9191919 0.0009762645 0.9292929 0.0010896921 0.93939394 0.0010820031 0.94949496 0.0009832978 0.959596 0.00082439184 0.969697 0.0006335974 0.97979796 0.0004350543 0.989899 0.0002476573 1 0.00008481741" stroke="red" stroke-width="0.04"/>
</svg>