<svg viewBox="-0.04 -0.04 1.08 1.4520154" width="6em" xmlns="http://www.w3.org/2000/svg">
<title>ElasticIn</title>
<path d="M0,0 L0,1 M1,0 L1,1 M0,0 m0.1,0 l0.1,0 m0.1,0 l0.1,0 m0.1,0 l0.1,0 m0.1,0 l0.1,0 m0.1,0 l0.1,0 M0,1 m0.1,0 l0.1,0 m0.1,0 l0.1,0 m0.1,0 l0.1,0 m0.1,0 l0.1,0 m0.1,0 l0.1,0" fill="none" stroke="var(--main-color)" stroke-width="0.02"/>
<polyline fill="none" points="0 1.0004883 0.01010101 1.0003215 0.02020202 1.0001127 0.030303031 0.9998665 0.04040404 0.9995903 0.05050505 0.9992944 0.060606062 0.99899143 0.07070707 0.9986965 0.08080808 0.99842644 0.09090909 0.9981993 0.1010101 0.9980336 0.11111111 0.9979474 0.121212125 0.99795717 0.13131313 0.99807686 0.14141414 0.9983166 0.15151516 0.9986817 0.16161616 0.9991718 0.17171717 0.9997794 0.18181819 1.0004901 0.1919192 1.0012816 0.2020202 1.002124 0.21212122 1.0029804 0.22222222 1.0038071 0.23232323 1.0045561 0.24242425 1.0051758 0.25252524 1.0056139 0.26262626 1.0058199 0.27272728 1.0057479 0.28282827 1.00536 0.2929293 1.0046293 0.3030303 1.0035429 0.3131313 1.0021052 0.32323232 1.0003397 0.33333334 0.9982908 0.34343433 0.9960246 0.35353535 0.9936288 0.36363637 0.9912111 0.37373737 0.9888966 0.3838384 0.98682356 0.3939394 0.9851383 0.4040404 0.9839887 0.41414142 0.9835162 0.42424244 0.98384774 0.43434343 0.98508644 0.44444445 0.987303 0.45454547 0.99052674 0.46464646 0.9947378 0.47474748 0.99986124 0.4848485 1.0057621 0.4949495 1.0122441 0.5050505 1.0190504 0.5151515 1.0258684 0.5252525 1.0323383 0.53535354 1.0380639 0.54545456 1.0426296 0.5555556 1.0456187 0.56565654 1.0466355 0.57575756 1.0453296 0.5858586 1.0414213 0.5959596 1.0347267 0.6060606 1.0251826 0.61616164 1.0128671 0.6262626 0.99801755 0.6363636 0.9810412 0.64646465 0.9625194 0.65656567 0.9432033 0.6666667 0.9239987 0.67676765 0.905942 0.68686867 0.8901639 0.6969697 0.87784463 0.7070707 0.87015796 0.7171717 0.8682082 0.72727275 0.87296134 0.7373737 0.8851723 0.74747473 0.90531397 0.75757575 0.9335094 0.7676768 0.9694723 0.7777778 1.012461 0.7878788 1.06125 0.7979798 1.1141208 0.8080808 1.1688808 0.8181818 1.2229073 0.82828283 1.273222 0.83838385 1.316596 0.8484849 1.3496838 0.85858583 1.3691826 0.86868685 1.3720154 0.8787879 1.3555263 0.8888889 1.3176868 0.8989899 1.2572964 0.90909094 1.1741706 0.9191919 1.0693046 0.9292929 0.944999 0.93939394 0.80492735 0.94949496 0.6541569 0.959596 0.49908257 0.969697 0.34728938 0.97979796 0.2073291 0.989899 0.0884071 1 0" stroke="red" stroke-width="0.04"/>
</svg>