<svg viewBox="-0.04 -0.41201535 1.08 1.4520154" width="6em" xmlns="http://www.w3.org/2000/svg">
<title>ElasticOut</title>
<path d="M0,0 L0,1 M1,0 L1,1 M0,0 m0.1,0 l0.1,0 m0.1,0 l0.1,0 m0.1,0 l0.1,0 m0.1,0 l0.1,0 m0.1,0 l0.1,0 M0,1 m0.1,0 l0.1,0 m0.1,0 l0.1,0 m0.1,0 l0.1,0 m0.1,0 l0.1,0 m0.1,0 l0.1,0" fill="none" stroke="var(--main-color)" stroke-width="0.02"/>
<polyline fill="none" points="0 1 0.01010101 0.9115931 0.02020202 0.7926715 0.030303031 0.65271026 0.04040404 0.5009174 0.05050505 0.34584343 0.060606062 0.19507319 0.07070707 0.055001915 0.08080808 -0.069304705 0.09090909 -0.1741705 0.1010101 -0.2572962 0.11111111 -0.31768692 0.121212125 -0.35552645 0.13131313 -0.37201536 0.14141414 -0.3691826 0.15151516 -0.34968352 0.16161616 -0.3165959 0.17171717 -0.27322197 0.18181819 -0.22290742 0.1919192 -0.16888106 0.2020202 -0.11412096 0.21212122 -0.06124997 0.22222222 -0.012461066 0.23232323 0.03052771 0.24242425 0.06649059 0.25252524 0.09468591 0.26262626 0.11482775 0.27272728 0.12703872 0.28282827 0.13179177 0.2929293 0.12984204 0.3030303 0.12215537 0.3131313 0.1098361 0.32323232 0.09405804 0.33333334 0.07600123 0.34343433 0.05679673 0.35353535 0.037480593 0.36363637 0.018958926 0.37373737 0.0019825697 0.3838384 -0.012867093 0.3939394 -0.025182605 0.4040404 -0.03472674 0.41414142 -0.041421294 0.42424244 -0.04532957 0.43434343 -0.04663551 0.44444445 -0.045618653 0.45454547 -0.0426296 0.46464646 -0.038063884 0.47474748 -0.03233826 0.4848485 -0.025868416 0.4949495 -0.01905036 0.5050505 -0.012244105 0.5151515 -0.0057621 0.5252525 0.00013875961 0.53535354 0.005262196 0.54545456 0.009473264 0.5555556 0.012696981 0.56565654 0.014913559 0.57575756 0.016152263 0.5858586 0.016483784 0.5959596 0.016011298 0.6060606 0.014861703 0.61616164 0.013176441 0.6262626 0.011103451 0.6363636 0.008788884 0.64646465 0.0063712 0.65656567 0.0039753914 0.6666667 0.0017092228 0.67676765 -0.00033974648 0.68686867 -0.002105236 0.6969697 -0.0035429 0.7070707 -0.0046292543 0.7171717 -0.0053600073 0.72727275 -0.0057479143 0.7373737 -0.0058199167 0.74747473 -0.005613923 0.75757575 -0.005175829 0.7676768 -0.00455606 0.7777778 -0.0038070679 0.7878788 -0.0029803514 0.7979798 -0.002123952 0.8080808 -0.0012816191 0.8181818 -0.0004900694 0.82828283 0.00022059679 0.83838385 0.00082820654 0.8484849 0.0013182759 0.85858583 0.001683414 0.86868685 0.0019231439 0.8787879 0.00204283 0.8888889 0.0020526052 0.8989899 0.0019664168 0.90909094 0.0018007159 0.9191919 0.0015735626 0.9292929 0.001303494 0.93939394 0.0010085702 0.94949496 0.0007055998 0.959596 0.00040972233 0.969697 0.0001335144 0.97979796 -0.00011265278 0.989899 -0.00032150745 1 -0.00048828125" stroke="red" stroke-width="0.04"/>
</svg>