<svg viewBox="-0.04 -0.04 1.08 1.08" width="6em" xmlns="http://www.w3.org/2000/svg">
<title>ExponentialOut</title>
<path d="M0,0 L0,1 M1,0 L1,1 M0,0 m0.1,0 l0.1,0 m0.1,0 l0.1,0 m0.1,0 l0.1,0 m0.1,0 l0.1,0 m0.1,0 l0.1,0 M0,1 m0.1,0 l0.1,0 m0.1,0 l0.1,0 m0.1,0 l0.1,0 m0.1,0 l0.1,0 m0.1,0 l0.1,0" fill="none" stroke="var(--main-color)" stroke-width="0.02"/>
<polyline fill="none" points="0 1 0.01010101 0.93231386 0.02020202 0.86920464 0.030303031 0.8103629 0.04040404 0.7555 0.05050505 0.70434695 0.060606062 0.65665287 0.07070707 0.6121839 0.08080808 0.5707219 0.09090909 0.53206354 0.1010101 0.49601936 0.11111111 0.46241236 0.121212125 0.4310779 0.13131313 0.40186226 0.14141414 0.37462223 0.15151516 0.3492242 0.16161616 0.32554352 0.17171717 0.30346417 0.18181819 0.2828778 0.1919192 0.2636835 0.2020202 0.24578714 0.21212122 0.22910082 0.22222222 0.21354294 0.23232323 0.19903708 0.24242425 0.18551207 0.25252524 0.17290169 0.26262626 0.1611439 0.27272728 0.1501813 0.28282827 0.13995993 0.2929293 0.13042974 0.3030303 0.121543944 0.3131313 0.11325908 0.32323232 0.105534375 0.33333334 0.09833205 0.34343433 0.09161675 0.35353535 0.08535546 0.36363637 0.07951766 0.37373737 0.07407457 0.3838384 0.06899953 0.3939394 0.064267695 0.4040404 0.05985582 0.41414142 0.055742264 0.42424244 0.051906824 0.43434343 0.048330784 0.44444445 0.04499656 0.45454547 0.04188782 0.46464646 0.038989246 0.47474748 0.03628671 0.4848485 0.033766866 0.4949495 0.03141749 0.5050505 0.029226959 0.5151515 0.027184486 0.5252525 0.025280178 0.53535354 0.023504615 0.54545456 0.021849155 0.5555556 0.020305634 0.56565654 0.01886642 0.57575756 0.0175246 0.5858586 0.016273499 0.5959596 0.015106976 0.6060606 0.0140193105 0.61616164 0.013005257 0.6262626 0.012059748 0.6363636 0.011178136 0.64646465 0.010356188 0.65656567 0.009589791 0.6666667 0.008875251 0.67676765 0.00820899 0.68686867 0.0075877905 0.6969697 0.007008612 0.7070707 0.006468594 0.7171717 0.0059651136 0.72727275 0.005495608 0.7373737 0.005057931 0.74747473 0.004649818 0.75757575 0.004269302 0.7676768 0.0039144754 0.7777778 0.0035836697 0.7878788 0.0032752752 0.7979798 0.0029876828 0.8080808 0.0027195811 0.8181818 0.0024695396 0.82828283 0.0022364855 0.83838385 0.002019167 0.8484849 0.0018165112 0.85858583 0.0016275644 0.86868685 0.0014514327 0.8787879 0.0012871623 0.8888889 0.001134038 0.8989899 0.0009912252 0.90909094 0.00085812807 0.9191919 0.0007339716 0.9292929 0.000618279 0.93939394 0.00051033497 0.94949496 0.00040972233 0.959596 0.00031596422 0.969697 0.0002284646 0.97979796 0.00014692545 0.989899 0.00007086992 1 0" stroke="red" stroke-width="0.04"/>
</svg>