<svg viewBox="-0.04 -0.04 1.08 1.08" width="6em" xmlns="http://www.w3.org/2000/svg">
<title>ExponentialInOut</title>
<path d="M0,0 L0,1 M1,0 L1,1 M0,0 m0.1,0 l0.1,0 m0.1,0 l0.1,0 m0.1,0 l0.1,0 m0.1,0 l0.1,0 m0.1,0 l0.1,0 M0,1 m0.1,0 l0.1,0 m0.1,0 l0.1,0 m0.1,0 l0.1,0 m0.1,0 l0.1,0 m0.1,0 l0.1,0" fill="none" stroke="var(--main-color)" stroke-width="0.02"/>
<polyline fill="none" points="0 1 0.01010101 0.9999265 0.02020202 0.99984205 0.030303031 0.99974483 0.04040404 0.999633 0.05050505 0.9995044 0.060606062 0.9993564 0.07070707 0.9991862 0.08080808 0.9989904 0.09090909 0.99876523 0.1010101 0.9985061 0.11111111 0.99820817 0.121212125 0.9978654 0.13131313 0.99747103 0.14141414 0.99701744 0.15151516 0.99649566 0.16161616 0.9958955 0.17171717 0.9952051 0.18181819 0.99441093 0.1919192 0.9934974 0.2020202 0.99244654 0.21212122 0.9912377 0.22222222 0.9898472 0.23232323 0.9882477 0.24242425 0.98640776 0.25252524 0.98429126 0.26262626 0.98185664 0.27272728 0.9790561 0.28282827 0.9758346 0.2929293 0.97212887 0.3030303 0.9678662 0.3131313 0.96296275 0.32323232 0.95732224 0.33333334 0.950834 0.34343433 0.94337046 0.35353535 0.9347851 0.36363637 0.92490935 0.37373737 0.9135492 0.3838384 0.90048146 0.3939394 0.8854495 0.4040404 0.8681583 0.41414142 0.8482679 0.42424244 0.82538784 0.43434343 0.79906887 0.44444445 0.76879376 0.45454547 0.73396826 0.46464646 0.6939082 0.47474748 0.64782655 0.4848485 0.5948185 0.4949495 0.53384316 0.5050505 0.4661572 0.5151515 0.40518153 0.5252525 0.35217345 0.53535354 0.3060918 0.54545456 0.26603174 0.5555556 0.23120606 0.56565654 0.20093113 0.57575756 0.17461216 0.5858586 0.15173209 0.5959596 0.13184172 0.6060606 0.11455047 0.61616164 0.09951854 0.6262626 0.086450815 0.6363636 0.07509065 0.64646465 0.06521487 0.65656567 0.05662954 0.6666667 0.049165964 0.67676765 0.04267776 0.68686867 0.037037313 0.6969697 0.032133818 0.7070707 0.027871132 0.7171717 0.024165392 0.72727275 0.02094388 0.7373737 0.018143356 0.74747473 0.015708745 0.75757575 0.013592243 0.7676768 0.011752307 0.7777778 0.010152817 0.7878788 0.0087623 0.7979798 0.007553458 0.8080808 0.0065026283 0.8181818 0.005589068 0.82828283 0.0047948956 0.83838385 0.004104495 0.8484849 0.0035042763 0.85858583 0.0029825568 0.86868685 0.0025289655 0.8787879 0.0021346211 0.8888889 0.0017918348 0.8989899 0.0014938712 0.90909094 0.0012347698 0.9191919 0.0010095835 0.9292929 0.0008137822 0.93939394 0.00064361095 0.94949496 0.0004956126 0.959596 0.0003669858 0.969697 0.00025516748 0.97979796 0.00015795231 0.989899 0.00007349253 1 0" stroke="red" stroke-width="0.04"/>
</svg>