<svg viewBox="-0.04 -0.04 1.08 1.08" width="6em" xmlns="http://www.w3.org/2000/svg">
<title>ExponentialIn</title>
<path d="M0,0 L0,1 M1,0 L1,1 M0,0 m0.1,0 l0.1,0 m0.1,0 l0.1,0 m0.1,0 l0.1,0 m0.1,0 l0.1,0 m0.1,0 l0.1,0 M0,1 m0.1,0 l0.1,0 m0.1,0 l0.1,0 m0.1,0 l0.1,0 m0.1,0 l0.1,0 m0.1,0 l0.1,0" fill="none" stroke="var(--main-color)" stroke-width="0.02"/>
<polyline fill="none" points="0 1 0.01010101 0.99992913 0.02020202 0.9998531 0.030303031 0.99977154 0.04040404 0.99968404 0.05050505 0.9995903 0.060606062 0.99948967 0.07070707 0.9993817 0.08080808 0.999266 0.09090909 0.9991419 0.1010101 0.9990088 0.11111111 0.99886596 0.121212125 0.99871284 0.13131313 0.99854857 0.14141414 0.99837244 0.15151516 0.9981835 0.16161616 0.99798083 0.17171717 0.9977635 0.18181819 0.99753046 0.1919192 0.9972804 0.2020202 0.9970123 0.21212122 0.9967247 0.22222222 0.99641633 0.23232323 0.9960855 0.24242425 0.9957307 0.25252524 0.9953502 0.26262626 0.99494207 0.27272728 0.9945044 0.28282827 0.9940349 0.2929293 0.9935314 0.3030303 0.9929914 0.3131313 0.9924122 0.32323232 0.991791 0.33333334 0.99112475 0.34343433 0.9904102 0.35353535 0.9896438 0.36363637 0.98882186 0.37373737 0.98794025 0.3838384 0.98699474 0.3939394 0.9859807 0.4040404 0.984893 0.41414142 0.9837265 0.42424244 0.9824754 0.43434343 0.9811336 0.44444445 0.97969437 0.45454547 0.97815084 0.46464646 0.9764954 0.47474748 0.9747198 0.4848485 0.9728155 0.4949495 0.9707731 0.5050505 0.9685825 0.5151515 0.96623313 0.5252525 0.9637133 0.53535354 0.96101075 0.54545456 0.9581122 0.5555556 0.9550034 0.56565654 0.9516692 0.57575756 0.9480932 0.5858586 0.94425774 0.5959596 0.9401442 0.6060606 0.9357323 0.61616164 0.9310005 0.6262626 0.92592543 0.6363636 0.9204824 0.64646465 0.91464454 0.65656567 0.90838325 0.6666667 0.90166795 0.67676765 0.8944657 0.68686867 0.886741 0.6969697 0.87845606 0.7070707 0.86957026 0.7171717 0.86004007 0.72727275 0.8498187 0.7373737 0.8388561 0.74747473 0.82709837 0.75757575 0.81448793 0.7676768 0.8009629 0.7777778 0.78645706 0.7878788 0.7708991 0.7979798 0.7542129 0.8080808 0.73631656 0.8181818 0.7171222 0.82828283 0.6965358 0.83838385 0.6744564 0.8484849 0.6507757 0.85858583 0.6253778 0.86868685 0.59813774 0.8787879 0.56892204 0.8888889 0.5375875 0.8989899 0.5039808 0.90909094 0.46793646 0.9191919 0.42927808 0.9292929 0.38781637 0.93939394 0.34334725 0.94949496 0.2956531 0.959596 0.24449998 0.969697 0.18963695 0.97979796 0.13079566 0.989899 0.06768632 1 0" stroke="red" stroke-width="0.04"/>
</svg>