<svg viewBox="-0.04 -0.04 1.08 1.08" width="6em" xmlns="http://www.w3.org/2000/svg">
<title>Linear</title>
<path d="M0,0 L0,1 M1,0 L1,1 M0,0 m0.1,0 l0.1,0 m0.1,0 l0.1,0 m0.1,0 l0.1,0 m0.1,0 l0.1,0 m0.1,0 l0.1,0 M0,1 m0.1,0 l0.1,0 m0.1,0 l0.1,0 m0.1,0 l0.1,0 m0.1,0 l0.1,0 m0.1,0 l0.1,0" fill="none" stroke="var(--main-color)" stroke-width="0.02"/>
<polyline fill="none" points="0 1 0.01010101 0.989899 0.02020202 0.97979796 0.030303031 0.969697 0.04040404 0.959596 0.05050505 0.94949496 0.060606062 0.93939394 0.07070707 0.9292929 0.08080808 0.9191919 0.09090909 0.9090909 0.1010101 0.8989899 0.11111111 0.8888889 0.121212125 0.8787879 0.13131313 0.86868685 0.14141414 0.85858583 0.15151516 0.8484849 0.16161616 0.83838385 0.17171717 0.82828283 0.18181819 0.8181818 0.1919192 0.8080808 0.2020202 0.79797983 0.21212122 0.78787875 0.22222222 0.7777778 0.23232323 0.7676768 0.24242425 0.75757575 0.25252524 0.7474748 0.26262626 0.7373737 0.27272728 0.72727275 0.28282827 0.7171717 0.2929293 0.7070707 0.3030303 0.6969697 0.3131313 0.68686867 0.32323232 0.6767677 0.33333334 0.6666666 0.34343433 0.65656567 0.35353535 0.64646465 0.36363637 0.6363636 0.37373737 0.62626266 0.3838384 0.6161616 0.3939394 0.6060606 0.4040404 0.5959596 0.41414142 0.5858586 0.42424244 0.57575756 0.43434343 0.56565654 0.44444445 0.5555556 0.45454547 0.5454545 0.46464646 0.53535354 0.47474748 0.5252525 0.4848485 0.5151515 0.4949495 0.50505054 0.5050505 0.49494952 0.5151515 0.4848485 0.5252525 0.47474748 0.53535354 0.46464646 0.54545456 0.45454544 0.5555556 0.44444442 0.56565654 0.43434346 0.57575756 0.42424244 0.5858586 0.41414142 0.5959596 0.4040404 0.6060606 0.39393938 0.61616164 0.38383836 0.6262626 0.3737374 0.6363636 0.36363637 0.64646465 0.35353535 0.65656567 0.34343433 0.6666667 0.3333333 0.67676765 0.32323235 0.68686867 0.31313133 0.6969697 0.3030303 0.7070707 0.2929293 0.7171717 0.28282827 0.72727275 0.27272725 0.7373737 0.2626263 0.74747473 0.25252527 0.75757575 0.24242425 0.7676768 0.23232323 0.7777778 0.22222221 0.7878788 0.21212119 0.7979798 0.20202023 0.8080808 0.19191921 0.8181818 0.18181819 0.82828283 0.17171717 0.83838385 0.16161615 0.8484849 0.15151513 0.85858583 0.14141417 0.86868685 0.13131315 0.8787879 0.121212125 0.8888889 0.111111104 0.8989899 0.101010084 0.90909094 0.090909064 0.9191919 0.0808081 0.9292929 0.07070708 0.93939394 0.060606062 0.94949496 0.050505042 0.959596 0.04040402 0.969697 0.030303001 0.97979796 0.02020204 0.989899 0.01010102 1 0" stroke="red" stroke-width="0.04"/>
</svg>