<svg viewBox="-0.04 -0.04 1.08 1.08" width="6em" xmlns="http://www.w3.org/2000/svg">
<title>QuadraticInOut</title>
<path d="M0,0 L0,1 M1,0 L1,1 M0,0 m0.1,0 l0.1,0 m0.1,0 l0.1,0 m0.1,0 l0.1,0 m0.1,0 l0.1,0 m0.1,0 l0.1,0 M0,1 m0.1,0 l0.1,0 m0.1,0 l0.1,0 m0.1,0 l0.1,0 m0.1,0 l0.1,0 m0.1,0 l0.1,0" fill="none" stroke="var(--main-color)" stroke-width="0.02"/>
<polyline fill="none" points="0 1 0.01010101 0.9997959 0.02020202 0.9991838 0.030303031 0.99816346 0.04040404 0.99673504 0.05050505 0.9948985 0.060606062 0.9926538 0.07070707 0.990001 0.08080808 0.9869401 0.09090909 0.9834711 0.1010101 0.97959393 0.11111111 0.97530866 0.121212125 0.97061527 0.13131313 0.9655137 0.14141414 0.9600041 0.15151516 0.9540863 0.16161616 0.94776046 0.17171717 0.94102645 0.18181819 0.93388426 0.1919192 0.926334 0.2020202 0.9183757 0.21212122 0.91000915 0.22222222 0.90123457 0.23232323 0.8920518 0.24242425 0.88246095 0.25252524 0.87246203 0.26262626 0.8620549 0.27272728 0.8512397 0.28282827 0.84001637 0.2929293 0.8283849 0.3030303 0.8163453 0.3131313 0.80389756 0.32323232 0.79104173 0.33333334 0.7777778 0.34343433 0.76410574 0.35353535 0.7500255 0.36363637 0.7355372 0.37373737 0.7206408 0.3838384 0.7053362 0.3939394 0.6896235 0.4040404 0.6735027 0.41414142 0.6569738 0.42424244 0.6400367 0.43434343 0.6226916 0.44444445 0.60493827 0.45454547 0.58677685 0.46464646 0.5682073 0.47474748 0.5492296 0.4848485 0.52984387 0.4949495 0.51005 0.5050505 0.48995006 0.5151515 0.47015613 0.5252525 0.45077038 0.53535354 0.43179268 0.54545456 0.41322315 0.5555556 0.39506167 0.56565654 0.3773085 0.57575756 0.3599633 0.5858586 0.34302622 0.5959596 0.32649732 0.6060606 0.31037647 0.61616164 0.2946638 0.6262626 0.27935928 0.6363636 0.26446283 0.64646465 0.24997449 0.65656567 0.23589426 0.6666667 0.22222221 0.67676765 0.20895833 0.68686867 0.19610244 0.6969697 0.18365473 0.7070707 0.17161512 0.7171717 0.15998363 0.72727275 0.14876032 0.7373737 0.13794512 0.74747473 0.12753803 0.75757575 0.11753905 0.7676768 0.107948184 0.7777778 0.09876543 0.7878788 0.089990795 0.7979798 0.08162433 0.8080808 0.07366598 0.8181818 0.06611574 0.82828283 0.05897355 0.83838385 0.052239537 0.8484849 0.045913696 0.85858583 0.03999591 0.86868685 0.034486294 0.8787879 0.029384732 0.8888889 0.024691343 0.8989899 0.020406067 0.90909094 0.016528904 0.9191919 0.013059914 0.9292929 0.009998977 0.93939394 0.007346213 0.94949496 0.005101502 0.959596 0.0032649636 0.969697 0.0018365383 0.97979796 0.000816226 0.989899 0.0002040863 1 0" stroke="red" stroke-width="0.04"/>
</svg>