<svg viewBox="-0.04 -0.04 1.08 1.08" width="6em" xmlns="http://www.w3.org/2000/svg">
<title>QuadraticOut</title>
<path d="M0,0 L0,1 M1,0 L1,1 M0,0 m0.1,0 l0.1,0 m0.1,0 l0.1,0 m0.1,0 l0.1,0 m0.1,0 l0.1,0 m0.1,0 l0.1,0 M0,1 m0.1,0 l0.1,0 m0.1,0 l0.1,0 m0.1,0 l0.1,0 m0.1,0 l0.1,0 m0.1,0 l0.1,0" fill="none" stroke="var(--main-color)" stroke-width="0.02"/>
<polyline fill="none" points="0 1 0.01010101 0.9799 0.02020202 0.96000403 0.030303031 0.94031227 0.04040404 0.92082447 0.05050505 0.9015407 0.060606062 0.88246095 0.07070707 0.86358535 0.08080808 0.8449137 0.09090909 0.82644624 0.1010101 0.8081829 0.11111111 0.79012346 0.121212125 0.7722681 0.13131313 0.75461686 0.14141414 0.7371696 0.15151516 0.7199266 0.16161616 0.7028875 0.17171717 0.68605244 0.18181819 0.6694215 0.1919192 0.6529946 0.2020202 0.6367718 0.21212122 0.62075293 0.22222222 0.60493827 0.23232323 0.58932763 0.24242425 0.573921 0.25252524 0.55871856 0.26262626 0.54372 0.27272728 0.52892566 0.28282827 0.5143353 0.2929293 0.49994898 0.3030303 0.48576677 0.3131313 0.47178853 0.32323232 0.4580145 0.33333334 0.44444442 0.34343433 0.43107843 0.35353535 0.41791654 0.36363637 0.40495867 0.37373737 0.39220488 0.3838384 0.37965512 0.3939394 0.36730945 0.4040404 0.35516787 0.41414142 0.34323025 0.42424244 0.33149678 0.43434343 0.31996733 0.44444445 0.30864203 0.45454547 0.29752064 0.46464646 0.28660345 0.47474748 0.27589023 0.4848485 0.2653811 0.4949495 0.25507605 0.5050505 0.24497503 0.5151515 0.2350781 0.5252525 0.22538519 0.53535354 0.21589637 0.54545456 0.20661157 0.5555556 0.19753087 0.56565654 0.18865424 0.57575756 0.17998165 0.5858586 0.17151308 0.5959596 0.16324866 0.6060606 0.1551882 0.61616164 0.1473319 0.6262626 0.13967967 0.6363636 0.13223141 0.64646465 0.124987245 0.65656567 0.11794716 0.6666667 0.111111104 0.67676765 0.104479134 0.68686867 0.09805125 0.6969697 0.09182739 0.7070707 0.08580756 0.7171717 0.07999182 0.72727275 0.07438016 0.7373737 0.06897259 0.74747473 0.06376898 0.75757575 0.058769524 0.7676768 0.053974092 0.7777778 0.049382687 0.7878788 0.044995427 0.7979798 0.040812194 0.8080808 0.03683299 0.8181818 0.03305787 0.82828283 0.029486775 0.83838385 0.026119769 0.8484849 0.022956848 0.85858583 0.019997954 0.86868685 0.017243147 0.8787879 0.014692366 0.8888889 0.012345672 0.8989899 0.0102030635 0.90909094 0.008264482 0.9191919 0.0065299273 0.9292929 0.0049995184 0.93939394 0.0036730766 0.94949496 0.0025507808 0.959596 0.0016325116 0.969697 0.00091826916 0.97979796 0.000408113 0.989899 0.00010204315 1 0" stroke="red" stroke-width="0.04"/>
</svg>