<svg viewBox="-0.04 -0.04 1.08 1.08" width="6em" xmlns="http://www.w3.org/2000/svg">
<title>QuadraticIn</title>
<path d="M0,0 L0,1 M1,0 L1,1 M0,0 m0.1,0 l0.1,0 m0.1,0 l0.1,0 m0.1,0 l0.1,0 m0.1,0 l0.1,0 m0.1,0 l0.1,0 M0,1 m0.1,0 l0.1,0 m0.1,0 l0.1,0 m0.1,0 l0.1,0 m0.1,0 l0.1,0 m0.1,0 l0.1,0" fill="none" stroke="var(--main-color)" stroke-width="0.02"/>
<polyline fill="none" points="0 1 0.01010101 0.99989796 0.02020202 0.9995919 0.030303031 0.99908173 0.04040404 0.9983675 0.05050505 0.9974492 0.060606062 0.9963269 0.07070707 0.9950005 0.08080808 0.9934701 0.09090909 0.9917355 0.1010101 0.98979694 0.11111111 0.9876543 0.121212125 0.98530763 0.13131313 0.98275685 0.14141414 0.98000205 0.15151516 0.97704315 0.16161616 0.97388023 0.17171717 0.9705132 0.18181819 0.96694213 0.1919192 0.963167 0.2020202 0.95918787 0.21212122 0.9550046 0.22222222 0.9506173 0.23232323 0.9460259 0.24242425 0.9412305 0.25252524 0.936231 0.26262626 0.9310275 0.27272728 0.92561984 0.28282827 0.9200082 0.2929293 0.91419244 0.3030303 0.9081726 0.3131313 0.9019488 0.32323232 0.89552087 0.33333334 0.8888889 0.34343433 0.88205284 0.35353535 0.87501276 0.36363637 0.8677686 0.37373737 0.8603204 0.3838384 0.8526681 0.3939394 0.84481174 0.4040404 0.83675134 0.41414142 0.8284869 0.42424244 0.82001835 0.43434343 0.8113458 0.44444445 0.80246913 0.45454547 0.7933884 0.46464646 0.78410363 0.47474748 0.7746148 0.4848485 0.7649219 0.4949495 0.755025 0.5050505 0.744924 0.5151515 0.7346189 0.5252525 0.72410977 0.53535354 0.71339655 0.54545456 0.70247936 0.5555556 0.691358 0.56565654 0.6800327 0.57575756 0.6685032 0.5858586 0.65676975 0.5959596 0.64483213 0.6060606 0.63269055 0.61616164 0.6203448 0.6262626 0.6077951 0.6363636 0.59504133 0.64646465 0.58208346 0.65656567 0.56892157 0.6666667 0.5555555 0.67676765 0.5419855 0.68686867 0.5282115 0.6969697 0.51423323 0.7070707 0.500051 0.7171717 0.48566473 0.72727275 0.47107434 0.7373737 0.45628 0.74747473 0.44128156 0.75757575 0.42607898 0.7676768 0.41067237 0.7777778 0.39506173 0.7878788 0.37924695 0.7979798 0.36322826 0.8080808 0.34700543 0.8181818 0.3305785 0.82828283 0.31394756 0.83838385 0.29711252 0.8484849 0.2800734 0.85858583 0.26283038 0.86868685 0.24538314 0.8787879 0.22773188 0.8888889 0.20987654 0.8989899 0.1918171 0.90909094 0.17355365 0.9191919 0.15508628 0.9292929 0.13641465 0.93939394 0.11753905 0.94949496 0.0984593 0.959596 0.07917553 0.969697 0.059687734 0.97979796 0.03999597 0.989899 0.020099998 1 0" stroke="red" stroke-width="0.04"/>
</svg>