<svg viewBox="-0.04 -0.04 1.08 1.08" width="6em" xmlns="http://www.w3.org/2000/svg">
<title>QuarticIn</title>
<path d="M0,0 L0,1 M1,0 L1,1 M0,0 m0.1,0 l0.1,0 m0.1,0 l0.1,0 m0.1,0 l0.1,0 m0.1,0 l0.1,0 m0.1,0 l0.1,0 M0,1 m0.1,0 l0.1,0 m0.1,0 l0.1,0 m0.1,0 l0.1,0 m0.1,0 l0.1,0 m0.1,0 l0.1,0" fill="none" stroke="var(--main-color)" stroke-width="0.02"/>
<polyline fill="none" points="0 1 0.01010101 1 0.02020202 0.9999998 0.030303031 0.99999917 0.04040404 0.9999973 0.05050505 0.9999935 0.060606062 0.9999865 0.07070707 0.999975 0.08080808 0.9999574 0.09090909 0.9999317 0.1010101 0.9998959 0.11111111 0.9998476 0.121212125 0.9997841 0.13131313 0.9997027 0.14141414 0.99960005 0.15151516 0.999473 0.16161616 0.99931777 0.17171717 0.99913055 0.18181819 0.99890715 0.1919192 0.99864334 0.2020202 0.99833435 0.21212122 0.9979754 0.22222222 0.99756134 0.23232323 0.9970868 0.24242425 0.99654615 0.25252524 0.99593353 0.26262626 0.9952428 0.27272728 0.9944676 0.28282827 0.9936013 0.2929293 0.99263704 0.3030303 0.99156773 0.3131313 0.99038595 0.32323232 0.9890841 0.33333334 0.9876543 0.34343433 0.98608845 0.35353535 0.9843782 0.36363637 0.98251486 0.37373737 0.9804896 0.3838384 0.9782933 0.3939394 0.9759166 0.4040404 0.97334987 0.41414142 0.97058326 0.42424244 0.9676066 0.43434343 0.9644096 0.44444445 0.96098155 0.45454547 0.95731163 0.46464646 0.95338875 0.47474748 0.9492015 0.4848485 0.9447383 0.4949495 0.93998724 0.5050505 0.9349362 0.5151515 0.9295729 0.5252525 0.9238846 0.53535354 0.9178585 0.54545456 0.91148144 0.5555556 0.9047401 0.56565654 0.8976209 0.57575756 0.8901099 0.5858586 0.88219297 0.5959596 0.8738558 0.6060606 0.86508375 0.61616164 0.85586196 0.6262626 0.8461754 0.6363636 0.8360085 0.64646465 0.82534575 0.65656567 0.8141714 0.6666667 0.80246913 0.67676765 0.79022276 0.68686867 0.7774156 0.6969697 0.7640307 0.7070707 0.750051 0.7171717 0.7354592 0.72727275 0.7202377 0.7373737 0.7043686 0.74747473 0.68783367 0.75757575 0.67061466 0.7676768 0.6526929 0.7777778 0.63404965 0.7878788 0.6146657 0.7979798 0.59452176 0.8080808 0.57359815 0.8181818 0.5518749 0.82828283 0.52933204 0.83838385 0.5059492 0.8484849 0.48170573 0.85858583 0.45658094 0.86868685 0.43055338 0.8787879 0.40360194 0.8888889 0.37570494 0.8989899 0.34684044 0.90909094 0.31698644 0.9191919 0.28612077 0.9292929 0.25422037 0.93939394 0.22126263 0.94949496 0.18722439 0.959596 0.15208232 0.969697 0.11581284 0.97979796 0.07839227 0.989899 0.039795995 1 0" stroke="red" stroke-width="0.04"/>
</svg>