<svg viewBox="-0.04 -0.04 1.08 1.08" width="6em" xmlns="http://www.w3.org/2000/svg">
<title>QuarticOut</title>
<path d="M0,0 L0,1 M1,0 L1,1 M0,0 m0.1,0 l0.1,0 m0.1,0 l0.1,0 m0.1,0 l0.1,0 m0.1,0 l0.1,0 m0.1,0 l0.1,0 M0,1 m0.1,0 l0.1,0 m0.1,0 l0.1,0 m0.1,0 l0.1,0 m0.1,0 l0.1,0 m0.1,0 l0.1,0" fill="none" stroke="var(--main-color)" stroke-width="0.02"/>
<polyline fill="none" points="0 1 0.01010101 0.960204 0.02020202 0.92160773 0.030303031 0.88418716 0.04040404 0.8479177 0.05050505 0.8127756 0.060606062 0.77873737 0.07070707 0.74577963 0.08080808 0.7138792 0.09090909 0.6830134 0.1010101 0.65315956 0.11111111 0.62429506 0.121212125 0.59639806 0.13131313 0.5694466 0.14141414 0.54341906 0.15151516 0.5182943 0.16161616 0.4940508 0.17171717 0.47066796 0.18181819 0.44812512 0.1919192 0.42640185 0.2020202 0.4054783 0.21212122 0.3853342 0.22222222 0.36595035 0.23232323 0.3473071 0.24242425 0.32938534 0.25252524 0.31216645 0.26262626 0.2956314 0.27272728 0.27976233 0.28282827 0.2645408 0.2929293 0.24994898 0.3030303 0.2359693 0.3131313 0.22258443 0.32323232 0.2097773 0.33333334 0.1975308 0.34343433 0.18582863 0.35353535 0.17465425 0.36363637 0.16399151 0.37373737 0.15382469 0.3838384 0.14413798 0.3939394 0.13491625 0.4040404 0.12614417 0.41414142 0.11780703 0.42424244 0.1098901 0.43434343 0.10237908 0.44444445 0.095259905 0.45454547 0.0885185 0.46464646 0.08214152 0.47474748 0.07611543 0.4848485 0.07042712 0.4949495 0.065063775 0.5050505 0.060012758 0.5151515 0.05526167 0.5252525 0.050798476 0.53535354 0.04661125 0.54545456 0.04268831 0.5555556 0.039018452 0.56565654 0.03559041 0.57575756 0.032393396 0.5858586 0.02941674 0.5959596 0.02665013 0.6060606 0.024083376 0.61616164 0.0217067 0.6262626 0.019510388 0.6363636 0.017485142 0.64646465 0.015621781 0.65656567 0.013911545 0.6666667 0.012345672 0.67676765 0.010915875 0.68686867 0.00961405 0.6969697 0.008432269 0.7070707 0.007362962 0.7171717 0.006398678 0.72727275 0.005532384 0.7373737 0.0047572255 0.74747473 0.0040664673 0.75757575 0.0034538507 0.7676768 0.002913177 0.7777778 0.0024386644 0.7878788 0.002024591 0.7979798 0.0016656518 0.8080808 0.0013566613 0.8181818 0.0010928512 0.82828283 0.00086945295 0.83838385 0.00068223476 0.8484849 0.00052702427 0.85858583 0.00039994717 0.86868685 0.00029730797 0.8787879 0.00021588802 0.8888889 0.00015240908 0.8989899 0.000104129314 0.90909094 0.00006830692 0.9191919 0.00004261732 0.9292929 0.000024974346 0.93939394 0.00001347065 0.94949496 0.0000064969063 0.959596 0.000002682209 0.969697 0.000000834465 0.97979796 0.00000017881393 0.989899 0 1 0" stroke="red" stroke-width="0.04"/>
</svg>