<svg viewBox="-0.04 -0.04 1.08 1.08" width="6em" xmlns="http://www.w3.org/2000/svg">
<title>QuarticInOut</title>
<path d="M0,0 L0,1 M1,0 L1,1 M0,0 m0.1,0 l0.1,0 m0.1,0 l0.1,0 m0.1,0 l0.1,0 m0.1,0 l0.1,0 m0.1,0 l0.1,0 M0,1 m0.1,0 l0.1,0 m0.1,0 l0.1,0 m0.1,0 l0.1,0 m0.1,0 l0.1,0 m0.1,0 l0.1,0" fill="none" stroke="var(--main-color)" stroke-width="0.02"/>
<polyline fill="none" points="0 1 0.01010101 0.99999994 0.02020202 0.9999987 0.030303031 0.99999326 0.04040404 0.99997866 0.05050505 0.99994797 0.060606062 0.99989206 0.07070707 0.9998 0.08080808 0.9996589 0.09090909 0.9994536 0.1010101 0.9991672 0.11111111 0.99878067 0.121212125 0.9982731 0.13131313 0.9976214 0.14141414 0.99680066 0.15151516 0.99578387 0.16161616 0.99454206 0.17171717 0.99304426 0.18181819 0.9912574 0.1919192 0.98914665 0.2020202 0.98667496 0.21212122 0.98380333 0.22222222 0.9804908 0.23232323 0.9766944 0.24242425 0.97236913 0.25252524 0.96746814 0.26262626 0.9619423 0.27272728 0.95574075 0.28282827 0.94881046 0.2929293 0.9410965 0.3030303 0.93254185 0.3131313 0.92308766 0.32323232 0.9126729 0.33333334 0.90123457 0.34343433 0.88870776 0.35353535 0.8750255 0.36363637 0.86011887 0.37373737 0.84391683 0.3838384 0.82634646 0.3939394 0.8073329 0.4040404 0.7867991 0.41414142 0.764666 0.42424244 0.74085283 0.43434343 0.7152767 0.44444445 0.6878525 0.45454547 0.6584932 0.46464646 0.6271102 0.47474748 0.5936122 0.4848485 0.5579064 0.4949495 0.519898 0.5050505 0.48010212 0.5151515 0.4420936 0.5252525 0.4063878 0.53535354 0.37288982 0.54545456 0.34150672 0.5555556 0.3121475 0.56565654 0.2847234 0.57575756 0.25914717 0.5858586 0.23533398 0.5959596 0.21320093 0.6060606 0.19266713 0.61616164 0.17365348 0.6262626 0.15608323 0.6363636 0.13988113 0.64646465 0.12497449 0.65656567 0.11129224 0.6666667 0.09876543 0.67676765 0.08732712 0.68686867 0.07691234 0.6969697 0.06745815 0.7070707 0.058903515 0.7171717 0.05118954 0.72727275 0.04425925 0.7373737 0.038057745 0.74747473 0.032531917 0.75757575 0.027630866 0.7676768 0.023305595 0.7777778 0.019509196 0.7878788 0.016196668 0.7979798 0.013325095 0.8080808 0.01085335 0.8181818 0.008742571 0.82828283 0.006955743 0.83838385 0.0054579377 0.8484849 0.0042161345 0.85858583 0.003199339 0.86868685 0.002378583 0.8787879 0.0017269254 0.8888889 0.0012193322 0.8989899 0.0008327961 0.90909094 0.0005463958 0.9191919 0.00034111738 0.9292929 0.00019997358 0.93939394 0.00010794401 0.94949496 0.000052034855 0.959596 0.000021338463 0.969697 0.000006735325 0.97979796 0.0000013113022 0.989899 0.000000059604645 1 0" stroke="red" stroke-width="0.04"/>
</svg>