<svg viewBox="-0.04 -0.04 1.08 1.08" width="6em" xmlns="http://www.w3.org/2000/svg">
<title>QuinticInOut</title>
<path d="M0,0 L0,1 M1,0 L1,1 M0,0 m0.1,0 l0.1,0 m0.1,0 l0.1,0 m0.1,0 l0.1,0 m0.1,0 l0.1,0 m0.1,0 l0.1,0 M0,1 m0.1,0 l0.1,0 m0.1,0 l0.1,0 m0.1,0 l0.1,0 m0.1,0 l0.1,0 m0.1,0 l0.1,0" fill="none" stroke="var(--main-color)" stroke-width="0.02"/>
<polyline fill="none" points="0 1 0.01010101 1 0.02020202 0.99999994 0.030303031 0.9999996 0.04040404 0.9999983 0.05050505 0.99999475 0.060606062 0.99998695 0.07070707 0.99997175 0.08080808 0.99994487 0.09090909 0.99990064 0.1010101 0.99983174 0.11111111 0.99972904 0.121212125 0.99958134 0.13131313 0.99937534 0.14141414 0.99909514 0.15151516 0.9987224 0.16161616 0.9982358 0.17171717 0.99761117 0.18181819 0.99682087 0.1919192 0.99583405 0.2020202 0.99461615 0.21212122 0.99312866 0.22222222 0.99132925 0.23232323 0.98917115 0.24242425 0.9866032 0.25252524 0.98356974 0.26262626 0.9800101 0.27272728 0.97585857 0.28282827 0.9710443 0.2929293 0.9654909 0.3030303 0.9591163 0.3131313 0.9518327 0.32323232 0.9435461 0.33333334 0.93415636 0.34343433 0.92355686 0.35353535 0.9116342 0.36363637 0.8982682 0.37373737 0.8833318 0.3838384 0.8666902 0.3939394 0.84820163 0.4040404 0.8277164 0.41414142 0.8050769 0.42424244 0.7801176 0.43434343 0.75266457 0.44444445 0.7225355 0.45454547 0.6895393 0.46464646 0.6534761 0.47474748 0.6141368 0.4848485 0.5713032 0.4949495 0.5247475 0.5050505 0.47525263 0.5151515 0.4286968 0.5252525 0.38586318 0.53535354 0.34652388 0.54545456 0.31046063 0.5555556 0.2774644 0.56565654 0.24733543 0.57575756 0.21988243 0.5858586 0.1949231 0.5959596 0.17228359 0.6060606 0.15179831 0.61616164 0.13330972 0.6262626 0.116668284 0.6363636 0.10173178 0.64646465 0.08836579 0.65656567 0.076443136 0.6666667 0.06584358 0.67676765 0.056453943 0.68686867 0.048167348 0.6969697 0.04088372 0.7070707 0.034509122 0.7171717 0.028955698 0.72727275 0.02414143 0.7373737 0.019989908 0.74747473 0.016430259 0.75757575 0.0133968 0.7676768 0.010828853 0.7777778 0.008670747 0.7878788 0.0068713427 0.7979798 0.005383849 0.8080808 0.0041659474 0.8181818 0.003179133 0.82828283 0.002388835 0.83838385 0.0017641783 0.8484849 0.0012776256 0.85858583 0.0009048581 0.86868685 0.0006246567 0.8787879 0.00041866302 0.8888889 0.00027096272 0.8989899 0.00016826391 0.90909094 0.00009936094 0.9191919 0.000055134296 0.9292929 0.000028252602 0.93939394 0.000013053417 0.94949496 0.0000052452087 0.959596 0.0000017285347 0.969697 0.0000004172325 0.97979796 0.000000059604645 0.989899 0 1 0" stroke="red" stroke-width="0.04"/>
</svg>