<svg viewBox="-0.04 -0.04 1.08 1.08" width="6em" xmlns="http://www.w3.org/2000/svg">
<title>QuinticIn</title>
<path d="M0,0 L0,1 M1,0 L1,1 M0,0 m0.1,0 l0.1,0 m0.1,0 l0.1,0 m0.1,0 l0.1,0 m0.1,0 l0.1,0 m0.1,0 l0.1,0 M0,1 m0.1,0 l0.1,0 m0.1,0 l0.1,0 m0.1,0 l0.1,0 m0.1,0 l0.1,0 m0.1,0 l0.1,0" fill="none" stroke="var(--main-color)" stroke-width="0.02"/>
<polyline fill="none" points="0 1 0.01010101 1 0.02020202 1 0.030303031 1 0.04040404 0.9999999 0.05050505 0.99999964 0.060606062 0.99999917 0.07070707 0.9999982 0.08080808 0.99999654 0.09090909 0.9999938 0.1010101 0.9999895 0.11111111 0.9999831 0.121212125 0.99997383 0.13131313 0.99996096 0.14141414 0.99994344 0.15151516 0.9999201 0.16161616 0.99988973 0.17171717 0.9998507 0.18181819 0.9998013 0.1919192 0.99973965 0.2020202 0.99966353 0.21212122 0.99957055 0.22222222 0.9994581 0.23232323 0.9993232 0.24242425 0.9991627 0.25252524 0.99897313 0.26262626 0.9987506 0.27272728 0.99849117 0.28282827 0.9981903 0.2929293 0.9978432 0.3030303 0.99744475 0.3131313 0.99698955 0.32323232 0.99647164 0.33333334 0.9958848 0.34343433 0.99522233 0.35353535 0.99447715 0.36363637 0.9936418 0.37373737 0.9927082 0.3838384 0.99166816 0.3939394 0.9905126 0.4040404 0.9892323 0.41414142 0.9878173 0.42424244 0.9862574 0.43434343 0.98454154 0.44444445 0.98265845 0.45454547 0.9805962 0.46464646 0.97834224 0.47474748 0.97588354 0.4848485 0.97320646 0.4949495 0.97029674 0.5050505 0.96713954 0.5151515 0.96371937 0.5252525 0.9600202 0.53535354 0.95602524 0.54545456 0.95171714 0.5555556 0.9470779 0.56565654 0.9420886 0.57575756 0.9367299 0.5858586 0.93098176 0.5959596 0.92482316 0.6060606 0.91823256 0.61616164 0.91118765 0.6262626 0.90366536 0.6363636 0.89564174 0.64646465 0.88709223 0.65656567 0.8779913 0.6666667 0.8683127 0.67676765 0.85802954 0.68686867 0.8471137 0.6969697 0.83553654 0.7070707 0.8232684 0.7171717 0.81027883 0.72727275 0.7965365 0.7373737 0.7820091 0.74747473 0.76666355 0.75757575 0.75046563 0.7676768 0.73338044 0.7777778 0.71537197 0.7878788 0.69640326 0.7979798 0.67643654 0.8080808 0.6554328 0.8181818 0.63335216 0.82828283 0.6101538 0.83838385 0.58579576 0.8484849 0.56023514 0.85858583 0.5334281 0.86868685 0.5053292 0.8787879 0.4758926 0.8888889 0.44507104 0.8989899 0.41281617 0.90909094 0.37907857 0.9191919 0.343808 0.9292929 0.3069523 0.93939394 0.26845884 0.94949496 0.22827363 0.959596 0.18634158 0.969697 0.14260638 0.97979796 0.09701061 0.989899 0.04949504 1 0" stroke="red" stroke-width="0.04"/>
</svg>