<svg viewBox="-0.04 -0.04 1.08 1.08" width="6em" xmlns="http://www.w3.org/2000/svg">
<title>QuinticOut</title>
<path d="M0,0 L0,1 M1,0 L1,1 M0,0 m0.1,0 l0.1,0 m0.1,0 l0.1,0 m0.1,0 l0.1,0 m0.1,0 l0.1,0 m0.1,0 l0.1,0 M0,1 m0.1,0 l0.1,0 m0.1,0 l0.1,0 m0.1,0 l0.1,0 m0.1,0 l0.1,0 m0.1,0 l0.1,0" fill="none" stroke="var(--main-color)" stroke-width="0.02"/>
<polyline fill="none" points="0 1 0.01010101 0.95050496 0.02020202 0.9029894 0.030303031 0.8573936 0.04040404 0.8136584 0.05050505 0.77172637 0.060606062 0.73154116 0.07070707 0.6930477 0.08080808 0.656192 0.09090909 0.62092125 0.1010101 0.58718383 0.11111111 0.55492896 0.121212125 0.5241074 0.13131313 0.4946708 0.14141414 0.46657193 0.15151516 0.43976486 0.16161616 0.41420424 0.17171717 0.3898462 0.18181819 0.36664784 0.1919192 0.34456718 0.2020202 0.32356352 0.21212122 0.30359662 0.22222222 0.28462803 0.23232323 0.26661956 0.24242425 0.24953437 0.25252524 0.23333657 0.26262626 0.21799088 0.27272728 0.2034635 0.28282827 0.18972117 0.2929293 0.17673159 0.3030303 0.16446346 0.3131313 0.15288627 0.32323232 0.14197052 0.33333334 0.13168722 0.34343433 0.12200868 0.35353535 0.11290777 0.36363637 0.104358256 0.37373737 0.096334696 0.3838384 0.08881229 0.3939394 0.08176744 0.4040404 0.075176835 0.41414142 0.069018245 0.42424244 0.06327009 0.43434343 0.057911396 0.44444445 0.05292213 0.45454547 0.048282802 0.46464646 0.043974757 0.47474748 0.039979815 0.4848485 0.036280632 0.4949495 0.032860518 0.5050505 0.02970326 0.5151515 0.02679354 0.5252525 0.024116457 0.53535354 0.021657765 0.54545456 0.019403815 0.5555556 0.017341495 0.56565654 0.015458465 0.57575756 0.013742626 0.5858586 0.012182713 0.5959596 0.010767698 0.6060606 0.0094873905 0.61616164 0.008331835 0.6262626 0.007291794 0.6363636 0.0063582063 0.64646465 0.005522847 0.65656567 0.00477767 0.6666667 0.004115224 0.67676765 0.0035283566 0.68686867 0.0030104518 0.6969697 0.0025552511 0.7070707 0.002156794 0.7171717 0.0018097162 0.72727275 0.001508832 0.7373737 0.001249373 0.74747473 0.0010268688 0.75757575 0.00083732605 0.7676768 0.00067681074 0.7777778 0.00054192543 0.7878788 0.00042945147 0.7979798 0.00033646822 0.8080808 0.0002603531 0.8181818 0.00019872189 0.82828283 0.00014930964 0.83838385 0.00011026859 0.8484849 0.000079870224 0.85858583 0.000056564808 0.86868685 0.000039041042 0.8787879 0.000026166439 0.8888889 0.00001692772 0.8989899 0.0000104904175 0.90909094 0.000006198883 0.9191919 0.0000034570694 0.9292929 0.0000017881393 0.93939394 0.000000834465 0.94949496 0.00000035762787 0.959596 0.00000011920929 0.969697 0 0.97979796 0 0.989899 0 1 0" stroke="red" stroke-width="0.04"/>
</svg>