<svg viewBox="-0.04 -0.04 1.08 1.08" width="6em" xmlns="http://www.w3.org/2000/svg">
<title>SineInOut</title>
<path d="M0,0 L0,1 M1,0 L1,1 M0,0 m0.1,0 l0.1,0 m0.1,0 l0.1,0 m0.1,0 l0.1,0 m0.1,0 l0.1,0 m0.1,0 l0.1,0 M0,1 m0.1,0 l0.1,0 m0.1,0 l0.1,0 m0.1,0 l0.1,0 m0.1,0 l0.1,0 m0.1,0 l0.1,0" fill="none" stroke="var(--main-color)" stroke-width="0.02"/>
<polyline fill="none" points="0 1 0.01010101 0.99974823 0.02020202 0.99899334 0.030303031 0.997736 0.04040404 0.9959774 0.05050505 0.99371946 0.060606062 0.99096435 0.07070707 0.9877149 0.08080808 0.98397434 0.09090909 0.97974646 0.1010101 0.97503555 0.11111111 0.9698463 0.121212125 0.9641839 0.13131313 0.9580542 0.14141414 0.9514633 0.15151516 0.9444177 0.16161616 0.9369247 0.17171717 0.9289917 0.18181819 0.92062676 0.1919192 0.9118383 0.2020202 0.9026351 0.21212122 0.89302653 0.22222222 0.8830222 0.23232323 0.87263227 0.24242425 0.86186695 0.25252524 0.85073745 0.26262626 0.8392547 0.27272728 0.82743037 0.28282827 0.8152763 0.2929293 0.8028048 0.3030303 0.79002845 0.3131313 0.77696 0.32323232 0.76361275 0.33333334 0.75 0.34343433 0.7361355 0.35353535 0.72203326 0.36363637 0.70770746 0.37373737 0.6931726 0.3838384 0.67844313 0.3939394 0.6635339 0.4040404 0.64846015 0.41414142 0.6332369 0.42424244 0.61787945 0.43434343 0.6024033 0.44444445 0.58682406 0.45454547 0.57115734 0.46464646 0.5554191 0.47474748 0.539625 0.4848485 0.5237909 0.4949495 0.50793296 0.5050505 0.49206704 0.5151515 0.47620904 0.5252525 0.46037495 0.53535354 0.44458085 0.54545456 0.42884254 0.5555556 0.41317582 0.56565654 0.39759666 0.57575756 0.3821205 0.5858586 0.36676306 0.5959596 0.3515398 0.6060606 0.33646595 0.61616164 0.3215568 0.6262626 0.30682743 0.6363636 0.29229248 0.64646465 0.27796668 0.65656567 0.26386446 0.6666667 0.25 0.67676765 0.23638725 0.68686867 0.22303993 0.6969697 0.20997155 0.7070707 0.19719511 0.7171717 0.18472362 0.72727275 0.17256957 0.7373737 0.16074532 0.74747473 0.14926255 0.75757575 0.13813299 0.7676768 0.1273678 0.7777778 0.11697769 0.7878788 0.10697341 0.7979798 0.0973649 0.8080808 0.08816171 0.8181818 0.07937324 0.82828283 0.071008265 0.83838385 0.063075304 0.8484849 0.055582285 0.85858583 0.048536718 0.86868685 0.041945755 0.8787879 0.035816014 0.8888889 0.030153632 0.8989899 0.024964452 0.90909094 0.02025348 0.9191919 0.016025662 0.9292929 0.012285113 0.93939394 0.009035647 0.94949496 0.0062805414 0.959596 0.0040225983 0.969697 0.0022640228 0.97979796 0.0010066628 0.989899 0.00025177002 1 0" stroke="red" stroke-width="0.04"/>
</svg>