<svg viewBox="-0.04 -0.04 1.08 1.08" width="6em" xmlns="http://www.w3.org/2000/svg">
<title>SineIn</title>
<path d="M0,0 L0,1 M1,0 L1,1 M0,0 m0.1,0 l0.1,0 m0.1,0 l0.1,0 m0.1,0 l0.1,0 m0.1,0 l0.1,0 m0.1,0 l0.1,0 M0,1 m0.1,0 l0.1,0 m0.1,0 l0.1,0 m0.1,0 l0.1,0 m0.1,0 l0.1,0 m0.1,0 l0.1,0" fill="none" stroke="var(--main-color)" stroke-width="0.02"/>
<polyline fill="none" points="0 1 0.01010101 0.9998741 0.02020202 0.9994965 0.030303031 0.99886733 0.04040404 0.9979867 0.05050505 0.9968548 0.060606062 0.9954719 0.07070707 0.9938385 0.08080808 0.9919548 0.09090909 0.98982143 0.1010101 0.9874389 0.11111111 0.9848077 0.121212125 0.9819287 0.13131313 0.97880244 0.14141414 0.9754298 0.15151516 0.9718116 0.16161616 0.9679487 0.17171717 0.96384215 0.18181819 0.959493 0.1919192 0.95490223 0.2020202 0.9500711 0.21212122 0.9450008 0.22222222 0.9396926 0.23232323 0.93414783 0.24242425 0.9283679 0.25252524 0.9223543 0.26262626 0.9161084 0.27272728 0.90963197 0.28282827 0.90292656 0.2929293 0.89599377 0.3030303 0.88883543 0.3131313 0.88145334 0.32323232 0.8738494 0.33333334 0.8660254 0.34343433 0.8579834 0.35353535 0.8497254 0.36363637 0.8412535 0.37373737 0.83256984 0.3838384 0.8236766 0.3939394 0.8145759 0.4040404 0.80527025 0.41414142 0.7957618 0.42424244 0.78605306 0.43434343 0.7761465 0.44444445 0.76604444 0.45454547 0.7557495 0.46464646 0.7452645 0.47474748 0.7345917 0.4848485 0.72373396 0.4949495 0.71269417 0.5050505 0.7014749 0.5151515 0.69007903 0.5252525 0.67850935 0.53535354 0.66676897 0.54545456 0.6548607 0.5555556 0.6427876 0.56565654 0.63055265 0.57575756 0.618159 0.5858586 0.60560966 0.5959596 0.5929079 0.6060606 0.58005685 0.61616164 0.5670598 0.6262626 0.5539201 0.6363636 0.54064083 0.64646465 0.52722543 0.65656567 0.51367736 0.6666667 0.5 0.67676765 0.4861967 0.68686867 0.47227103 0.6969697 0.45822644 0.7070707 0.44406652 0.7171717 0.42979485 0.72727275 0.41541493 0.7373737 0.40093058 0.74747473 0.38634515 0.75757575 0.3716625 0.7676768 0.35688627 0.7777778 0.34202003 0.7878788 0.32706785 0.7979798 0.3120334 0.8080808 0.29692036 0.8181818 0.28173256 0.82828283 0.26647377 0.83838385 0.251148 0.8484849 0.2357589 0.85858583 0.22031045 0.86868685 0.20480663 0.8787879 0.18925118 0.8888889 0.17364812 0.8989899 0.1580013 0.90909094 0.14231473 0.9191919 0.12659246 0.9292929 0.110838234 0.93939394 0.09505606 0.94949496 0.07924998 0.959596 0.06342393 0.969697 0.047581792 0.97979796 0.03172791 0.989899 0.015865922 1 0" stroke="red" stroke-width="0.04"/>
</svg>