<svg viewBox="-0.04 -0.04 1.08 1.08" width="6em" xmlns="http://www.w3.org/2000/svg">
<title>SineOut</title>
<path d="M0,0 L0,1 M1,0 L1,1 M0,0 m0.1,0 l0.1,0 m0.1,0 l0.1,0 m0.1,0 l0.1,0 m0.1,0 l0.1,0 m0.1,0 l0.1,0 M0,1 m0.1,0 l0.1,0 m0.1,0 l0.1,0 m0.1,0 l0.1,0 m0.1,0 l0.1,0 m0.1,0 l0.1,0" fill="none" stroke="var(--main-color)" stroke-width="0.02"/>
<polyline fill="none" points="0 1 0.01010101 0.984134 0.02020202 0.9682721 0.030303031 0.9524181 0.04040404 0.93657607 0.05050505 0.92075 0.060606062 0.90494394 0.07070707 0.8891618 0.08080808 0.87340754 0.09090909 0.85768515 0.1010101 0.8419986 0.11111111 0.8263518 0.121212125 0.81074876 0.13131313 0.7951933 0.14141414 0.77968943 0.15151516 0.76424104 0.16161616 0.748852 0.17171717 0.7335262 0.18181819 0.71826744 0.1919192 0.70307964 0.2020202 0.6879666 0.21212122 0.672932 0.22222222 0.65797985 0.23232323 0.6431138 0.24242425 0.6283375 0.25252524 0.61365485 0.26262626 0.5990695 0.27272728 0.58458495 0.28282827 0.5702051 0.2929293 0.55593336 0.3030303 0.54177344 0.3131313 0.5277289 0.32323232 0.51380324 0.33333334 0.5 0.34343433 0.48632258 0.35353535 0.4727745 0.36363637 0.45935917 0.37373737 0.44607997 0.3838384 0.43294013 0.3939394 0.41994303 0.4040404 0.40709203 0.41414142 0.39439029 0.42424244 0.381841 0.43434343 0.3694473 0.44444445 0.35721236 0.45454547 0.3451392 0.46464646 0.33323097 0.47474748 0.3214906 0.4848485 0.30992097 0.4949495 0.2985251 0.5050505 0.28730583 0.5151515 0.27626598 0.5252525 0.26540828 0.53535354 0.25473553 0.54545456 0.24425042 0.5555556 0.2339555 0.56565654 0.22385353 0.57575756 0.21394688 0.5858586 0.20423812 0.5959596 0.19472975 0.6060606 0.18542403 0.61616164 0.17632341 0.6262626 0.16743016 0.6363636 0.15874648 0.64646465 0.15027457 0.65656567 0.14201659 0.6666667 0.13397455 0.67676765 0.12615061 0.68686867 0.118546605 0.6969697 0.11116451 0.7070707 0.10400617 0.7171717 0.097073436 0.72727275 0.09036797 0.7373737 0.08389157 0.74747473 0.07764572 0.75757575 0.07163209 0.7676768 0.065852165 0.7777778 0.060307324 0.7878788 0.054999113 0.7979798 0.049928904 0.8080808 0.04509777 0.8181818 0.04050702 0.82828283 0.036157846 0.83838385 0.032051265 0.8484849 0.028188407 0.85858583 0.024570227 0.86868685 0.021197557 0.8787879 0.018071294 0.8888889 0.015192211 0.8989899 0.012561083 0.90909094 0.010178566 0.9191919 0.0080451965 0.9292929 0.006161511 0.93939394 0.0045281053 0.94949496 0.003145218 0.959596 0.0020133257 0.969697 0.0011326671 0.97979796 0.00050348043 0.989899 0.00012588501 1 0" stroke="red" stroke-width="0.04"/>
</svg>