<svg viewBox="-0.04 -0.04 1.08 1.08" width="6em" xmlns="http://www.w3.org/2000/svg">
<title>SmoothStep</title>
<path d="M0,0 L0,1 M1,0 L1,1 M0,0 m0.1,0 l0.1,0 m0.1,0 l0.1,0 m0.1,0 l0.1,0 m0.1,0 l0.1,0 m0.1,0 l0.1,0 M0,1 m0.1,0 l0.1,0 m0.1,0 l0.1,0 m0.1,0 l0.1,0 m0.1,0 l0.1,0 m0.1,0 l0.1,0" fill="none" stroke="var(--main-color)" stroke-width="0.02"/>
<polyline fill="none" points="0 1 0.01010101 0.99969596 0.02020202 0.9987921 0.030303031 0.9973008 0.04040404 0.99523443 0.05050505 0.9926054 0.060606062 0.98942596 0.07070707 0.98570853 0.08080808 0.9814655 0.09090909 0.97670925 0.1010101 0.9714521 0.11111111 0.96570647 0.121212125 0.95948464 0.13131313 0.9527991 0.14141414 0.94566214 0.15151516 0.9380861 0.16161616 0.9300834 0.17171717 0.92166644 0.18181819 0.91284746 0.1919192 0.90363896 0.2020202 0.8940533 0.21212122 0.8841027 0.22222222 0.87379974 0.23232323 0.8631566 0.24242425 0.8521858 0.25252524 0.8408996 0.26262626 0.82931036 0.27272728 0.8174305 0.28282827 0.8052724 0.2929293 0.7928484 0.3030303 0.78017086 0.3131313 0.7672522 0.32323232 0.7541047 0.33333334 0.7407407 0.34343433 0.72717273 0.35353535 0.7134131 0.36363637 0.6994741 0.37373737 0.6853681 0.3838384 0.67110753 0.3939394 0.6567048 0.4040404 0.64217216 0.41414142 0.627522 0.42424244 0.6127668 0.43434343 0.5979188 0.44444445 0.5829904 0.45454547 0.567994 0.46464646 0.5529419 0.47474748 0.53784657 0.4848485 0.52272034 0.4949495 0.5075755 0.5050505 0.4924245 0.5151515 0.47727972 0.5252525 0.46215343 0.53535354 0.44705802 0.54545456 0.432006 0.5555556 0.4170096 0.56565654 0.40208125 0.57575756 0.3872332 0.5858586 0.372478 0.5959596 0.35782784 0.6060606 0.34329516 0.61616164 0.32889235 0.6262626 0.31463194 0.6363636 0.30052596 0.64646465 0.28658694 0.65656567 0.27282727 0.6666667 0.25925922 0.67676765 0.24589539 0.68686867 0.23274791 0.6969697 0.21982914 0.7070707 0.20715159 0.7171717 0.1947276 0.72727275 0.1825695 0.7373737 0.1706897 0.74747473 0.15910047 0.75757575 0.14781427 0.7676768 0.13684332 0.7777778 0.1262002 0.7878788 0.11589724 0.7979798 0.10594672 0.8080808 0.09636104 0.8181818 0.08715248 0.82828283 0.07833356 0.83838385 0.069916606 0.8484849 0.061913908 0.85858583 0.05433786 0.86868685 0.04720086 0.8787879 0.040515304 0.8888889 0.034293592 0.8989899 0.028547943 0.90909094 0.023290753 0.9191919 0.018534541 0.9292929 0.014291525 0.93939394 0.010574102 0.94949496 0.0073946714 0.959596 0.0047655106 0.969697 0.0026991367 0.97979796 0.0012078881 0.989899 0.0003039837 1 0" stroke="red" stroke-width="0.04"/>
</svg>