<svg viewBox="-0.04 -0.04 1.08 1.08" width="6em" xmlns="http://www.w3.org/2000/svg">
<title>SmootherStepIn</title>
<path d="M0,0 L0,1 M1,0 L1,1 M0,0 m0.1,0 l0.1,0 m0.1,0 l0.1,0 m0.1,0 l0.1,0 m0.1,0 l0.1,0 m0.1,0 l0.1,0 M0,1 m0.1,0 l0.1,0 m0.1,0 l0.1,0 m0.1,0 l0.1,0 m0.1,0 l0.1,0 m0.1,0 l0.1,0" fill="none" stroke="var(--main-color)" stroke-width="0.02"/>
<polyline fill="none" points="0 1 0.01010101 0.99999744 0.02020202 0.9999797 0.030303031 0.999932 0.04040404 0.9998401 0.05050505 0.99969 0.060606062 0.99946845 0.07070707 0.99916244 0.08080808 0.99875945 0.09090909 0.99824744 0.1010101 0.99761474 0.11111111 0.9968501 0.121212125 0.9959427 0.13131313 0.9948822 0.14141414 0.99365866 0.15151516 0.9922624 0.16161616 0.9906844 0.17171717 0.9889158 0.18181819 0.98694825 0.1919192 0.98477376 0.2020202 0.9823847 0.21212122 0.9797739 0.22222222 0.97693443 0.23232323 0.97385985 0.24242425 0.9705441 0.25252524 0.96698135 0.26262626 0.96316624 0.27272728 0.9590937 0.28282827 0.954759 0.2929293 0.9501578 0.3030303 0.9452861 0.3131313 0.9401401 0.32323232 0.9347166 0.33333334 0.92901236 0.34343433 0.9230247 0.35353535 0.91675127 0.36363637 0.9101899 0.37373737 0.90333885 0.3838384 0.8961965 0.3939394 0.88876164 0.4040404 0.8810335 0.41414142 0.8730112 0.42424244 0.8646945 0.43434343 0.8560833 0.44444445 0.84717774 0.45454547 0.83797836 0.46464646 0.8284857 0.47474748 0.8187009 0.4848485 0.808625 0.4949495 0.79825956 0.5050505 0.78760624 0.5151515 0.776667 0.5252525 0.76544386 0.53535354 0.7539394 0.54545456 0.74215615 0.5555556 0.730097 0.56565654 0.717765 0.57575756 0.70516324 0.5858586 0.6922953 0.5959596 0.6791648 0.6060606 0.66577566 0.61616164 0.6521318 0.6262626 0.63823766 0.6363636 0.62409735 0.64646465 0.6097156 0.65656567 0.5950971 0.6666667 0.5802469 0.67676765 0.56517005 0.68686867 0.54987144 0.6969697 0.53435695 0.7070707 0.5186318 0.7171717 0.50270176 0.72727275 0.48657256 0.7373737 0.4702503 0.74747473 0.4537409 0.75757575 0.43705052 0.7676768 0.42018557 0.7777778 0.4031524 0.7878788 0.38595766 0.7979798 0.368608 0.8080808 0.35110998 0.8181818 0.3334704 0.82828283 0.31569654 0.83838385 0.29779494 0.8484849 0.27977294 0.85858583 0.26163775 0.86868685 0.24339652 0.8787879 0.22505635 0.8888889 0.20662498 0.8989899 0.18810958 0.90909094 0.1695177 0.9191919 0.15085685 0.9292929 0.1321345 0.93939394 0.11335838 0.94949496 0.094536066 0.959596 0.07567507 0.969697 0.05678326 0.97979796 0.0378685 0.989899 0.018938184 1 0" stroke="red" stroke-width="0.04"/>
</svg>