<svg viewBox="-0.04 -0.04 1.08 1.08" width="6em" xmlns="http://www.w3.org/2000/svg">
<title>SmoothStepOut</title>
<path d="M0,0 L0,1 M1,0 L1,1 M0,0 m0.1,0 l0.1,0 m0.1,0 l0.1,0 m0.1,0 l0.1,0 m0.1,0 l0.1,0 m0.1,0 l0.1,0 M0,1 m0.1,0 l0.1,0 m0.1,0 l0.1,0 m0.1,0 l0.1,0 m0.1,0 l0.1,0 m0.1,0 l0.1,0" fill="none" stroke="var(--main-color)" stroke-width="0.02"/>
<polyline fill="none" points="0 1 0.01010101 0.984849 0.02020202 0.9697011 0.030303031 0.9545594 0.04040404 0.9394269 0.05050505 0.92430687 0.060606062 0.9092022 0.07070707 0.89411616 0.08080808 0.87905174 0.09090909 0.864012 0.1010101 0.84900016 0.11111111 0.8340192 0.121212125 0.81907225 0.13131313 0.80416244 0.14141414 0.7892928 0.15151516 0.7744664 0.16161616 0.75968647 0.17171717 0.74495596 0.18181819 0.730278 0.1919192 0.7156557 0.2020202 0.7010921 0.21212122 0.68659043 0.22222222 0.6721536 0.23232323 0.6577849 0.24242425 0.6434872 0.25252524 0.62926376 0.26262626 0.6151176 0.27272728 0.6010518 0.28282827 0.5870696 0.2929293 0.5731739 0.3030303 0.5593678 0.3131313 0.54565454 0.32323232 0.532037 0.33333334 0.5185185 0.34343433 0.50510204 0.35353535 0.49179065 0.36363637 0.4785875 0.37373737 0.4654957 0.3838384 0.45251822 0.3939394 0.43965828 0.4040404 0.42691892 0.41414142 0.41430318 0.42424244 0.40181428 0.43434343 0.3894552 0.44444445 0.37722903 0.45454547 0.365139 0.46464646 0.35318804 0.47474748 0.34137928 0.4848485 0.3297159 0.4949495 0.3182009 0.5050505 0.30683738 0.5151515 0.2956285 0.5252525 0.2845772 0.53535354 0.27368677 0.54545456 0.26296014 0.5555556 0.25240052 0.56565654 0.24201095 0.57575756 0.23179454 0.5858586 0.22175431 0.5959596 0.21189344 0.6060606 0.20221502 0.61616164 0.19272202 0.6262626 0.18341768 0.6363636 0.17430508 0.64646465 0.16538715 0.65656567 0.15666717 0.6666667 0.14814812 0.67676765 0.13983321 0.68686867 0.13172543 0.6969697 0.123827755 0.7070707 0.116143584 0.7171717 0.10867572 0.72727275 0.101427495 0.7373737 0.09440184 0.74747473 0.08760184 0.75757575 0.08103067 0.7676768 0.074691415 0.7777778 0.068587065 0.7878788 0.062720895 0.7979798 0.057095826 0.8080808 0.051715016 0.8181818 0.046581507 0.82828283 0.041698456 0.83838385 0.037069023 0.8484849 0.032696128 0.85858583 0.02858299 0.86868685 0.02473253 0.8787879 0.021148086 0.8888889 0.017832637 0.8989899 0.014789283 0.90909094 0.012021005 0.9191919 0.009531081 0.9292929 0.00732255 0.93939394 0.0053983927 0.94949496 0.0037617683 0.959596 0.0024157763 0.969697 0.0013635755 0.97979796 0.0006080866 0.989899 0.00015246868 1 0" stroke="red" stroke-width="0.04"/>
</svg>