<svg viewBox="-0.04 -0.04 1.08 1.08" width="6em" xmlns="http://www.w3.org/2000/svg">
<title>SmootherStepOut</title>
<path d="M0,0 L0,1 M1,0 L1,1 M0,0 m0.1,0 l0.1,0 m0.1,0 l0.1,0 m0.1,0 l0.1,0 m0.1,0 l0.1,0 m0.1,0 l0.1,0 M0,1 m0.1,0 l0.1,0 m0.1,0 l0.1,0 m0.1,0 l0.1,0 m0.1,0 l0.1,0 m0.1,0 l0.1,0" fill="none" stroke="var(--main-color)" stroke-width="0.02"/>
<polyline fill="none" points="0 1 0.01010101 0.9810619 0.02020202 0.9621315 0.030303031 0.94321656 0.04040404 0.9243248 0.05050505 0.90546393 0.060606062 0.8866416 0.07070707 0.86786544 0.08080808 0.84914315 0.09090909 0.83048224 0.1010101 0.81189036 0.11111111 0.793375 0.121212125 0.7749436 0.13131313 0.75660354 0.14141414 0.7383623 0.15151516 0.720227 0.16161616 0.70220506 0.17171717 0.6843035 0.18181819 0.66652954 0.1919192 0.6488901 0.2020202 0.63139206 0.21212122 0.6140423 0.22222222 0.59684753 0.23232323 0.57981443 0.24242425 0.5629495 0.25252524 0.54625916 0.26262626 0.52974975 0.27272728 0.5134274 0.28282827 0.4972983 0.2929293 0.48136824 0.3030303 0.46564305 0.3131313 0.4501285 0.32323232 0.43483007 0.33333334 0.41975307 0.34343433 0.40490288 0.35353535 0.39028436 0.36363637 0.37590265 0.37373737 0.36176234 0.3838384 0.34786814 0.3939394 0.33422428 0.4040404 0.32083517 0.41414142 0.3077047 0.42424244 0.29483676 0.43434343 0.28223503 0.44444445 0.26990294 0.45454547 0.2578438 0.46464646 0.24606055 0.47474748 0.23455614 0.4848485 0.22333306 0.4949495 0.21239376 0.5050505 0.20174044 0.5151515 0.19137502 0.5252525 0.18129909 0.53535354 0.17151427 0.54545456 0.16202164 0.5555556 0.1528222 0.56565654 0.14391673 0.57575756 0.13530552 0.5858586 0.12698883 0.5959596 0.11896658 0.6060606 0.1112383 0.61616164 0.103803515 0.6262626 0.09666121 0.6363636 0.089810014 0.64646465 0.083248734 0.65656567 0.076975286 0.6666667 0.0709877 0.67676765 0.06528342 0.68686867 0.05985993 0.6969697 0.054713905 0.7070707 0.04984224 0.7171717 0.045241 0.72727275 0.04090637 0.7373737 0.036833823 0.74747473 0.03301871 0.75757575 0.02945596 0.7676768 0.026140094 0.7777778 0.023065627 0.7878788 0.020226121 0.7979798 0.017615318 0.8080808 0.0152263045 0.8181818 0.013051748 0.82828283 0.011084199 0.83838385 0.00931561 0.8484849 0.0077375174 0.85858583 0.0063413978 0.86868685 0.005117893 0.8787879 0.004057288 0.8888889 0.003149867 0.8989899 0.002385378 0.90909094 0.0017526746 0.9191919 0.0012404323 0.9292929 0.00083744526 0.93939394 0.0005315542 0.94949496 0.00030994415 0.959596 0.00015997887 0.969697 0.000067949295 0.97979796 0.000020205975 0.989899 0.0000026226044 1 0" stroke="red" stroke-width="0.04"/>
</svg>