<svg viewBox="-0.04 -0.04 1.08 1.08" width="6em" xmlns="http://www.w3.org/2000/svg">
<title>SmootherStep</title>
<path d="M0,0 L0,1 M1,0 L1,1 M0,0 m0.1,0 l0.1,0 m0.1,0 l0.1,0 m0.1,0 l0.1,0 m0.1,0 l0.1,0 m0.1,0 l0.1,0 M0,1 m0.1,0 l0.1,0 m0.1,0 l0.1,0 m0.1,0 l0.1,0 m0.1,0 l0.1,0 m0.1,0 l0.1,0" fill="none" stroke="var(--main-color)" stroke-width="0.02"/>
<polyline fill="none" points="0 1 0.01010101 0.99998987 0.02020202 0.99992 0.030303031 0.9997342 0.04040404 0.99937975 0.05050505 0.9988074 0.060606062 0.99797136 0.07070707 0.99682933 0.08080808 0.9953422 0.09090909 0.9934741 0.1010101 0.99119234 0.11111111 0.9884672 0.121212125 0.98527205 0.13131313 0.9815831 0.14141414 0.9773795 0.15151516 0.972643 0.16161616 0.9673583 0.17171717 0.9615124 0.18181819 0.955095 0.1919192 0.94809824 0.2020202 0.9405167 0.21212122 0.93234724 0.22222222 0.9235889 0.23232323 0.91424286 0.24242425 0.9043125 0.25252524 0.8938031 0.26262626 0.88272196 0.27272728 0.8710781 0.28282827 0.8588825 0.2929293 0.84614766 0.3030303 0.8328878 0.3131313 0.81911886 0.32323232 0.8048578 0.33333334 0.79012346 0.34343433 0.7749357 0.35353535 0.7593159 0.36363637 0.74328625 0.37373737 0.7268704 0.3838384 0.7100928 0.3939394 0.69297886 0.4040404 0.675555 0.41414142 0.65784824 0.42424244 0.6398865 0.43434343 0.62169826 0.44444445 0.6033125 0.45454547 0.5847589 0.46464646 0.5660672 0.47474748 0.54726803 0.4848485 0.5283916 0.4949495 0.5094691 0.5050505 0.49053103 0.5151515 0.47160834 0.5252525 0.45273203 0.53535354 0.43393272 0.54545456 0.41524112 0.5555556 0.39668745 0.56565654 0.37830186 0.57575756 0.3601135 0.5858586 0.34215176 0.5959596 0.324445 0.6060606 0.30702114 0.61616164 0.28990716 0.6262626 0.27312964 0.6363636 0.25671363 0.64646465 0.24068403 0.65656567 0.22506416 0.6666667 0.20987654 0.67676765 0.19514233 0.68686867 0.1808812 0.6969697 0.16711229 0.7070707 0.15385246 0.7171717 0.14111769 0.72727275 0.12892199 0.7373737 0.11727822 0.74747473 0.106197 0.75757575 0.09568775 0.7676768 0.085757315 0.7777778 0.07641095 0.7878788 0.06765282 0.7979798 0.059483588 0.8080808 0.05190164 0.8181818 0.044904888 0.82828283 0.038487732 0.83838385 0.03264159 0.8484849 0.027357042 0.85858583 0.02262044 0.86868685 0.018416762 0.8787879 0.014727771 0.8888889 0.011532545 0.8989899 0.008807182 0.90909094 0.0065256953 0.9191919 0.004657209 0.9292929 0.0031701922 0.93939394 0.0020281076 0.94949496 0.0011927485 0.959596 0.0006200671 0.969697 0.00026607513 0.97979796 0.00007981062 0.989899 0.000010192394 1 0" stroke="red" stroke-width="0.04"/>
</svg>