<svg viewBox="-0.04 -0.04 1.08 1.08" width="6em" xmlns="http://www.w3.org/2000/svg">
<title>SmoothStepIn</title>
<path d="M0,0 L0,1 M1,0 L1,1 M0,0 m0.1,0 l0.1,0 m0.1,0 l0.1,0 m0.1,0 l0.1,0 m0.1,0 l0.1,0 m0.1,0 l0.1,0 M0,1 m0.1,0 l0.1,0 m0.1,0 l0.1,0 m0.1,0 l0.1,0 m0.1,0 l0.1,0 m0.1,0 l0.1,0" fill="none" stroke="var(--main-color)" stroke-width="0.02"/>
<polyline fill="none" points="0 1 0.01010101 0.9998475 0.02020202 0.9993919 0.030303031 0.9986365 0.04040404 0.9975842 0.05050505 0.9962383 0.060606062 0.99460167 0.07070707 0.9926775 0.08080808 0.9904689 0.09090909 0.98797894 0.1010101 0.9852107 0.11111111 0.98216736 0.121212125 0.97885185 0.13131313 0.9752674 0.14141414 0.97141707 0.15151516 0.9673039 0.16161616 0.96293104 0.17171717 0.95830154 0.18181819 0.9534185 0.1919192 0.948285 0.2020202 0.9429042 0.21212122 0.9372791 0.22222222 0.9314129 0.23232323 0.9253086 0.24242425 0.9189693 0.25252524 0.91239816 0.26262626 0.90559816 0.27272728 0.8985725 0.28282827 0.8913242 0.2929293 0.8838564 0.3030303 0.8761722 0.3131313 0.8682746 0.32323232 0.8601668 0.33333334 0.8518518 0.34343433 0.8433328 0.35353535 0.83461285 0.36363637 0.825695 0.37373737 0.8165823 0.3838384 0.8072779 0.3939394 0.79778504 0.4040404 0.78810656 0.41414142 0.7782457 0.42424244 0.76820546 0.43434343 0.75798905 0.44444445 0.7475995 0.45454547 0.7370398 0.46464646 0.72631323 0.47474748 0.71542275 0.4848485 0.7043716 0.4949495 0.6931627 0.5050505 0.6817992 0.5151515 0.67028415 0.5252525 0.6586207 0.53535354 0.64681196 0.54545456 0.634861 0.5555556 0.6227709 0.56565654 0.6105448 0.57575756 0.5981857 0.5858586 0.5856968 0.5959596 0.57308114 0.6060606 0.5603417 0.61616164 0.5474817 0.6262626 0.53450435 0.6363636 0.5214125 0.64646465 0.50820935 0.65656567 0.49489796 0.6666667 0.48148143 0.67676765 0.46796298 0.68686867 0.45434552 0.6969697 0.44063228 0.7070707 0.42682618 0.7171717 0.41293043 0.72727275 0.39894813 0.7373737 0.3848825 0.74747473 0.37073624 0.75757575 0.35651278 0.7676768 0.34221512 0.7777778 0.3278463 0.7878788 0.3134095 0.7979798 0.29890794 0.8080808 0.28434432 0.8181818 0.26972198 0.82828283 0.25504404 0.83838385 0.24031359 0.8484849 0.2255336 0.85858583 0.21070725 0.86868685 0.19583762 0.8787879 0.18092775 0.8888889 0.16598076 0.8989899 0.15099978 0.90909094 0.13598794 0.9191919 0.120948255 0.9292929 0.1058839 0.93939394 0.09079778 0.94949496 0.07569307 0.959596 0.06057298 0.969697 0.045440614 0.97979796 0.030298889 0.989899 0.015150964 1 0" stroke="red" stroke-width="0.04"/>
</svg>