<svg viewBox="-0.04 -0.04 1.08 1.08" width="6em" xmlns="http://www.w3.org/2000/svg">
<title>StartSteps(4, Start)</title>
<path d="M0,0 L0,1 M1,0 L1,1 M0,0 m0.1,0 l0.1,0 m0.1,0 l0.1,0 m0.1,0 l0.1,0 m0.1,0 l0.1,0 m0.1,0 l0.1,0 M0,1 m0.1,0 l0.1,0 m0.1,0 l0.1,0 m0.1,0 l0.1,0 m0.1,0 l0.1,0 m0.1,0 l0.1,0" fill="none" stroke="var(--main-color)" stroke-width="0.02"/>
<polyline fill="none" points="0 0.75 0.01010101 0.75 0.02020202 0.75 0.030303031 0.75 0.04040404 0.75 0.05050505 0.75 0.060606062 0.75 0.07070707 0.75 0.08080808 0.75 0.09090909 0.75 0.1010101 0.75 0.11111111 0.75 0.121212125 0.75 0.13131313 0.75 0.14141414 0.75 0.15151516 0.75 0.16161616 0.75 0.17171717 0.75 0.18181819 0.75 0.1919192 0.75 0.2020202 0.75 0.21212122 0.75 0.22222222 0.75 0.23232323 0.75 0.24242425 0.75 0.25252524 0.5 0.26262626 0.5 0.27272728 0.5 0.28282827 0.5 0.2929293 0.5 0.3030303 0.5 0.3131313 0.5 0.32323232 0.5 0.33333334 0.5 0.34343433 0.5 0.35353535 0.5 0.36363637 0.5 0.37373737 0.5 0.3838384 0.5 0.3939394 0.5 0.4040404 0.5 0.41414142 0.5 0.42424244 0.5 0.43434343 0.5 0.44444445 0.5 0.45454547 0.5 0.46464646 0.5 0.47474748 0.5 0.4848485 0.5 0.4949495 0.5 0.5050505 0.25 0.5151515 0.25 0.5252525 0.25 0.53535354 0.25 0.54545456 0.25 0.5555556 0.25 0.56565654 0.25 0.57575756 0.25 0.5858586 0.25 0.5959596 0.25 0.6060606 0.25 0.61616164 0.25 0.6262626 0.25 0.6363636 0.25 0.64646465 0.25 0.65656567 0.25 0.6666667 0.25 0.67676765 0.25 0.68686867 0.25 0.6969697 0.25 0.7070707 0.25 0.7171717 0.25 0.72727275 0.25 0.7373737 0.25 0.74747473 0.25 0.75757575 0 0.7676768 0 0.7777778 0 0.7878788 0 0.7979798 0 0.8080808 0 0.8181818 0 0.82828283 0 0.83838385 0 0.8484849 0 0.85858583 0 0.86868685 0 0.8787879 0 0.8888889 0 0.8989899 0 0.90909094 0 0.9191919 0 0.9292929 0 0.93939394 0 0.94949496 0 0.959596 0 0.969697 0 0.97979796 0 0.989899 0 1 0" stroke="red" stroke-width="0.04"/>
</svg>