v 0.5 -0.5 0.5
v 0.5 -0.5 -0.5
v 0.5 0.5 -0.5
v 0.5 0.5 0.5
v 0.5 0 0
v -0.5 0.5 0.5
v -0.5 0.5 -0.5
v -0.5 -0.5 -0.5
v -0.5 -0.5 0.5
v -0.5 0 0
v 0.5 0.5 0.5
v 0.5 0.5 -0.5
v -0.5 0.5 -0.5
v -0.5 0.5 0.5
v 0 0.5 0
v -0.5 -0.5 0.5
v -0.5 -0.5 -0.5
v 0.5 -0.5 -0.5
v 0.5 -0.5 0.5
v 0 -0.5 0
v -0.5 0.5 0.5
v -0.5 -0.5 0.5
v 0.5 -0.5 0.5
v 0.5 0.5 0.5
v 0 0 0.5
v 0.5 0.5 -0.5
v 0.5 -0.5 -0.5
v -0.5 -0.5 -0.5
v -0.5 0.5 -0.5
v 0 0 -0.5
vn 0.57735026 -0.57735026 0.57735026
vn 0.57735026 -0.57735026 -0.57735026
vn 0.57735026 0.57735026 -0.57735026
vn 0.57735026 0.57735026 0.57735026
vn 1 0 0
vn -0.57735026 0.57735026 0.57735026
vn -0.57735026 0.57735026 -0.57735026
vn -0.57735026 -0.57735026 -0.57735026
vn -0.57735026 -0.57735026 0.57735026
vn -1 0 0
vn 0.57735026 0.57735026 0.57735026
vn 0.57735026 0.57735026 -0.57735026
vn -0.57735026 0.57735026 -0.57735026
vn -0.57735026 0.57735026 0.57735026
vn 0 1 0
vn -0.57735026 -0.57735026 0.57735026
vn -0.57735026 -0.57735026 -0.57735026
vn 0.57735026 -0.57735026 -0.57735026
vn 0.57735026 -0.57735026 0.57735026
vn 0 -1 0
vn -0.57735026 0.57735026 0.57735026
vn -0.57735026 -0.57735026 0.57735026
vn 0.57735026 -0.57735026 0.57735026
vn 0.57735026 0.57735026 0.57735026
vn 0 0 1
vn 0.57735026 0.57735026 -0.57735026
vn 0.57735026 -0.57735026 -0.57735026
vn -0.57735026 -0.57735026 -0.57735026
vn -0.57735026 0.57735026 -0.57735026
vn 0 0 -1
vt 0 0
vt 0 1
vt 1 1
vt 1 0
vt 0.5 0.5
vt 1 0
vt 1 1
vt 0 1
vt 0 0
vt 0.5 0.5
vt 0 0
vt 0 1
vt 0 1
vt 0 0
vt 0 0.5
vt 0 0
vt 0 1
vt 0 1
vt 0 0
vt 0 0.5
vt 0 0
vt 0 1
vt 1 1
vt 1 0
vt 0.5 0.5
vt 1 0
vt 1 1
vt 0 1
vt 0 0
vt 0.5 0.5
f 1/1/1 2/2/2 5/5/5
f 2/2/2 3/3/3 5/5/5
f 3/3/3 4/4/4 5/5/5
f 4/4/4 1/1/1 5/5/5
f 6/6/6 7/7/7 10/10/10
f 7/7/7 8/8/8 10/10/10
f 8/8/8 9/9/9 10/10/10
f 9/9/9 6/6/6 10/10/10
f 11/11/11 12/12/12 15/15/15
f 12/12/12 13/13/13 15/15/15
f 13/13/13 14/14/14 15/15/15
f 14/14/14 11/11/11 15/15/15
f 16/16/16 17/17/17 20/20/20
f 17/17/17 18/18/18 20/20/20
f 18/18/18 19/19/19 20/20/20
f 19/19/19 16/16/16 20/20/20
f 21/21/21 22/22/22 25/25/25
f 22/22/22 23/23/23 25/25/25
f 23/23/23 24/24/24 25/25/25
f 24/24/24 21/21/21 25/25/25
f 26/26/26 27/27/27 30/30/30
f 27/27/27 28/28/28 30/30/30
f 28/28/28 29/29/29 30/30/30
f 29/29/29 26/26/26 30/30/30
