<svg role="img" viewBox="0 0 24 24" xmlns="http://www.w3.org/2000/svg"><title>Bevy Engine</title><path d="M18.742 6.287a3.14 3.14 0 0 0-.762.081c-.018.004-.033.01-.05.013-.29.287-.614.574-.96.856a5.63 5.63 0 0 0 .57 1.53c.508.911.927 1.398 1.172 2.03.246.632.289 1.376.06 2.73-.282 1.68-1.304 3.459-2.925 4.772 1.258-.367 2.33-1.044 3.04-1.865.767-.885 1.023-1.386 1.112-1.89.09-.505.006-1.058.041-1.997a5.372 5.372 0 0 1 .316-1.599l.04-.112.117-.015c1.049-.136 1.997-.404 2.487-.72-.158-.707-.826-1.257-1.712-1.674l-.084-.04-.021-.09c-.281-1.206-1.223-1.984-2.441-2.01Zm.61 1.49a.615.626 17.73 0 1 .184.028.615.626 17.73 0 1 .395.784.615.626 17.73 0 1-.776.41.615.626 17.73 0 1-.395-.784.615.626 17.73 0 1 .592-.438zm-5.676-4.598c-.761-.005-1.542.3-2.213.95-.881.856-1.155 1.626-1 2.587l.042.264-.263-.043c-1.936-.314-4.332-.155-7.058.947.802.344 2.272.917 3.904 1.7l.518.25-.563.114c-2.155.436-4.712 1.698-7.048 4.452 1.045-.081 3.18-.333 5.408-.329 1.238.002 2.458.088 3.452.345.994.258 1.898.848 2.025 1.28.127.432.055.66-.07.998-.126.338-.511.851-1.045 1.19-.533.34-1.21.636-1.914.888-1.406.503-2.903.825-3.564.887-.14.013-.196.063-.25.161a.969.969 0 0 0-.089.415c-.006.215.028.328.089.413.06.086.156.12.254.127 4.153.28 7.258-.764 9.513-1.659 2.594-1.189 4.233-3.538 4.589-5.652.223-1.325.175-1.974-.04-2.527-.215-.553-.627-1.044-1.15-1.982a6.133 6.133 0 0 1-.64-1.745l-.024-.116.092-.074c.961-.77 1.744-1.611 2.028-2.224-.583-.62-1.59-.751-2.718-.63l-.092.01-.066-.067c-.6-.612-1.346-.926-2.107-.93Zm.337 1.431a.715.715 0 0 1 .702.551.71.71 0 0 1-.516.863.711.711 0 0 1-.853-.532.711.711 0 0 1 .667-.882zm6.658 6.65h-.006a4.8 4.8 0 0 0-.24 1.3c-.034.908.058 1.461-.047 2.05-.104.588-.413 1.167-1.2 2.075-.935 1.081-2.418 1.918-4.132 2.2a8.883 8.883 0 0 1-1.009.557c1.333.502 2.728.53 3.833.166 1.948-.639 1.797-1.098 2.67-2.435.275-.421.592-.743.91-1.007.909.396 1.803.65 2.36.587.3-.694-.006-1.5-.516-2.262.418-1.3-.217-2.6-1.623-3.06a3.035 3.035 0 0 0-1-.171Zm1.055 1.909a.531.541 48.68 0 1 .408.178.531.541 48.68 0 1-.056.756.531.541 48.68 0 1-.757-.042.531.541 48.68 0 1 .055-.756.531.541 48.68 0 1 .35-.136zm-8.715 5.783.05.028.05-.02c-.034-.002-.067-.004-.1-.008z"/></svg>