<svg role="img" viewBox="0 0 24 24" xmlns="http://www.w3.org/2000/svg"><title>Bevy Engine</title><path d="M18.547 6.5a3.018 3.018 0 0 0-.734.078c-.018.004-.032.01-.048.013-.28.276-.592.553-.925.824.11.516.295 1.013.549 1.475.489.878.893 1.347 1.129 1.956.237.609.279 1.326.058 2.63-.272 1.619-1.257 3.333-2.819 4.599 1.213-.354 2.246-1.006 2.93-1.797.739-.853.986-1.336 1.071-1.822.087-.486.006-1.019.04-1.924a5.169 5.169 0 0 1 .304-1.541l.039-.108.113-.014c1.01-.131 1.924-.389 2.396-.694-.152-.681-.796-1.211-1.65-1.613l-.081-.038-.02-.087c-.271-1.162-1.178-1.912-2.352-1.937Zm.588 1.436c.06 0 .12.009.177.027a.6.6 0 0 1 .381.755v.001a.6.6 0 0 1-.748.394.6.6 0 0 1-.381-.755.603.603 0 0 1 .571-.422ZM13.165 3.5c-.734-.005-1.486.289-2.133.915-.849.825-1.113 1.567-.963 2.493l.04.255-.253-.042c-1.866-.302-4.174-.149-6.801.913.773.331 2.189.883 3.762 1.638l.499.241-.543.11c-2.076.42-4.54 1.636-6.791 4.289 1.007-.078 3.064-.32 5.211-.317 1.193.002 2.368.085 3.326.333.958.249 1.829.817 1.952 1.233.122.417.053.636-.068.962-.121.326-.492.82-1.007 1.147-.513.327-1.166.612-1.844.855-1.355.485-2.797.795-3.434.855-.135.013-.189.061-.241.155a.935.935 0 0 0-.086.4c-.006.207.027.316.086.398.058.083.15.116.244.122 4.002.27 6.994-.736 9.167-1.598 2.5-1.146 4.079-3.409 4.422-5.446.215-1.277.169-1.903-.039-2.435-.207-.533-.604-1.006-1.108-1.91a5.933 5.933 0 0 1-.616-1.682l-.024-.111.089-.072c.926-.742 1.681-1.552 1.954-2.143-.561-.597-1.532-.723-2.619-.607l-.088.01-.064-.065c-.578-.59-1.297-.892-2.03-.896Zm.324 1.379a.692.692 0 0 1 .698.699.685.685 0 0 1-.518.663.688.688 0 0 1-.842-.677c0-.368.295-.673.662-.685Zm7.353 6.621h-.005a4.607 4.607 0 0 0-.232 1.253c-.032.875.056 1.407-.045 1.975-.1.567-.398 1.125-1.156 1.999-.901 1.042-2.33 1.849-3.982 2.12-.312.2-.637.379-.972.537 1.284.484 2.629.511 3.693.16 1.878-.616 1.732-1.058 2.573-2.346a4.35 4.35 0 0 1 .877-.971c.876.382 1.737.627 2.274.566.289-.669-.006-1.445-.497-2.18.403-1.252-.209-2.505-1.564-2.948a2.902 2.902 0 0 0-.964-.165Zm1.017 1.839a.508.508 0 0 1 .393.172.519.519 0 0 1-.054.728.518.518 0 0 1-.729-.04.518.518 0 0 1 .053-.728.527.527 0 0 1 .337-.132Z"/></svg>
