<?xml version="1.0" encoding="UTF-8" standalone="no"?>
<svg
   sodipodi:docname="icon.svg"
   inkscape:version="1.1 (c68e22c387, 2021-05-23)"
   id="svg2321"
   version="1.1"
   viewBox="0 0 39.952082 39.952082"
   height="151"
   width="151"
   inkscape:export-xdpi="162.75497"
   inkscape:export-ydpi="162.75497"
   xmlns:inkscape="http://www.inkscape.org/namespaces/inkscape"
   xmlns:sodipodi="http://sodipodi.sourceforge.net/DTD/sodipodi-0.dtd"
   xmlns="http://www.w3.org/2000/svg"
   xmlns:svg="http://www.w3.org/2000/svg"
   xmlns:rdf="http://www.w3.org/1999/02/22-rdf-syntax-ns#"
   xmlns:cc="http://creativecommons.org/ns#">
  <defs
     id="defs2315" />
  <sodipodi:namedview
     fit-margin-bottom="0"
     fit-margin-right="0"
     fit-margin-left="0"
     fit-margin-top="0"
     inkscape:window-maximized="0"
     inkscape:window-y="0"
     inkscape:window-x="1720"
     inkscape:window-height="1440"
     inkscape:window-width="1720"
     showgrid="false"
     inkscape:document-rotation="0"
     inkscape:current-layer="layer1"
     inkscape:document-units="mm"
     inkscape:cy="-244.96199"
     inkscape:cx="-37.375644"
     inkscape:zoom="0.9899495"
     inkscape:pageshadow="2"
     inkscape:pageopacity="0.0"
     borderopacity="1.0"
     bordercolor="#666666"
     pagecolor="#ffffff"
     id="base"
     inkscape:pagecheckerboard="0" />
  <metadata
     id="metadata2318">
    <rdf:RDF>
      <cc:Work
         rdf:about="" />
    </rdf:RDF>
  </metadata>
  <g
     transform="translate(-32.430742,-116.62322)"
     id="layer1"
     inkscape:groupmode="layer"
     inkscape:label="Layer 1">
    <circle
       style="fill:#282828;stroke-width:0.134909;stroke-linecap:round;stop-color:#000000"
       id="path941"
       cx="52.40678"
       cy="136.59927"
       r="19.976042" />
    <g
       id="path3031-2-2-9"
       transform="matrix(1.5046797,0,0,1.5046797,33.152905,118.01134)"
       style="clip-rule:evenodd;fill-rule:evenodd;stroke-linejoin:round;stroke-miterlimit:2">
      <path
         d="m 13.676,3.179 c -0.761,-0.005 -1.542,0.3 -2.213,0.95 -0.881,0.856 -1.155,1.626 -1,2.587 L 10.505,6.98 10.242,6.937 C 8.306,6.623 5.91,6.782 3.184,7.884 c 0.802,0.344 2.272,0.917 3.904,1.7 l 0.518,0.25 -0.563,0.114 c -2.155,0.436 -4.712,1.698 -7.048,4.452 1.045,-0.081 3.18,-0.333 5.408,-0.329 1.238,0.002 2.458,0.088 3.452,0.345 0.994,0.258 1.898,0.848 2.025,1.28 0.127,0.432 0.055,0.66 -0.07,0.998 -0.126,0.338 -0.511,0.851 -1.045,1.19 -0.533,0.34 -1.21,0.636 -1.914,0.888 -1.406,0.503 -2.903,0.825 -3.564,0.887 -0.14,0.013 -0.196,0.063 -0.25,0.161 -0.06,0.13 -0.09,0.272 -0.089,0.415 -0.006,0.215 0.028,0.328 0.089,0.413 0.06,0.086 0.156,0.12 0.254,0.127 4.153,0.28 7.258,-0.764 9.513,-1.659 2.594,-1.189 4.233,-3.538 4.589,-5.652 0.223,-1.325 0.175,-1.974 -0.04,-2.527 C 18.138,10.384 17.726,9.893 17.203,8.955 16.902,8.409 16.686,7.821 16.563,7.21 L 16.539,7.094 16.631,7.02 c 0.961,-0.77 1.744,-1.611 2.028,-2.224 -0.583,-0.62 -1.59,-0.751 -2.718,-0.63 l -0.092,0.01 -0.066,-0.067 c -0.6,-0.612 -1.346,-0.926 -2.107,-0.93 z m 0.337,1.431 c 0.333,-0.003 0.626,0.227 0.702,0.551 0.014,0.057 0.022,0.115 0.022,0.174 0,0.325 -0.223,0.61 -0.538,0.689 -0.38,0.088 -0.765,-0.152 -0.853,-0.532 -0.014,-0.056 -0.021,-0.114 -0.021,-0.171 0,-0.382 0.307,-0.699 0.688,-0.711 z"
         style="fill:#ececec;fill-rule:nonzero"
         id="path3" />
    </g>
    <g
       id="path3008-7-0-9"
       transform="matrix(1.5046797,0,0,1.5046797,33.152905,118.01134)"
       style="clip-rule:evenodd;fill-rule:evenodd;stroke-linejoin:round;stroke-miterlimit:2">
      <path
         d="M 19.262,6.292 C 19.005,6.288 18.749,6.315 18.5,6.373 c -0.018,0.004 -0.033,0.01 -0.05,0.013 -0.29,0.287 -0.614,0.574 -0.96,0.856 0.114,0.535 0.306,1.051 0.57,1.53 0.508,0.911 0.927,1.398 1.172,2.03 0.246,0.632 0.289,1.376 0.06,2.73 -0.282,1.68 -1.304,3.459 -2.925,4.772 1.258,-0.367 2.33,-1.044 3.04,-1.865 0.767,-0.885 1.023,-1.386 1.112,-1.89 0.09,-0.505 0.006,-1.058 0.041,-1.997 0.023,-0.546 0.13,-1.085 0.316,-1.599 l 0.04,-0.112 0.117,-0.015 C 22.082,10.69 23.03,10.422 23.52,10.106 23.362,9.399 22.694,8.849 21.808,8.432 L 21.724,8.392 21.703,8.302 C 21.422,7.096 20.48,6.318 19.262,6.292 Z m 0.61,1.49 c 0.062,0 0.124,0.01 0.184,0.028 0.321,0.103 0.499,0.457 0.395,0.784 L 20.45,8.595 c -0.104,0.327 -0.454,0.512 -0.775,0.409 -0.322,-0.102 -0.5,-0.456 -0.395,-0.783 0,0 0,-10e-4 0,-10e-4 0.083,-0.26 0.323,-0.438 0.592,-0.438 z"
         style="fill:#b2b2b2;fill-rule:nonzero"
         id="path6" />
    </g>
    <g
       id="path819-1-94-5-3-1-9-6-4-90-0-8-9-5-8-6-1-6-2"
       transform="matrix(1.5046797,0,0,1.5046797,33.152905,118.01134)"
       style="clip-rule:evenodd;fill-rule:evenodd;stroke-linejoin:round;stroke-miterlimit:2">
      <path
         d="m 21.644,11.481 h -0.006 c -0.14,0.42 -0.221,0.858 -0.24,1.3 -0.034,0.908 0.058,1.461 -0.047,2.05 -0.104,0.588 -0.413,1.167 -1.2,2.075 -0.935,1.081 -2.418,1.918 -4.132,2.2 -0.324,0.208 -0.661,0.394 -1.009,0.557 1.333,0.502 2.728,0.53 3.833,0.166 1.948,-0.639 1.797,-1.098 2.67,-2.435 0.275,-0.421 0.592,-0.743 0.91,-1.007 0.909,0.396 1.803,0.65 2.36,0.587 0.3,-0.694 -0.006,-1.5 -0.516,-2.262 0.418,-1.3 -0.217,-2.6 -1.623,-3.06 -0.322,-0.112 -0.66,-0.17 -1,-0.171 z m 1.055,1.909 c 0.156,-0.003 0.306,0.062 0.408,0.178 0.192,0.219 0.167,0.56 -0.056,0.756 0,0 0,0 0,0 -0.223,0.196 -0.565,0.177 -0.757,-0.041 0,-10e-4 0,-10e-4 0,-10e-4 -0.193,-0.218 -0.168,-0.56 0.055,-0.756 0.097,-0.085 0.221,-0.133 0.35,-0.136 z"
         style="fill:#787878;fill-rule:nonzero"
         id="path9" />
    </g>
  </g>
</svg>
