{"scenes":[{"nodes":[0]}],"nodes":[{"skin":0,"mesh":0,"children":[1]},{"children":[2],"translation":[0,1,0]},{"rotation":[0,0,0,1]}],"meshes":[{"primitives":[{"attributes":{"POSITION":1,"JOINTS_0":2,"WEIGHTS_0":3},"indices":0}]}],"skins":[{"inverseBindMatrices":4,"joints":[1,2]}],"animations":[{"channels":[{"sampler":0,"target":{"node":2,"path":"rotation"}}],"samplers":[{"input":5,"interpolation":"LINEAR","output":6}]}],"buffers":[{"uri":"data:application/gltf-buffer;base64,","byteLength":168},{"uri":"data:application/gltf-buffer;base64,","byteLength":320},{"uri":"data:application/gltf-buffer;base64,","byteLength":128},{"uri":"data:application/gltf-buffer;base64,","byteLength":240}],"bufferViews":[{"buffer":0,"byteOffset":0,"byteLength":48,"target":34963},{"buffer":0,"byteOffset":48,"byteLength":120,"target":34962},{"buffer":1,"byteOffset":0,"byteLength":320,"byteStride":16},{"buffer":2,"byteOffset":0,"byteLength":128},{"buffer":3,"byteOffset":0,"byteLength":240}],"accessors":[{"bufferView":0,"byteOffset":0,"componentType":5123,"count":24,"type":"SCALAR","max":[9],"min":[0]},{"bufferView":1,"byteOffset":0,"componentType":5126,"count":10,"type":"VEC3","max":[1,2,0],"min":[0,0,0]},{"bufferView":2,"byteOffset":0,"componentType":5123,"count":10,"type":"VEC4","max":[0,1,0,0],"min":[0,1,0,0]},{"bufferView":2,"byteOffset":160,"componentType":5126,"count":10,"type":"VEC4","max":[1,1,0,0],"min":[0,0,0,0]},{"bufferView":3,"byteOffset":0,"componentType":5126,"count":2,"type":"MAT4","max":[1,0,0,0,0,1,0,0,0,0,1,0,-0.5,-1,0,1],"min":[1,0,0,0,0,1,0,0,0,0,1,0,-0.5,-1,0,1]},{"bufferView":4,"byteOffset":0,"componentType":5126,"count":12,"type":"SCALAR","max":[5.5],"min":[0]},{"bufferView":4,"byteOffset":48,"componentType":5126,"count":12,"type":"VEC4","max":[0,0,0.707,1],"min":[0,0,-0.707,0.707]}],"asset":{"version":"2.0"}}