{
	"asset":{
		"generator":"Khronos glTF Blender I/O v4.0.32",
		"version":"2.0"
	},
	"scene":0,
	"scenes":[
		{
			"name":"Scene",
			"nodes":[
				7
			]
		}
	],
	"nodes":[
		{
			"mesh":0,
			"name":"leg-left",
			"translation":[
				0.125,
				0.17624998092651367,
				-0.023749999701976776
			]
		},
		{
			"mesh":1,
			"name":"leg-right",
			"translation":[
				-0.125,
				0.17624998092651367,
				-0.023750001564621925
			]
		},
		{
			"mesh":2,
			"name":"antenna",
			"translation":[
				0,
				0.6000000238418579,
				0
			]
		},
		{
			"mesh":3,
			"name":"arm-left",
			"translation":[
				0.30000001192092896,
				0.17500001192092896,
				0
			]
		},
		{
			"mesh":4,
			"name":"arm-right",
			"translation":[
				-0.30000001192092896,
				0.11949998140335083,
				0
			]
		},
		{
			"children":[
				2,
				3,
				4
			],
			"mesh":5,
			"name":"torso",
			"translation":[
				0,
				0.17624998092651367,
				-0.023749999701976776
			]
		},
		{
			"children":[
				0,
				1,
				5
			],
			"name":"root",
			"translation":[
				0,
				0.023749999701976776,
				0
			]
		},
		{
			"children":[
				6
			],
			"name":"character"
		}
	],
	"animations":[
		{
			"channels":[
				{
					"sampler":0,
					"target":{
						"node":6,
						"path":"translation"
					}
				},
				{
					"sampler":1,
					"target":{
						"node":6,
						"path":"rotation"
					}
				},
				{
					"sampler":2,
					"target":{
						"node":6,
						"path":"scale"
					}
				},
				{
					"sampler":3,
					"target":{
						"node":0,
						"path":"translation"
					}
				},
				{
					"sampler":4,
					"target":{
						"node":0,
						"path":"rotation"
					}
				},
				{
					"sampler":5,
					"target":{
						"node":0,
						"path":"scale"
					}
				},
				{
					"sampler":6,
					"target":{
						"node":1,
						"path":"translation"
					}
				},
				{
					"sampler":7,
					"target":{
						"node":1,
						"path":"rotation"
					}
				},
				{
					"sampler":8,
					"target":{
						"node":1,
						"path":"scale"
					}
				},
				{
					"sampler":9,
					"target":{
						"node":5,
						"path":"translation"
					}
				},
				{
					"sampler":10,
					"target":{
						"node":5,
						"path":"rotation"
					}
				},
				{
					"sampler":11,
					"target":{
						"node":5,
						"path":"scale"
					}
				},
				{
					"sampler":12,
					"target":{
						"node":2,
						"path":"translation"
					}
				},
				{
					"sampler":13,
					"target":{
						"node":2,
						"path":"rotation"
					}
				},
				{
					"sampler":14,
					"target":{
						"node":2,
						"path":"scale"
					}
				},
				{
					"sampler":15,
					"target":{
						"node":3,
						"path":"translation"
					}
				},
				{
					"sampler":16,
					"target":{
						"node":3,
						"path":"rotation"
					}
				},
				{
					"sampler":17,
					"target":{
						"node":3,
						"path":"scale"
					}
				},
				{
					"sampler":18,
					"target":{
						"node":4,
						"path":"translation"
					}
				},
				{
					"sampler":19,
					"target":{
						"node":4,
						"path":"rotation"
					}
				},
				{
					"sampler":20,
					"target":{
						"node":4,
						"path":"scale"
					}
				}
			],
			"name":"static",
			"samplers":[
				{
					"input":24,
					"interpolation":"LINEAR",
					"output":25
				},
				{
					"input":24,
					"interpolation":"LINEAR",
					"output":26
				},
				{
					"input":24,
					"interpolation":"LINEAR",
					"output":27
				},
				{
					"input":24,
					"interpolation":"LINEAR",
					"output":28
				},
				{
					"input":24,
					"interpolation":"LINEAR",
					"output":29
				},
				{
					"input":24,
					"interpolation":"LINEAR",
					"output":30
				},
				{
					"input":24,
					"interpolation":"LINEAR",
					"output":31
				},
				{
					"input":24,
					"interpolation":"LINEAR",
					"output":32
				},
				{
					"input":24,
					"interpolation":"LINEAR",
					"output":33
				},
				{
					"input":24,
					"interpolation":"LINEAR",
					"output":34
				},
				{
					"input":24,
					"interpolation":"LINEAR",
					"output":35
				},
				{
					"input":24,
					"interpolation":"LINEAR",
					"output":36
				},
				{
					"input":24,
					"interpolation":"LINEAR",
					"output":37
				},
				{
					"input":24,
					"interpolation":"LINEAR",
					"output":38
				},
				{
					"input":24,
					"interpolation":"LINEAR",
					"output":39
				},
				{
					"input":24,
					"interpolation":"LINEAR",
					"output":40
				},
				{
					"input":24,
					"interpolation":"LINEAR",
					"output":41
				},
				{
					"input":24,
					"interpolation":"LINEAR",
					"output":42
				},
				{
					"input":24,
					"interpolation":"LINEAR",
					"output":43
				},
				{
					"input":24,
					"interpolation":"LINEAR",
					"output":44
				},
				{
					"input":24,
					"interpolation":"LINEAR",
					"output":45
				}
			]
		},
		{
			"channels":[
				{
					"sampler":0,
					"target":{
						"node":6,
						"path":"translation"
					}
				},
				{
					"sampler":1,
					"target":{
						"node":0,
						"path":"translation"
					}
				},
				{
					"sampler":2,
					"target":{
						"node":0,
						"path":"rotation"
					}
				},
				{
					"sampler":3,
					"target":{
						"node":1,
						"path":"translation"
					}
				},
				{
					"sampler":4,
					"target":{
						"node":1,
						"path":"rotation"
					}
				},
				{
					"sampler":5,
					"target":{
						"node":5,
						"path":"rotation"
					}
				},
				{
					"sampler":6,
					"target":{
						"node":2,
						"path":"rotation"
					}
				},
				{
					"sampler":7,
					"target":{
						"node":3,
						"path":"rotation"
					}
				},
				{
					"sampler":8,
					"target":{
						"node":4,
						"path":"rotation"
					}
				}
			],
			"name":"walk",
			"samplers":[
				{
					"input":46,
					"interpolation":"LINEAR",
					"output":47
				},
				{
					"input":46,
					"interpolation":"LINEAR",
					"output":48
				},
				{
					"input":46,
					"interpolation":"LINEAR",
					"output":49
				},
				{
					"input":46,
					"interpolation":"LINEAR",
					"output":50
				},
				{
					"input":46,
					"interpolation":"LINEAR",
					"output":51
				},
				{
					"input":46,
					"interpolation":"LINEAR",
					"output":52
				},
				{
					"input":46,
					"interpolation":"LINEAR",
					"output":53
				},
				{
					"input":46,
					"interpolation":"LINEAR",
					"output":54
				},
				{
					"input":46,
					"interpolation":"LINEAR",
					"output":55
				}
			]
		},
		{
			"channels":[
				{
					"sampler":0,
					"target":{
						"node":0,
						"path":"rotation"
					}
				},
				{
					"sampler":1,
					"target":{
						"node":1,
						"path":"rotation"
					}
				},
				{
					"sampler":2,
					"target":{
						"node":5,
						"path":"rotation"
					}
				},
				{
					"sampler":3,
					"target":{
						"node":2,
						"path":"rotation"
					}
				},
				{
					"sampler":4,
					"target":{
						"node":3,
						"path":"rotation"
					}
				},
				{
					"sampler":5,
					"target":{
						"node":4,
						"path":"rotation"
					}
				}
			],
			"name":"idle",
			"samplers":[
				{
					"input":56,
					"interpolation":"LINEAR",
					"output":57
				},
				{
					"input":56,
					"interpolation":"LINEAR",
					"output":58
				},
				{
					"input":59,
					"interpolation":"LINEAR",
					"output":60
				},
				{
					"input":59,
					"interpolation":"LINEAR",
					"output":61
				},
				{
					"input":59,
					"interpolation":"LINEAR",
					"output":62
				},
				{
					"input":59,
					"interpolation":"LINEAR",
					"output":63
				}
			]
		},
		{
			"channels":[
				{
					"sampler":0,
					"target":{
						"node":0,
						"path":"translation"
					}
				},
				{
					"sampler":1,
					"target":{
						"node":0,
						"path":"rotation"
					}
				},
				{
					"sampler":2,
					"target":{
						"node":1,
						"path":"translation"
					}
				},
				{
					"sampler":3,
					"target":{
						"node":1,
						"path":"rotation"
					}
				},
				{
					"sampler":4,
					"target":{
						"node":5,
						"path":"rotation"
					}
				},
				{
					"sampler":5,
					"target":{
						"node":2,
						"path":"rotation"
					}
				},
				{
					"sampler":6,
					"target":{
						"node":3,
						"path":"rotation"
					}
				},
				{
					"sampler":7,
					"target":{
						"node":4,
						"path":"rotation"
					}
				}
			],
			"name":"jump",
			"samplers":[
				{
					"input":64,
					"interpolation":"LINEAR",
					"output":65
				},
				{
					"input":66,
					"interpolation":"LINEAR",
					"output":67
				},
				{
					"input":64,
					"interpolation":"LINEAR",
					"output":68
				},
				{
					"input":66,
					"interpolation":"LINEAR",
					"output":69
				},
				{
					"input":66,
					"interpolation":"LINEAR",
					"output":70
				},
				{
					"input":66,
					"interpolation":"LINEAR",
					"output":71
				},
				{
					"input":66,
					"interpolation":"LINEAR",
					"output":72
				},
				{
					"input":66,
					"interpolation":"LINEAR",
					"output":73
				}
			]
		}
	],
	"materials":[
		{
			"doubleSided":true,
			"name":"colormap",
			"pbrMetallicRoughness":{
				"baseColorTexture":{
					"index":0
				},
				"metallicFactor":0
			}
		}
	],
	"meshes":[
		{
			"name":"leg-left",
			"primitives":[
				{
					"attributes":{
						"POSITION":0,
						"NORMAL":1,
						"TEXCOORD_0":2
					},
					"indices":3,
					"material":0
				}
			]
		},
		{
			"name":"leg-right",
			"primitives":[
				{
					"attributes":{
						"POSITION":4,
						"NORMAL":5,
						"TEXCOORD_0":6
					},
					"indices":7,
					"material":0
				}
			]
		},
		{
			"name":"antenna",
			"primitives":[
				{
					"attributes":{
						"POSITION":8,
						"NORMAL":9,
						"TEXCOORD_0":10
					},
					"indices":11,
					"material":0
				}
			]
		},
		{
			"name":"arm-left",
			"primitives":[
				{
					"attributes":{
						"POSITION":12,
						"NORMAL":13,
						"TEXCOORD_0":14
					},
					"indices":15,
					"material":0
				}
			]
		},
		{
			"name":"arm-right",
			"primitives":[
				{
					"attributes":{
						"POSITION":16,
						"NORMAL":17,
						"TEXCOORD_0":18
					},
					"indices":19,
					"material":0
				}
			]
		},
		{
			"name":"torso",
			"primitives":[
				{
					"attributes":{
						"POSITION":20,
						"NORMAL":21,
						"TEXCOORD_0":22
					},
					"indices":23,
					"material":0
				}
			]
		}
	],
	"textures":[
		{
			"sampler":0,
			"source":0
		}
	],
	"images":[
		{
			"mimeType":"image/png",
			"name":"colormap",
			"uri":"colormap.png"
		}
	],
	"accessors":[
		{
			"bufferView":0,
			"componentType":5126,
			"count":76,
			"max":[
				0.07500000298023224,
				0.10000000149011612,
				0.15000000596046448
			],
			"min":[
				-0.07500000298023224,
				-0.20000000298023224,
				-0.07500000298023224
			],
			"type":"VEC3"
		},
		{
			"bufferView":1,
			"componentType":5126,
			"count":76,
			"type":"VEC3"
		},
		{
			"bufferView":2,
			"componentType":5126,
			"count":76,
			"type":"VEC2"
		},
		{
			"bufferView":3,
			"componentType":5123,
			"count":132,
			"type":"SCALAR"
		},
		{
			"bufferView":4,
			"componentType":5126,
			"count":76,
			"max":[
				0.07500000298023224,
				0.10000000149011612,
				0.15000000596046448
			],
			"min":[
				-0.07500000298023224,
				-0.20000000298023224,
				-0.07500000298023224
			],
			"type":"VEC3"
		},
		{
			"bufferView":5,
			"componentType":5126,
			"count":76,
			"type":"VEC3"
		},
		{
			"bufferView":6,
			"componentType":5126,
			"count":76,
			"type":"VEC2"
		},
		{
			"bufferView":7,
			"componentType":5123,
			"count":132,
			"type":"SCALAR"
		},
		{
			"bufferView":8,
			"componentType":5126,
			"count":256,
			"max":[
				0.10000002384185791,
				0.30000001192092896,
				0.09999997913837433
			],
			"min":[
				-0.09999997913837433,
				-0.049999989569187164,
				-0.10000002384185791
			],
			"type":"VEC3"
		},
		{
			"bufferView":9,
			"componentType":5126,
			"count":256,
			"type":"VEC3"
		},
		{
			"bufferView":10,
			"componentType":5126,
			"count":256,
			"type":"VEC2"
		},
		{
			"bufferView":11,
			"componentType":5123,
			"count":360,
			"type":"SCALAR"
		},
		{
			"bufferView":12,
			"componentType":5126,
			"count":134,
			"max":[
				0.30000001192092896,
				0.125,
				0.125
			],
			"min":[
				-0.15000000596046448,
				-0.125,
				-0.125
			],
			"type":"VEC3"
		},
		{
			"bufferView":13,
			"componentType":5126,
			"count":134,
			"type":"VEC3"
		},
		{
			"bufferView":14,
			"componentType":5126,
			"count":134,
			"type":"VEC2"
		},
		{
			"bufferView":15,
			"componentType":5123,
			"count":240,
			"type":"SCALAR"
		},
		{
			"bufferView":16,
			"componentType":5126,
			"count":134,
			"max":[
				0.15000000596046448,
				0.18050000071525574,
				0.125
			],
			"min":[
				-0.30000001192092896,
				-0.06949999928474426,
				-0.125
			],
			"type":"VEC3"
		},
		{
			"bufferView":17,
			"componentType":5126,
			"count":134,
			"type":"VEC3"
		},
		{
			"bufferView":18,
			"componentType":5126,
			"count":134,
			"type":"VEC2"
		},
		{
			"bufferView":19,
			"componentType":5123,
			"count":240,
			"type":"SCALAR"
		},
		{
			"bufferView":20,
			"componentType":5126,
			"count":362,
			"max":[
				0.30000001192092896,
				0.6000000238418579,
				0.33500000834465027
			],
			"min":[
				-0.30000001192092896,
				0,
				-0.30000001192092896
			],
			"type":"VEC3"
		},
		{
			"bufferView":21,
			"componentType":5126,
			"count":362,
			"type":"VEC3"
		},
		{
			"bufferView":22,
			"componentType":5126,
			"count":362,
			"type":"VEC2"
		},
		{
			"bufferView":23,
			"componentType":5123,
			"count":546,
			"type":"SCALAR"
		},
		{
			"bufferView":24,
			"componentType":5126,
			"count":2,
			"max":[
				1
			],
			"min":[
				0
			],
			"type":"SCALAR"
		},
		{
			"bufferView":25,
			"componentType":5126,
			"count":2,
			"type":"VEC3"
		},
		{
			"bufferView":26,
			"componentType":5126,
			"count":2,
			"type":"VEC4"
		},
		{
			"bufferView":27,
			"componentType":5126,
			"count":2,
			"type":"VEC3"
		},
		{
			"bufferView":28,
			"componentType":5126,
			"count":2,
			"type":"VEC3"
		},
		{
			"bufferView":29,
			"componentType":5126,
			"count":2,
			"type":"VEC4"
		},
		{
			"bufferView":30,
			"componentType":5126,
			"count":2,
			"type":"VEC3"
		},
		{
			"bufferView":31,
			"componentType":5126,
			"count":2,
			"type":"VEC3"
		},
		{
			"bufferView":32,
			"componentType":5126,
			"count":2,
			"type":"VEC4"
		},
		{
			"bufferView":33,
			"componentType":5126,
			"count":2,
			"type":"VEC3"
		},
		{
			"bufferView":34,
			"componentType":5126,
			"count":2,
			"type":"VEC3"
		},
		{
			"bufferView":35,
			"componentType":5126,
			"count":2,
			"type":"VEC4"
		},
		{
			"bufferView":36,
			"componentType":5126,
			"count":2,
			"type":"VEC3"
		},
		{
			"bufferView":37,
			"componentType":5126,
			"count":2,
			"type":"VEC3"
		},
		{
			"bufferView":38,
			"componentType":5126,
			"count":2,
			"type":"VEC4"
		},
		{
			"bufferView":39,
			"componentType":5126,
			"count":2,
			"type":"VEC3"
		},
		{
			"bufferView":40,
			"componentType":5126,
			"count":2,
			"type":"VEC3"
		},
		{
			"bufferView":41,
			"componentType":5126,
			"count":2,
			"type":"VEC4"
		},
		{
			"bufferView":42,
			"componentType":5126,
			"count":2,
			"type":"VEC3"
		},
		{
			"bufferView":43,
			"componentType":5126,
			"count":2,
			"type":"VEC3"
		},
		{
			"bufferView":44,
			"componentType":5126,
			"count":2,
			"type":"VEC4"
		},
		{
			"bufferView":45,
			"componentType":5126,
			"count":2,
			"type":"VEC3"
		},
		{
			"bufferView":46,
			"componentType":5126,
			"count":11,
			"max":[
				0.4166666666666667
			],
			"min":[
				0
			],
			"type":"SCALAR"
		},
		{
			"bufferView":47,
			"componentType":5126,
			"count":11,
			"type":"VEC3"
		},
		{
			"bufferView":48,
			"componentType":5126,
			"count":11,
			"type":"VEC3"
		},
		{
			"bufferView":49,
			"componentType":5126,
			"count":11,
			"type":"VEC4"
		},
		{
			"bufferView":50,
			"componentType":5126,
			"count":11,
			"type":"VEC3"
		},
		{
			"bufferView":51,
			"componentType":5126,
			"count":11,
			"type":"VEC4"
		},
		{
			"bufferView":52,
			"componentType":5126,
			"count":11,
			"type":"VEC4"
		},
		{
			"bufferView":53,
			"componentType":5126,
			"count":11,
			"type":"VEC4"
		},
		{
			"bufferView":54,
			"componentType":5126,
			"count":11,
			"type":"VEC4"
		},
		{
			"bufferView":55,
			"componentType":5126,
			"count":11,
			"type":"VEC4"
		},
		{
			"bufferView":56,
			"componentType":5126,
			"count":2,
			"max":[
				0.6666666666666666
			],
			"min":[
				0
			],
			"type":"SCALAR"
		},
		{
			"bufferView":57,
			"componentType":5126,
			"count":2,
			"type":"VEC4"
		},
		{
			"bufferView":58,
			"componentType":5126,
			"count":2,
			"type":"VEC4"
		},
		{
			"bufferView":59,
			"componentType":5126,
			"count":17,
			"max":[
				0.6666666666666666
			],
			"min":[
				0
			],
			"type":"SCALAR"
		},
		{
			"bufferView":60,
			"componentType":5126,
			"count":17,
			"type":"VEC4"
		},
		{
			"bufferView":61,
			"componentType":5126,
			"count":17,
			"type":"VEC4"
		},
		{
			"bufferView":62,
			"componentType":5126,
			"count":17,
			"type":"VEC4"
		},
		{
			"bufferView":63,
			"componentType":5126,
			"count":17,
			"type":"VEC4"
		},
		{
			"bufferView":64,
			"componentType":5126,
			"count":2,
			"max":[
				0.5
			],
			"min":[
				0
			],
			"type":"SCALAR"
		},
		{
			"bufferView":65,
			"componentType":5126,
			"count":2,
			"type":"VEC3"
		},
		{
			"bufferView":66,
			"componentType":5126,
			"count":13,
			"max":[
				0.5
			],
			"min":[
				0
			],
			"type":"SCALAR"
		},
		{
			"bufferView":67,
			"componentType":5126,
			"count":13,
			"type":"VEC4"
		},
		{
			"bufferView":68,
			"componentType":5126,
			"count":2,
			"type":"VEC3"
		},
		{
			"bufferView":69,
			"componentType":5126,
			"count":13,
			"type":"VEC4"
		},
		{
			"bufferView":70,
			"componentType":5126,
			"count":13,
			"type":"VEC4"
		},
		{
			"bufferView":71,
			"componentType":5126,
			"count":13,
			"type":"VEC4"
		},
		{
			"bufferView":72,
			"componentType":5126,
			"count":13,
			"type":"VEC4"
		},
		{
			"bufferView":73,
			"componentType":5126,
			"count":13,
			"type":"VEC4"
		}
	],
	"bufferViews":[
		{
			"buffer":0,
			"byteLength":912,
			"byteOffset":0,
			"target":34962
		},
		{
			"buffer":0,
			"byteLength":912,
			"byteOffset":912,
			"target":34962
		},
		{
			"buffer":0,
			"byteLength":608,
			"byteOffset":1824,
			"target":34962
		},
		{
			"buffer":0,
			"byteLength":264,
			"byteOffset":2432,
			"target":34963
		},
		{
			"buffer":0,
			"byteLength":912,
			"byteOffset":2696,
			"target":34962
		},
		{
			"buffer":0,
			"byteLength":912,
			"byteOffset":3608,
			"target":34962
		},
		{
			"buffer":0,
			"byteLength":608,
			"byteOffset":4520,
			"target":34962
		},
		{
			"buffer":0,
			"byteLength":264,
			"byteOffset":5128,
			"target":34963
		},
		{
			"buffer":0,
			"byteLength":3072,
			"byteOffset":5392,
			"target":34962
		},
		{
			"buffer":0,
			"byteLength":3072,
			"byteOffset":8464,
			"target":34962
		},
		{
			"buffer":0,
			"byteLength":2048,
			"byteOffset":11536,
			"target":34962
		},
		{
			"buffer":0,
			"byteLength":720,
			"byteOffset":13584,
			"target":34963
		},
		{
			"buffer":0,
			"byteLength":1608,
			"byteOffset":14304,
			"target":34962
		},
		{
			"buffer":0,
			"byteLength":1608,
			"byteOffset":15912,
			"target":34962
		},
		{
			"buffer":0,
			"byteLength":1072,
			"byteOffset":17520,
			"target":34962
		},
		{
			"buffer":0,
			"byteLength":480,
			"byteOffset":18592,
			"target":34963
		},
		{
			"buffer":0,
			"byteLength":1608,
			"byteOffset":19072,
			"target":34962
		},
		{
			"buffer":0,
			"byteLength":1608,
			"byteOffset":20680,
			"target":34962
		},
		{
			"buffer":0,
			"byteLength":1072,
			"byteOffset":22288,
			"target":34962
		},
		{
			"buffer":0,
			"byteLength":480,
			"byteOffset":23360,
			"target":34963
		},
		{
			"buffer":0,
			"byteLength":4344,
			"byteOffset":23840,
			"target":34962
		},
		{
			"buffer":0,
			"byteLength":4344,
			"byteOffset":28184,
			"target":34962
		},
		{
			"buffer":0,
			"byteLength":2896,
			"byteOffset":32528,
			"target":34962
		},
		{
			"buffer":0,
			"byteLength":1092,
			"byteOffset":35424,
			"target":34963
		},
		{
			"buffer":0,
			"byteLength":8,
			"byteOffset":36516
		},
		{
			"buffer":0,
			"byteLength":24,
			"byteOffset":36524
		},
		{
			"buffer":0,
			"byteLength":32,
			"byteOffset":36548
		},
		{
			"buffer":0,
			"byteLength":24,
			"byteOffset":36580
		},
		{
			"buffer":0,
			"byteLength":24,
			"byteOffset":36604
		},
		{
			"buffer":0,
			"byteLength":32,
			"byteOffset":36628
		},
		{
			"buffer":0,
			"byteLength":24,
			"byteOffset":36660
		},
		{
			"buffer":0,
			"byteLength":24,
			"byteOffset":36684
		},
		{
			"buffer":0,
			"byteLength":32,
			"byteOffset":36708
		},
		{
			"buffer":0,
			"byteLength":24,
			"byteOffset":36740
		},
		{
			"buffer":0,
			"byteLength":24,
			"byteOffset":36764
		},
		{
			"buffer":0,
			"byteLength":32,
			"byteOffset":36788
		},
		{
			"buffer":0,
			"byteLength":24,
			"byteOffset":36820
		},
		{
			"buffer":0,
			"byteLength":24,
			"byteOffset":36844
		},
		{
			"buffer":0,
			"byteLength":32,
			"byteOffset":36868
		},
		{
			"buffer":0,
			"byteLength":24,
			"byteOffset":36900
		},
		{
			"buffer":0,
			"byteLength":24,
			"byteOffset":36924
		},
		{
			"buffer":0,
			"byteLength":32,
			"byteOffset":36948
		},
		{
			"buffer":0,
			"byteLength":24,
			"byteOffset":36980
		},
		{
			"buffer":0,
			"byteLength":24,
			"byteOffset":37004
		},
		{
			"buffer":0,
			"byteLength":32,
			"byteOffset":37028
		},
		{
			"buffer":0,
			"byteLength":24,
			"byteOffset":37060
		},
		{
			"buffer":0,
			"byteLength":44,
			"byteOffset":37084
		},
		{
			"buffer":0,
			"byteLength":132,
			"byteOffset":37128
		},
		{
			"buffer":0,
			"byteLength":132,
			"byteOffset":37260
		},
		{
			"buffer":0,
			"byteLength":176,
			"byteOffset":37392
		},
		{
			"buffer":0,
			"byteLength":132,
			"byteOffset":37568
		},
		{
			"buffer":0,
			"byteLength":176,
			"byteOffset":37700
		},
		{
			"buffer":0,
			"byteLength":176,
			"byteOffset":37876
		},
		{
			"buffer":0,
			"byteLength":176,
			"byteOffset":38052
		},
		{
			"buffer":0,
			"byteLength":176,
			"byteOffset":38228
		},
		{
			"buffer":0,
			"byteLength":176,
			"byteOffset":38404
		},
		{
			"buffer":0,
			"byteLength":8,
			"byteOffset":38580
		},
		{
			"buffer":0,
			"byteLength":32,
			"byteOffset":38588
		},
		{
			"buffer":0,
			"byteLength":32,
			"byteOffset":38620
		},
		{
			"buffer":0,
			"byteLength":68,
			"byteOffset":38652
		},
		{
			"buffer":0,
			"byteLength":272,
			"byteOffset":38720
		},
		{
			"buffer":0,
			"byteLength":272,
			"byteOffset":38992
		},
		{
			"buffer":0,
			"byteLength":272,
			"byteOffset":39264
		},
		{
			"buffer":0,
			"byteLength":272,
			"byteOffset":39536
		},
		{
			"buffer":0,
			"byteLength":8,
			"byteOffset":39808
		},
		{
			"buffer":0,
			"byteLength":24,
			"byteOffset":39816
		},
		{
			"buffer":0,
			"byteLength":52,
			"byteOffset":39840
		},
		{
			"buffer":0,
			"byteLength":208,
			"byteOffset":39892
		},
		{
			"buffer":0,
			"byteLength":24,
			"byteOffset":40100
		},
		{
			"buffer":0,
			"byteLength":208,
			"byteOffset":40124
		},
		{
			"buffer":0,
			"byteLength":208,
			"byteOffset":40332
		},
		{
			"buffer":0,
			"byteLength":208,
			"byteOffset":40540
		},
		{
			"buffer":0,
			"byteLength":208,
			"byteOffset":40748
		},
		{
			"buffer":0,
			"byteLength":208,
			"byteOffset":40956
		}
	],
	"samplers":[
		{
			"magFilter":9729,
			"minFilter":9987
		}
	],
	"buffers":[
		{
			"byteLength":41164,
			"uri":"character.bin"
		}
	]
}
