{
  "extensionsUsed": [
    "KHR_materials_unlit"
  ],
  "asset": {
    "generator": "UniGLTF-1.27",
    "version": "2.0"
  },
  "buffers": [
    {
      "uri": "craft_speederD_data.bin",
      "byteLength": 20120
    }
  ],
  "bufferViews": [
    {
      "buffer": 0,
      "byteOffset": 0,
      "byteLength": 6096,
      "target": 34962
    },
    {
      "buffer": 0,
      "byteOffset": 6096,
      "byteLength": 6096,
      "target": 34962
    },
    {
      "buffer": 0,
      "byteOffset": 12192,
      "byteLength": 4064,
      "target": 34962
    },
    {
      "buffer": 0,
      "byteOffset": 16256,
      "byteLength": 732,
      "target": 34963
    },
    {
      "buffer": 0,
      "byteOffset": 16988,
      "byteLength": 1368,
      "target": 34963
    },
    {
      "buffer": 0,
      "byteOffset": 18356,
      "byteLength": 456,
      "target": 34963
    },
    {
      "buffer": 0,
      "byteOffset": 18812,
      "byteLength": 1308,
      "target": 34963
    }
  ],
  "accessors": [
    {
      "bufferView": 0,
      "byteOffset": 0,
      "type": "VEC3",
      "componentType": 5126,
      "count": 508,
      "max": [
        1.4,
        0.9,
        1.11283529
      ],
      "min": [
        -1.4,
        0,
        -1.11283529
      ],
      "normalized": false
    },
    {
      "bufferView": 1,
      "byteOffset": 0,
      "type": "VEC3",
      "componentType": 5126,
      "count": 508,
      "normalized": false
    },
    {
      "bufferView": 2,
      "byteOffset": 0,
      "type": "VEC2",
      "componentType": 5126,
      "count": 508,
      "normalized": false
    },
    {
      "bufferView": 3,
      "byteOffset": 0,
      "type": "SCALAR",
      "componentType": 5125,
      "count": 183,
      "normalized": false
    },
    {
      "bufferView": 4,
      "byteOffset": 0,
      "type": "SCALAR",
      "componentType": 5125,
      "count": 342,
      "normalized": false
    },
    {
      "bufferView": 5,
      "byteOffset": 0,
      "type": "SCALAR",
      "componentType": 5125,
      "count": 114,
      "normalized": false
    },
    {
      "bufferView": 6,
      "byteOffset": 0,
      "type": "SCALAR",
      "componentType": 5125,
      "count": 327,
      "normalized": false
    }
  ],
  "materials": [
    {
      "name": "metal",
      "pbrMetallicRoughness": {
        "baseColorFactor": [
          0.843137264,
          0.870588243,
          0.9098039,
          1
        ],
        "metallicFactor": 1,
        "roughnessFactor": 1
      },
      "doubleSided": false,
      "alphaMode": "OPAQUE"
    },
    {
      "name": "metalDark",
      "pbrMetallicRoughness": {
        "baseColorFactor": [
          0.6750623,
          0.7100219,
          0.7735849,
          1
        ],
        "metallicFactor": 1,
        "roughnessFactor": 1
      },
      "doubleSided": false,
      "alphaMode": "OPAQUE"
    },
    {
      "name": "dark",
      "pbrMetallicRoughness": {
        "baseColorFactor": [
          0.274509817,
          0.298039228,
          0.34117648,
          1
        ],
        "metallicFactor": 1,
        "roughnessFactor": 1
      },
      "doubleSided": false,
      "alphaMode": "OPAQUE"
    },
    {
      "name": "metalRed",
      "pbrMetallicRoughness": {
        "baseColorFactor": [
          1,
          0.628524244,
          0.2028302,
          1
        ],
        "metallicFactor": 1,
        "roughnessFactor": 1
      },
      "doubleSided": false,
      "alphaMode": "OPAQUE"
    }
  ],
  "meshes": [
    {
      "name": "Mesh craft_speederD",
      "primitives": [
        {
          "mode": 4,
          "indices": 3,
          "attributes": {
            "POSITION": 0,
            "NORMAL": 1,
            "TEXCOORD_0": 2
          },
          "material": 0
        },
        {
          "mode": 4,
          "indices": 4,
          "attributes": {
            "POSITION": 0,
            "NORMAL": 1,
            "TEXCOORD_0": 2
          },
          "material": 1
        },
        {
          "mode": 4,
          "indices": 5,
          "attributes": {
            "POSITION": 0,
            "NORMAL": 1,
            "TEXCOORD_0": 2
          },
          "material": 2
        },
        {
          "mode": 4,
          "indices": 6,
          "attributes": {
            "POSITION": 0,
            "NORMAL": 1,
            "TEXCOORD_0": 2
          },
          "material": 3
        }
      ]
    }
  ],
  "nodes": [
    {
      "children": [
        1
      ],
      "name": "tmpParent",
      "translation": [
        0,
        0,
        0
      ],
      "rotation": [
        0,
        0,
        0,
        1
      ],
      "scale": [
        1,
        1,
        1
      ]
    },
    {
      "name": "craft_speederD",
      "translation": [
        0,
        0,
        0
      ],
      "rotation": [
        0,
        0,
        0,
        1
      ],
      "scale": [
        1,
        1,
        1
      ],
      "mesh": 0
    }
  ],
  "scenes": [
    {
      "nodes": [
        1
      ]
    }
  ],
  "scene": 0
}